<svg width="20" height="21" viewBox="0 0 20 21" fill="none" xmlns="http://www.w3.org/2000/svg">
<path d="M7.42467 17.2802C7.26634 17.2802 7.10801 17.2219 6.98301 17.0969C6.74134 16.8552 6.74134 16.4552 6.98301 16.2136L12.4163 10.7802C12.8163 10.3802 12.8163 9.73022 12.4163 9.33022L6.98301 3.89689C6.74134 3.65522 6.74134 3.25522 6.98301 3.01356C7.22467 2.77189 7.62467 2.77189 7.86634 3.01356L13.2997 8.44689C13.7247 8.87189 13.9663 9.44689 13.9663 10.0552C13.9663 10.6636 13.733 11.2386 13.2997 11.6636L7.86634 17.0969C7.74134 17.2136 7.58301 17.2802 7.42467 17.2802Z" fill="#ADADAD"/>
</svg>
