<svg width="20" height="21" viewBox="0 0 20 21" fill="none" xmlns="http://www.w3.org/2000/svg">
<path d="M7.42467 17.7796C7.26634 17.7796 7.10801 17.7212 6.98301 17.5962C6.74134 17.3546 6.74134 16.9546 6.98301 16.7129L12.4163 11.2796C12.8163 10.8796 12.8163 10.2296 12.4163 9.82958L6.98301 4.39625C6.74134 4.15458 6.74134 3.75458 6.98301 3.51292C7.22467 3.27125 7.62467 3.27125 7.86634 3.51292L13.2997 8.94625C13.7247 9.37125 13.9663 9.94625 13.9663 10.5546C13.9663 11.1629 13.733 11.7379 13.2997 12.1629L7.86634 17.5962C7.74134 17.7129 7.58301 17.7796 7.42467 17.7796Z" fill="#3D8361"/>
</svg>
