<svg width="496" height="501" viewBox="0 0 496 501" fill="none" xmlns="http://www.w3.org/2000/svg">
<path fill-rule="evenodd" clip-rule="evenodd" d="M495.705 178.705L495.792 181.732L495.862 184.763L495.917 187.798L495.958 190.837L495.985 193.881L495.999 196.931L496 199.989L495.99 203.053L495.968 206.127L495.934 209.209L495.89 212.302L495.836 215.406L495.77 218.522L495.694 221.651L495.606 224.793L495.508 227.951L495.398 231.125L495.276 234.315L495.142 237.522L494.994 240.748L494.833 243.993L494.656 247.258L494.465 250.543L494.256 253.85L494.03 257.178L493.784 260.529L493.519 263.903L493.232 267.3L492.922 270.72L492.587 274.165L492.226 277.633L491.838 281.126L491.42 284.642L490.972 288.183L490.491 291.748L489.976 295.337L489.425 298.949L488.836 302.584L488.208 306.242L487.539 309.922L486.826 313.624L486.069 317.346L485.266 321.089L484.415 324.851L483.514 328.631L482.561 332.428L481.555 336.242L480.494 340.07L479.376 343.911L478.199 347.764L476.961 351.628L475.662 355.499L474.298 359.377L472.868 363.259L471.371 367.143L469.806 371.028L468.169 374.909L466.461 378.786L464.68 382.656L462.824 386.516L460.892 390.363L458.883 394.195L456.796 398.008L454.63 401.8L452.385 405.568L450.059 409.308L447.653 413.018L445.165 416.695L442.595 420.335L439.944 423.935L437.21 427.492L434.395 431.003L431.498 434.464L428.519 437.871L425.459 441.222L422.319 444.513L419.098 447.74L415.799 450.9L412.421 453.99L408.966 457.006L405.435 459.945L401.83 462.803L398.152 465.578L394.402 468.266L390.583 470.864L386.697 473.369L382.746 475.779L378.731 478.091L374.656 480.302L370.523 482.41L366.335 484.412L362.093 486.307L357.802 488.093L353.464 489.768L349.081 491.33L344.658 492.779L340.196 494.112L335.7 495.328L331.172 496.428L326.617 497.41L322.036 498.274L317.433 499.019L312.812 499.645L308.175 500.152L303.527 500.541L298.87 500.812L294.208 500.965L289.543 501L284.88 500.919L280.22 500.722L275.568 500.41L270.925 499.985L266.296 499.447L261.682 498.798L257.088 498.039L252.514 497.171L247.966 496.196L243.443 495.116L238.951 493.932L234.49 492.648L230.063 491.264L225.672 489.783L221.32 488.208L217.007 486.541L212.737 484.785L208.511 482.943L204.33 481.017L200.195 479.01L196.108 476.925L192.071 474.765L188.083 472.533L184.146 470.232L180.261 467.865L176.428 465.435L172.648 462.945L168.92 460.398L165.245 457.797L161.624 455.144L158.055 452.444L154.54 449.697L151.076 446.908L147.666 444.078L144.306 441.211L140.998 438.308L137.741 435.372L134.533 432.406L131.374 429.412L128.262 426.392L125.198 423.348L122.179 420.283L119.204 417.197L116.273 414.093L113.384 410.972L110.536 407.837L107.728 404.687L104.958 401.525L102.225 398.351L99.5282 395.167L96.8661 391.973L94.2377 388.77L91.6417 385.559L89.0772 382.339L86.5431 379.112L84.0386 375.877L81.5627 372.634L79.1148 369.384L76.694 366.125L74.2999 362.859L71.9319 359.584L69.5897 356.301L67.2728 353.008L64.9812 349.705L62.7147 346.392L60.4732 343.067L58.257 339.731L56.0661 336.382L53.9009 333.02L51.7617 329.644L49.649 326.253L47.5632 322.846L45.5051 319.424L43.4752 315.984L41.4743 312.527L39.5032 309.051L37.5628 305.557L35.6538 302.043L33.7772 298.51L31.934 294.956L30.1251 291.381L28.3518 287.785L26.6152 284.167L24.9167 280.528L23.2577 276.866L21.6398 273.182L20.0645 269.474L18.5335 265.744L17.0485 261.991L15.6115 258.215L14.2242 254.416L12.8885 250.595L11.6066 246.751L10.3803 242.885L9.21174 238.997L8.10298 235.088L7.0561 231.159L6.0732 227.21L5.15637 223.242L4.30767 219.257L3.52916 215.254L2.82287 211.236L2.19079 207.204L1.63485 203.158L1.15692 199.102L0.758826 195.035L0.442331 190.96L0.209193 186.879L0.0611699 182.793L0 178.705L0.0273883 174.616L0.144993 170.529L0.354412 166.446L0.657167 162.369L1.05469 158.301L1.54833 154.244L2.13928 150.201L2.82866 146.174L3.61741 142.167L4.50635 138.182L5.49614 134.221L6.58726 130.289L7.78003 126.387L9.07459 122.519L10.4709 118.688L11.9687 114.896L13.5676 111.147L15.267 107.443L17.066 103.788L18.9637 100.184L20.9587 96.6342L23.0499 93.1412L25.2354 89.7076L27.5136 86.3361L29.8826 83.0292L32.3402 79.7893L34.8841 76.6187L37.5119 73.5195L40.221 70.4938L43.0087 67.5435L45.8722 64.6704L48.8085 61.8762L51.8145 59.1624L54.8871 56.5303L58.0232 53.9811L61.2193 51.516L64.4721 49.1359L67.7784 46.8416L71.1347 44.6337L74.5376 42.5127L77.9837 40.4792L81.4697 38.5332L84.992 36.6751L88.5473 34.9046L92.132 33.2216L95.7427 31.6256L99.3757 30.116L103.028 28.6921L106.695 27.3528L110.374 26.0971L114.061 24.9236L117.753 23.8308L121.446 22.817L125.137 21.8805L128.823 21.0192L132.501 20.2311L136.168 19.5139L139.82 18.8653L143.455 18.2826L147.07 17.7634L150.662 17.3048L154.23 16.9042L157.77 16.5586L161.281 16.2651L164.761 16.0206L168.208 15.8222L171.621 15.6668L174.997 15.5514L178.336 15.4727L181.637 15.4277L184.898 15.4132L188.119 15.426L191.299 15.4628L194.437 15.5201L197.534 15.5948L200.588 15.6835L203.6 15.7829L206.57 15.8897L209.498 16.0008L212.385 16.1129L215.231 16.2231L218.037 16.3284L220.804 16.4259L223.533 16.5129L226.225 16.5869L228.882 16.6454L231.506 16.6862L234.097 16.7072L236.658 16.7066L239.19 16.6825L241.696 16.6336L244.178 16.5585L246.638 16.4562L249.078 16.3258L251.501 16.1666L253.908 15.9783L256.302 15.7606L258.686 15.5136L261.062 15.2374L263.433 14.9325L265.799 14.5995L268.165 14.2393L270.532 13.8529L272.903 13.4415L275.279 13.0064L277.663 12.5492L280.056 12.0716L282.461 11.5754L284.88 11.0625L287.313 10.535L289.763 9.99491L292.231 9.44455L294.719 8.88616L297.228 8.32205L299.758 7.75459L302.311 7.18624L304.888 6.61957L307.489 6.05725L310.116 5.50205L312.767 4.95682L315.445 4.42446L318.149 3.90795L320.879 3.41027L323.634 2.93447L326.415 2.4836L329.22 2.06069L332.05 1.6688L334.904 1.31092L337.78 0.990025L340.678 0.709045L343.596 0.470835L346.533 0.278178L349.487 0.133772L352.457 0.0402151L355.441 0L358.438 0.0155L361.444 0.0889616L364.46 0.222496L367.481 0.418071L370.506 0.677503L373.533 1.00245L376.56 1.39443L379.584 1.8548L382.603 2.38481L385.614 2.98558L388.615 3.65807L391.603 4.40311L394.577 5.22138L397.532 6.1134L400.468 7.07951L403.382 8.11993L406.27 9.23468L409.131 10.4237L411.962 11.6866L414.761 13.0229L417.526 14.4322L420.254 15.9136L422.944 17.4663L425.594 19.0891L428.201 20.781L430.764 22.5406L433.282 24.3665L435.752 26.2572L438.174 28.211L440.546 30.2262L442.867 32.301L445.135 34.4335L447.351 36.6217L449.513 38.8637L451.621 41.1573L453.674 43.5005L455.672 45.8913L457.614 48.3274L459.501 50.8067L461.332 53.3272L463.107 55.8868L464.827 58.4833L466.492 61.1147L468.102 63.7791L469.657 66.4744L471.159 69.1989L472.606 71.9506L474.001 74.7278L475.343 77.5288L476.633 80.3519L477.872 83.1957L479.059 86.0586L480.197 88.9392L481.285 91.8362L482.323 94.7482L483.314 97.6739L484.257 100.612L485.154 103.562L486.004 106.521L486.811 109.49L487.573 112.466L488.293 115.45L488.972 118.44L489.61 121.435L490.209 124.434L490.771 127.437L491.295 130.443L491.784 133.452L492.239 136.463L492.661 139.475L493.051 142.488L493.411 145.502L493.742 148.517L494.044 151.533L494.32 154.549L494.571 157.565L494.797 160.582L495 163.599L495.181 166.617L495.341 169.637L495.481 172.658L495.602 175.68L495.705 178.705Z" fill="#E0F1E9"/>
</svg>
