<svg width="1440" height="667" viewBox="0 0 1440 667" fill="none" xmlns="http://www.w3.org/2000/svg">
<path fill-rule="evenodd" clip-rule="evenodd" d="M1275.83 1014.11L1270.62 1020.19L1265.23 1026.11L1259.67 1031.88L1253.94 1037.47L1248.05 1042.9L1242.01 1048.16L1235.84 1053.26L1229.53 1058.19L1223.1 1062.97L1216.58 1067.6L1209.96 1072.1L1203.26 1076.48L1196.5 1080.74L1189.69 1084.92L1182.83 1089.02L1175.95 1093.06L1169.05 1097.07L1162.14 1101.06L1155.23 1105.05L1148.33 1109.08L1141.44 1113.15L1134.57 1117.29L1127.71 1121.52L1120.88 1125.87L1114.06 1130.34L1107.25 1134.97L1100.46 1139.76L1093.68 1144.73L1086.89 1149.89L1080.09 1155.25L1073.26 1160.83L1066.41 1166.62L1059.51 1172.62L1052.55 1178.83L1045.52 1185.26L1038.4 1191.89L1031.19 1198.71L1023.86 1205.71L1016.4 1212.88L1008.81 1220.21L1001.06 1227.68L993.149 1235.27L985.064 1242.95L976.796 1250.71L968.335 1258.53L959.674 1266.37L950.807 1274.22L941.728 1282.03L932.435 1289.8L922.925 1297.48L913.197 1305.04L903.254 1312.46L893.097 1319.7L882.732 1326.74L872.164 1333.54L861.4 1340.08L850.451 1346.32L839.327 1352.24L828.039 1357.81L816.601 1363L805.028 1367.79L793.336 1372.15L781.541 1376.07L769.662 1379.53L757.717 1382.5L745.725 1384.98L733.707 1386.94L721.68 1388.38L709.667 1389.3L697.687 1389.67L685.76 1389.51L673.905 1388.81L662.142 1387.58L650.489 1385.81L638.963 1383.51L627.58 1380.7L616.356 1377.38L605.303 1373.58L594.434 1369.31L583.756 1364.58L573.279 1359.43L563.008 1353.88L552.946 1347.96L543.094 1341.68L533.454 1335.08L524.021 1328.19L514.792 1321.03L505.76 1313.65L496.917 1306.05L488.253 1298.28L479.755 1290.37L471.413 1282.33L463.21 1274.2L455.132 1265.99L447.162 1257.74L439.284 1249.47L431.481 1241.19L423.734 1232.92L416.027 1224.67L408.343 1216.47L400.665 1208.31L392.979 1200.21L385.269 1192.17L377.524 1184.19L369.732 1176.28L361.884 1168.42L353.969 1160.63L345.98 1152.89L337.909 1145.2L329.749 1137.55L321.497 1129.94L313.148 1122.35L304.699 1114.78L296.149 1107.22L287.499 1099.65L278.748 1092.07L269.901 1084.46L260.96 1076.82L251.932 1069.12L242.822 1061.36L233.639 1053.52L224.39 1045.6L215.087 1037.57L205.74 1029.43L196.362 1021.17L186.965 1012.77L177.564 1004.22L168.173 995.521L158.808 986.654L149.485 977.614L140.221 968.391L131.034 958.98L121.94 949.374L112.957 939.568L104.103 929.558L95.3975 919.34L86.8573 908.912L78.5007 898.274L70.3454 887.424L62.4091 876.364L54.709 865.095L47.2618 853.62L40.0837 841.943L33.1906 830.069L26.5975 818.001L20.3186 805.748L14.366 793.316L8.75122 780.714L3.48398 767.949L-1.42759 755.032L-5.97665 741.972L-10.1575 728.779L-13.966 715.464L-17.3989 702.038L-20.454 688.511L-23.1306 674.894L-25.4282 661.199L-27.3477 647.436L-28.8904 633.615L-30.0582 619.748L-30.8536 605.845L-31.2794 591.916L-31.3386 577.972L-31.0345 564.022L-30.3703 550.075L-29.3492 536.142L-27.9744 522.232L-26.2487 508.354L-24.1748 494.518L-21.7549 480.733L-18.9906 467.007L-15.8836 453.352L-12.4344 439.775L-8.6435 426.287L-4.51063 412.898L-0.0352657 399.617L4.78261 386.456L9.94285 373.425L15.4449 360.534L21.2882 347.794L27.4712 335.216L33.9924 322.811L40.8495 310.588L48.04 298.56L55.5606 286.736L63.4073 275.128L71.576 263.744L80.0613 252.597L88.8576 241.695L97.9586 231.047L107.357 220.665L117.045 210.555L127.015 200.727L137.256 191.188L147.76 181.945L158.516 173.006L169.513 164.376L180.739 156.06L192.182 148.064L203.828 140.39L215.666 133.042L227.681 126.022L239.859 119.331L252.186 112.97L264.647 106.939L277.228 101.235L289.913 95.8577L302.687 90.8028L315.537 86.0669L328.446 81.6451L341.4 77.5321L354.385 73.7214L367.386 70.2061L380.39 66.9784L393.383 64.03L406.353 61.352L419.286 58.9348L432.172 56.7685L444.998 54.8427L457.755 53.1465L470.432 51.6689L483.02 50.3988L495.51 49.3247L507.897 48.4351L520.171 47.7186L532.328 47.1638L544.362 46.7593L556.268 46.4939L568.043 46.3564L579.684 46.3361L591.187 46.4221L602.552 46.6039L613.777 46.8712L624.862 47.2136L635.806 47.6213L646.609 48.084L657.273 48.5919L667.799 49.1351L678.189 49.7033L688.444 50.2866L698.566 50.8744L708.559 51.4559L718.426 52.02L728.169 52.5549L737.793 53.0483L747.302 53.4874L756.7 53.8597L765.993 54.1536L775.188 54.3586L784.292 54.4651L793.311 54.4644L802.255 54.3491L811.132 54.113L819.95 53.7509L828.721 53.2587L837.452 52.6339L846.154 51.8747L854.837 50.9809L863.511 49.9535L872.186 48.7944L880.872 47.507L889.577 46.0958L898.313 44.5664L907.087 42.9255L915.908 41.1808L924.785 39.3412L933.725 37.4163L942.735 35.4168L951.822 33.3541L960.991 31.2406L970.248 29.0891L979.597 26.9131L989.041 24.7269L998.584 22.5449L1008.23 20.3822L1017.97 18.2539L1027.82 16.1756L1037.76 14.1629L1047.81 12.2315L1057.95 10.397L1068.19 8.67496L1078.52 7.08076L1088.93 5.62951L1099.43 4.33599L1109.99 3.21452L1120.63 2.27906L1131.32 1.54291L1142.07 1.01848L1152.86 0.71736L1163.68 0.650019L1174.53 0.82618L1185.39 1.25448L1196.26 1.94267L1207.12 2.8975L1217.98 4.12482L1228.8 5.62964L1239.6 7.41614L1250.35 9.48767L1261.05 11.8468L1271.68 14.4954L1282.25 17.4348L1292.72 20.6656L1303.11 24.1879L1313.39 28.0015L1323.57 32.1055L1333.61 36.4987L1343.53 41.1799L1353.31 46.1474L1362.93 51.3991L1372.39 56.9332L1381.68 62.7476L1390.79 68.84L1399.7 75.2081L1408.41 81.8497L1416.9 88.7625L1425.16 95.9442L1433.18 103.392L1440.94 111.103L1448.44 119.073L1455.66 127.298L1462.6 135.77L1469.23 144.484L1475.56 153.432L1481.57 162.607L1487.25 171.999L1492.6 181.598L1497.6 191.395L1502.26 201.379L1506.57 211.537L1510.52 221.858L1514.11 232.33L1517.34 242.939L1520.21 253.672L1522.71 264.516L1524.86 275.456L1526.64 286.478L1528.07 297.569L1529.14 308.713L1529.87 319.897L1530.26 331.107L1530.31 342.328L1530.04 353.547L1529.46 364.751L1528.57 375.926L1527.39 387.06L1525.93 398.141L1524.2 409.157L1522.22 420.098L1519.99 430.953L1517.54 441.712L1514.88 452.367L1512.02 462.91L1508.98 473.333L1505.78 483.631L1502.42 493.797L1498.94 503.827L1495.33 513.718L1491.63 523.465L1487.84 533.068L1483.97 542.525L1480.05 551.836L1476.08 561L1472.08 570.021L1468.05 578.898L1464.02 587.635L1459.97 596.234L1455.94 604.699L1451.92 613.034L1447.92 621.242L1443.94 629.329L1440.01 637.299L1436.11 645.157L1432.26 652.908L1428.45 660.559L1424.7 668.114L1421.01 675.579L1417.38 682.961L1413.8 690.264L1410.3 697.496L1406.85 704.662L1403.48 711.767L1400.17 718.82L1396.94 725.825L1393.78 732.79L1390.69 739.721L1387.68 746.625L1384.75 753.508L1381.91 760.379L1379.14 767.244L1376.46 774.11L1373.85 780.983L1371.32 787.871L1368.87 794.777L1366.48 801.708L1364.16 808.668L1361.88 815.661L1359.66 822.689L1357.47 829.756L1355.3 836.862L1353.15 844.008L1351 851.193L1348.85 858.417L1346.68 865.677L1344.47 872.969L1342.21 880.29L1339.9 887.634L1337.51 894.996L1335.04 902.368L1332.47 909.743L1329.79 917.113L1326.99 924.468L1324.05 931.8L1320.98 939.097L1317.75 946.35L1314.37 953.549L1310.81 960.681L1307.08 967.737L1303.18 974.705L1299.09 981.575L1294.81 988.336L1290.35 994.979L1285.69 1001.49L1280.85 1007.87L1275.83 1014.11Z" fill="#E7F5EF"/>
</svg>
