<svg width="130" height="591" viewBox="0 0 130 591" fill="none" xmlns="http://www.w3.org/2000/svg">
<path fill-rule="evenodd" clip-rule="evenodd" d="M114.312 468.506L112.661 472.756L110.92 476.971L109.088 481.146L107.166 485.281L105.152 489.371L103.047 493.414L100.851 497.407L98.5638 501.348L96.1854 505.233L93.7163 509.061L91.1569 512.827L88.5075 516.529L85.7689 520.165L82.9418 523.732L80.0271 527.228L77.0257 530.648L73.9389 533.992L70.7678 537.257L67.5139 540.44L64.1785 543.539L60.7634 546.552L57.2702 549.476L53.701 552.31L50.0575 555.052L46.3419 557.7L42.5565 560.252L38.7033 562.707L34.7848 565.063L30.8035 567.319L26.7621 569.474L22.6629 571.526L18.5088 573.475L14.3024 575.321L10.0467 577.061L5.74444 578.697L1.3986 580.227L-2.98792 581.651L-7.41216 582.969L-11.8711 584.181L-16.3617 585.288L-20.8811 586.289L-25.4262 587.185L-29.994 587.976L-34.5815 588.664L-39.1857 589.248L-43.8038 589.73L-48.4326 590.11L-53.0697 590.39L-57.7119 590.57L-62.3565 590.653L-67.0009 590.638L-71.6423 590.527L-76.2781 590.322L-80.9058 590.025L-85.5226 589.636L-90.1262 589.159L-94.7139 588.594L-99.2835 587.945L-103.832 587.213L-108.359 586.4L-112.86 585.508L-117.334 584.542L-121.778 583.502L-126.192 582.391L-130.572 581.213L-134.918 579.97L-139.227 578.665L-143.498 577.3L-147.73 575.88L-151.92 574.406L-156.069 572.882L-160.174 571.311L-164.235 569.696L-168.251 568.04L-172.221 566.346L-176.144 564.618L-180.02 562.857L-183.848 561.069L-187.628 559.255L-191.36 557.418L-195.044 555.561L-198.679 553.688L-202.267 551.802L-205.806 549.904L-209.298 547.998L-212.742 546.086L-216.14 544.172L-219.491 542.257L-222.798 540.344L-226.059 538.435L-229.277 536.532L-232.453 534.638L-235.586 532.754L-238.679 530.883L-241.732 529.025L-244.747 527.183L-247.725 525.359L-250.666 523.553L-253.574 521.766L-256.448 520L-259.29 518.256L-262.102 516.533L-264.885 514.832L-267.639 513.153L-270.368 511.497L-273.07 509.863L-275.749 508.25L-278.405 506.658L-281.039 505.087L-283.653 503.535L-286.247 502.002L-288.822 500.487L-291.379 498.987L-293.919 497.503L-296.442 496.033L-298.95 494.574L-301.443 493.126L-303.92 491.688L-306.383 490.256L-308.832 488.83L-311.267 487.408L-313.689 485.988L-316.096 484.568L-318.489 483.147L-320.868 481.722L-323.233 480.293L-325.583 478.857L-327.917 477.412L-330.237 475.957L-332.54 474.491L-334.827 473.012L-337.096 471.518L-339.348 470.008L-341.581 468.481L-343.794 466.935L-345.988 465.37L-348.161 463.784L-350.312 462.178L-352.441 460.549L-354.547 458.897L-356.629 457.222L-358.686 455.524L-360.718 453.801L-362.725 452.055L-364.705 450.285L-366.658 448.491L-368.584 446.673L-370.482 444.833L-372.352 442.969L-374.194 441.084L-376.007 439.177L-377.793 437.25L-379.549 435.303L-381.277 433.336L-382.977 431.352L-384.648 429.349L-386.291 427.33L-387.906 425.295L-389.494 423.246L-391.053 421.182L-392.586 419.105L-394.093 417.017L-395.573 414.917L-397.027 412.807L-398.457 410.687L-399.862 408.56L-401.243 406.424L-402.602 404.282L-403.938 402.135L-405.252 399.982L-406.546 397.825L-407.82 395.664L-409.074 393.501L-410.311 391.336L-411.53 389.169L-412.732 387.001L-413.919 384.833L-415.091 382.665L-416.249 380.497L-417.394 378.331L-418.527 376.165L-419.648 374.001L-420.759 371.839L-421.86 369.678L-422.953 367.52L-424.037 365.363L-425.113 363.209L-426.183 361.056L-427.246 358.906L-428.304 356.757L-429.357 354.61L-430.405 352.464L-431.448 350.319L-432.488 348.175L-433.525 346.031L-434.558 343.887L-435.589 341.743L-436.617 339.599L-437.643 337.453L-438.666 335.306L-439.688 333.157L-440.708 331.006L-441.726 328.852L-442.743 326.694L-443.758 324.533L-444.772 322.368L-445.784 320.198L-446.795 318.022L-447.804 315.841L-448.811 313.654L-449.817 311.46L-450.82 309.258L-451.821 307.049L-452.82 304.832L-453.815 302.606L-454.807 300.37L-455.796 298.125L-456.78 295.87L-457.759 293.604L-458.733 291.326L-459.701 289.037L-460.663 286.736L-461.618 284.423L-462.564 282.097L-463.503 279.758L-464.432 277.405L-465.35 275.038L-466.258 272.657L-467.153 270.262L-468.036 267.852L-468.905 265.427L-469.759 262.987L-470.597 260.532L-471.419 258.062L-472.222 255.577L-473.006 253.076L-473.769 250.561L-474.511 248.029L-475.23 245.483L-475.925 242.922L-476.595 240.347L-477.238 237.756L-477.853 235.152L-478.439 232.534L-478.994 229.903L-479.517 227.258L-480.006 224.602L-480.46 221.933L-480.878 219.254L-481.259 216.563L-481.601 213.864L-481.902 211.155L-482.163 208.437L-482.381 205.713L-482.555 202.982L-482.686 200.246L-482.77 197.505L-482.809 194.76L-482.8 192.013L-482.743 189.265L-482.638 186.516L-482.483 183.767L-482.278 181.021L-482.022 178.277L-481.716 175.538L-481.358 172.804L-480.948 170.076L-480.487 167.355L-479.973 164.643L-479.408 161.941L-478.79 159.25L-478.12 156.57L-477.398 153.904L-476.624 151.252L-475.799 148.616L-474.922 145.995L-473.995 143.392L-473.017 140.807L-471.99 138.241L-470.913 135.695L-469.788 133.17L-468.615 130.667L-467.396 128.186L-466.13 125.729L-464.819 123.295L-463.464 120.886L-462.066 118.502L-460.625 116.144L-459.144 113.812L-457.622 111.506L-456.062 109.227L-454.463 106.975L-452.829 104.75L-451.159 102.553L-449.454 100.384L-447.716 98.2432L-445.946 96.1305L-444.145 94.0462L-442.313 91.9907L-440.452 89.964L-438.562 87.9663L-436.645 85.9977L-434.701 84.0585L-432.731 82.1487L-430.735 80.2684L-428.716 78.4176L-426.673 76.5966L-424.607 74.8052L-422.519 73.0436L-420.41 71.3117L-418.28 69.6095L-416.131 67.937L-413.964 66.2942L-411.778 64.6809L-409.574 63.0971L-407.354 61.5425L-405.118 60.0172L-402.867 58.5208L-400.601 57.0532L-398.321 55.6142L-396.029 54.2034L-393.723 52.8207L-391.406 51.4657L-389.078 50.1381L-386.74 48.8375L-384.391 47.5636L-382.034 46.316L-379.668 45.0941L-377.293 43.8977L-374.912 42.7262L-372.523 41.5791L-370.128 40.456L-367.727 39.3563L-365.321 38.2794L-362.91 37.2249L-360.495 36.1922L-358.075 35.1807L-355.652 34.1897L-353.225 33.2189L-350.795 32.2675L-348.363 31.3349L-345.928 30.4206L-343.491 29.524L-341.053 28.6445L-338.612 27.7816L-336.17 26.9346L-333.726 26.1031L-331.281 25.2866L-328.835 24.4846L-326.387 23.6966L-323.938 22.9222L-321.487 22.1611L-319.035 21.4129L-316.582 20.6771L-314.127 19.9536L-311.67 19.2421L-309.211 18.5423L-306.751 17.854L-304.288 17.1771L-301.822 16.5114L-299.354 15.8568L-296.884 15.2134L-294.41 14.5809L-291.933 13.9596L-289.452 13.3493L-286.968 12.7501L-284.479 12.1622L-281.987 11.5856L-279.49 11.0205L-276.988 10.467L-274.482 9.92544L-271.97 9.39589L-269.453 8.87861L-266.93 8.37384L-264.402 7.88184L-261.867 7.40285L-259.327 6.93716L-256.78 6.48503L-254.227 6.04676L-251.667 5.6226L-249.1 5.21286L-246.526 4.81778L-243.946 4.43765L-241.358 4.07272L-238.763 3.72324L-236.161 3.38945L-233.551 3.07157L-230.934 2.76981L-228.309 2.48434L-225.676 2.21535L-223.036 1.96296L-220.388 1.72727L-217.731 1.50836L-215.067 1.30629L-212.395 1.12102L-209.715 0.952588L-207.026 0.800911L-204.329 0.665898L-201.623 0.547462L-198.909 0.445482L-196.185 0.359754L-193.453 0.290123L-190.711 0.236381L-187.96 0.198314L-185.199 0.175686L-182.429 0.168265L-179.648 0.175781L-176.856 0.19801L-174.053 0.234672L-171.24 0.285551L-168.415 0.350389L-165.577 0.428961L-162.728 0.521082L-159.866 0.626553L-156.99 0.745225L-154.101 0.876978L-151.198 1.02172L-148.28 1.17939L-145.348 1.35002L-142.4 1.53361L-139.436 1.7303L-136.457 1.94022L-133.46 2.1636L-130.447 2.40069L-127.416 2.65187L-124.367 2.91752L-121.3 3.19815L-118.216 3.4943L-115.112 3.80664L-111.99 4.13585L-108.849 4.48274L-105.69 4.84817L-102.511 5.23309L-99.3142 5.63854L-96.0986 6.06563L-92.8647 6.51553L-89.6129 6.98953L-86.3437 7.48893L-83.0576 8.01518L-79.7553 8.56972L-76.4375 9.15409L-73.1051 9.76985L-69.759 10.4185L-66.4002 11.1017L-63.0298 11.8209L-59.649 12.5777L-56.259 13.3736L-52.8611 14.2101L-49.4567 15.0888L-46.0474 16.011L-42.6346 16.9783L-39.22 17.992L-35.8053 19.0535L-32.3922 20.1641L-28.9825 21.3252L-25.5781 22.5378L-22.1809 23.8032L-18.7929 25.1224L-15.4161 26.4965L-12.0526 27.9264L-8.70438 29.4131L-5.37367 30.9573L-2.06256 32.5598L1.22675 34.2212L4.49208 35.942L7.73124 37.7228L10.942 39.5639L14.1223 41.4656L17.2698 43.4281L20.3824 45.4514L23.458 47.5356L26.4945 49.6807L29.4896 51.8863L32.4416 54.1522L35.3482 56.4781L38.2076 58.8633L41.0179 61.3074L43.7774 63.8097L46.4841 66.3694L49.1365 68.9856L51.733 71.6575L54.272 74.3839L56.7523 77.1639L59.1724 79.9961L61.5311 82.8794L63.8274 85.8124L66.0603 88.7938L68.2289 91.822L70.3327 94.8954L72.3712 98.0123L74.3444 101.171L76.2522 104.37L78.0947 107.607L79.8723 110.881L81.5857 114.188L83.2354 117.529L84.8225 120.9L86.348 124.3L87.8131 127.727L89.2192 131.179L90.5678 134.654L91.8606 138.151L93.0994 141.668L94.2861 145.203L95.4226 148.755L96.5112 152.323L97.554 155.904L98.5532 159.498L99.5112 163.103L100.43 166.719L101.313 170.344L102.162 173.977L102.98 177.619L103.768 181.267L104.53 184.922L105.268 188.584L105.984 192.251L106.68 195.924L107.36 199.602L108.024 203.286L108.676 206.976L109.317 210.672L109.95 214.374L110.575 218.083L111.195 221.8L111.812 225.524L112.425 229.257L113.038 232.999L113.65 236.751L114.263 240.514L114.877 244.289L115.493 248.076L116.111 251.877L116.732 255.693L117.353 259.524L117.977 263.372L118.601 267.237L119.225 271.121L119.848 275.024L120.469 278.946L121.087 282.89L121.7 286.854L122.306 290.841L122.904 294.85L123.493 298.882L124.07 302.938L124.633 307.017L125.181 311.121L125.711 315.249L126.221 319.4L126.709 323.576L127.172 327.776L127.607 332L128.014 336.247L128.388 340.517L128.728 344.81L129.03 349.124L129.293 353.459L129.513 357.814L129.688 362.188L129.816 366.58L129.893 370.988L129.918 375.412L129.887 379.849L129.798 384.299L129.649 388.759L129.437 393.228L129.16 397.704L128.816 402.186L128.402 406.67L127.917 411.156L127.358 415.64L126.723 420.121L126.011 424.597L125.22 429.064L124.348 433.522L123.394 437.966L122.356 442.395L121.233 446.806L120.025 451.197L118.729 455.565L117.345 459.908L115.873 464.222L114.312 468.506Z" fill="#E0F1E9"/>
</svg>
