<svg width="103" height="616" viewBox="0 0 103 616" fill="none" xmlns="http://www.w3.org/2000/svg">
<path fill-rule="evenodd" clip-rule="evenodd" d="M44.9425 74.11L47.2293 70.7543L49.6019 67.4608L52.0592 64.2314L54.5997 61.0684L57.2219 57.9738L59.9241 54.9494L62.7045 51.9968L65.5613 49.1178L68.4925 46.3141L71.4963 43.5872L74.5705 40.9385L77.7132 38.3694L80.9221 35.8813L84.1951 33.4753L87.5298 31.1524L90.924 28.9138L94.3752 26.7601L97.881 24.6921L101.439 22.7106L105.046 20.8159L108.701 19.0084L112.4 17.2884L116.14 15.656L119.92 14.1112L123.736 12.654L127.586 11.2838L131.466 10.0007L135.375 8.80388L139.31 7.69285L143.268 6.66689L147.246 5.72532L151.242 4.86712L155.253 4.09132L159.277 3.39684L163.311 2.7826L167.352 2.24729L171.4 1.78963L175.45 1.4083L179.502 1.10179L183.552 0.868769L187.599 0.707723L191.64 0.617095L195.674 0.595435L199.7 0.641039L203.714 0.752508L207.716 0.928176L211.703 1.16653L215.675 1.4658L219.63 1.82443L223.565 2.24075L227.481 2.71308L231.376 3.2396L235.248 3.81864L239.096 4.44855L242.92 5.12765L246.717 5.85406L250.489 6.6263L254.232 7.44247L257.948 8.30103L261.634 9.20039L265.291 10.1388L268.917 11.1147L272.513 12.1265L276.078 13.1728L279.61 14.2521L283.111 15.3627L286.58 16.5035L290.015 17.6728L293.419 18.8696L296.789 20.0922L300.126 21.3397L303.43 22.6107L306.701 23.904L309.939 25.2185L313.144 26.5531L316.316 27.9067L319.455 29.2782L322.561 30.6668L325.635 32.0715L328.677 33.4912L331.686 34.9252L334.664 36.3726L337.61 37.8326L340.525 39.3042L343.409 40.7868L346.262 42.2797L349.086 43.7819L351.879 45.2929L354.642 46.812L357.377 48.3384L360.082 49.8716L362.76 51.4107L365.41 52.9552L368.032 54.5045L370.627 56.0579L373.196 57.6147L375.739 59.1744L378.257 60.7363L380.75 62.3L383.219 63.8645L385.664 65.4296L388.086 66.9945L390.485 68.5586L392.863 70.1214L395.219 71.6824L397.555 73.2411L399.872 74.7972L402.169 76.3502L404.447 77.8998L406.708 79.4458L408.951 80.9879L411.178 82.5259L413.389 84.0596L415.584 85.5888L417.765 87.1136L419.932 88.6337L422.086 90.1492L424.226 91.66L426.355 93.1661L428.473 94.6675L430.579 96.1644L432.675 97.6567L434.762 99.1446L436.839 100.628L438.908 102.107L440.969 103.583L443.023 105.054L445.07 106.522L447.111 107.986L449.147 109.446L451.177 110.904L453.203 112.358L455.225 113.809L457.244 115.258L459.259 116.705L461.273 118.15L463.285 119.592L465.296 121.033L467.306 122.473L469.316 123.911L471.327 125.349L473.338 126.786L475.352 128.222L477.368 129.659L479.386 131.095L481.408 132.532L483.434 133.969L485.465 135.408L487.501 136.848L489.542 138.289L491.59 139.733L493.645 141.179L495.707 142.627L497.777 144.079L499.856 145.535L501.943 146.994L504.041 148.458L506.148 149.927L508.265 151.402L510.394 152.883L512.533 154.37L514.684 155.866L516.847 157.369L519.022 158.881L521.209 160.403L523.409 161.935L525.621 163.479L527.846 165.034L530.083 166.603L532.333 168.185L534.595 169.782L536.869 171.395L539.154 173.024L541.451 174.671L543.759 176.337L546.078 178.022L548.406 179.728L550.743 181.456L553.088 183.207L555.441 184.982L557.8 186.781L560.165 188.607L562.533 190.46L564.905 192.34L567.279 194.25L569.653 196.189L572.026 198.16L574.396 200.163L576.763 202.198L579.123 204.267L581.476 206.37L583.819 208.508L586.151 210.682L588.469 212.893L590.773 215.14L593.059 217.426L595.326 219.749L597.572 222.111L599.793 224.511L601.99 226.95L604.158 229.429L606.296 231.946L608.402 234.503L610.474 237.099L612.51 239.733L614.508 242.406L616.466 245.118L618.383 247.867L620.255 250.653L622.083 253.476L623.864 256.335L625.596 259.229L627.278 262.158L628.908 265.121L630.486 268.116L632.009 271.143L633.476 274.202L634.886 277.29L636.238 280.407L637.53 283.552L638.762 286.723L639.933 289.92L641.04 293.141L642.085 296.385L643.065 299.65L643.98 302.936L644.829 306.241L645.611 309.563L646.326 312.901L646.973 316.254L647.552 319.621L648.061 322.999L648.5 326.388L648.87 329.786L649.168 333.191L649.395 336.602L649.55 340.017L649.633 343.435L649.642 346.854L649.578 350.273L649.44 353.69L649.227 357.102L648.939 360.509L648.577 363.909L648.14 367.301L647.628 370.681L647.042 374.05L646.383 377.405L645.651 380.746L644.846 384.069L643.972 387.375L643.027 390.662L642.014 393.928L640.934 397.172L639.789 400.394L638.58 403.592L637.31 406.766L635.979 409.914L634.591 413.037L633.148 416.133L631.651 419.201L630.103 422.243L628.507 425.257L626.864 428.243L625.177 431.202L623.45 434.133L621.683 437.037L619.88 439.914L618.043 442.764L616.176 445.589L614.279 448.388L612.356 451.162L610.409 453.913L608.441 456.642L606.453 459.348L604.448 462.034L602.427 464.701L600.394 467.349L598.349 469.981L596.295 472.597L594.233 475.198L592.164 477.786L590.091 480.363L588.014 482.929L585.934 485.486L583.852 488.035L581.769 490.578L579.685 493.116L577.602 495.649L575.519 498.179L573.436 500.708L571.354 503.235L569.272 505.762L567.19 508.289L565.108 510.818L563.024 513.348L560.938 515.879L558.849 518.413L556.756 520.949L554.658 523.486L552.554 526.026L550.443 528.566L548.322 531.107L546.191 533.648L544.047 536.188L541.89 538.726L539.717 541.26L537.527 543.789L535.318 546.312L533.088 548.826L530.835 551.329L528.558 553.821L526.255 556.297L523.925 558.756L521.565 561.196L519.174 563.613L516.751 566.004L514.294 568.368L511.803 570.701L509.275 573L506.71 575.263L504.107 577.485L501.465 579.664L498.783 581.797L496.062 583.882L493.301 585.914L490.499 587.891L487.658 589.811L484.776 591.671L481.856 593.468L478.896 595.2L475.898 596.865L472.864 598.461L469.793 599.986L466.688 601.439L463.549 602.818L460.379 604.123L457.179 605.353L453.951 606.508L450.697 607.588L447.418 608.592L444.117 609.52L440.795 610.373L437.455 611.151L434.098 611.854L430.727 612.485L427.342 613.042L423.947 613.528L420.544 613.944L417.133 614.291L413.718 614.571L410.299 614.786L406.879 614.937L403.46 615.027L400.042 615.058L396.628 615.033L393.219 614.953L389.817 614.821L386.422 614.641L383.036 614.414L379.661 614.145L376.296 613.835L372.943 613.488L369.603 613.107L366.276 612.695L362.963 612.255L359.664 611.79L356.379 611.305L353.108 610.801L349.851 610.281L346.609 609.75L343.381 609.209L340.165 608.663L336.963 608.113L333.773 607.562L330.594 607.014L327.426 606.471L324.268 605.934L321.118 605.407L317.975 604.891L314.839 604.389L311.707 603.901L308.579 603.431L305.453 602.978L302.327 602.544L299.201 602.13L296.072 601.737L292.94 601.365L289.802 601.015L286.658 600.686L283.505 600.378L280.343 600.091L277.17 599.825L273.985 599.577L270.786 599.348L267.573 599.135L264.344 598.939L261.099 598.756L257.835 598.586L254.554 598.428L251.253 598.28L247.931 598.139L244.589 598.005L241.225 597.876L237.84 597.749L234.432 597.623L231.001 597.495L227.548 597.363L224.071 597.225L220.572 597.079L217.05 596.922L213.506 596.751L209.94 596.564L206.353 596.358L202.744 596.131L199.116 595.879L195.47 595.601L191.805 595.293L188.124 594.952L184.428 594.577L180.718 594.163L176.996 593.708L173.263 593.211L169.522 592.667L165.774 592.075L162.022 591.432L158.266 590.737L154.51 589.986L150.755 589.178L147.004 588.311L143.259 587.384L139.521 586.394L135.794 585.341L132.079 584.223L128.378 583.039L124.693 581.79L121.027 580.473L117.38 579.088L113.757 577.635L110.158 576.113L106.587 574.521L103.045 572.86L99.5339 571.128L96.057 569.325L92.6163 567.452L89.2139 565.508L85.8523 563.493L82.5336 561.408L79.26 559.252L76.0339 557.026L72.8573 554.73L69.7324 552.365L66.6613 549.931L63.6461 547.429L60.6886 544.861L57.7909 542.226L54.9548 539.525L52.1819 536.761L49.4741 533.934L46.833 531.045L44.2599 528.096L41.7564 525.089L39.3237 522.024L36.9631 518.904L34.6755 515.729L32.4622 512.503L30.3238 509.227L28.2611 505.902L26.2749 502.53L24.3656 499.115L22.5335 495.657L20.7791 492.159L19.1025 488.622L17.5036 485.05L15.9825 481.443L14.5389 477.805L13.1726 474.137L11.8832 470.442L10.6701 466.721L9.5327 462.977L8.47035 459.212L7.48219 455.428L6.56737 451.627L5.72489 447.811L4.95365 443.983L4.25259 440.143L3.6204 436.294L3.0559 432.438L2.55774 428.577L2.12452 424.711L1.75484 420.844L1.44728 416.976L1.20016 413.11L1.01171 409.246L0.87999 405.386L0.802767 401.532L0.77769 397.685L0.802375 393.846L0.874157 390.017L0.990324 386.199L1.14811 382.393L1.34464 378.6L1.57693 374.82L1.84207 371.055L2.13712 367.305L2.45902 363.57L2.80479 359.851L3.17143 356.149L3.55616 352.463L3.95603 348.793L4.36824 345.139L4.79002 341.501L5.21886 337.879L5.65215 334.272L6.08757 330.679L6.52257 327.101L6.95521 323.535L7.38327 319.982L7.80493 316.439L8.21824 312.908L8.62163 309.385L9.01358 305.87L9.39258 302.362L9.75747 298.859L10.107 295.361L10.4402 291.865L10.7562 288.371L11.0542 284.877L11.3333 281.381L11.5933 277.883L11.8333 274.38L12.0531 270.87L12.2523 267.354L12.4311 263.828L12.5895 260.292L12.7281 256.743L12.8478 253.181L12.9497 249.605L13.0347 246.013L13.1047 242.403L13.1613 238.775L13.2065 235.128L13.2424 231.462L13.2716 227.774L13.2964 224.065L13.3197 220.335L13.3445 216.583L13.3736 212.809L13.4104 209.013L13.4581 205.195L13.5201 201.356L13.6 197.496L13.7012 193.617L13.8273 189.718L13.9821 185.801L14.1691 181.867L14.3921 177.919L14.6547 173.956L14.9604 169.981L15.3129 165.996L15.7156 162.003L16.172 158.005L16.6853 154.002L17.259 149.999L17.896 145.997L18.5992 141.999L19.3717 138.007L20.216 134.026L21.1346 130.057L22.1298 126.103L23.2038 122.169L24.3587 118.256L25.596 114.367L26.9174 110.507L28.3242 106.678L29.8176 102.882L31.3983 99.1243L33.0672 95.4066L34.8248 91.7323L36.6711 88.1041L38.6063 84.525L40.6303 80.9979L42.7426 77.5253L44.9425 74.11Z" fill="#E0F1E9"/>
</svg>
