<svg width="249" height="292" viewBox="0 0 249 292" fill="none" xmlns="http://www.w3.org/2000/svg">
<path fill-rule="evenodd" clip-rule="evenodd" d="M240.979 169.353L240.332 171.417L239.662 173.467L238.972 175.501L238.262 177.521L237.533 179.525L236.786 181.515L236.021 183.49L235.239 185.451L234.442 187.397L233.629 189.33L232.802 191.249L231.961 193.155L231.108 195.047L230.241 196.927L229.363 198.795L228.473 200.652L227.573 202.497L226.662 204.331L225.74 206.154L224.809 207.968L223.868 209.772L222.917 211.567L221.956 213.353L220.986 215.131L220.006 216.9L219.017 218.662L218.017 220.416L217.008 222.164L215.987 223.904L214.956 225.637L213.914 227.364L212.86 229.084L211.793 230.797L210.714 232.503L209.621 234.203L208.514 235.895L207.392 237.58L206.255 239.257L205.102 240.926L203.932 242.587L202.744 244.238L201.537 245.879L200.312 247.51L199.067 249.13L197.801 250.738L196.514 252.332L195.205 253.913L193.874 255.479L192.519 257.028L191.141 258.561L189.739 260.075L188.311 261.569L186.859 263.043L185.381 264.494L183.877 265.922L182.347 267.325L180.791 268.702L179.209 270.051L177.6 271.37L175.965 272.659L174.304 273.916L172.616 275.139L170.903 276.328L169.165 277.479L167.401 278.593L165.613 279.668L163.801 280.702L161.966 281.694L160.108 282.643L158.228 283.548L156.328 284.407L154.408 285.219L152.468 285.984L150.511 286.7L148.538 287.367L146.548 287.982L144.545 288.547L142.528 289.06L140.5 289.521L138.462 289.928L136.415 290.283L134.36 290.583L132.299 290.83L130.234 291.023L128.166 291.162L126.096 291.248L124.027 291.279L121.959 291.258L119.893 291.183L117.833 291.056L115.778 290.878L113.73 290.648L111.692 290.368L109.663 290.038L107.646 289.66L105.641 289.235L103.65 288.763L101.675 288.245L99.7155 287.684L97.7733 287.08L95.8495 286.434L93.9448 285.749L92.0601 285.025L90.1963 284.264L88.3541 283.467L86.5341 282.636L84.737 281.772L82.9632 280.877L81.2133 279.951L79.4877 278.998L77.7866 278.017L76.1105 277.011L74.4595 275.981L72.8337 274.928L71.2334 273.853L69.6584 272.759L68.1089 271.646L66.5847 270.516L65.0856 269.37L63.6114 268.209L62.162 267.036L60.7369 265.85L59.3358 264.654L57.9582 263.449L56.6037 262.236L55.2718 261.015L53.962 259.789L52.6736 258.557L51.4061 257.322L50.1587 256.083L48.931 254.843L47.7221 253.6L46.5315 252.357L45.3585 251.113L44.2023 249.869L43.0623 248.627L41.9379 247.385L40.8285 246.144L39.7333 244.905L38.6518 243.667L37.5835 242.432L36.5278 241.198L35.4841 239.965L34.452 238.735L33.431 237.506L32.4208 236.278L31.4209 235.052L30.4311 233.826L29.4511 232.601L28.4807 231.376L27.5198 230.15L26.5683 228.924L25.6262 227.696L24.6935 226.467L23.7703 225.236L22.8568 224.001L21.9533 222.764L21.06 221.522L20.1773 220.276L19.3057 219.024L18.4455 217.767L17.5974 216.504L16.7619 215.234L15.9396 213.957L15.1312 212.672L14.3375 211.38L13.5591 210.078L12.7968 208.768L12.0514 207.449L11.3236 206.121L10.6144 204.783L9.92445 203.435L9.25454 202.078L8.60545 200.711L7.97789 199.334L7.37258 197.948L6.79015 196.552L6.23121 195.147L5.69628 193.733L5.18584 192.311L4.70027 190.881L4.23987 189.442L3.80488 187.997L3.39551 186.544L3.01192 185.085L2.65424 183.621L2.32256 182.151L2.01692 180.676L1.73734 179.197L1.48376 177.714L1.25612 176.229L1.05427 174.74L0.878066 173.25L0.727283 171.757L0.601667 170.264L0.500926 168.771L0.42472 167.277L0.37268 165.784L0.344386 164.292L0.339398 162.801L0.357231 161.311L0.397376 159.824L0.459293 158.34L0.542418 156.858L0.646167 155.38L0.769932 153.905L0.913093 152.433L1.07502 150.965L1.25506 149.502L1.45252 148.042L1.66666 146.587L1.89668 145.136L2.14176 143.689L2.40103 142.247L2.67362 140.808L2.95862 139.373L3.25514 137.942L3.56228 136.515L3.87916 135.09L4.20491 133.668L4.53868 132.249L4.87969 130.831L5.22716 129.414L5.58038 127.998L5.93869 126.582L6.30149 125.165L6.66822 123.747L7.03843 122.328L7.41172 120.905L7.78776 119.479L8.16631 118.049L8.5472 116.615L8.93035 115.174L9.31576 113.728L9.7035 112.274L10.0937 110.813L10.4867 109.344L10.8828 107.866L11.2823 106.378L11.6858 104.88L12.0937 103.371L12.5067 101.851L12.9255 100.32L13.3508 98.7768L13.7834 97.2214L14.2241 95.6534L14.6738 94.0728L15.1335 92.4793L15.604 90.8729L16.0864 89.2534L16.5817 87.621L17.0909 85.9756L17.6151 84.3174L18.1553 82.6466L18.7126 80.9636L19.2882 79.2686L19.8832 77.5623L20.4989 75.845L21.1364 74.1176L21.7969 72.3807L22.4817 70.6352L23.1919 68.882L23.9287 67.1221L24.6934 65.3567L25.4869 63.5868L26.3105 61.8139L27.1651 60.0391L28.0518 58.2639L28.9716 56.4898L29.9254 54.7183L30.9139 52.951L31.938 51.1894L32.9985 49.4355L34.0959 47.6907L35.2307 45.9569L36.4036 44.2358L37.6148 42.5294L38.8647 40.8393L40.1536 39.1673L41.4815 37.5154L42.8484 35.8853L44.2544 34.2786L45.6992 32.697L47.1826 31.1422L48.7042 29.6156L50.2636 28.1187L51.8602 26.6528L53.4935 25.2193L55.1629 23.8195L56.8675 22.4543L58.6066 21.125L60.3794 19.8326L62.185 18.5779L64.0226 17.3617L65.8911 16.1849L67.7896 15.0482L69.7171 13.9521L71.6726 12.8973L73.6551 11.8843L75.6635 10.9133L77.6968 9.98498L79.7539 9.09949L81.8337 8.25715L83.9353 7.45818L86.0576 6.70279L88.1995 5.99111L90.3601 5.32328L92.5383 4.69938L94.7331 4.11949L96.9434 3.58366L99.1685 3.09192L101.407 2.6443L103.658 2.24082L105.922 1.88149L108.195 1.56632L110.479 1.29533L112.772 1.06854L115.073 0.885975L117.38 0.747678L119.694 0.653698L122.014 0.604098L124.337 0.598953L126.664 0.638356L128.993 0.722402L131.324 0.851175L133.656 1.02474L135.987 1.24313L138.317 1.50638L140.644 1.81448L142.969 2.1674L145.289 2.5651L147.604 3.0075L149.913 3.4945L152.216 4.02597L154.51 4.60176L156.796 5.22168L159.072 5.88552L161.337 6.59303L163.591 7.34396L165.832 8.13801L168.06 8.97484L170.275 9.85411L172.474 10.7754L174.658 11.7384L176.825 12.7427L178.974 13.7877L181.106 14.873L183.219 15.9981L185.312 17.1625L187.385 18.3656L189.438 19.607L191.468 20.8862L193.476 22.2026L195.461 23.5558L197.423 24.9455L199.359 26.3711L201.27 27.8324L203.155 29.329L205.012 30.8604L206.842 32.4262L208.642 34.0262L210.413 35.6598L212.153 37.3267L213.862 39.0265L215.538 40.7587L217.18 42.5228L218.788 44.3184L220.361 46.1449L221.898 48.0017L223.397 49.8883L224.859 51.8041L226.281 53.7484L227.664 55.7204L229.006 57.7196L230.306 59.745L231.564 61.7959L232.779 63.8713L233.95 65.9706L235.077 68.0925L236.159 70.2363L237.195 72.4008L238.184 74.5851L239.127 76.788L240.023 79.0084L240.872 81.2452L241.673 83.4971L242.426 85.7631L243.132 88.0417L243.789 90.3319L244.398 92.6322L244.96 94.9415L245.475 97.2585L245.942 99.5819L246.363 101.91L246.738 104.243L247.068 106.578L247.353 108.914L247.594 111.251L247.791 113.587L247.946 115.921L248.059 118.252L248.131 120.579L248.162 122.902L248.154 125.218L248.107 127.528L248.023 129.831L247.901 132.126L247.743 134.411L247.55 136.688L247.323 138.954L247.061 141.209L246.768 143.453L246.442 145.685L246.085 147.905L245.698 150.112L245.281 152.306L244.836 154.487L244.362 156.654L243.862 158.806L243.335 160.945L242.783 163.069L242.205 165.179L241.604 167.273L240.979 169.353Z" fill="#3D8361"/>
</svg>
