<svg width="144" height="145" viewBox="0 0 144 145" fill="none" xmlns="http://www.w3.org/2000/svg">
<path fill-rule="evenodd" clip-rule="evenodd" d="M143.914 51.7209L143.94 52.5971L143.96 53.4743L143.976 54.3526L143.988 55.2322L143.996 56.1133L144 56.9961L144 57.8809L143.997 58.7679L143.991 59.6574L143.981 60.5495L143.968 61.4446L143.952 62.343L143.933 63.2448L143.911 64.1504L143.886 65.06L143.857 65.9739L143.825 66.8924L143.79 67.8156L143.751 68.7439L143.708 69.6776L143.661 70.6167L143.61 71.5617L143.554 72.5125L143.494 73.4695L143.428 74.4329L143.357 75.4026L143.28 76.3791L143.196 77.3622L143.106 78.3522L143.009 79.3491L142.904 80.3529L142.792 81.3637L142.67 82.3815L142.54 83.4063L142.401 84.4381L142.251 85.4767L142.091 86.5221L141.92 87.5742L141.738 88.6329L141.543 89.698L141.337 90.7693L141.117 91.8467L140.884 92.9299L140.637 94.0187L140.375 95.1127L140.098 96.2118L139.806 97.3155L139.498 98.4234L139.174 99.5352L138.832 100.65L138.473 101.768L138.095 102.889L137.699 104.011L137.284 105.135L136.85 106.259L136.395 107.383L135.92 108.507L135.424 109.629L134.907 110.749L134.368 111.866L133.807 112.979L133.224 114.088L132.618 115.192L131.989 116.289L131.338 117.38L130.662 118.462L129.964 119.536L129.241 120.6L128.495 121.654L127.726 122.696L126.932 123.725L126.115 124.741L125.274 125.743L124.409 126.729L123.52 127.699L122.609 128.651L121.674 129.585L120.716 130.5L119.735 131.394L118.732 132.267L117.707 133.118L116.66 133.945L115.592 134.748L114.504 135.526L113.395 136.278L112.267 137.003L111.12 137.701L109.954 138.37L108.771 139.009L107.571 139.62L106.355 140.199L105.124 140.748L103.878 141.265L102.618 141.749L101.346 142.201L100.062 142.621L98.7666 143.006L97.4613 143.359L96.1468 143.677L94.8242 143.961L93.4942 144.211L92.1579 144.427L90.8163 144.608L89.4703 144.755L88.1208 144.867L86.7688 144.946L85.4152 144.99L84.061 145L82.707 144.977L81.3542 144.92L80.0035 144.829L78.6557 144.706L77.3117 144.551L75.9723 144.363L74.6383 144.143L73.3106 143.892L71.99 143.61L70.6771 143.297L69.3728 142.954L68.0777 142.583L66.7924 142.182L65.5177 141.754L64.2541 141.298L63.0022 140.815L61.7624 140.307L60.5354 139.774L59.3215 139.216L58.1211 138.636L56.9347 138.032L55.7625 137.407L54.6048 136.761L53.4618 136.095L52.3339 135.41L51.2211 134.707L50.1235 133.986L49.0413 133.249L47.9744 132.496L46.923 131.728L45.887 130.947L44.8663 130.152L43.8609 129.345L42.8707 128.526L41.8954 127.696L40.935 126.856L39.9893 126.006L39.0579 125.148L38.1407 124.281L37.2374 123.407L36.3477 122.526L35.4712 121.639L34.6077 120.746L33.7567 119.847L32.918 118.944L32.0911 118.037L31.2758 117.125L30.4716 116.21L29.6782 115.291L28.8953 114.37L28.1224 113.445L27.3593 112.518L26.6057 111.589L25.8611 110.657L25.1254 109.723L24.3983 108.787L23.6795 107.848L22.9688 106.907L22.266 105.964L21.5709 105.019L20.8835 104.071L20.2035 103.121L19.5308 102.168L18.8655 101.212L18.2075 100.253L17.5567 99.2909L16.9133 98.3253L16.2773 97.3561L15.6487 96.383L15.0276 95.4059L14.4142 94.4245L13.8087 93.4386L13.2111 92.4479L12.6218 91.4525L12.0409 90.4519L11.4687 89.446L10.9053 88.4347L10.3511 87.4178L9.80629 86.3951L9.27116 85.3665L8.746 84.3319L8.23116 83.2911L7.72699 82.2441L7.23388 81.1907L6.75224 80.1309L6.28252 79.0645L5.82517 77.9916L5.38069 76.912L4.94958 75.8258L4.53236 74.733L4.1296 73.6335L3.74183 72.5274L3.36965 71.4149L3.01363 70.296L2.67438 69.1708L2.35248 68.0395L2.04855 66.9023L1.76319 65.7594L1.49701 64.611L1.25061 63.4575L1.0246 62.2991L0.819544 61.1362L0.636036 59.9691L0.474632 58.7983L0.33588 57.6242L0.220304 56.4472L0.128419 55.2679L0.0607334 54.0867L0.017759 52.9042L0 51.7209L0.00795144 50.5376L0.0420948 49.3547L0.102894 48.1729L0.190791 46.993L0.306202 45.8156L0.449514 44.6414L0.621082 43.4712L0.821223 42.3059L1.05022 41.1461L1.3083 39.9927L1.59565 38.8465L1.91243 37.7084L2.25872 36.5791L2.63456 35.4597L3.03994 34.3508L3.47479 33.2534L3.93899 32.1683L4.43235 31.0964L4.95465 30.0385L5.50558 28.9954L6.0848 27.968L6.69189 26.957L7.32641 25.9633L7.98783 24.9875L8.6756 24.0304L9.38908 23.0927L10.1276 22.1751L10.8906 21.2781L11.6771 20.4024L12.4864 19.5485L13.3177 18.717L14.1702 17.9083L15.0429 17.1228L15.935 16.3611L16.8454 15.6233L17.7733 14.9098L18.7177 14.221L19.6776 13.5569L20.652 12.9179L21.64 12.3041L22.6404 11.7155L23.6525 11.1523L24.6751 10.6145L25.7073 10.1021L26.748 9.61502L27.7963 9.15311L28.851 8.71621L29.9112 8.3041L30.9759 7.91649L32.0439 7.55305L33.1144 7.21341L34.1862 6.89713L35.2585 6.60372L36.3301 6.33267L37.4003 6.08341L38.4681 5.85532L39.5325 5.64774L40.5928 5.46001L41.6481 5.29137L42.6976 5.14109L43.7406 5.00838L44.7764 4.89243L45.8042 4.7924L46.8236 4.70745L47.8339 4.63671L48.8347 4.57929L49.8254 4.53432L50.8056 4.50089L51.775 4.47813L52.7332 4.46511L53.68 4.46092L54.6151 4.46462L55.5383 4.47525L56.4495 4.49185L57.3484 4.51347L58.2352 4.53914L59.1097 4.56791L59.9719 4.59883L60.8221 4.63097L61.6602 4.66343L62.4864 4.69531L63.3011 4.72578L64.1044 4.754L64.8967 4.77918L65.6783 4.8006L66.4497 4.81753L67.2113 4.82934L67.9636 4.83542L68.7071 4.83523L69.4423 4.82827L70.1699 4.81412L70.8905 4.79239L71.6046 4.76278L72.313 4.72503L73.0163 4.67897L73.7152 4.62446L74.4104 4.56146L75.1025 4.48995L75.7923 4.41002L76.4804 4.32177L77.1676 4.2254L77.8545 4.12115L78.5417 4.00932L79.2299 3.89024L79.9197 3.76433L80.6118 3.63201L81.3067 3.49378L82.0049 3.35017L82.707 3.20173L83.4135 3.04904L84.1248 2.89274L84.8414 2.73345L85.5636 2.57184L86.2919 2.40858L87.0265 2.24434L87.7677 2.07985L88.5158 1.91584L89.2711 1.7531L90.0336 1.59241L90.8035 1.43461L91.5809 1.28053L92.3658 1.13104L93.1583 0.987005L93.9582 0.849299L94.7656 0.718806L95.5801 0.596409L96.4018 0.482985L97.2302 0.379407L98.0652 0.286534L98.9065 0.205213L99.7536 0.13627L100.606 0.0805106L101.464 0.0387163L102.326 0.0116391L103.193 0L104.063 0.00448602L104.936 0.0257474L105.811 0.064395L106.688 0.120998L107.566 0.196084L108.445 0.290131L109.324 0.403577L110.202 0.536818L111.078 0.690214L111.952 0.864089L112.824 1.05872L113.691 1.27435L114.555 1.51118L115.413 1.76935L116.265 2.04896L117.111 2.35008L117.949 2.67271L118.78 3.01683L119.602 3.38234L120.414 3.76912L121.217 4.17699L122.009 4.60574L122.79 5.05511L123.56 5.5248L124.316 6.01446L125.061 6.52373L125.792 7.05219L126.509 7.59939L127.212 8.16486L127.9 8.74811L128.574 9.34859L129.233 9.96578L129.876 10.5991L130.504 11.248L131.116 11.9118L131.712 12.59L132.292 13.2819L132.856 13.987L133.403 14.7045L133.935 15.434L134.451 16.1748L134.95 16.9263L135.433 17.6879L135.901 18.459L136.352 19.2391L136.788 20.0276L137.208 20.824L137.613 21.6278L138.003 22.4385L138.377 23.2555L138.737 24.0786L139.082 24.9072L139.412 25.7409L139.728 26.5793L140.029 27.4221L140.317 28.2689L140.591 29.1193L140.851 29.9729L141.098 30.8295L141.332 31.6887L141.554 32.5502L141.763 33.4137L141.96 34.279L142.145 35.1458L142.319 36.0138L142.482 36.883L142.634 37.7531L142.776 38.6238L142.908 39.4952L143.031 40.367L143.144 41.2391L143.248 42.1115L143.344 42.9841L143.432 43.8568L143.512 44.7297L143.585 45.6027L143.651 46.4758L143.71 47.3491L143.762 48.2226L143.809 49.0965L143.849 49.9707L143.884 50.8455L143.914 51.7209Z" fill="#E0F1E9"/>
</svg>
