<svg width="33" height="32" viewBox="0 0 33 32" fill="none" xmlns="http://www.w3.org/2000/svg">
<path d="M18.4286 21.6833C18.2702 21.6833 18.1119 21.625 17.9869 21.5C17.7452 21.2583 17.7452 20.8583 17.9869 20.6166L22.6036 16L17.9869 11.3833C17.7452 11.1416 17.7452 10.7416 17.9869 10.5C18.2286 10.2583 18.6286 10.2583 18.8702 10.5L23.9286 15.5583C24.1702 15.8 24.1702 16.2 23.9286 16.4416L18.8702 21.5C18.7452 21.625 18.5869 21.6833 18.4286 21.6833Z" fill="#3D8361"/>
<path d="M23.3453 16.625H9.32031C8.97865 16.625 8.69531 16.3417 8.69531 16C8.69531 15.6583 8.97865 15.375 9.32031 15.375H23.3453C23.687 15.375 23.9703 15.6583 23.9703 16C23.9703 16.3417 23.687 16.625 23.3453 16.625Z" fill="#3D8361"/>
</svg>
