<svg width="32" height="32" viewBox="0 0 32 32" fill="none" xmlns="http://www.w3.org/2000/svg">
<rect x="0.5" y="0.5" width="31" height="31" rx="7.5" stroke="#3D8361"/>
<path d="M19.5413 24.75C20.3468 24.75 20.9997 24.0971 20.9997 23.2917C20.9997 22.4863 20.3468 21.8334 19.5413 21.8334C18.7359 21.8334 18.083 22.4863 18.083 23.2917C18.083 24.0971 18.7359 24.75 19.5413 24.75Z" fill="#3D8361"/>
<path d="M12.8753 24.75C13.6807 24.75 14.3337 24.0971 14.3337 23.2917C14.3337 22.4863 13.6807 21.8334 12.8753 21.8334C12.0699 21.8334 11.417 22.4863 11.417 23.2917C11.417 24.0971 12.0699 24.75 12.8753 24.75Z" fill="#3D8361"/>
<path opacity="0.4" d="M10.0337 9.28329L9.86699 11.325C9.83366 11.7166 10.142 12.0416 10.5337 12.0416H23.292C23.642 12.0416 23.9337 11.775 23.9587 11.425C24.067 9.94995 22.942 8.74996 21.467 8.74996H11.242C11.1587 8.3833 10.992 8.03329 10.7337 7.74162C10.3253 7.29996 9.742 7.04163 9.142 7.04163H7.66699C7.32533 7.04163 7.04199 7.32496 7.04199 7.66663C7.04199 8.00829 7.32533 8.29163 7.66699 8.29163H9.117C9.37533 8.29163 9.61699 8.39996 9.79199 8.5833C9.96699 8.77496 10.0503 9.02496 10.0337 9.28329Z" fill="#3D8361"/>
<path d="M23.0914 13.2916H10.3081C9.95806 13.2916 9.67472 13.5583 9.64139 13.9L9.34139 17.525C9.22472 18.9416 10.3414 20.1666 11.7664 20.1666H21.0331C22.2831 20.1666 23.3831 19.1416 23.4747 17.8916L23.7497 14C23.7831 13.6166 23.4831 13.2916 23.0914 13.2916Z" fill="#3D8361"/>
</svg>
