<svg width="83" height="104" viewBox="0 0 83 104" fill="none" xmlns="http://www.w3.org/2000/svg">
<path fill-rule="evenodd" clip-rule="evenodd" d="M70.0962 51.1621L69.8893 51.4699L69.6807 51.7771L69.4704 52.0836L69.2584 52.3895L69.0447 52.6951L68.8294 53.0004L68.6124 53.3056L68.3938 53.6106L68.1734 53.9158L67.9514 54.2212L67.7275 54.5268L67.5019 54.8328L67.2744 55.1393L67.045 55.4464L66.8135 55.7541L66.58 56.0625L66.3442 56.3718L66.1061 56.6819L65.8656 56.9929L65.6226 57.3049L65.3769 57.6178L65.1283 57.9317L64.8769 58.2466L64.6223 58.5625L64.3646 58.8794L64.1034 59.1973L63.8387 59.516L63.5703 59.8357L63.2981 60.1561L63.0219 60.4773L62.7415 60.7991L62.4567 61.1215L62.1675 61.4443L61.8737 61.7675L61.5751 62.0908L61.2716 62.4143L60.963 62.7376L60.6492 63.0608L60.33 63.3835L60.0054 63.7057L59.6752 64.0271L59.3394 64.3477L58.9977 64.6671L58.6501 64.9852L58.2965 65.3018L57.9368 65.6167L57.5709 65.9295L57.1988 66.2401L56.8203 66.5483L56.4355 66.8536L56.0442 67.1558L55.6465 67.4547L55.2423 67.7499L54.8315 68.0412L54.4142 68.3281L53.9905 68.6104L53.5602 68.8877L53.1235 69.1597L52.6803 69.426L52.2309 69.6863L51.7751 69.9403L51.3132 70.1875L50.8453 70.4277L50.3714 70.6605L49.8917 70.8854L49.4063 71.1023L48.9155 71.3106L48.4194 71.5102L47.9181 71.7006L47.4119 71.8815L46.9011 72.0527L46.3858 72.2137L45.8663 72.3642L45.3429 72.5039L44.8159 72.6325L44.2855 72.7497L43.7521 72.8552L43.2159 72.9486L42.6774 73.0298L42.1368 73.0984L41.5946 73.1542L41.051 73.197L40.5065 73.2266L39.9614 73.2426L39.4161 73.2451L38.8711 73.2338L38.3267 73.2085L37.7833 73.1693L37.2413 73.1159L36.7011 73.0483L36.1632 72.9665L35.628 72.8704L35.0957 72.76L34.5669 72.6354L34.042 72.4966L33.5213 72.3437L33.0052 72.1767L32.494 71.9958L31.9882 71.8011L31.4881 71.5928L30.994 71.3709L30.5063 71.1358L30.0253 70.8875L29.5513 70.6264L29.0845 70.3527L28.6254 70.0665L28.1741 69.7683L27.731 69.4582L27.2962 69.1365L26.87 68.8035L26.4526 68.4596L26.0443 68.105L25.6452 67.7401L25.2554 67.3651L24.8753 66.9804L24.505 66.5863L24.1445 66.1832L23.794 65.7713L23.4537 65.3511L23.1235 64.923L22.8036 64.4873L22.494 64.0443L22.1947 63.5945L21.9057 63.1382L21.627 62.6759L21.3586 62.2079L21.1004 61.7345L20.8524 61.2563L20.6144 60.7734L20.3864 60.2864L20.1683 59.7956L19.9598 59.3013L19.7609 58.8039L19.5714 58.3037L19.3911 57.801L19.2198 57.2963L19.0574 56.7896L18.9037 56.2815L18.7584 55.772L18.6214 55.2616L18.4923 54.7504L18.3711 54.2387L18.2574 53.7268L18.1511 53.2147L18.0518 52.7028L17.9594 52.1911L17.8736 51.6799L17.7942 51.1694L17.7209 50.6596L17.6534 50.1507L17.5916 49.6428L17.5352 49.136L17.4839 48.6304L17.4376 48.126L17.396 47.6229L17.3589 47.1212L17.3261 46.6207L17.2975 46.1217L17.2729 45.624L17.252 45.1277L17.2349 44.6327L17.2213 44.139L17.2111 43.6466L17.2043 43.1554L17.2007 42.6654L17.2003 42.1765L17.203 41.6886L17.2089 41.2017L17.2177 40.7157L17.2297 40.2306L17.2447 39.7463L17.2628 39.2626L17.284 38.7796L17.3084 38.2972L17.336 37.8153L17.3668 37.3338L17.4011 36.8527L17.4388 36.372L17.48 35.8916L17.5249 35.4115L17.5736 34.9316L17.6261 34.4519L17.6827 33.9724L17.7433 33.4931L17.8081 33.014L17.8774 32.535L17.951 32.0562L18.0293 31.5777L18.1123 31.0994L18.2002 30.6213L18.2931 30.1436L18.3911 29.6662L18.4945 29.1893L18.6033 28.7129L18.7178 28.2371L18.8381 27.7619L18.9644 27.2876L19.0968 26.8142L19.2355 26.3419L19.3808 25.8708L19.5327 25.401L19.6914 24.9328L19.8572 24.4663L20.03 24.0018L20.2102 23.5393L20.3978 23.0792L20.593 22.6216L20.7959 22.1669L21.0066 21.7152L21.2253 21.2668L21.4519 20.8219L21.6867 20.3809L21.9297 19.944L22.1809 19.5115L22.4404 19.0836L22.7082 18.6607L22.9844 18.2431L23.269 17.831L23.562 17.4249L23.8634 17.025L24.1732 16.6317L24.4913 16.2452L24.8178 15.866L25.1525 15.4944L25.4955 15.1307L25.8466 14.7753L26.2057 14.4285L26.5727 14.0907L26.9475 13.7621L27.3299 13.4431L27.7196 13.1339L28.1167 12.835L28.5207 12.5466L28.9315 12.269L29.3488 12.0024L29.7723 11.7472L30.2019 11.5034L30.6371 11.2714L31.0777 11.0513L31.5233 10.8434L31.9736 10.6478L32.4283 10.4646L32.8869 10.2939L33.3492 10.1359L33.8147 9.99054L34.283 9.858L34.7539 9.73826L35.2267 9.63133L35.7013 9.53719L36.1771 9.45582L36.6538 9.38716L37.131 9.33113L37.6083 9.28765L38.0853 9.25659L38.5616 9.23782L39.0369 9.23121L39.5108 9.23659L39.9829 9.25377L40.4528 9.28258L40.9203 9.32281L41.385 9.37424L41.8466 9.43664L42.3048 9.50974L42.7592 9.59328L43.2096 9.68694L43.6557 9.79041L44.0973 9.90335L44.534 10.0254L44.9656 10.1562L45.392 10.2954L45.8129 10.4426L46.2281 10.5974L46.6375 10.7593L47.0409 10.928L47.4382 11.1029L47.8293 11.2838L48.214 11.4701L48.5924 11.6613L48.9643 11.8571L49.3298 12.057L49.6888 12.2606L50.0413 12.4674L50.3874 12.677L50.7271 12.889L51.0605 13.1029L51.3877 13.3184L51.7087 13.5351L52.0237 13.7525L52.3328 13.9704L52.6361 14.1882L52.9339 14.4057L53.2263 14.6225L53.5135 14.8381L53.7957 15.0523L54.0732 15.2648L54.3462 15.4752L54.6149 15.6831L54.8797 15.8884L55.1407 16.0908L55.3983 16.29L55.6527 16.4857L55.9044 16.6779L56.1534 16.8663L56.4003 17.0508L56.6452 17.2313L56.8885 17.4076L57.1304 17.5797L57.3714 17.7476L57.6116 17.9113L57.8514 18.0707L58.091 18.2258L58.3308 18.3769L58.5709 18.5239L58.8117 18.667L59.0534 18.8063L59.2961 18.9419L59.5402 19.0741L59.7858 19.2031L60.033 19.329L60.2821 19.4521L60.5331 19.5727L60.7863 19.6911L61.0416 19.8074L61.2993 19.9221L61.5593 20.0354L61.8217 20.1476L62.0866 20.259L62.354 20.37L62.6238 20.4809L62.896 20.5919L63.1707 20.7035L63.4477 20.8158L63.727 20.9293L64.0086 21.0443L64.2923 21.161L64.5779 21.2798L64.8655 21.401L65.1547 21.525L65.4455 21.6519L65.7376 21.7821L66.0308 21.916L66.3248 22.0538L66.6195 22.1958L66.9146 22.3423L67.2098 22.4935L67.5048 22.6496L67.7993 22.811L68.093 22.9778L68.3855 23.1502L68.6766 23.3285L68.966 23.5127L69.2532 23.7031L69.538 23.8997L69.8199 24.1028L70.0987 24.3123L70.3741 24.5283L70.6456 24.751L70.913 24.9803L71.1758 25.2163L71.4339 25.4589L71.6869 25.7081L71.9344 25.964L72.1762 26.2264L72.4119 26.4953L72.6413 26.7706L72.8641 27.0522L73.0799 27.3399L73.2887 27.6337L73.49 27.9334L73.6836 28.2389L73.8695 28.5499L74.0472 28.8662L74.2167 29.1878L74.3778 29.5143L74.5304 29.8456L74.6742 30.1814L74.8092 30.5215L74.9354 30.8656L75.0525 31.2135L75.1607 31.565L75.2598 31.9197L75.3498 32.2775L75.4307 32.6381L75.5026 33.0012L75.5654 33.3665L75.6193 33.7338L75.6644 34.1029L75.7006 34.4735L75.7281 34.8453L75.747 35.2182L75.7575 35.5919L75.7596 35.9661L75.7536 36.3407L75.7395 36.7155L75.7176 37.0902L75.688 37.4647L75.6508 37.8388L75.6063 38.2123L75.5546 38.5851L75.496 38.957L75.4305 39.3279L75.3583 39.6976L75.2797 40.0661L75.1947 40.4331L75.1036 40.7986L75.0065 41.1625L74.9035 41.5247L74.7948 41.8851L74.6806 42.2437L74.561 42.6002L74.4362 42.9548L74.3064 43.3074L74.1717 43.6578L74.0323 44.0061L73.8885 44.3522L73.7402 44.6961L73.5878 45.0379L73.4314 45.3774L73.2711 45.7148L73.1072 46.05L72.9397 46.3831L72.7688 46.7141L72.5948 47.043L72.4176 47.3699L72.2375 47.6949L72.0546 48.0179L71.8691 48.3392L71.6809 48.6587L71.4904 48.9765L71.2975 49.2927L71.1024 49.6074L70.9051 49.9207L70.7058 50.2328L70.5045 50.5436L70.3012 50.8533L70.0962 51.1621Z" fill="#E0F1E9"/>
<path d="M24.3987 93.6807C23.5516 93.6807 22.9264 93.4346 22.5231 92.9425C22.1278 92.4504 21.9301 91.7889 21.9301 90.958V85.5973H23.4669V90.958C23.4669 91.2645 23.4831 91.4823 23.5153 91.6114C23.5557 91.7405 23.6363 91.8292 23.7573 91.8776C23.8864 91.918 24.1002 91.9381 24.3987 91.9381H24.8343L24.9069 92.8336L24.8343 93.6807H24.3987ZM31.3177 86.9889L33.2539 89.9052C33.5523 90.357 33.7016 90.8612 33.7016 91.4178C33.7016 91.926 33.5765 92.3536 33.3265 92.7005C33.0522 93.0716 32.6569 93.3378 32.1406 93.4992C31.6323 93.6605 30.9507 93.7412 30.0955 93.7412C29.3372 93.7412 28.595 93.6161 27.869 93.366C27.1913 93.5758 26.4653 93.6807 25.6908 93.6807H24.7107V91.9381H25.7634H25.8118C25.4891 91.4864 25.3278 90.9983 25.3278 90.4739C25.3278 89.9818 25.4407 89.526 25.6666 89.1065C25.9006 88.679 26.2152 88.3402 26.6105 88.0901C27.0139 87.84 27.4576 87.715 27.9416 87.715C28.4095 87.715 28.8411 87.84 29.2364 88.0901C29.6317 88.3402 29.9423 88.675 30.1681 89.0944C30.394 89.5139 30.507 89.9697 30.507 90.4618C30.507 91.0346 30.3335 91.5509 29.9866 92.0107H30.035C30.6643 92.0107 31.1241 91.9825 31.4145 91.926C31.7049 91.8696 31.8986 91.7849 31.9954 91.6719C32.076 91.5751 32.1164 91.4662 32.1164 91.3452C32.1164 91.1677 32.0438 90.9741 31.8986 90.7644L30.0229 87.9449L31.3177 86.9889ZM26.8646 90.4981C26.8646 90.7321 26.9533 90.9499 27.1308 91.1516C27.3164 91.3452 27.5665 91.5106 27.8811 91.6477C28.236 91.5186 28.5063 91.3573 28.6918 91.1637C28.8774 90.9701 28.9702 90.7482 28.9702 90.4981C28.9702 90.1674 28.8733 89.8971 28.6797 89.6874C28.4861 89.4776 28.2401 89.3728 27.9416 89.3728C27.627 89.3728 27.3688 89.4776 27.1671 89.6874C26.9655 89.8971 26.8646 90.1674 26.8646 90.4981ZM43.1019 93.6807C42.8277 93.6807 42.5856 93.6161 42.3759 93.4871C42.3598 94.4874 42.0814 95.278 41.5409 95.8588C41.0004 96.4397 40.1574 96.7301 39.0119 96.7301H37.9712C37.2451 96.7301 36.624 96.5687 36.1077 96.246C35.5914 95.9234 35.2001 95.4877 34.9339 94.9392C34.6677 94.3906 34.5346 93.7775 34.5346 93.0998C34.5346 92.6077 34.6193 92.0834 34.7887 91.5267C34.9581 90.9701 35.1598 90.4578 35.3937 89.9899L36.6764 90.6676C36.2569 91.5469 36.0472 92.3576 36.0472 93.0998C36.0472 93.7291 36.1924 94.201 36.4828 94.5156C36.7813 94.8302 37.2774 94.9876 37.9712 94.9876H39.0119C39.5282 94.9876 39.9154 94.9432 40.1735 94.8544C40.4317 94.7657 40.6051 94.6124 40.6939 94.3946C40.7907 94.1768 40.8391 93.8541 40.8391 93.4265V89.6269H42.3759V91.3331C42.3759 91.5671 42.4364 91.7284 42.5574 91.8171C42.6865 91.8978 42.868 91.9381 43.1019 91.9381H43.3561L43.465 92.8457L43.3561 93.6807H43.1019ZM37.9228 88.5257H39.5322V90.0988H37.9228V88.5257ZM49.0364 93.6807H43.2401V91.9381H44.6075C44.3735 91.5671 44.2565 91.1718 44.2565 90.7523C44.2565 90.3005 44.3654 89.881 44.5833 89.4938C44.8011 89.0985 45.0996 88.7879 45.4787 88.562C45.8579 88.3281 46.2693 88.2111 46.713 88.2111C47.0034 88.2111 47.2575 88.2434 47.4754 88.3079C47.7012 88.3724 47.8989 88.4531 48.0683 88.5499C48.2458 88.6467 48.5362 88.8202 48.9396 89.0702L48.2377 90.3529C47.8182 90.119 47.5197 89.9657 47.3422 89.8931C47.1648 89.8205 46.9671 89.7842 46.7493 89.7842C46.467 89.7842 46.2249 89.877 46.0233 90.0625C45.8216 90.24 45.7207 90.4618 45.7207 90.7281C45.7207 91.0911 45.8942 91.3855 46.2411 91.6114C46.588 91.8292 47.1365 91.9381 47.8868 91.9381H49.0364V93.6807ZM45.8901 85.5973H47.4996V87.1704H45.8901V85.5973ZM51.7917 94.9876C52.2918 94.9876 52.671 94.9432 52.9291 94.8544C53.1873 94.7738 53.3648 94.6326 53.4616 94.4309C53.5665 94.2373 53.627 93.959 53.6431 93.596H52.6024C51.836 93.596 51.227 93.3741 50.7752 92.9304C50.3315 92.4786 50.1096 91.8494 50.1096 91.0427C50.1096 90.4699 50.2145 89.9617 50.4243 89.518C50.6421 89.0662 50.9365 88.7193 51.3076 88.4773C51.6868 88.2353 52.1144 88.1143 52.5903 88.1143C53.1066 88.1143 53.5584 88.2353 53.9456 88.4773C54.3409 88.7193 54.6434 89.0622 54.8532 89.5059C55.071 89.9496 55.1799 90.4618 55.1799 91.0427V93.4144C55.1799 94.4148 54.9056 95.2175 54.357 95.8225C53.8165 96.4276 52.9614 96.7301 51.7917 96.7301H50.3517V94.9876H51.7917ZM51.5859 90.958C51.5859 91.2887 51.6666 91.5348 51.828 91.6961C51.9893 91.8494 52.2475 91.926 52.6024 91.926H53.6431V91.0064C53.6431 90.1674 53.2922 89.7479 52.5903 89.7479C52.2596 89.7479 52.0095 89.8608 51.8401 90.0867C51.6707 90.3126 51.5859 90.603 51.5859 90.958ZM59.8972 89.6269V93.0393C59.8972 94.201 59.5947 95.1045 58.9897 95.7499C58.3846 96.4034 57.5214 96.7301 56.4001 96.7301H55.6377V94.9876H56.4001C56.9083 94.9876 57.2996 94.927 57.5739 94.806C57.8562 94.6931 58.0539 94.4955 58.1668 94.2131C58.2878 93.9388 58.3483 93.5476 58.3483 93.0393V89.6269H59.8972Z" fill="#3D8361"/>
<g clip-path="url(#clip0_2247_26702)">
<mask id="mask0_2247_26702" style="mask-type:luminance" maskUnits="userSpaceOnUse" x="11" y="0" width="62" height="62">
<path d="M11.7227 0.75634H72.2268V61.2605H11.7227V0.75634Z" fill="white"/>
</mask>
<g mask="url(#mask0_2247_26702)">
<path d="M51.4285 14.4642H41.9748C40.669 14.4642 39.6113 13.4066 39.6113 12.1008V9.73735C39.6113 8.43154 40.669 7.3739 41.9748 7.3739H51.4285C52.7344 7.3739 53.792 8.43154 53.792 9.73735V12.1008C53.792 13.4066 52.7344 14.4642 51.4285 14.4642Z" stroke="#3D8361" stroke-width="2.36344" stroke-miterlimit="10" stroke-linecap="round" stroke-linejoin="round"/>
<path d="M41.9757 14.4643V24.6283C41.9757 27.4478 40.58 29.9945 38.3809 31.7174" stroke="#3D8361" stroke-width="2.36344" stroke-miterlimit="10" stroke-linecap="round" stroke-linejoin="round"/>
<path d="M30.1569 40.9124C30.1557 40.9147 30.1546 40.9159 30.1546 40.9183C30.1132 41.0022 30.0718 41.0873 30.0293 41.1712V41.1724" stroke="#3D8361" stroke-width="2.36344" stroke-miterlimit="10" stroke-linecap="round" stroke-linejoin="round"/>
<path d="M30.0234 60.0787H30.157H60.1479C62.2714 60.0787 64.1089 58.6548 64.7129 56.6198C65.2943 54.6605 65.6086 52.6351 65.6086 50.625C65.6086 47.8054 64.9847 44.9621 63.8762 42.3104C66.8221 39.5203 68.4908 35.4257 67.8279 30.9528C66.8719 24.5042 61.0283 19.9002 54.5087 19.9002H51.428V14.4643" stroke="#3D8361" stroke-width="2.36344" stroke-miterlimit="10" stroke-linecap="round" stroke-linejoin="round"/>
<path d="M51.4287 24.6271H54.4669C59.0118 24.6271 63.2329 28.3306 63.2459 32.8755C63.2518 34.7864 62.5842 36.5389 61.4923 37.9498C59.9158 35.675 57.953 33.698 55.7172 32.2173C53.1268 30.5014 51.4287 27.7338 51.4287 24.6271Z" stroke="#FFC436" stroke-width="2.36344" stroke-miterlimit="10" stroke-linecap="round" stroke-linejoin="round"/>
<path d="M41.9756 7.37402V1.9381H51.4294V7.37402" stroke="#3D8361" stroke-width="2.36344" stroke-miterlimit="10" stroke-linecap="round" stroke-linejoin="round"/>
<path d="M23.5195 47.2937C24.5299 43.7166 27.1214 41.1712 30.1573 41.1712C34.0735 41.1712 37.2476 45.4041 37.2476 50.625C37.2476 52.3467 36.9025 53.961 36.2987 55.3518C35.0732 58.1773 32.7819 60.0787 30.1573 60.0787C27.9782 60.0787 26.0295 58.7682 24.7284 56.7073" stroke="#3D8361" stroke-width="2.36344" stroke-miterlimit="10" stroke-linecap="round" stroke-linejoin="round"/>
<path d="M23.5205 47.2937C24.6797 48.5853 25.4313 50.6557 25.4313 52.9884C25.4313 54.3521 25.1749 55.626 24.7294 56.7073C23.8974 58.7304 22.4061 60.0787 20.7044 60.0787C18.094 60.0787 15.9775 56.9046 15.9775 52.9884C15.9775 49.0722 18.094 45.8981 20.7044 45.8981C21.7597 45.8981 22.7334 46.4168 23.5205 47.2937Z" stroke="#3D8361" stroke-width="2.36344" stroke-miterlimit="10" stroke-linecap="round" stroke-linejoin="round"/>
<path d="M30.1582 41.1713H30.0306H27.7948C21.2681 41.1713 15.9775 35.8807 15.9775 29.354H18.341C24.7825 29.354 30.0211 34.5087 30.1558 40.9184C30.157 41.0023 30.1582 41.0862 30.1582 41.1713Z" stroke="#FFC436" stroke-width="2.36344" stroke-miterlimit="10" stroke-linecap="round" stroke-linejoin="round"/>
<path d="M39.208 36.4443H53.5222C54.796 37.353 56.2469 38.7436 57.5217 40.5221" stroke="#3D8361" stroke-width="2.36344" stroke-miterlimit="10" stroke-linecap="round" stroke-linejoin="round"/>
<path d="M39.209 36.4444C39.4702 35.7046 39.612 34.9093 39.612 34.0809V31.7175H38.3806H37.2485C33.3323 31.7175 30.1582 34.8916 30.1582 38.8078V40.9125V41.1713H32.5216C35.6095 41.1713 38.2353 39.199 39.209 36.4444Z" stroke="#FFC436" stroke-width="2.36344" stroke-miterlimit="10" stroke-linecap="round" stroke-linejoin="round"/>
<path d="M60.8336 49.306C60.9819 51.1968 60.801 53.2236 60.1602 55.3519H36.2988" stroke="#3D8361" stroke-width="2.36344" stroke-miterlimit="10" stroke-linecap="round" stroke-linejoin="round"/>
<path d="M60.883 44.7163C60.883 45.369 60.3538 45.8981 59.7013 45.8981C59.0487 45.8981 58.5195 45.369 58.5195 44.7163C58.5195 44.0637 59.0487 43.5346 59.7013 43.5346C60.3538 43.5346 60.883 44.0637 60.883 44.7163Z" fill="#FFC436"/>
</g>
</g>
<defs>
<clipPath id="clip0_2247_26702">
<rect width="60.5042" height="60.5042" fill="white" transform="translate(11.7227 0.756348)"/>
</clipPath>
</defs>
</svg>
