<svg width="84" height="105" viewBox="0 0 84 105" fill="none" xmlns="http://www.w3.org/2000/svg">
<path fill-rule="evenodd" clip-rule="evenodd" d="M70.6587 51.7755L70.4518 52.0833L70.2432 52.3905L70.0329 52.697L69.8209 53.0029L69.6072 53.3085L69.3919 53.6138L69.1749 53.919L68.9563 54.2241L68.7359 54.5292L68.5139 54.8346L68.29 55.1402L68.0644 55.4462L67.8369 55.7527L67.6075 56.0598L67.376 56.3675L67.1425 56.676L66.9067 56.9852L66.6686 57.2953L66.4281 57.6063L66.1851 57.9183L65.9394 58.2312L65.6908 58.5451L65.4394 58.86L65.1848 59.1759L64.9271 59.4928L64.6659 59.8107L64.4012 60.1294L64.1328 60.4491L63.8606 60.7695L63.5844 61.0907L63.304 61.4125L63.0192 61.7349L62.73 62.0577L62.4362 62.3809L62.1376 62.7042L61.8341 63.0277L61.5255 63.351L61.2117 63.6742L60.8925 63.9969L60.5679 64.3191L60.2377 64.6405L59.9019 64.9611L59.5602 65.2805L59.2126 65.5986L58.859 65.9152L58.4993 66.2301L58.1334 66.5429L57.7613 66.8535L57.3828 67.1617L56.998 67.467L56.6067 67.7692L56.209 68.0681L55.8048 68.3633L55.394 68.6546L54.9767 68.9415L54.553 69.2238L54.1227 69.5011L53.686 69.7731L53.2428 70.0394L52.7934 70.2997L52.3376 70.5537L51.8757 70.8009L51.4078 71.0411L50.9339 71.2739L50.4542 71.4988L49.9688 71.7157L49.478 71.924L48.9819 72.1236L48.4806 72.314L47.9744 72.4949L47.4636 72.6661L46.9483 72.8271L46.4288 72.9776L45.9054 73.1173L45.3784 73.2459L44.848 73.3631L44.3146 73.4686L43.7784 73.562L43.2399 73.6432L42.6993 73.7118L42.1571 73.7676L41.6135 73.8104L41.069 73.84L40.5239 73.856L39.9786 73.8585L39.4336 73.8472L38.8892 73.8219L38.3458 73.7827L37.8038 73.7293L37.2636 73.6617L36.7257 73.5799L36.1905 73.4838L35.6582 73.3734L35.1294 73.2488L34.6045 73.11L34.0838 72.9571L33.5677 72.7901L33.0565 72.6092L32.5507 72.4145L32.0506 72.2062L31.5565 71.9843L31.0688 71.7492L30.5878 71.5009L30.1138 71.2398L29.647 70.9661L29.1879 70.6799L28.7366 70.3817L28.2935 70.0716L27.8587 69.7499L27.4325 69.417L27.0151 69.073L26.6068 68.7184L26.2077 68.3535L25.8179 67.9785L25.4378 67.5938L25.0675 67.1997L24.707 66.7966L24.3565 66.3847L24.0162 65.9645L23.686 65.5364L23.3661 65.1007L23.0565 64.6577L22.7572 64.2079L22.4682 63.7516L22.1895 63.2893L21.9211 62.8213L21.6629 62.3479L21.4149 61.8697L21.1769 61.3868L20.9489 60.8998L20.7308 60.409L20.5223 59.9147L20.3234 59.4173L20.1339 58.9171L19.9536 58.4144L19.7823 57.9097L19.6199 57.403L19.4662 56.8949L19.3209 56.3854L19.1839 55.875L19.0548 55.3638L18.9336 54.8521L18.8199 54.3402L18.7136 53.8281L18.6143 53.3162L18.5219 52.8045L18.4361 52.2933L18.3567 51.7828L18.2834 51.273L18.2159 50.7641L18.1541 50.2562L18.0977 49.7494L18.0464 49.2438L18.0001 48.7394L17.9585 48.2363L17.9214 47.7346L17.8886 47.2342L17.86 46.7351L17.8354 46.2374L17.8145 45.7411L17.7974 45.2461L17.7838 44.7524L17.7736 44.26L17.7668 43.7688L17.7632 43.2788L17.7628 42.7899L17.7655 42.302L17.7714 41.8151L17.7802 41.3291L17.7922 40.844L17.8072 40.3597L17.8253 39.876L17.8465 39.393L17.8709 38.9106L17.8985 38.4287L17.9293 37.9472L17.9636 37.4661L18.0013 36.9854L18.0425 36.505L18.0874 36.0249L18.1361 35.545L18.1886 35.0653L18.2452 34.5858L18.3058 34.1065L18.3706 33.6274L18.4399 33.1484L18.5135 32.6696L18.5918 32.1911L18.6748 31.7128L18.7627 31.2347L18.8556 30.757L18.9536 30.2796L19.057 29.8027L19.1658 29.3263L19.2803 28.8505L19.4006 28.3753L19.5269 27.901L19.6593 27.4276L19.798 26.9553L19.9433 26.4842L20.0952 26.0144L20.2539 25.5462L20.4197 25.0797L20.5925 24.6152L20.7727 24.1527L20.9603 23.6926L21.1555 23.235L21.3584 22.7803L21.5691 22.3286L21.7878 21.8802L22.0144 21.4353L22.2492 20.9943L22.4922 20.5574L22.7434 20.1249L23.0029 19.697L23.2707 19.2741L23.5469 18.8565L23.8315 18.4444L24.1245 18.0383L24.4259 17.6384L24.7357 17.2451L25.0538 16.8586L25.3803 16.4794L25.715 16.1078L26.058 15.7442L26.4091 15.3887L26.7682 15.0419L27.1352 14.7041L27.51 14.3755L27.8924 14.0565L28.2821 13.7473L28.6792 13.4484L29.0832 13.16L29.494 12.8824L29.9113 12.6158L30.3348 12.3606L30.7644 12.1168L31.1996 11.8848L31.6402 11.6647L32.0858 11.4568L32.5361 11.2612L32.9908 11.078L33.4494 10.9073L33.9117 10.7493L34.3772 10.6039L34.8455 10.4714L35.3164 10.3517L35.7892 10.2447L36.2638 10.1506L36.7396 10.0692L37.2163 10.0006L37.6935 9.94454L38.1708 9.90105L38.6478 9.86999L39.1241 9.85123L39.5994 9.84461L40.0733 9.84999L40.5454 9.86717L41.0153 9.89598L41.4828 9.93621L41.9475 9.98764L42.4091 10.05L42.8673 10.1231L43.3217 10.2067L43.7721 10.3003L44.2182 10.4038L44.6598 10.5168L45.0965 10.6388L45.5281 10.7696L45.9545 10.9089L46.3754 11.056L46.7906 11.2108L47.2 11.3727L47.6034 11.5414L48.0007 11.7163L48.3918 11.8972L48.7765 12.0835L49.1549 12.2747L49.5268 12.4705L49.8923 12.6704L50.2513 12.874L50.6038 13.0808L50.9499 13.2904L51.2896 13.5024L51.623 13.7163L51.9502 13.9318L52.2712 14.1485L52.5862 14.3659L52.8953 14.5838L53.1986 14.8016L53.4964 15.0191L53.7888 15.2359L54.076 15.4515L54.3582 15.6657L54.6357 15.8782L54.9087 16.0886L55.1774 16.2965L55.4422 16.5018L55.7032 16.7042L55.9608 16.9034L56.2152 17.0991L56.4669 17.2913L56.7159 17.4797L56.9628 17.6642L57.2077 17.8447L57.451 18.021L57.6929 18.1931L57.9339 18.361L58.1741 18.5247L58.4139 18.6841L58.6535 18.8392L58.8933 18.9903L59.1334 19.1373L59.3742 19.2804L59.6159 19.4197L59.8586 19.5553L60.1027 19.6875L60.3483 19.8165L60.5955 19.9424L60.8446 20.0655L61.0956 20.1861L61.3488 20.3045L61.6041 20.4208L61.8618 20.5355L62.1218 20.6488L62.3842 20.761L62.6491 20.8724L62.9165 20.9834L63.1863 21.0943L63.4585 21.2053L63.7332 21.3169L64.0102 21.4292L64.2895 21.5428L64.5711 21.6577L64.8548 21.7744L65.1404 21.8932L65.428 22.0145L65.7172 22.1384L66.008 22.2653L66.3001 22.3955L66.5933 22.5294L66.8873 22.6672L67.182 22.8092L67.4771 22.9557L67.7723 23.1069L68.0673 23.263L68.3618 23.4244L68.6555 23.5912L68.948 23.7636L69.2391 23.9419L69.5285 24.1261L69.8157 24.3165L70.1005 24.5131L70.3824 24.7162L70.6612 24.9257L70.9366 25.1417L71.2081 25.3644L71.4755 25.5937L71.7383 25.8297L71.9964 26.0723L72.2494 26.3215L72.4969 26.5774L72.7387 26.8398L72.9744 27.1087L73.2038 27.384L73.4266 27.6656L73.6424 27.9533L73.8512 28.2471L74.0525 28.5468L74.2461 28.8523L74.432 29.1633L74.6097 29.4796L74.7792 29.8012L74.9403 30.1277L75.0929 30.459L75.2367 30.7948L75.3717 31.1349L75.4979 31.479L75.615 31.8269L75.7232 32.1784L75.8223 32.5331L75.9123 32.8909L75.9932 33.2515L76.0651 33.6146L76.1279 33.9799L76.1818 34.3472L76.2269 34.7163L76.2631 35.0869L76.2906 35.4587L76.3095 35.8316L76.32 36.2053L76.3221 36.5795L76.3161 36.9541L76.302 37.3289L76.2801 37.7036L76.2505 38.0781L76.2133 38.4522L76.1688 38.8257L76.1171 39.1985L76.0585 39.5704L75.993 39.9413L75.9208 40.311L75.8422 40.6795L75.7572 41.0465L75.6661 41.412L75.569 41.7759L75.466 42.1381L75.3573 42.4985L75.2431 42.8571L75.1235 43.2137L74.9987 43.5682L74.8689 43.9208L74.7342 44.2712L74.5948 44.6195L74.451 44.9656L74.3027 45.3095L74.1503 45.6513L73.9939 45.9908L73.8336 46.3282L73.6697 46.6634L73.5022 46.9965L73.3313 47.3275L73.1573 47.6564L72.9801 47.9833L72.8 48.3083L72.6171 48.6313L72.4316 48.9526L72.2434 49.2721L72.0529 49.5899L71.86 49.9061L71.6649 50.2208L71.4676 50.5341L71.2683 50.8462L71.067 51.157L70.8637 51.4667L70.6587 51.7755Z" fill="#E0F1E9"/>
<path d="M18.7631 94.2941C17.916 94.2941 17.2908 94.048 16.8874 93.5559C16.4921 93.0638 16.2945 92.4023 16.2945 91.5714V86.2107H17.8313V91.5714C17.8313 91.8779 17.8474 92.0957 17.8797 92.2248C17.92 92.3539 18.0007 92.4426 18.1217 92.491C18.2508 92.5314 18.4646 92.5515 18.7631 92.5515H19.1987L19.2713 93.447L19.1987 94.2941H18.7631ZM25.6821 87.6023L27.6182 90.5186C27.9167 90.9704 28.0659 91.4746 28.0659 92.0312C28.0659 92.5394 27.9409 92.967 27.6908 93.3139C27.4165 93.685 27.0212 93.9512 26.5049 94.1126C25.9967 94.2739 25.315 94.3546 24.4599 94.3546C23.7016 94.3546 22.9594 94.2295 22.2333 93.9794C21.5557 94.1892 20.8297 94.2941 20.0552 94.2941H19.075V92.5515H20.1278H20.1762C19.8535 92.0998 19.6922 91.6117 19.6922 91.0873C19.6922 90.5952 19.8051 90.1394 20.031 89.72C20.2649 89.2924 20.5796 88.9536 20.9749 88.7035C21.3782 88.4534 21.8219 88.3284 22.306 88.3284C22.7739 88.3284 23.2054 88.4534 23.6007 88.7035C23.996 88.9536 24.3066 89.2884 24.5325 89.7079C24.7584 90.1273 24.8713 90.5831 24.8713 91.0752C24.8713 91.648 24.6979 92.1643 24.351 92.6242H24.3994C25.0286 92.6242 25.4885 92.5959 25.7789 92.5394C26.0693 92.483 26.2629 92.3983 26.3597 92.2853C26.4404 92.1885 26.4807 92.0796 26.4807 91.9586C26.4807 91.7811 26.4081 91.5875 26.2629 91.3778L24.3873 88.5583L25.6821 87.6023ZM21.229 91.1115C21.229 91.3455 21.3177 91.5633 21.4952 91.765C21.6807 91.9586 21.9308 92.124 22.2454 92.2611C22.6004 92.1321 22.8707 91.9707 23.0562 91.7771C23.2418 91.5835 23.3345 91.3616 23.3345 91.1115C23.3345 90.7808 23.2377 90.5105 23.0441 90.3008C22.8505 90.091 22.6044 89.9862 22.306 89.9862C21.9913 89.9862 21.7332 90.091 21.5315 90.3008C21.3298 90.5105 21.229 90.7808 21.229 91.1115ZM31.0408 91.281C30.6213 92.1603 30.4115 92.971 30.4115 93.7132C30.4115 94.3425 30.5567 94.8144 30.8472 95.129C31.1456 95.4436 31.6418 95.601 32.3356 95.601H33.3762C33.8925 95.601 34.2798 95.5566 34.5379 95.4678C34.7961 95.3791 34.9695 95.2258 35.0582 95.008C35.1551 94.7902 35.2035 94.4675 35.2035 94.0399V90.2403H36.7403V91.6561C36.7403 91.9707 36.8129 92.2006 36.9581 92.3458C37.1114 92.483 37.313 92.5515 37.5631 92.5515C37.8213 92.5515 38.0189 92.491 38.1561 92.37C38.2932 92.241 38.3618 92.0473 38.3618 91.7892L38.3497 90.2403H39.8986L39.8865 91.8497C39.8865 92.3176 40.1285 92.5515 40.6125 92.5515C40.8545 92.5515 41.0482 92.483 41.1934 92.3458C41.3466 92.2087 41.4112 92.0272 41.387 91.8013C41.3144 91.3253 41.1974 90.6638 41.0361 89.8168L42.4882 89.4537C42.7544 90.6315 42.8875 91.4826 42.8875 92.007C42.8875 92.4104 42.8068 92.7855 42.6455 93.1324C42.4922 93.4793 42.2421 93.7616 41.8952 93.9794C41.5564 94.1892 41.1288 94.2941 40.6125 94.2941C40.306 94.2941 40.0236 94.2336 39.7655 94.1126C39.5073 93.9915 39.2855 93.8221 39.0999 93.6043C38.9224 93.8141 38.7006 93.9835 38.4344 94.1126C38.1682 94.2336 37.8777 94.2941 37.5631 94.2941C37.2888 94.2941 37.0145 94.2295 36.7403 94.1005C36.7241 95.1008 36.4458 95.8914 35.9053 96.4722C35.3648 97.0531 34.5218 97.3435 33.3762 97.3435H32.3356C31.6095 97.3435 30.9883 97.1821 30.472 96.8594C29.9557 96.5368 29.5645 96.1011 29.2982 95.5526C29.032 95.004 28.8989 94.3909 28.8989 93.7132C28.8989 93.2211 28.9836 92.6968 29.153 92.1401C29.3225 91.5835 29.5241 91.0712 29.7581 90.6033L31.0408 91.281ZM37.2243 87.3724H38.6764V88.8124H37.2243V87.3724ZM38.4102 85.6299H39.7897V86.9973H38.4102V85.6299ZM39.5235 87.3724H40.9635V88.8124H39.5235V87.3724ZM45.7779 95.6857C46.278 95.6857 46.6572 95.6413 46.9154 95.5526C47.1735 95.4719 47.351 95.3307 47.4478 95.129C47.5527 94.9354 47.6132 94.6571 47.6293 94.2941H46.5886C45.8223 94.2941 45.2132 94.0722 44.7614 93.6285C44.3177 93.1768 44.0959 92.5475 44.0959 91.7408C44.0959 91.168 44.2007 90.6598 44.4105 90.2161C44.6283 89.7724 44.9228 89.4295 45.2938 89.1875C45.673 88.9374 46.1006 88.8124 46.5765 88.8124C47.0928 88.8124 47.5446 88.9334 47.9318 89.1754C48.3271 89.4174 48.6296 89.7603 48.8394 90.204C49.0572 90.6477 49.1661 91.16 49.1661 91.7408V92.5515H49.8317L49.9285 93.4349L49.8317 94.2941H49.1661C49.1338 95.2379 48.8434 95.9963 48.2949 96.569C47.7463 97.1418 46.9073 97.4282 45.7779 97.4282H44.3379V95.6857H45.7779ZM45.5722 91.6561C45.5722 91.9868 45.6528 92.2329 45.8142 92.3942C45.9755 92.5475 46.2337 92.6242 46.5886 92.6242H47.6293V91.7045C47.6293 90.8655 47.2784 90.446 46.5765 90.446C46.2458 90.446 45.9957 90.5589 45.8263 90.7848C45.6569 91.0107 45.5722 91.3011 45.5722 91.6561ZM53.2145 90.2403V91.9949C53.2145 92.2047 53.271 92.3499 53.3839 92.4305C53.4969 92.5112 53.6743 92.5515 53.9164 92.5515H54.2794L54.352 93.4833L54.2794 94.2941H53.9164C53.6663 94.2941 53.4041 94.2457 53.1298 94.1489C52.8555 94.044 52.6135 93.8947 52.4037 93.7011C52.1859 93.8947 51.9318 94.044 51.6414 94.1489C51.359 94.2457 51.0686 94.2941 50.7701 94.2941H49.7053V92.5515H50.7701C51.1009 92.5515 51.3348 92.5072 51.472 92.4184C51.6091 92.3216 51.6777 92.1603 51.6777 91.9344V90.2403H53.2145ZM51.1574 87.2393H52.7668V88.8124H51.1574V87.2393ZM54.1604 92.5515H54.475C54.6363 92.5515 54.7573 92.5152 54.838 92.4426C54.9267 92.362 54.9913 92.2329 55.0316 92.0554L55.3462 90.8937C55.5237 90.1919 55.8222 89.6554 56.2417 89.2843C56.6612 88.9132 57.1654 88.7277 57.7543 88.7277C58.2222 88.7277 58.6377 88.8568 59.0007 89.1149C59.3718 89.365 59.6622 89.7159 59.8719 90.1677C60.0817 90.6114 60.1866 91.1115 60.1866 91.6682C60.1866 92.3378 60.0777 92.8863 59.8598 93.3139C59.642 93.7334 59.3677 94.0399 59.037 94.2336C58.7143 94.4191 58.3755 94.5119 58.0205 94.5119C57.7462 94.5119 57.4558 94.4554 57.1493 94.3425C56.8508 94.2376 56.403 94.044 55.8061 93.7616C55.6205 93.931 55.4148 94.0642 55.1889 94.161C54.963 94.2497 54.7331 94.2941 54.4992 94.2941H54.1604V92.5515ZM56.5442 92.2974C56.9798 92.4991 57.3025 92.6363 57.5123 92.7089C57.722 92.7815 57.9116 92.8178 58.081 92.8178C58.5247 92.8178 58.7466 92.4386 58.7466 91.6803C58.7466 91.2689 58.6578 90.9542 58.4804 90.7364C58.3029 90.5105 58.073 90.3976 57.7906 90.3976C57.5567 90.3976 57.3509 90.4823 57.1735 90.6517C56.996 90.8211 56.8669 91.0672 56.7862 91.3899L56.5442 92.2974ZM64.7663 88.7035C65.6698 90.1072 66.0974 90.7727 66.049 90.7001C66.3636 91.2084 66.5209 91.7126 66.5209 92.2127C66.5209 92.6484 66.4079 93.0235 66.1821 93.3381C65.94 93.685 65.6416 93.931 65.2866 94.0763C64.9397 94.2215 64.5242 94.2941 64.0402 94.2941H63.3989C62.8906 94.2941 62.4429 94.2134 62.0557 94.0521C61.6684 93.8826 61.3659 93.7011 61.1481 93.5075L61.8742 92.1159C62.0274 92.2127 62.2291 92.3095 62.4792 92.4063C62.7374 92.5031 63.0479 92.5515 63.411 92.5515H64.0039C64.2782 92.5515 64.4839 92.5354 64.6211 92.5031C64.7582 92.4628 64.859 92.3942 64.9236 92.2974C64.9639 92.2329 64.9841 92.1684 64.9841 92.1038C64.9841 91.9747 64.9115 91.7973 64.7663 91.5714C64.258 90.7969 63.6409 89.8773 62.9148 88.8124L64.2096 87.8443L64.7663 88.7035Z" fill="#3D8361"/>
<g clip-path="url(#clip0_2247_26703)">
<path d="M66.2118 24.1561H62.1806V22.3725C62.1806 19.5128 59.854 17.1863 56.9948 17.1863H42.5353C41.8568 17.1863 41.3065 17.7361 41.3065 18.4151C41.3065 19.0937 41.8568 19.6439 42.5353 19.6439H56.9953C58.4992 19.6439 59.7225 20.8681 59.7225 22.3725V35.8427C59.7225 44.7744 52.4581 52.0411 43.5287 52.0411H31.7637C22.8347 52.0411 15.5704 44.7744 15.5704 35.8427V22.3725C15.5704 20.8681 16.7936 19.6439 18.2976 19.6439H32.7118C33.3908 19.6439 33.9411 19.0937 33.9411 18.4151C33.9411 17.7361 33.3908 17.1863 32.7118 17.1863H18.298C15.4384 17.1863 13.1123 19.5128 13.1123 22.3725V35.8427C13.1123 40.8055 15.0575 45.4848 18.5898 49.0185C19.7826 50.2117 21.1069 51.2236 22.5278 52.0411H15.4882C14.1782 52.0411 13.1123 53.1056 13.1123 54.4138V56.9558C13.1123 59.6673 15.3179 61.8738 18.0294 61.8738H57.2672C59.9764 61.8738 62.1806 59.6673 62.1806 56.9558V54.4138C62.1806 53.1056 61.1165 52.0411 59.8083 52.0411H52.7651C54.1859 51.2236 55.5103 50.2117 56.7031 49.0185C58.2661 47.4545 59.518 45.6658 60.4287 43.7279H62.9528C67.9207 43.7279 71.9621 39.6838 71.9621 34.7127V29.911C71.9621 26.7379 69.3826 24.1561 66.2118 24.1561ZM59.7225 54.4992V56.9558C59.7225 58.3121 58.6211 59.4158 57.2667 59.4158H18.0294C16.6732 59.4158 15.5704 58.3125 15.5704 56.9558V54.4992H59.7225ZM62.1806 31.5904H64.5334V33.9423C64.5334 35.2172 63.4564 36.2942 62.1824 36.2942H62.1722C62.1759 36.1437 62.1806 35.9937 62.1806 35.8427V31.5904ZM69.504 34.7127C69.504 38.3285 66.5654 41.2699 62.9528 41.2699H61.376C61.6262 40.4487 61.8177 39.6072 61.9521 38.7522H62.1824C64.8339 38.7522 66.9915 36.5947 66.9915 33.9423V30.6819C66.9915 29.8418 66.2815 29.1323 65.4414 29.1323H62.1806V26.6142H66.2123C68.0273 26.6142 69.5045 28.0937 69.5045 29.9115V34.7127H69.504Z" fill="#3D8361"/>
<path d="M36.7593 12.0375C36.2335 12.4668 36.1555 13.241 36.5848 13.7667C36.8276 14.0645 37.1812 14.2186 37.5375 14.2186C37.8108 14.2186 38.0859 14.1277 38.314 13.9417C41.9371 10.9832 40.52 8.56346 39.5825 6.96214C38.7811 5.59346 38.3393 4.83919 39.6032 3.4142C40.0533 2.90597 40.0067 2.12954 39.4989 1.67901C38.9911 1.22894 38.2143 1.27556 37.7642 1.78333C35.3172 4.54284 36.6078 6.7461 37.4618 8.20433C38.3481 9.71887 38.7529 10.4099 36.7593 12.0375Z" fill="#FFC436"/>
<path d="M27.0176 13.9269C27.2577 14.1678 27.5729 14.2883 27.8882 14.2883C28.2021 14.2883 28.516 14.1688 28.7556 13.9296C30.8194 11.8736 29.9955 10.1574 29.5029 9.13212C29.0995 8.29199 28.9485 7.97764 29.4715 7.25752C29.8704 6.70821 29.7485 5.93963 29.1992 5.5408C28.6503 5.14196 27.8818 5.26383 27.4829 5.81315C26.0981 7.72006 26.8427 9.27014 27.2872 10.1961C27.7294 11.117 27.8481 11.364 27.0209 12.1889C26.5399 12.6676 26.5385 13.4459 27.0176 13.9269Z" fill="#FFC436"/>
<path d="M46.8549 14.1073C47.0954 14.3487 47.4107 14.4696 47.7259 14.4696C48.0398 14.4696 48.3533 14.3501 48.5928 14.1114C50.6576 12.0573 49.8332 10.3419 49.3407 9.31669C48.9372 8.47702 48.7863 8.16267 49.3097 7.44209C49.7086 6.89278 49.5867 6.1242 49.0374 5.72537C48.4881 5.32653 47.7195 5.4484 47.3206 5.99772C45.9358 7.90509 46.6804 9.45518 47.1254 10.3812C47.5667 11.2998 47.6853 11.5472 46.859 12.3693C46.378 12.848 46.3762 13.6263 46.8549 14.1073Z" fill="#FFC436"/>
<path d="M25.8546 30.7586C25.5075 30.7756 25.1839 30.9386 24.9637 31.2072C24.744 31.4759 24.6475 31.8253 24.6992 32.1688C25.1991 35.4956 26.3578 38.0562 28.1424 39.7803C30.0013 41.5759 32.5397 42.4853 35.6925 42.4853C35.8249 42.4853 35.9588 42.483 36.0936 42.4802C36.3027 42.4848 36.51 42.4881 36.7149 42.4881C45.9744 42.4881 51.4412 37.3402 52.9678 27.1792C53.019 26.8358 52.923 26.4864 52.7028 26.2177C52.4826 25.949 52.159 25.7861 51.8124 25.769C46.3986 25.504 42.1495 26.8695 39.1836 29.8256C37.4738 31.5299 36.4375 33.5231 35.8102 35.3668C35.4358 34.727 34.9691 34.0992 34.3884 33.5204C32.3712 31.5096 29.499 30.579 25.8546 30.7586ZM40.9336 31.5516C43.1387 29.3626 46.2836 28.2363 50.2964 28.1962C48.7565 35.9152 44.5097 39.7973 37.3616 40.0194C37.5117 38.1157 38.1653 34.2996 40.9336 31.5516ZM32.6389 35.2468C34.1359 36.7295 34.6294 38.7356 34.7905 39.9972C30.7814 39.7226 28.3958 37.5341 27.3959 33.212C29.6278 33.3256 31.3875 34.0074 32.6389 35.2468Z" fill="#FFC436"/>
<path d="M37.6238 17.1863C36.9452 17.1863 36.3945 17.7361 36.3945 18.4151C36.3945 19.0937 36.9448 19.6439 37.6238 19.6439H37.6483C38.3268 19.6439 38.8771 19.0937 38.8771 18.4151C38.8771 17.7361 38.3268 17.1863 37.6483 17.1863H37.6238Z" fill="#FFC436"/>
</g>
<defs>
<clipPath id="clip0_2247_26703">
<rect width="60.5042" height="60.5042" fill="white" transform="translate(12.2852 1.36975)"/>
</clipPath>
</defs>
</svg>
