<svg width="83" height="104" viewBox="0 0 83 104" fill="none" xmlns="http://www.w3.org/2000/svg">
<path fill-rule="evenodd" clip-rule="evenodd" d="M70.2222 51.1621V51.1621L70.0153 51.4699L69.8067 51.7771L69.5964 52.0836L69.3844 52.3895L69.1707 52.6951L68.9554 53.0004L68.7384 53.3056L68.5197 53.6106L68.2994 53.9158L68.0773 54.2212L67.8535 54.5268L67.6279 54.8328L67.4004 55.1393L67.171 55.4464L66.9395 55.7541L66.7059 56.0625L66.4702 56.3718L66.2321 56.6819L65.9916 56.9929L65.7485 57.3049L65.5028 57.6178L65.2543 57.9317L65.0029 58.2466L64.7483 58.5625L64.4905 58.8794L64.2294 59.1973L63.9647 59.516L63.6963 59.8357L63.4241 60.1561L63.1478 60.4773L62.8674 60.7991L62.5827 61.1215L62.2935 61.4443L61.9997 61.7675L61.7011 62.0908L61.3975 62.4143L61.0889 62.7376L60.7751 63.0608L60.456 63.3835L60.1314 63.7057L59.8012 64.0271L59.4653 64.3477L59.1237 64.6671L58.7761 64.9852L58.4225 65.3018L58.0628 65.6167L57.6969 65.9295L57.3248 66.2401L56.9463 66.5483L56.5615 66.8536L56.1702 67.1558L55.7725 67.4547L55.3682 67.7499L54.9575 68.0412L54.5402 68.3281L54.1164 68.6104L53.6862 68.8877L53.2494 69.1597L52.8063 69.426L52.3568 69.6863L51.9011 69.9403L51.4392 70.1875L50.9713 70.4277L50.4974 70.6604L50.0177 70.8854L49.5323 71.1023L49.0415 71.3106L48.5453 71.5102L48.0441 71.7006L47.5379 71.8815L47.0271 72.0527L46.5118 72.2137L45.9923 72.3642L45.4689 72.5039L44.9419 72.6325L44.4115 72.7497L43.8781 72.8552L43.3419 72.9486L42.8034 73.0298L42.2628 73.0984L41.7206 73.1542L41.177 73.197L40.6325 73.2266L40.0874 73.2426L39.5421 73.2451L38.9971 73.2338L38.4526 73.2085L37.9092 73.1693L37.3672 73.1159L36.8271 73.0483L36.2892 72.9665L35.7539 72.8704L35.2217 72.76L34.6929 72.6354L34.168 72.4966L33.6473 72.3437L33.1311 72.1767L32.62 71.9958L32.1142 71.8011L31.6141 71.5928L31.12 71.3709L30.6323 71.1358L30.1513 70.8875L29.6772 70.6264L29.2105 70.3527L28.7514 70.0665L28.3001 69.7683L27.857 69.4582L27.4222 69.1365L26.996 68.8036L26.5786 68.4596L26.1703 68.105L25.7711 67.7401L25.3814 67.3651L25.0013 66.9804L24.6309 66.5863L24.2705 66.1832L23.92 65.7713L23.5796 65.3511L23.2495 64.923L22.9296 64.4873L22.6199 64.0443L22.3207 63.5945L22.0317 63.1382L21.753 62.6759L21.4846 62.2079L21.2264 61.7345L20.9784 61.2563L20.7404 60.7734L20.5124 60.2864L20.2942 59.7956L20.0858 59.3013L19.8868 58.8039L19.6973 58.3037L19.517 57.801L19.3458 57.2963L19.1834 56.7896L19.0297 56.2815L18.8844 55.772L18.7473 55.2616L18.6183 54.7504L18.4971 54.2387L18.3834 53.7268L18.2771 53.2147L18.1778 52.7028L18.0854 52.1911L17.9996 51.6799L17.9202 51.1694L17.8469 50.6596L17.7794 50.1507L17.7176 49.6428L17.6612 49.136L17.6099 48.6304L17.5635 48.126L17.5219 47.6229L17.4848 47.1212L17.4521 46.6208L17.4235 46.1217L17.3988 45.624L17.378 45.1277L17.3609 44.6327L17.3473 44.139L17.3371 43.6466L17.3303 43.1554L17.3267 42.6654L17.3263 42.1765L17.329 41.6886L17.3348 41.2017L17.3437 40.7157L17.3557 40.2306L17.3707 39.7463L17.3888 39.2626L17.41 38.7796L17.4343 38.2972L17.4619 37.8153L17.4928 37.3338L17.5271 36.8527L17.5648 36.372L17.606 35.8916L17.6509 35.4115L17.6996 34.9316L17.7521 34.4519L17.8086 33.9724L17.8693 33.4931L17.9341 33.014L18.0033 32.535L18.077 32.0562L18.1553 31.5777L18.2383 31.0994L18.3262 30.6213L18.4191 30.1436L18.5171 29.6662L18.6205 29.1893L18.7293 28.7129L18.8438 28.2371L18.9641 27.7619L19.0904 27.2876L19.2228 26.8142L19.3615 26.3419L19.5068 25.8708L19.6587 25.401L19.8174 24.9328L19.9831 24.4663L20.156 24.0018L20.3362 23.5393L20.5238 23.0792L20.719 22.6216L20.9219 22.1669L21.1326 21.7152L21.3512 21.2668L21.5779 20.8219L21.8127 20.3809L22.0557 19.944L22.3069 19.5115L22.5664 19.0836L22.8342 18.6607L23.1104 18.2431L23.395 17.831L23.688 17.4249L23.9894 17.025L24.2991 16.6317L24.6173 16.2452L24.9438 15.866L25.2785 15.4944L25.6215 15.1307L25.9726 14.7753L26.3317 14.4285L26.6987 14.0907L27.0735 13.7621L27.4558 13.4431L27.8456 13.1339L28.2426 12.835L28.6466 12.5466L29.0574 12.269L29.4747 12.0024L29.8983 11.7472L30.3279 11.5034L30.7631 11.2714L31.2037 11.0513L31.6493 10.8434L32.0996 10.6478L32.5543 10.4646L33.0129 10.2939L33.4752 10.1359L33.9407 9.99054L34.409 9.858L34.8798 9.73826L35.3527 9.63133L35.8273 9.53719L36.3031 9.45582L36.7798 9.38716L37.257 9.33113L37.7343 9.28765L38.2113 9.25659L38.6876 9.23782L39.1629 9.23121L39.6367 9.23659L40.1088 9.25377L40.5788 9.28258L41.0463 9.32281L41.511 9.37424L41.9726 9.43664L42.4308 9.50974L42.8852 9.59328L43.3356 9.68694L43.7817 9.79041L44.2233 9.90335L44.66 10.0254L45.0916 10.1562L45.518 10.2954L45.9389 10.4426L46.3541 10.5974L46.7635 10.7593L47.1669 10.928L47.5642 11.1029L47.9552 11.2838L48.34 11.4701L48.7184 11.6613L49.0903 11.8571L49.4558 12.057L49.8148 12.2606L50.1673 12.4674L50.5134 12.677L50.8531 12.889L51.1865 13.1029L51.5136 13.3184L51.8347 13.5351L52.1496 13.7525L52.4587 13.9704L52.7621 14.1882L53.0599 14.4057L53.3523 14.6225L53.6395 14.8381L53.9217 15.0523L54.1992 15.2648L54.4722 15.4752L54.7409 15.6831L55.0056 15.8884L55.2667 16.0908L55.5243 16.29L55.7787 16.4857L56.0303 16.6779L56.2794 16.8663L56.5263 17.0508L56.7712 17.2313L57.0145 17.4076L57.2564 17.5797L57.4974 17.7476L57.7376 17.9113L57.9774 18.0707L58.217 18.2258L58.4568 18.3769L58.6969 18.5239L58.9377 18.667L59.1794 18.8063L59.4221 18.9419L59.6662 19.0741L59.9117 19.2031L60.159 19.329L60.408 19.4521L60.6591 19.5727L60.9123 19.6911L61.1676 19.8074L61.4253 19.9221L61.6853 20.0354L61.9477 20.1476L62.2126 20.259L62.4799 20.37L62.7498 20.4809L63.022 20.5919L63.2967 20.7035L63.5737 20.8158L63.853 20.9293L64.1346 21.0443L64.4182 21.161L64.7039 21.2798L64.9914 21.401L65.2807 21.525L65.5714 21.6519L65.8635 21.7821L66.1567 21.916L66.4508 22.0538L66.7455 22.1958L67.0406 22.3423L67.3358 22.4935L67.6308 22.6496L67.9253 22.811L68.2189 22.9778L68.5115 23.1502L68.8026 23.3285L69.092 23.5127L69.3792 23.7031L69.6639 23.8997L69.9459 24.1028L70.2247 24.3123L70.5 24.5283L70.7716 24.751L71.0389 24.9803L71.3018 25.2163L71.5599 25.4589L71.8128 25.7081L72.0604 25.964L72.3021 26.2264L72.5379 26.4953L72.7673 26.7706L72.99 27.0522L73.2059 27.3399L73.4146 27.6337L73.6159 27.9334L73.8096 28.2389L73.9954 28.5499L74.1732 28.8662L74.3427 29.1878L74.5038 29.5143L74.6563 29.8456L74.8002 30.1814L74.9352 30.5215L75.0613 30.8656L75.1785 31.2135L75.2867 31.565L75.3857 31.9197L75.4757 32.2775L75.5567 32.6381L75.6286 33.0012L75.6914 33.3665L75.7453 33.7338L75.7903 34.1029L75.8266 34.4735L75.8541 34.8453L75.873 35.2182L75.8835 35.5919L75.8856 35.9661L75.8796 36.3407L75.8655 36.7155L75.8436 37.0902L75.8139 37.4647L75.7768 37.8388L75.7323 38.2123L75.6806 38.5851L75.6219 38.957L75.5564 39.3279L75.4843 39.6976L75.4056 40.0661L75.3207 40.4331L75.2296 40.7986L75.1324 41.1625L75.0294 41.5247L74.9208 41.8851L74.8065 42.2437L74.687 42.6002L74.5622 42.9548L74.4324 43.3074L74.2977 43.6578L74.1583 44.0061L74.0144 44.3522L73.8662 44.6961L73.7138 45.0379L73.5574 45.3774L73.3971 45.7148L73.2332 46.05L73.0657 46.3831L72.8948 46.7141L72.7207 47.043L72.5436 47.3699L72.3635 47.6949L72.1806 48.0179L71.995 48.3392L71.8069 48.6587L71.6163 48.9765L71.4235 49.2927L71.2283 49.6074L71.0311 49.9207L70.8317 50.2328L70.6304 50.5436L70.4272 50.8533L70.2222 51.1621" fill="#E0F1E9"/>
<path d="M22.3382 93.6807C21.838 93.6807 21.3984 93.5718 21.0192 93.3539C20.6481 93.1281 20.3617 92.8296 20.16 92.4585C19.9664 92.0793 19.8696 91.6719 19.8696 91.2363C19.8696 91.0427 19.8857 90.8692 19.918 90.716C19.9584 90.4901 20.0108 90.2198 20.0753 89.9052C20.1479 89.5906 20.2125 89.3163 20.2689 89.0823L21.6847 89.4333L21.6 89.8205C21.4387 90.4497 21.358 90.8854 21.358 91.1274C21.358 91.3775 21.4427 91.5751 21.6121 91.7203C21.7815 91.8655 22.0236 91.9381 22.3382 91.9381H27.5415C27.8723 91.9381 28.1143 91.8696 28.2676 91.7324C28.4209 91.5872 28.4975 91.3976 28.4975 91.1637C28.4975 90.8491 28.3926 90.1674 28.1829 89.1186L29.635 88.7556C29.9012 89.885 30.0343 90.72 30.0343 91.2605C30.0343 91.6639 29.9415 92.0511 29.756 92.4222C29.5785 92.7933 29.3123 93.0958 28.9573 93.3297C28.6024 93.5637 28.1708 93.6807 27.6626 93.6807H22.3382ZM23.1247 87.8723H24.5647V89.3123H23.1247V87.8723ZM25.3876 87.8723H26.8397V89.3123H25.3876V87.8723ZM33.9112 93.6807C33.0642 93.6807 32.4389 93.4346 32.0356 92.9425C31.6403 92.4504 31.4426 91.7889 31.4426 90.958V85.5973H32.9794V90.958C32.9794 91.2645 32.9956 91.4823 33.0279 91.6114C33.0682 91.7405 33.1489 91.8292 33.2699 91.8776C33.3989 91.918 33.6127 91.9381 33.9112 91.9381H34.3468L34.4194 92.8336L34.3468 93.6807H33.9112ZM42.0161 93.6807C41.524 93.6807 41.1005 93.5798 40.7455 93.3781C40.3986 93.1765 40.1284 92.882 39.9348 92.4948C39.2249 92.882 38.5271 93.1765 37.8413 93.3781C37.1556 93.5798 36.4175 93.6807 35.6269 93.6807H34.1748V91.9381H35.6269C36.3852 91.9381 37.0992 91.8413 37.7687 91.6477C38.4383 91.4541 39.1281 91.1677 39.838 90.7886C38.1358 90.1997 37.1435 89.9052 36.8612 89.9052C36.6918 89.9052 36.5506 89.9576 36.4376 90.0625C36.3247 90.1593 36.2239 90.3287 36.1351 90.5708L34.7798 90.1351C34.9654 89.5059 35.2397 89.0259 35.6027 88.6951C35.9657 88.3644 36.3852 88.199 36.8612 88.199C37.1919 88.199 37.7123 88.324 38.4222 88.5741C39.1402 88.8242 40.084 89.1913 41.2538 89.6753L41.4837 91.5751L41.1449 91.7808C41.4192 91.8857 41.6934 91.9381 41.9677 91.9381H42.6333L42.7422 92.7852L42.6333 93.6807H42.0161ZM37.5267 95.0239H39.1361V96.597H37.5267V95.0239ZM46.3076 89.6269V91.3815C46.3076 91.5913 46.364 91.7365 46.477 91.8171C46.5899 91.8978 46.7674 91.9381 47.0094 91.9381H47.6629L47.7355 92.8578L47.6629 93.6807H47.0094C46.7593 93.6807 46.4972 93.6323 46.2229 93.5355C45.9486 93.4306 45.7066 93.2813 45.4968 93.0877C45.2709 93.2813 45.0128 93.4306 44.7224 93.5355C44.44 93.6323 44.1496 93.6807 43.8511 93.6807H42.4716V91.9381H43.8511C44.1899 91.9381 44.4279 91.8938 44.5651 91.805C44.7022 91.7082 44.7708 91.5469 44.7708 91.321V89.6269H46.3076ZM41.6367 95.157H43.0888V96.6091H41.6367V95.157ZM43.9116 95.157H45.3637V96.6091H43.9116V95.157ZM47.5412 91.9381H49.5257C49.9452 91.9381 50.2679 91.922 50.4938 91.8897C50.7277 91.8575 50.9052 91.797 51.0262 91.7082L50.2518 91.5872C49.558 91.4581 49.0336 91.2081 48.6787 90.837C48.3318 90.4659 48.1583 89.9173 48.1583 89.1913C48.1583 88.683 48.2592 88.2353 48.4609 87.8481C48.6706 87.4528 48.9489 87.1502 49.2958 86.9405C49.6508 86.7308 50.042 86.6259 50.4696 86.6259C50.9294 86.6259 51.3328 86.7308 51.6797 86.9405C52.0346 87.1502 52.3089 87.4487 52.5025 87.836C52.6962 88.2232 52.793 88.675 52.793 89.1913V90.1472C52.793 91.2121 52.5429 92.0672 52.0427 92.7126C51.5425 93.358 50.7035 93.6807 49.5257 93.6807H47.5412V91.9381ZM48.5214 84.5203H49.9614V85.9603H48.5214V84.5203ZM49.6225 89.1792C49.6225 89.3808 49.683 89.5462 49.8041 89.6753C49.9251 89.7963 50.1267 89.8891 50.4091 89.9536L51.3409 90.1956V89.1792C51.3409 88.9049 51.2683 88.679 51.123 88.5015C50.9859 88.324 50.7721 88.2353 50.4817 88.2353C50.1993 88.2353 49.9856 88.324 49.8404 88.5015C49.6951 88.679 49.6225 88.9049 49.6225 89.1792ZM50.7963 84.5203H52.2363V85.9603H50.7963V84.5203ZM56.3045 89.6269V91.3815C56.3045 91.5913 56.3569 91.7365 56.4618 91.8171C56.5747 91.8978 56.7522 91.9381 56.9942 91.9381H57.2241L57.2967 92.8215L57.2241 93.6807H56.9942C56.728 93.6807 56.494 93.6161 56.2924 93.4871C56.2117 94.5197 55.8729 95.3183 55.2759 95.883C54.6789 96.4477 53.8561 96.7301 52.8073 96.7301H52.045V94.9876H52.8073C53.3156 94.9876 53.7068 94.927 53.9811 94.806C54.2635 94.6931 54.4611 94.4955 54.574 94.2131C54.6951 93.9388 54.7556 93.5476 54.7556 93.0393V89.6269H56.3045ZM62.8976 93.6807H57.1013V91.9381H58.4687C58.2348 91.5671 58.1178 91.1718 58.1178 90.7523C58.1178 90.3005 58.2267 89.881 58.4445 89.4938C58.6623 89.0985 58.9608 88.7879 59.34 88.562C59.7191 88.3281 60.1306 88.2111 60.5743 88.2111C60.8647 88.2111 61.1188 88.2434 61.3366 88.3079C61.5625 88.3724 61.7601 88.4531 61.9296 88.5499C62.107 88.6467 62.3975 88.8202 62.8008 89.0702L62.099 90.3529C61.6795 90.119 61.381 89.9657 61.2035 89.8931C61.026 89.8205 60.8284 89.7842 60.6106 89.7842C60.3282 89.7842 60.0862 89.877 59.8845 90.0625C59.6828 90.24 59.582 90.4618 59.582 90.7281C59.582 91.0911 59.7554 91.3855 60.1023 91.6114C60.4492 91.8292 60.9978 91.9381 61.748 91.9381H62.8976V93.6807Z" fill="#3D8361"/>
<g clip-path="url(#clip0_2247_26700)">
<path d="M47.1819 17.3955V11.3375C47.6613 11.1869 48.0091 10.7392 48.0091 10.2101V6.07409C48.0091 5.54491 47.6613 5.09728 47.1819 4.94661V1.93807C47.1819 1.2854 46.6527 0.756348 46.0002 0.756348H38.2008C37.5481 0.756348 37.0191 1.2854 37.0191 1.93807V4.94661C36.5397 5.09716 36.1919 5.54491 36.1919 6.07409V10.2101C36.1919 10.7393 36.5397 11.1869 37.0191 11.3375V17.3954C32.2501 19.4315 29.1016 24.1354 29.1016 29.3541V57.7827C29.1016 59.7004 30.6618 61.2605 32.5795 61.2605H51.6215C53.5393 61.2605 55.0994 59.7004 55.0994 57.7827V29.3541C55.0994 24.1354 51.9507 19.4317 47.1819 17.3955ZM39.3825 3.11979H44.8184V4.89237H39.3825V3.11979ZM38.5553 7.25581H45.6456V9.02838H38.5553V7.25581ZM44.8184 11.3918V15.0507H39.3825V11.3918H44.8184ZM51.6215 58.8971H32.5794C31.9649 58.8971 31.4649 58.3972 31.4649 57.7827V29.3541C31.4649 24.8534 34.3296 20.8199 38.5934 19.3175C38.8241 19.2362 39.0239 19.0854 39.1652 18.8857C39.3065 18.6861 39.3824 18.4475 39.3824 18.2029V17.414H44.8183V18.2029C44.8183 18.4475 44.8942 18.6861 45.0355 18.8857C45.1769 19.0854 45.3766 19.2362 45.6073 19.3175C49.8711 20.8199 52.7358 24.8533 52.7358 29.3541V57.7827C52.7358 58.3972 52.2361 58.8971 51.6215 58.8971Z" fill="#3D8361"/>
<path d="M42.7216 54.8157H42.6937C42.041 54.8157 41.512 55.3447 41.512 55.9974C41.512 56.6501 42.041 57.1791 42.6937 57.1791H42.7216C43.3741 57.1791 43.9033 56.6501 43.9033 55.9974C43.9033 55.3447 43.3741 54.8157 42.7216 54.8157ZM39.2985 54.8154H34.4493C33.7966 54.8154 33.2676 55.3445 33.2676 55.9972C33.2676 56.6498 33.7966 57.1789 34.4493 57.1789H39.2985C39.9512 57.1789 40.4802 56.6498 40.4802 55.9972C40.4802 55.3445 39.9512 54.8154 39.2985 54.8154ZM47.3032 33.8275C46.1862 31.04 44.1061 28.5007 42.9656 27.2351C42.8558 27.1132 42.7218 27.0156 42.5722 26.9483C42.4226 26.8811 42.2606 26.8458 42.0966 26.8446C41.7671 26.8384 41.4475 26.979 41.2219 27.2221C40.3365 28.1754 38.1464 30.7175 36.9323 33.7263C35.2587 37.8743 36.5089 40.3466 37.8525 41.6902C38.9838 42.8214 40.4879 43.4444 42.0877 43.4444C43.6876 43.4444 45.1916 42.8214 46.3229 41.6902C47.6684 40.3447 48.9307 37.8883 47.3032 33.8275ZM44.6517 40.0189C43.9669 40.7037 43.0563 41.0809 42.0877 41.0809C41.1192 41.0809 40.2085 40.7038 39.5237 40.0189C38.303 38.7983 38.1687 36.9786 39.1241 34.6107C39.8972 32.695 41.1742 30.9405 42.0785 29.8375C43.9671 32.1722 47.437 37.2335 44.6517 40.0189Z" fill="#FFC436"/>
</g>
<defs>
<clipPath id="clip0_2247_26700">
<rect width="60.5042" height="60.5042" fill="white" transform="translate(11.8486 0.756348)"/>
</clipPath>
</defs>
</svg>
