<svg width="84" height="104" viewBox="0 0 84 104" fill="none" xmlns="http://www.w3.org/2000/svg">
<path fill-rule="evenodd" clip-rule="evenodd" d="M70.6587 51.1621L70.4518 51.4699L70.2432 51.7771L70.0329 52.0836L69.8209 52.3895L69.6072 52.6951L69.3919 53.0004L69.1749 53.3056L68.9563 53.6106L68.7359 53.9158L68.5139 54.2212L68.29 54.5268L68.0644 54.8328L67.8369 55.1393L67.6075 55.4464L67.376 55.7541L67.1425 56.0625L66.9067 56.3718L66.6686 56.6819L66.4281 56.9929L66.1851 57.3049L65.9394 57.6178L65.6908 57.9317L65.4394 58.2466L65.1848 58.5625L64.9271 58.8794L64.6659 59.1973L64.4012 59.516L64.1328 59.8357L63.8606 60.1561L63.5844 60.4773L63.304 60.7991L63.0192 61.1215L62.73 61.4443L62.4362 61.7675L62.1376 62.0908L61.8341 62.4143L61.5255 62.7376L61.2117 63.0608L60.8925 63.3835L60.5679 63.7057L60.2377 64.0271L59.9019 64.3477L59.5602 64.6671L59.2126 64.9852L58.859 65.3018L58.4993 65.6167L58.1334 65.9295L57.7613 66.2401L57.3828 66.5483L56.998 66.8536L56.6067 67.1558L56.209 67.4547L55.8048 67.7499L55.394 68.0412L54.9767 68.3281L54.553 68.6104L54.1227 68.8877L53.686 69.1597L53.2428 69.426L52.7934 69.6863L52.3376 69.9403L51.8757 70.1875L51.4078 70.4277L50.9339 70.6605L50.4542 70.8854L49.9688 71.1023L49.478 71.3106L48.9819 71.5102L48.4806 71.7006L47.9744 71.8815L47.4636 72.0527L46.9483 72.2137L46.4288 72.3642L45.9054 72.5039L45.3784 72.6325L44.848 72.7497L44.3146 72.8552L43.7784 72.9486L43.2399 73.0298L42.6993 73.0984L42.1571 73.1542L41.6135 73.197L41.069 73.2266L40.5239 73.2426L39.9786 73.2451L39.4336 73.2338L38.8892 73.2085L38.3458 73.1693L37.8038 73.1159L37.2636 73.0483L36.7257 72.9665L36.1905 72.8704L35.6582 72.76L35.1294 72.6354L34.6045 72.4966L34.0838 72.3437L33.5677 72.1767L33.0565 71.9958L32.5507 71.8011L32.0506 71.5928L31.5565 71.3709L31.0688 71.1358L30.5878 70.8875L30.1138 70.6264L29.647 70.3527L29.1879 70.0665L28.7366 69.7683L28.2935 69.4582L27.8587 69.1365L27.4325 68.8035L27.0151 68.4596L26.6068 68.105L26.2077 67.7401L25.8179 67.3651L25.4378 66.9804L25.0675 66.5863L24.707 66.1832L24.3565 65.7713L24.0162 65.3511L23.686 64.923L23.3661 64.4873L23.0565 64.0443L22.7572 63.5945L22.4682 63.1382L22.1895 62.6759L21.9211 62.2079L21.6629 61.7345L21.4149 61.2563L21.1769 60.7734L20.9489 60.2864L20.7308 59.7956L20.5223 59.3013L20.3234 58.8039L20.1339 58.3037L19.9536 57.801L19.7823 57.2963L19.6199 56.7896L19.4662 56.2815L19.3209 55.772L19.1839 55.2616L19.0548 54.7504L18.9336 54.2387L18.8199 53.7268L18.7136 53.2147L18.6143 52.7028L18.5219 52.1911L18.4361 51.6799L18.3567 51.1694L18.2834 50.6596L18.2159 50.1507L18.1541 49.6428L18.0977 49.136L18.0464 48.6304L18.0001 48.126L17.9585 47.6229L17.9214 47.1212L17.8886 46.6207L17.86 46.1217L17.8354 45.624L17.8145 45.1277L17.7974 44.6327L17.7838 44.139L17.7736 43.6466L17.7668 43.1554L17.7632 42.6654L17.7628 42.1765L17.7655 41.6886L17.7714 41.2017L17.7802 40.7157L17.7922 40.2306L17.8072 39.7463L17.8253 39.2626L17.8465 38.7796L17.8709 38.2972L17.8985 37.8153L17.9293 37.3338L17.9636 36.8527L18.0013 36.372L18.0425 35.8916L18.0874 35.4115L18.1361 34.9316L18.1886 34.4519L18.2452 33.9724L18.3058 33.4931L18.3706 33.014L18.4399 32.535L18.5135 32.0562L18.5918 31.5777L18.6748 31.0994L18.7627 30.6213L18.8556 30.1436L18.9536 29.6662L19.057 29.1893L19.1658 28.7129L19.2803 28.2371L19.4006 27.7619L19.5269 27.2876L19.6593 26.8142L19.798 26.3419L19.9433 25.8708L20.0952 25.401L20.2539 24.9328L20.4197 24.4663L20.5925 24.0018L20.7727 23.5393L20.9603 23.0792L21.1555 22.6216L21.3584 22.1669L21.5691 21.7152L21.7878 21.2668L22.0144 20.8219L22.2492 20.3809L22.4922 19.944L22.7434 19.5115L23.0029 19.0836L23.2707 18.6607L23.5469 18.2431L23.8315 17.831L24.1245 17.4249L24.4259 17.025L24.7357 16.6317L25.0538 16.2452L25.3803 15.866L25.715 15.4944L26.058 15.1307L26.4091 14.7753L26.7682 14.4285L27.1352 14.0907L27.51 13.7621L27.8924 13.4431L28.2821 13.1339L28.6792 12.835L29.0832 12.5466L29.494 12.269L29.9113 12.0024L30.3348 11.7472L30.7644 11.5034L31.1996 11.2714L31.6402 11.0513L32.0858 10.8434L32.5361 10.6478L32.9908 10.4646L33.4494 10.2939L33.9117 10.1359L34.3772 9.99054L34.8455 9.858L35.3164 9.73826L35.7892 9.63133L36.2638 9.53719L36.7396 9.45582L37.2163 9.38716L37.6935 9.33113L38.1708 9.28765L38.6478 9.25659L39.1241 9.23782L39.5994 9.23121L40.0733 9.23659L40.5454 9.25377L41.0153 9.28258L41.4828 9.32281L41.9475 9.37424L42.4091 9.43664L42.8673 9.50974L43.3217 9.59328L43.7721 9.68694L44.2182 9.79041L44.6598 9.90335L45.0965 10.0254L45.5281 10.1562L45.9545 10.2954L46.3754 10.4426L46.7906 10.5974L47.2 10.7593L47.6034 10.928L48.0007 11.1029L48.3918 11.2838L48.7765 11.4701L49.1549 11.6613L49.5268 11.8571L49.8923 12.057L50.2513 12.2606L50.6038 12.4674L50.9499 12.677L51.2896 12.889L51.623 13.1029L51.9502 13.3184L52.2712 13.5351L52.5862 13.7525L52.8953 13.9704L53.1986 14.1882L53.4964 14.4057L53.7888 14.6225L54.076 14.8381L54.3582 15.0523L54.6357 15.2648L54.9087 15.4752L55.1774 15.6831L55.4422 15.8884L55.7032 16.0908L55.9608 16.29L56.2152 16.4857L56.4669 16.6779L56.7159 16.8663L56.9628 17.0508L57.2077 17.2313L57.451 17.4076L57.6929 17.5797L57.9339 17.7476L58.1741 17.9113L58.4139 18.0707L58.6535 18.2258L58.8933 18.3769L59.1334 18.5239L59.3742 18.667L59.6159 18.8063L59.8586 18.9419L60.1027 19.0741L60.3483 19.2031L60.5955 19.329L60.8446 19.4521L61.0956 19.5727L61.3488 19.6911L61.6041 19.8074L61.8618 19.9221L62.1218 20.0354L62.3842 20.1476L62.6491 20.259L62.9165 20.37L63.1863 20.4809L63.4585 20.5919L63.7332 20.7035L64.0102 20.8158L64.2895 20.9293L64.5711 21.0443L64.8548 21.161L65.1404 21.2798L65.428 21.401L65.7172 21.525L66.008 21.6519L66.3001 21.7821L66.5933 21.916L66.8873 22.0538L67.182 22.1958L67.4771 22.3423L67.7723 22.4935L68.0673 22.6496L68.3618 22.811L68.6555 22.9778L68.948 23.1502L69.2391 23.3285L69.5285 23.5127L69.8157 23.7031L70.1005 23.8997L70.3824 24.1028L70.6612 24.3123L70.9366 24.5283L71.2081 24.751L71.4755 24.9803L71.7383 25.2163L71.9964 25.4589L72.2494 25.7081L72.4969 25.964L72.7387 26.2264L72.9744 26.4953L73.2038 26.7706L73.4266 27.0522L73.6424 27.3399L73.8512 27.6337L74.0525 27.9334L74.2461 28.2389L74.432 28.5499L74.6097 28.8662L74.7792 29.1878L74.9403 29.5143L75.0929 29.8456L75.2367 30.1814L75.3717 30.5215L75.4979 30.8656L75.615 31.2135L75.7232 31.565L75.8223 31.9197L75.9123 32.2775L75.9932 32.6381L76.0651 33.0012L76.1279 33.3665L76.1818 33.7338L76.2269 34.1029L76.2631 34.4735L76.2906 34.8453L76.3095 35.2182L76.32 35.5919L76.3221 35.9661L76.3161 36.3407L76.302 36.7155L76.2801 37.0902L76.2505 37.4647L76.2133 37.8388L76.1688 38.2123L76.1171 38.5851L76.0585 38.957L75.993 39.3279L75.9208 39.6976L75.8422 40.0661L75.7572 40.4331L75.6661 40.7986L75.569 41.1625L75.466 41.5247L75.3573 41.8851L75.2431 42.2437L75.1235 42.6002L74.9987 42.9548L74.8689 43.3074L74.7342 43.6578L74.5948 44.0061L74.451 44.3522L74.3027 44.6961L74.1503 45.0379L73.9939 45.3774L73.8336 45.7148L73.6697 46.05L73.5022 46.3831L73.3313 46.7141L73.1573 47.043L72.9801 47.3699L72.8 47.6949L72.6171 48.0179L72.4316 48.3392L72.2434 48.6587L72.0529 48.9765L71.86 49.2927L71.6649 49.6074L71.4676 49.9207L71.2683 50.2328L71.067 50.5436L70.8637 50.8533L70.6587 51.1621Z" fill="#E0F1E9"/>
<path d="M25.9398 93.6807C25.0927 93.6807 24.4675 93.4346 24.0642 92.9425C23.6689 92.4504 23.4712 91.7889 23.4712 90.958V85.5973H25.008V90.958C25.008 91.2645 25.0242 91.4823 25.0564 91.6114C25.0968 91.7405 25.1774 91.8292 25.2984 91.8776C25.4275 91.918 25.6413 91.9381 25.9398 91.9381H26.3754L26.448 92.8336L26.3754 93.6807H25.9398ZM32.8588 86.9889L34.7949 89.9052C35.0934 90.357 35.2427 90.8612 35.2427 91.4178C35.2427 91.926 35.1176 92.3536 34.8676 92.7005C34.5933 93.0716 34.198 93.3378 33.6817 93.4992C33.1734 93.6605 32.4918 93.7412 31.6366 93.7412C30.8783 93.7412 30.1361 93.6161 29.4101 93.366C28.7324 93.5758 28.0064 93.6807 27.2319 93.6807H26.2518V91.9381H27.3045H27.3529C27.0302 91.4864 26.8689 90.9983 26.8689 90.4739C26.8689 89.9818 26.9818 89.526 27.2077 89.1065C27.4417 88.679 27.7563 88.3402 28.1516 88.0901C28.555 87.84 28.9986 87.715 29.4827 87.715C29.9506 87.715 30.3822 87.84 30.7775 88.0901C31.1728 88.3402 31.4834 88.675 31.7092 89.0944C31.9351 89.5139 32.0481 89.9697 32.0481 90.4618C32.0481 91.0346 31.8746 91.5509 31.5277 92.0107H31.5761C32.2054 92.0107 32.6652 91.9825 32.9556 91.926C33.246 91.8696 33.4397 91.7849 33.5365 91.6719C33.6171 91.5751 33.6575 91.4662 33.6575 91.3452C33.6575 91.1677 33.5849 90.9741 33.4397 90.7644L31.564 87.9449L32.8588 86.9889ZM28.4057 90.4981C28.4057 90.7321 28.4944 90.9499 28.6719 91.1516C28.8575 91.3452 29.1076 91.5106 29.4222 91.6477C29.7771 91.5186 30.0474 91.3573 30.2329 91.1637C30.4185 90.9701 30.5113 90.7482 30.5113 90.4981C30.5113 90.1674 30.4144 89.8971 30.2208 89.6874C30.0272 89.4776 29.7812 89.3728 29.4827 89.3728C29.1681 89.3728 28.9099 89.4776 28.7082 89.6874C28.5065 89.8971 28.4057 90.1674 28.4057 90.4981ZM38.399 86.7106C38.6652 87.0091 38.9193 87.2874 39.1614 87.5455C39.7583 88.199 40.202 88.7032 40.4925 89.0581C40.7909 89.4131 41.0249 89.7721 41.1943 90.1351C41.3637 90.4901 41.4484 90.8612 41.4484 91.2484C41.4484 91.7082 41.3274 92.1358 41.0854 92.5311C40.8434 92.9183 40.5167 93.2249 40.1052 93.4507C39.7019 93.6766 39.2582 93.7896 38.7741 93.7896C38.282 93.7896 37.8303 93.6766 37.4188 93.4507C37.0074 93.2249 36.6807 92.9183 36.4387 92.5311C36.1967 92.1358 36.0757 91.7082 36.0757 91.2484C36.0757 90.6918 36.2128 90.1916 36.4871 89.7479C36.7694 89.2961 37.1849 88.7798 37.7335 88.199L37.322 87.7513L38.399 86.7106ZM37.6125 91.1032C37.6125 91.3775 37.7133 91.6114 37.915 91.805C38.1167 91.9986 38.403 92.0955 38.7741 92.0955C39.1372 92.0955 39.4155 91.9986 39.6091 91.805C39.8108 91.6114 39.9116 91.3775 39.9116 91.1032C39.9116 90.9096 39.8269 90.6918 39.6575 90.4497C39.4962 90.1997 39.1977 89.8245 38.762 89.3244C38.3345 89.7761 38.036 90.123 37.8666 90.365C37.6972 90.6071 37.6125 90.8531 37.6125 91.1032ZM44.3399 95.0723C44.84 95.0723 45.2192 95.0279 45.4773 94.9392C45.7355 94.8585 45.913 94.7173 46.0098 94.5156C46.1146 94.322 46.1752 94.0437 46.1913 93.6807H45.1506C44.3842 93.6807 43.7752 93.4588 43.3234 93.0151C42.8797 92.5634 42.6578 91.9341 42.6578 91.1274C42.6578 90.5546 42.7627 90.0464 42.9725 89.6027C43.1903 89.159 43.4847 88.8161 43.8558 88.5741C44.235 88.324 44.6625 88.199 45.1385 88.199C45.6548 88.199 46.1066 88.32 46.4938 88.562C46.8891 88.804 47.1916 89.1469 47.4014 89.5906C47.6192 90.0343 47.7281 90.5465 47.7281 91.1274V91.9381H48.3936L48.4904 92.8215L48.3936 93.6807H47.7281C47.6958 94.6245 47.4054 95.3828 46.8568 95.9556C46.3083 96.5284 45.4693 96.8148 44.3399 96.8148H42.8999V95.0723H44.3399ZM44.1341 91.0427C44.1341 91.3734 44.2148 91.6195 44.3762 91.7808C44.5375 91.9341 44.7957 92.0107 45.1506 92.0107H46.1913V91.0911C46.1913 90.2521 45.8404 89.8326 45.1385 89.8326C44.8078 89.8326 44.5577 89.9455 44.3883 90.1714C44.2189 90.3973 44.1341 90.6877 44.1341 91.0427ZM48.2672 91.9381H48.9207V91.079C48.9207 90.119 49.1546 89.3647 49.6225 88.8161C50.0985 88.2676 50.7318 87.9933 51.5224 87.9933C51.958 87.9933 52.3694 88.1143 52.7566 88.3563C53.1439 88.5902 53.4504 88.917 53.6763 89.3365C53.9103 89.7479 54.0272 90.2037 54.0272 90.7039C54.0272 90.8733 54.0151 91.0427 53.9909 91.2121C53.9345 91.5993 53.8014 91.9462 53.5916 92.2528C53.9627 92.043 54.362 91.9381 54.7896 91.9381H55.2494L55.3462 92.7852L55.2494 93.6807H54.8622C54.5556 93.6807 54.3177 93.7613 54.1482 93.9227C53.9788 94.0921 53.8941 94.3462 53.8941 94.685V95.4716L52.5509 96.8148C51.4619 96.8148 50.5987 96.5405 49.9614 95.9919C49.324 95.4514 48.9812 94.681 48.9328 93.6807H48.2672V91.9381ZM50.4575 91.9381C51.7402 91.8978 52.434 91.5671 52.5388 90.9459C52.563 90.8249 52.5751 90.716 52.5751 90.6192C52.5751 90.3045 52.4743 90.0625 52.2726 89.8931C52.079 89.7237 51.8289 89.639 51.5224 89.639C50.8124 89.639 50.4575 90.119 50.4575 91.079V91.9381ZM50.4696 93.6686C50.5099 94.1203 50.6874 94.4753 51.002 94.7334C51.3166 94.9916 51.7684 95.1247 52.3573 95.1328V94.5035C52.3573 93.9549 52.4945 93.4669 52.7687 93.0393C52.1637 93.4185 51.3973 93.6282 50.4696 93.6686ZM55.133 91.9381H57.1176C57.5371 91.9381 57.8598 91.922 58.0856 91.8897C58.3196 91.8575 58.4971 91.797 58.6181 91.7082L57.8436 91.5872C57.1499 91.4581 56.6255 91.2081 56.2705 90.837C55.9236 90.4659 55.7502 89.9173 55.7502 89.1913C55.7502 88.683 55.851 88.2353 56.0527 87.8481C56.2625 87.4528 56.5408 87.1502 56.8877 86.9405C57.2426 86.7308 57.6339 86.6259 58.0614 86.6259C58.5213 86.6259 58.9246 86.7308 59.2715 86.9405C59.6265 87.1502 59.9008 87.4487 60.0944 87.836C60.288 88.2232 60.3848 88.675 60.3848 89.1913V90.1472C60.3848 91.2121 60.1347 92.0672 59.6346 92.7126C59.1344 93.358 58.2954 93.6807 57.1176 93.6807H55.133V91.9381ZM56.1132 84.5203H57.5532V85.9603H56.1132V84.5203ZM57.2144 89.1792C57.2144 89.3808 57.2749 89.5462 57.3959 89.6753C57.5169 89.7963 57.7186 89.8891 58.0009 89.9536L58.9327 90.1956V89.1792C58.9327 88.9049 58.8601 88.679 58.7149 88.5015C58.5777 88.324 58.364 88.2353 58.0735 88.2353C57.7912 88.2353 57.5774 88.324 57.4322 88.5015C57.287 88.679 57.2144 88.9049 57.2144 89.1792ZM58.3882 84.5203H59.8282V85.9603H58.3882V84.5203Z" fill="#3D8361"/>
<g clip-path="url(#clip0_2247_26701)">
<path d="M69.7154 11.5891C67.0382 6.95218 62.9695 3.4791 58.2588 1.80962C53.4818 0.116735 48.6178 0.473579 44.5629 2.81481C40.508 5.15591 37.7668 9.18978 36.8444 14.1732C36.2533 17.3671 36.4584 20.7067 37.4086 23.9267C34.7142 23.3799 31.8352 23.4763 28.9582 24.2278C25.2047 25.2084 21.7014 27.246 18.8271 30.1202C15.041 33.9063 12.7393 38.7353 12.346 43.7175C11.9471 48.7699 13.5508 53.3758 16.8618 56.6866C19.6067 59.4316 23.2266 61.0036 27.33 61.2329C27.6621 61.2514 27.9952 61.2606 28.33 61.2605C31.9509 61.2604 35.711 60.1829 39.0226 58.1809C39.5811 57.8433 39.7601 57.1169 39.4224 56.5584C39.085 55.9999 38.3585 55.8211 37.8 56.1586C31.3144 60.0794 23.6203 59.7277 18.8897 55.3553C19.1509 48.8304 24.5398 43.6024 31.1277 43.6024C34.3345 43.6024 37.3784 42.583 39.9302 40.6544C41.9026 39.1637 43.4757 37.1702 44.4796 34.9248C45.394 35.7124 46.3656 36.4167 47.3843 37.0305C48.0545 40.9497 47.1493 45.3149 44.8657 49.0928C44.5281 49.6513 44.7073 50.3777 45.2657 50.7153C45.4569 50.8309 45.6677 50.8858 45.8759 50.8858C46.2758 50.8858 46.6661 50.6826 46.8881 50.3153C49.1415 46.5876 50.2003 42.329 49.9171 38.3248C50.2877 38.4823 50.6625 38.6298 51.042 38.7642C53.0277 39.468 55.0286 39.8175 56.9801 39.8175C59.7231 39.8175 62.3687 39.127 64.7379 37.759C68.7929 35.4179 71.534 31.3841 72.4564 26.4006C73.3661 21.4862 72.3926 16.2261 69.7154 11.5891ZM31.1277 41.2391C24.0857 41.2391 18.1916 46.2464 16.818 52.8873C12.9457 46.8655 14.3306 37.9588 20.4983 31.7912C25.5354 26.7539 32.5012 24.7559 38.3894 26.6149C38.7404 27.4191 39.1387 28.2106 39.5855 28.9846C40.4648 30.5078 41.4953 31.9043 42.6483 33.1536C40.9127 37.9461 36.2709 41.2391 31.1277 41.2391ZM51.8314 36.5367C47.6504 35.0549 44.0282 31.9532 41.632 27.803C36.8194 19.467 38.4961 9.41665 45.3219 5.11751C51.5582 7.05782 55.2143 13.6169 53.509 19.981C52.4989 23.751 53.0172 27.6887 54.9688 31.0688C56.4163 33.5762 58.5244 35.5533 61.0552 36.8198C58.1834 37.7426 54.993 37.6571 51.8314 36.5367ZM63.9787 35.4562C61.029 34.5399 58.5688 32.5776 57.0155 29.8873C55.3796 27.0538 54.945 23.7529 55.7919 20.5927C57.6145 13.7907 54.3034 6.80141 48.2443 3.75583C55.0629 1.57412 63.3078 5.217 67.669 12.7707C72.4815 21.1067 70.8048 31.1573 63.9787 35.4562Z" fill="#3D8361"/>
<path d="M42.5927 52.7039C42.282 52.7039 41.9771 52.8303 41.7573 53.0501C41.5364 53.2698 41.4111 53.5747 41.4111 53.8855C41.4111 54.1962 41.5364 54.5011 41.7573 54.7209C41.9771 54.9406 42.2808 55.0671 42.5927 55.0671C42.9035 55.0671 43.2083 54.9406 43.4281 54.7209C43.6479 54.5011 43.7743 54.1962 43.7743 53.8855C43.7743 53.5747 43.6479 53.2698 43.4281 53.0501C43.2083 52.8303 42.9035 52.7039 42.5927 52.7039Z" fill="#FFC436"/>
</g>
<defs>
<clipPath id="clip0_2247_26701">
<rect width="60.5042" height="60.5042" fill="white" transform="translate(12.2852 0.756348)"/>
</clipPath>
</defs>
</svg>
