<svg width="83" height="105" viewBox="0 0 83 105" fill="none" xmlns="http://www.w3.org/2000/svg">
<path fill-rule="evenodd" clip-rule="evenodd" d="M70.0962 51.7755L69.8893 52.0833L69.6807 52.3905L69.4704 52.697L69.2584 53.0029L69.0447 53.3085L68.8294 53.6138L68.6124 53.919L68.3938 54.2241L68.1734 54.5292L67.9514 54.8346L67.7275 55.1402L67.5019 55.4462L67.2744 55.7527L67.045 56.0598L66.8135 56.3675L66.58 56.676L66.3442 56.9852L66.1061 57.2953L65.8656 57.6063L65.6226 57.9183L65.3769 58.2312L65.1283 58.5451L64.8769 58.86L64.6223 59.1759L64.3646 59.4928L64.1034 59.8107L63.8387 60.1294L63.5703 60.4491L63.2981 60.7695L63.0219 61.0907L62.7415 61.4125L62.4567 61.7349L62.1675 62.0577L61.8737 62.3809L61.5751 62.7042L61.2716 63.0277L60.963 63.351L60.6492 63.6742L60.33 63.9969L60.0054 64.3191L59.6752 64.6405L59.3394 64.9611L58.9977 65.2805L58.6501 65.5986L58.2965 65.9152L57.9368 66.2301L57.5709 66.5429L57.1988 66.8535L56.8203 67.1617L56.4355 67.467L56.0442 67.7692L55.6465 68.0681L55.2423 68.3633L54.8315 68.6546L54.4142 68.9415L53.9905 69.2238L53.5602 69.5011L53.1235 69.7731L52.6803 70.0394L52.2309 70.2997L51.7751 70.5537L51.3132 70.8009L50.8453 71.0411L50.3714 71.2739L49.8917 71.4988L49.4063 71.7157L48.9155 71.924L48.4194 72.1236L47.9181 72.314L47.4119 72.4949L46.9011 72.6661L46.3858 72.8271L45.8663 72.9776L45.3429 73.1173L44.8159 73.2459L44.2855 73.3631L43.7521 73.4686L43.2159 73.562L42.6774 73.6432L42.1368 73.7118L41.5946 73.7676L41.051 73.8104L40.5065 73.84L39.9614 73.856L39.4161 73.8585L38.8711 73.8472L38.3267 73.8219L37.7833 73.7827L37.2413 73.7293L36.7011 73.6617L36.1632 73.5799L35.628 73.4838L35.0957 73.3734L34.5669 73.2488L34.042 73.11L33.5213 72.9571L33.0052 72.7901L32.494 72.6092L31.9882 72.4145L31.4881 72.2062L30.994 71.9843L30.5063 71.7492L30.0253 71.5009L29.5513 71.2398L29.0845 70.9661L28.6254 70.6799L28.1741 70.3817L27.731 70.0716L27.2962 69.7499L26.87 69.417L26.4526 69.073L26.0443 68.7184L25.6452 68.3535L25.2554 67.9785L24.8753 67.5938L24.505 67.1997L24.1445 66.7966L23.794 66.3847L23.4537 65.9645L23.1235 65.5364L22.8036 65.1007L22.494 64.6577L22.1947 64.2079L21.9057 63.7516L21.627 63.2893L21.3586 62.8213L21.1004 62.3479L20.8524 61.8697L20.6144 61.3868L20.3864 60.8998L20.1683 60.409L19.9598 59.9147L19.7609 59.4173L19.5714 58.9171L19.3911 58.4144L19.2198 57.9097L19.0574 57.403L18.9037 56.8949L18.7584 56.3854L18.6214 55.875L18.4923 55.3638L18.3711 54.8521L18.2574 54.3402L18.1511 53.8281L18.0518 53.3162L17.9594 52.8045L17.8736 52.2933L17.7942 51.7828L17.7209 51.273L17.6534 50.7641L17.5916 50.2562L17.5352 49.7494L17.4839 49.2438L17.4376 48.7394L17.396 48.2363L17.3589 47.7346L17.3261 47.2342L17.2975 46.7351L17.2729 46.2374L17.252 45.7411L17.2349 45.2461L17.2213 44.7524L17.2111 44.26L17.2043 43.7688L17.2007 43.2788L17.2003 42.7899L17.203 42.302L17.2089 41.8151L17.2177 41.3291L17.2297 40.844L17.2447 40.3597L17.2628 39.876L17.284 39.393L17.3084 38.9106L17.336 38.4287L17.3668 37.9472L17.4011 37.4661L17.4388 36.9854L17.48 36.505L17.5249 36.0249L17.5736 35.545L17.6261 35.0653L17.6827 34.5858L17.7433 34.1065L17.8081 33.6274L17.8774 33.1484L17.951 32.6696L18.0293 32.1911L18.1123 31.7128L18.2002 31.2347L18.2931 30.757L18.3911 30.2796L18.4945 29.8027L18.6033 29.3263L18.7178 28.8505L18.8381 28.3753L18.9644 27.901L19.0968 27.4276L19.2355 26.9553L19.3808 26.4842L19.5327 26.0144L19.6914 25.5462L19.8572 25.0797L20.03 24.6152L20.2102 24.1527L20.3978 23.6926L20.593 23.235L20.7959 22.7803L21.0066 22.3286L21.2253 21.8802L21.4519 21.4353L21.6867 20.9943L21.9297 20.5574L22.1809 20.1249L22.4404 19.697L22.7082 19.2741L22.9844 18.8565L23.269 18.4444L23.562 18.0383L23.8634 17.6384L24.1732 17.2451L24.4913 16.8586L24.8178 16.4794L25.1525 16.1078L25.4955 15.7442L25.8466 15.3887L26.2057 15.0419L26.5727 14.7041L26.9475 14.3755L27.3299 14.0565L27.7196 13.7473L28.1167 13.4484L28.5207 13.16L28.9315 12.8824L29.3488 12.6158L29.7723 12.3606L30.2019 12.1168L30.6371 11.8848L31.0777 11.6647L31.5233 11.4568L31.9736 11.2612L32.4283 11.078L32.8869 10.9073L33.3492 10.7493L33.8147 10.6039L34.283 10.4714L34.7539 10.3517L35.2267 10.2447L35.7013 10.1506L36.1771 10.0692L36.6538 10.0006L37.131 9.94454L37.6083 9.90105L38.0853 9.86999L38.5616 9.85123L39.0369 9.84461L39.5108 9.84999L39.9829 9.86717L40.4528 9.89598L40.9203 9.93621L41.385 9.98764L41.8466 10.05L42.3048 10.1231L42.7592 10.2067L43.2096 10.3003L43.6557 10.4038L44.0973 10.5168L44.534 10.6388L44.9656 10.7696L45.392 10.9089L45.8129 11.056L46.2281 11.2108L46.6375 11.3727L47.0409 11.5414L47.4382 11.7163L47.8293 11.8972L48.214 12.0835L48.5924 12.2747L48.9643 12.4705L49.3298 12.6704L49.6888 12.874L50.0413 13.0808L50.3874 13.2904L50.7271 13.5024L51.0605 13.7163L51.3877 13.9318L51.7087 14.1485L52.0237 14.3659L52.3328 14.5838L52.6361 14.8016L52.9339 15.0191L53.2263 15.2359L53.5135 15.4515L53.7957 15.6657L54.0732 15.8782L54.3462 16.0886L54.6149 16.2965L54.8797 16.5018L55.1407 16.7042L55.3983 16.9034L55.6527 17.0991L55.9044 17.2913L56.1534 17.4797L56.4003 17.6642L56.6452 17.8447L56.8885 18.021L57.1304 18.1931L57.3714 18.361L57.6116 18.5247L57.8514 18.6841L58.091 18.8392L58.3308 18.9903L58.5709 19.1373L58.8117 19.2804L59.0534 19.4197L59.2961 19.5553L59.5402 19.6875L59.7858 19.8165L60.033 19.9424L60.2821 20.0655L60.5331 20.1861L60.7863 20.3045L61.0416 20.4208L61.2993 20.5355L61.5593 20.6488L61.8217 20.761L62.0866 20.8724L62.354 20.9834L62.6238 21.0943L62.896 21.2053L63.1707 21.3169L63.4477 21.4292L63.727 21.5428L64.0086 21.6577L64.2923 21.7744L64.5779 21.8932L64.8655 22.0145L65.1547 22.1384L65.4455 22.2653L65.7376 22.3955L66.0308 22.5294L66.3248 22.6672L66.6195 22.8092L66.9146 22.9557L67.2098 23.1069L67.5048 23.263L67.7993 23.4244L68.093 23.5912L68.3855 23.7636L68.6766 23.9419L68.966 24.1261L69.2532 24.3165L69.538 24.5131L69.8199 24.7162L70.0987 24.9257L70.3741 25.1417L70.6456 25.3644L70.913 25.5937L71.1758 25.8297L71.4339 26.0723L71.6869 26.3215L71.9344 26.5774L72.1762 26.8398L72.4119 27.1087L72.6413 27.384L72.8641 27.6656L73.0799 27.9533L73.2887 28.2471L73.49 28.5468L73.6836 28.8523L73.8695 29.1633L74.0472 29.4796L74.2167 29.8012L74.3778 30.1277L74.5304 30.459L74.6742 30.7948L74.8092 31.1349L74.9354 31.479L75.0525 31.8269L75.1607 32.1784L75.2598 32.5331L75.3498 32.8909L75.4307 33.2515L75.5026 33.6146L75.5654 33.9799L75.6193 34.3472L75.6644 34.7163L75.7006 35.0869L75.7281 35.4587L75.747 35.8316L75.7575 36.2053L75.7596 36.5795L75.7536 36.9541L75.7395 37.3289L75.7176 37.7036L75.688 38.0781L75.6508 38.4522L75.6063 38.8257L75.5546 39.1985L75.496 39.5704L75.4305 39.9413L75.3583 40.311L75.2797 40.6795L75.1947 41.0465L75.1036 41.412L75.0065 41.7759L74.9035 42.1381L74.7948 42.4985L74.6806 42.8571L74.561 43.2137L74.4362 43.5682L74.3064 43.9208L74.1717 44.2712L74.0323 44.6195L73.8885 44.9656L73.7402 45.3095L73.5878 45.6513L73.4314 45.9908L73.2711 46.3282L73.1072 46.6634L72.9397 46.9965L72.7688 47.3275L72.5948 47.6564L72.4176 47.9833L72.2375 48.3083L72.0546 48.6313L71.8691 48.9526L71.6809 49.2721L71.4904 49.5899L71.2975 49.9061L71.1024 50.2208L70.9051 50.5341L70.7058 50.8462L70.5045 51.157L70.3012 51.4667L70.0962 51.7755Z" fill="#E0F1E9"/>
<path d="M17.1449 94.2941C16.6447 94.2941 16.205 94.1852 15.8259 93.9673C15.4548 93.7415 15.1684 93.443 14.9667 93.0719C14.7731 92.6927 14.6763 92.2853 14.6763 91.8497C14.6763 91.6561 14.6924 91.4826 14.7247 91.3294C14.765 91.1035 14.8175 90.8332 14.882 90.5186C14.9546 90.204 15.0191 89.9297 15.0756 89.6958L16.4914 90.0467L16.4067 90.4339C16.2454 91.0631 16.1647 91.4988 16.1647 91.7408C16.1647 91.9909 16.2494 92.1885 16.4188 92.3337C16.5882 92.4789 16.8302 92.5515 17.1449 92.5515H22.3482C22.679 92.5515 22.921 92.483 23.0743 92.3458C23.2275 92.2006 23.3042 92.011 23.3042 91.7771C23.3042 91.4625 23.1993 90.7808 22.9896 89.7321L24.4417 89.369C24.7079 90.4984 24.841 91.3334 24.841 91.8739C24.841 92.2773 24.7482 92.6645 24.5627 93.0356C24.3852 93.4067 24.119 93.7092 23.764 93.9431C23.4091 94.1771 22.9775 94.2941 22.4692 94.2941H17.1449ZM17.9314 88.4857H19.3714V89.9257H17.9314V88.4857ZM20.1943 88.4857H21.6464V89.9257H20.1943V88.4857ZM28.7179 94.2941C27.8708 94.2941 27.2456 94.048 26.8423 93.5559C26.447 93.0638 26.2493 92.4023 26.2493 91.5714V86.2107H27.7861V91.5714C27.7861 91.8779 27.8023 92.0957 27.8345 92.2248C27.8749 92.3539 27.9555 92.4426 28.0765 92.491C28.2056 92.5314 28.4194 92.5515 28.7179 92.5515H29.1535L29.2261 93.447L29.1535 94.2941H28.7179ZM28.9815 92.5515H30.4336C31.1919 92.5515 31.9058 92.4547 32.5754 92.2611C33.245 92.0675 33.9347 91.7811 34.6446 91.402C32.9425 90.8131 31.9502 90.5186 31.6678 90.5186C31.4984 90.5186 31.3572 90.571 31.2443 90.6759C31.1314 90.7727 31.0305 90.9421 30.9418 91.1842L29.5865 90.7485C29.772 90.1193 30.0463 89.6393 30.4094 89.3085C30.7724 88.9778 31.1919 88.8124 31.6678 88.8124C31.9986 88.8124 32.5189 88.9374 33.2288 89.1875C33.9468 89.4376 34.8907 89.8047 36.0604 90.2887L36.2904 92.1885C35.532 92.6645 34.8746 93.0436 34.3179 93.326C33.7613 93.6084 33.1603 93.8423 32.5149 94.0278C31.8695 94.2053 31.1757 94.2941 30.4336 94.2941H28.9815V92.5515ZM32.1398 95.6373H33.7492V97.2104H32.1398V95.6373ZM44.3853 88.5099L45.1114 91.4988C45.2001 91.8941 45.3776 92.1684 45.6438 92.3216C45.91 92.4749 46.2529 92.5515 46.6724 92.5515H46.9144L47.0112 93.3986L46.9144 94.2941H46.6724C46.1561 94.2941 45.66 94.1852 45.184 93.9673C44.7161 93.7495 44.3329 93.4067 44.0344 92.9388C43.8005 93.2211 43.5302 93.4389 43.2237 93.5922C42.9252 93.7374 42.6106 93.81 42.2798 93.81C41.8684 93.81 41.465 93.6971 41.0697 93.4712C40.6583 93.2534 40.3437 92.9388 40.1258 92.5273C39.908 92.1079 39.7991 91.6682 39.7991 91.2084C39.7991 90.7243 39.9121 90.2968 40.1379 89.9257C40.267 89.6917 40.4082 89.4981 40.5615 89.3448C40.7228 89.1835 40.9648 89.01 41.2875 88.8245C41.6183 88.6389 42.0902 88.4131 42.7033 88.1468L42.546 87.4813L44.0465 87.0941L44.3853 88.5099ZM41.469 90.8211C41.3803 90.9502 41.3359 91.0954 41.3359 91.2568C41.3359 91.3939 41.3682 91.531 41.4327 91.6682C41.5053 91.7973 41.6062 91.9021 41.7353 91.9828C41.8885 92.0877 42.066 92.1401 42.2677 92.1401C42.4129 92.1401 42.5541 92.1079 42.6912 92.0433C42.8364 91.9788 42.9655 91.886 43.0784 91.765C43.2559 91.5794 43.3447 91.3294 43.3447 91.0147C43.3447 90.9583 43.3366 90.8574 43.3205 90.7122L43.1027 89.8168C42.5541 90.0426 42.1669 90.2282 41.941 90.3734C41.7151 90.5186 41.5578 90.6679 41.469 90.8211ZM46.779 92.5515H48.1222C48.4853 92.5515 48.7434 92.491 48.8967 92.37C49.05 92.241 49.1185 92.0594 49.1024 91.8255C49.0621 91.3253 48.9572 90.6558 48.7878 89.8168L50.2399 89.4537C50.3367 89.8813 50.4254 90.3371 50.5061 90.8211C50.5948 91.3052 50.6392 91.6964 50.6392 91.9949C50.6392 92.3983 50.5505 92.7734 50.373 93.1203C50.1955 93.4672 49.9253 93.7495 49.5622 93.9673C49.2073 94.1852 48.7676 94.2941 48.2432 94.2941H46.779V92.5515ZM46.1014 95.7704H47.5414V97.2225H46.1014V95.7704ZM48.3642 95.7704H49.8163V97.2225H48.3642V95.7704ZM53.5347 95.601C54.0349 95.601 54.414 95.5566 54.6722 95.4678C54.9303 95.3872 55.1078 95.246 55.2046 95.0443C55.3095 94.8507 55.37 94.5724 55.3861 94.2094H54.3455C53.5791 94.2094 52.97 93.9875 52.5182 93.5438C52.0745 93.0921 51.8527 92.4628 51.8527 91.6561C51.8527 91.0833 51.9576 90.5751 52.1673 90.1314C52.3851 89.6796 52.6796 89.3327 53.0507 89.0907C53.4298 88.8487 53.8574 88.7277 54.3334 88.7277C54.8497 88.7277 55.3014 88.8487 55.6887 89.0907C56.0839 89.3327 56.3865 89.6756 56.5962 90.1193C56.814 90.563 56.9229 91.0752 56.9229 91.6561V94.0278C56.9229 95.0282 56.6487 95.8309 56.1001 96.4359C55.5596 97.041 54.7045 97.3435 53.5347 97.3435H52.0947V95.601H53.5347ZM53.329 91.5714C53.329 91.9021 53.4097 92.1482 53.571 92.3095C53.7324 92.4628 53.9905 92.5394 54.3455 92.5394H55.3861V91.6198C55.3861 90.7808 55.0352 90.3613 54.3334 90.3613C54.0026 90.3613 53.7525 90.4742 53.5831 90.7001C53.4137 90.926 53.329 91.2164 53.329 91.5714ZM61.8403 88.7035C62.7438 90.1072 63.1714 90.7727 63.123 90.7001C63.4376 91.2084 63.5949 91.7126 63.5949 92.2127C63.5949 92.6484 63.482 93.0235 63.2561 93.3381C63.0141 93.685 62.7156 93.931 62.3607 94.0763C62.0138 94.2215 61.5983 94.2941 61.1143 94.2941H60.4729C59.9647 94.2941 59.517 94.2134 59.1297 94.0521C58.7425 93.8826 58.44 93.7011 58.2222 93.5075L58.9482 92.1159C59.1015 92.2127 59.3032 92.3095 59.5533 92.4063C59.8114 92.5031 60.122 92.5515 60.485 92.5515H61.078C61.3523 92.5515 61.558 92.5354 61.6951 92.5031C61.8323 92.4628 61.9331 92.3942 61.9976 92.2974C62.038 92.2329 62.0581 92.1684 62.0581 92.1038C62.0581 91.9747 61.9855 91.7973 61.8403 91.5714C61.3321 90.7969 60.7149 89.8773 59.9889 88.8124L61.2837 87.8443L61.8403 88.7035ZM65.1432 86.2107H66.68V94.2941H65.1432V86.2107Z" fill="#3D8361"/>
<g clip-path="url(#clip0_2247_26704)">
<path d="M70.5022 16.7571C70.2104 16.1736 69.5008 15.937 68.9169 16.2288C68.3334 16.5207 68.0967 17.2304 68.3886 17.8141C71.0757 23.1883 70.0242 29.656 65.7721 33.908C60.3359 39.3442 51.4906 39.3442 46.0544 33.908C40.6182 28.4718 40.6182 19.6265 46.0544 14.1904C50.1073 10.1376 56.131 8.97439 61.4006 11.2275C62.0006 11.4841 62.6949 11.2055 62.9515 10.6055C63.208 10.0056 62.9295 9.31106 62.3295 9.05463C59.3692 7.78888 56.1251 7.42904 52.9477 8.01412C50.7278 8.42276 48.6448 9.27833 46.799 10.5256C46.0097 8.9062 44.9601 7.43566 43.6705 6.14604C41.6604 4.13593 39.1557 2.68205 36.4272 1.94146C33.7823 1.22344 30.9752 1.18338 28.3091 1.82518C28.0975 1.87611 27.9041 1.9845 27.7502 2.13839C27.5963 2.29228 27.488 2.4857 27.437 2.69729C26.7951 5.36327 26.8354 8.17034 27.5533 10.8154C28.1039 12.8421 29.0484 14.7449 30.3214 16.4137C29.8895 16.4811 29.4595 16.5651 29.0328 16.6678C28.8212 16.7187 28.6278 16.8271 28.4739 16.981C28.32 17.1349 28.2116 17.3283 28.1607 17.5399C27.5188 20.2059 27.5591 23.0129 28.277 25.658C29.0177 28.3865 30.4717 30.8912 32.4816 32.9013C35.563 35.9826 39.7321 37.676 44.0236 37.6757C44.8924 37.6757 45.767 37.6053 46.6378 37.4638C49.3429 39.3426 52.5501 40.3549 55.9133 40.3549C60.2687 40.3549 64.3634 38.6589 67.4432 35.5791C72.4154 30.6066 73.6448 23.0426 70.5022 16.7571ZM29.5811 3.96871C34.1172 3.11881 38.7126 4.5298 41.9998 7.817C43.2271 9.04423 44.1995 10.4619 44.8936 12.0325C44.7202 12.1911 44.5502 12.3535 44.3837 12.5193C43.6143 13.2883 42.9236 14.1322 42.322 15.0385L34.8069 7.52334C34.3455 7.062 33.5972 7.062 33.1358 7.52334C32.6744 7.98469 32.6744 8.73296 33.1358 9.19442L41.1233 17.182C40.9672 17.5196 40.8228 17.8625 40.6903 18.2102C38.4147 16.9675 35.8568 16.2928 33.2718 16.2249C30.0983 12.9498 28.745 8.43127 29.5811 3.96871ZM34.1528 31.2301C30.8658 27.9432 29.4547 23.3483 30.3044 18.8124C33.6228 18.1987 37.1056 18.8133 39.9957 20.5347C39.5554 22.5481 39.4976 24.6263 39.8253 26.6611L35.5304 22.3662C35.0691 21.9048 34.3208 21.9048 33.8594 22.3662C33.398 22.8275 33.398 23.5758 33.8594 24.0373L41.4595 31.6374C41.472 31.65 41.4856 31.6608 41.4985 31.6726C42.2005 33.0008 43.0834 34.2251 44.1221 35.3105C40.417 35.3369 36.8108 33.8885 34.1528 31.2301ZM46.9843 59.9524L42.874 54.7529C40.6933 51.9932 38.6272 49.1448 36.6811 46.2148C36.3199 45.671 35.5868 45.5232 35.0431 45.884C34.4995 46.2451 34.3514 46.9784 34.7123 47.5218C36.6946 50.5061 38.799 53.4073 41.0201 56.2183L43.363 59.1823L41.8104 59.0017C34.2511 58.1223 27.3152 54.4952 22.2802 48.7888L22.0716 48.5524C17.4634 43.3298 14.7098 36.7921 14.1811 29.9263L14.7755 29.4266C15.0549 29.1919 15.3807 29.0188 15.7315 28.9185C16.0824 28.8181 16.4504 28.7929 16.8116 28.8444L18.4489 29.0783C18.692 29.113 18.9399 29.0711 19.1581 28.9585C19.3763 28.8458 19.554 28.668 19.6665 28.4497C19.9298 27.9385 20.3555 27.5293 20.8767 27.2864C21.3979 27.0435 21.9851 26.9807 22.5459 27.1079L23.7721 27.3858C25.5554 31.494 27.5682 35.5492 29.7648 39.447C30.0853 40.0154 30.8059 40.2164 31.3743 39.8963C31.9428 39.5758 32.144 38.8552 31.8236 38.2868C29.5616 34.2711 27.5181 30.1363 25.702 25.9003C25.047 24.3682 23.9562 23.0624 22.5653 22.1451C21.1743 21.2278 19.5445 20.7395 17.8783 20.7407C17.626 20.7407 17.3778 20.7577 17.1333 20.7874C17.2862 18.3862 18.2919 16.1495 20.0085 14.4328C20.4698 13.9714 20.4698 13.2232 20.0085 12.7618C19.5471 12.3005 18.7988 12.3005 18.3375 12.7618C16.0224 15.0769 14.7473 18.1552 14.7473 21.4293V21.5995C12.939 22.6723 11.7234 24.6431 11.7227 26.8935V27.4816C11.7224 28.1275 11.7427 28.7714 11.779 29.4129C11.7791 29.4557 11.7815 29.4985 11.7864 29.5412C12.2431 37.1239 15.224 44.3633 20.2997 50.116L20.5083 50.3523C25.9298 56.4966 33.3981 60.4019 41.5373 61.3489L45.9208 61.8588C46.1528 61.8857 46.3877 61.8433 46.5956 61.7369C46.8036 61.6304 46.9754 61.4648 47.0893 61.2608C47.2031 61.0568 47.2539 60.8236 47.2352 60.5907C47.2165 60.3578 47.1292 60.1357 46.9843 59.9524ZM14.0859 26.8943C14.0866 24.8041 15.7878 23.1036 17.8784 23.1036C19.3968 23.1025 20.8617 23.6641 21.9903 24.6799C21.2244 24.6773 20.4683 24.8522 19.7813 25.1908C19.0943 25.5293 18.495 26.0224 18.0305 26.6314L17.146 26.5051C16.0935 26.3555 15.0207 26.5479 14.0858 27.0537L14.0859 26.8943Z" fill="#3D8361"/>
<path d="M34.449 42.7324L34.4293 42.7003C34.0883 42.1439 33.3607 41.9694 32.8045 42.3105C32.2482 42.6517 32.0735 43.379 32.4146 43.9354L32.4343 43.9674C32.54 44.14 32.6882 44.2825 32.8648 44.3813C33.0414 44.4801 33.2404 44.5318 33.4428 44.5315C33.6604 44.5316 33.8737 44.4713 34.0591 44.3572C34.6155 44.0162 34.7902 43.2887 34.449 42.7324ZM67.6218 12.7007C67.5627 12.6397 67.5031 12.5792 67.4431 12.5192C66.9817 12.0578 66.2335 12.0578 65.772 12.5192C65.3107 12.9805 65.3107 13.7288 65.772 14.1902C65.8236 14.2416 65.8746 14.2934 65.925 14.3454C66.0351 14.4592 66.1669 14.5497 66.3127 14.6114C66.4585 14.6731 66.6152 14.7049 66.7735 14.7046C67.0806 14.705 67.3756 14.5854 67.5958 14.3714C68.0644 13.9171 68.076 13.1691 67.6218 12.7007ZM55.9133 11.9971C49.2678 11.9971 43.8614 17.4036 43.8614 24.049C43.8614 30.6945 49.2679 36.101 55.9133 36.101C62.5588 36.101 67.9653 30.6945 67.9653 24.049C67.9653 17.4036 62.5589 11.9971 55.9133 11.9971ZM46.9948 27.8339C46.4852 26.6372 46.2231 25.3497 46.2245 24.049C46.2231 22.7484 46.4852 21.461 46.9947 20.2643L53.5502 24.0491L46.9948 27.8339ZM54.7318 33.6632C52.0629 33.337 49.7257 31.9237 48.18 29.8781L54.7318 26.0954V33.6632ZM54.7318 22.0024L48.18 18.2197C49.7256 16.1742 52.0629 14.7609 54.7318 14.4346V22.0024ZM57.0948 14.4349C59.7638 14.761 62.101 16.1744 63.6467 18.2199L57.0948 22.0026V14.4349ZM57.0949 33.6632V26.0955L63.6468 29.8782C62.101 31.9237 59.7638 33.337 57.0949 33.6632ZM58.2766 24.0491L64.8321 20.2643C65.3416 21.461 65.6036 22.7484 65.6023 24.049C65.6036 25.3497 65.3416 26.6372 64.8319 27.8339L58.2766 24.0491ZM54.5562 44.0295C53.4432 42.4662 51.9244 41.6054 50.2797 41.6054C48.635 41.6054 47.1162 42.4662 46.0031 44.0295C44.9766 45.4711 44.4113 47.3676 44.4113 49.3693C44.4113 51.371 44.9767 53.2675 46.0031 54.7089C47.1162 56.2721 48.635 57.1331 50.2797 57.1331C51.9244 57.1331 53.4432 56.2722 54.5562 54.7089C55.5828 53.2675 56.148 51.371 56.148 49.3693C56.148 47.3676 55.5827 45.4713 54.5562 44.0295ZM50.2797 54.77C49.7324 54.77 48.9049 53.6076 48.9049 51.8554C48.9049 50.1034 49.7324 48.9409 50.2797 48.9409C50.8269 48.9409 51.6545 50.1034 51.6545 51.8554C51.6545 53.6077 50.8269 54.77 50.2797 54.77ZM53.766 49.9192C53.2297 47.9452 51.8891 46.5779 50.2798 46.5779C48.6705 46.5779 47.3299 47.9451 46.7936 49.9192C46.7809 49.7362 46.7746 49.5528 46.7746 49.3694C46.7744 46.4418 48.3796 43.9686 50.2797 43.9686C52.1798 43.9686 53.785 46.4419 53.785 49.3694C53.785 49.5546 53.7785 49.738 53.766 49.9192ZM72.1235 55.726C71.83 53.9809 70.8888 52.2402 69.4733 50.8246C68.0579 49.4092 66.3173 48.468 64.5718 48.1743C62.6793 47.8563 60.9966 48.3213 59.8337 49.4844C58.6707 50.6474 58.2054 52.3301 58.5236 54.2226C58.8173 55.9679 59.7584 57.7085 61.1739 59.1239C62.5894 60.5392 64.3299 61.4805 66.0754 61.7741C66.4643 61.8396 66.8439 61.8718 67.2125 61.8718C68.6372 61.8717 69.8896 61.3883 70.8136 60.4643C71.9767 59.3011 72.4419 57.6185 72.1235 55.726ZM63.2483 57.83C63.1098 57.7088 62.9753 57.5831 62.8451 57.453C61.774 56.3818 61.067 55.0956 60.8541 53.8307C60.6661 52.713 60.8971 51.7629 61.5047 51.1555C61.9743 50.6856 62.6486 50.4411 63.447 50.4411C63.6812 50.4411 63.9263 50.4623 64.1799 50.5049C65.4448 50.7176 66.7312 51.4247 67.8022 52.4958C67.9319 52.6255 68.0571 52.7597 68.1775 52.898C66.4026 51.8816 64.4878 51.8629 63.3498 53.0006C62.2117 54.1389 62.2308 56.0544 63.2483 57.83ZM69.1428 58.7933C68.7556 59.1806 67.3483 58.9435 66.1095 57.7046C64.8706 56.4657 64.6338 55.0585 65.0208 54.6715C65.1314 54.5609 65.325 54.5013 65.5741 54.5013C66.1975 54.5013 67.1688 54.8751 68.0539 55.7602C68.6643 56.3704 69.1027 57.1025 69.2569 57.7687C69.3641 58.2315 69.3213 58.6147 69.1428 58.7933ZM68.8007 39.645C68.5786 39.4242 68.2784 39.2998 67.9653 39.2987C67.6545 39.2987 67.3498 39.4252 67.1299 39.645C66.9101 39.8648 66.7837 40.1696 66.7837 40.4803C66.7837 40.7911 66.9101 41.0959 67.1299 41.3156C67.352 41.5364 67.6521 41.6609 67.9653 41.662C68.2761 41.662 68.5809 41.5355 68.8007 41.3156C69.0205 41.0959 69.1469 40.7911 69.1469 40.4803C69.1469 40.1696 69.0205 39.8648 68.8007 39.645ZM61.4749 41.9516C61.2528 41.7308 60.9527 41.6063 60.6395 41.6052C60.3287 41.6052 60.0241 41.7317 59.8042 41.9516C59.5834 42.1736 59.459 42.4737 59.4579 42.7868C59.4579 43.0976 59.5844 43.4024 59.8042 43.6222C60.0262 43.843 60.3264 43.9674 60.6395 43.9685C60.9503 43.9685 61.2551 43.8421 61.4749 43.6222C61.6957 43.4001 61.8201 43.1 61.8211 42.7868C61.8211 42.476 61.6947 42.1713 61.4749 41.9516ZM66.1587 43.4249C65.9366 43.2041 65.6365 43.0796 65.3233 43.0786C65.0125 43.0787 64.7077 43.2051 64.4879 43.4249C64.2681 43.6447 64.1417 43.9482 64.1417 44.2602C64.1417 44.571 64.2681 44.8758 64.4879 45.0955C64.7077 45.3153 65.0125 45.4418 65.3233 45.4418C65.6341 45.4418 65.9389 45.3154 66.1587 45.0955C66.3799 44.8738 66.5044 44.5735 66.5049 44.2602C66.5046 43.9469 66.3801 43.6465 66.1587 43.4249Z" fill="#FFC436"/>
</g>
<defs>
<clipPath id="clip0_2247_26704">
<rect width="60.5042" height="60.5042" fill="white" transform="translate(11.7227 1.36975)"/>
</clipPath>
</defs>
</svg>
