<svg width="83" height="105" viewBox="0 0 83 105" fill="none" xmlns="http://www.w3.org/2000/svg">
<path fill-rule="evenodd" clip-rule="evenodd" d="M70.2222 51.7755L70.0153 52.0833L69.8067 52.3905L69.5964 52.697L69.3844 53.0029L69.1707 53.3085L68.9554 53.6138L68.7384 53.919L68.5197 54.2241L68.2994 54.5292L68.0773 54.8346L67.8535 55.1402L67.6279 55.4462L67.4004 55.7527L67.171 56.0598L66.9395 56.3675L66.7059 56.676L66.4702 56.9852L66.2321 57.2953L65.9916 57.6063L65.7485 57.9183L65.5028 58.2312L65.2543 58.5451L65.0029 58.86L64.7483 59.1759L64.4905 59.4928L64.2294 59.8107L63.9647 60.1294L63.6963 60.4491L63.4241 60.7695L63.1478 61.0907L62.8674 61.4125L62.5827 61.7349L62.2935 62.0577L61.9997 62.3809L61.7011 62.7042L61.3975 63.0277L61.089 63.351L60.7751 63.6742L60.456 63.9969L60.1314 64.3191L59.8012 64.6405L59.4653 64.9611L59.1237 65.2805L58.7761 65.5986L58.4225 65.9152L58.0628 66.2301L57.6969 66.5429L57.3248 66.8535L56.9463 67.1617L56.5615 67.467L56.1702 67.7692L55.7725 68.0681L55.3682 68.3633L54.9575 68.6546L54.5402 68.9415L54.1164 69.2238L53.6862 69.5011L53.2494 69.7731L52.8063 70.0394L52.3568 70.2997L51.9011 70.5537L51.4392 70.8009L50.9713 71.0411L50.4974 71.2739L50.0177 71.4988L49.5323 71.7157L49.0415 71.924L48.5453 72.1236L48.0441 72.314L47.5379 72.4949L47.0271 72.6661L46.5118 72.8271L45.9923 72.9776L45.4689 73.1173L44.9419 73.2459L44.4115 73.3631L43.8781 73.4686L43.3419 73.562L42.8034 73.6432L42.2628 73.7118L41.7206 73.7676L41.177 73.8104L40.6325 73.84L40.0874 73.856L39.5421 73.8585L38.9971 73.8472L38.4526 73.8219L37.9092 73.7827L37.3672 73.7293L36.8271 73.6617L36.2892 73.5799L35.7539 73.4838L35.2217 73.3734L34.6929 73.2488L34.168 73.11L33.6473 72.9571L33.1311 72.7901L32.62 72.6092L32.1142 72.4145L31.6141 72.2062L31.12 71.9843L30.6323 71.7492L30.1513 71.5009L29.6772 71.2398L29.2105 70.9661L28.7514 70.6799L28.3001 70.3817L27.857 70.0716L27.4222 69.7499L26.996 69.417L26.5786 69.073L26.1703 68.7184L25.7711 68.3535L25.3814 67.9785L25.0013 67.5938L24.6309 67.1997L24.2705 66.7966L23.92 66.3847L23.5796 65.9645L23.2495 65.5364L22.9296 65.1007L22.6199 64.6577L22.3207 64.2079L22.0317 63.7516L21.753 63.2893L21.4846 62.8213L21.2264 62.3479L20.9784 61.8697L20.7404 61.3868L20.5124 60.8998L20.2942 60.409L20.0858 59.9147L19.8868 59.4173L19.6973 58.9171L19.517 58.4144L19.3458 57.9097L19.1834 57.403L19.0297 56.8949L18.8844 56.3854L18.7473 55.875L18.6183 55.3638L18.4971 54.8521L18.3834 54.3402L18.2771 53.8281L18.1778 53.3162L18.0854 52.8045L17.9996 52.2933L17.9202 51.7828L17.8469 51.273L17.7794 50.7641L17.7176 50.2562L17.6612 49.7494L17.6099 49.2438L17.5635 48.7394L17.5219 48.2363L17.4848 47.7346L17.4521 47.2342L17.4235 46.7351L17.3988 46.2374L17.378 45.7411L17.3609 45.2461L17.3473 44.7524L17.3371 44.26L17.3303 43.7688L17.3267 43.2788L17.3263 42.7899L17.329 42.302L17.3348 41.8151L17.3437 41.3291L17.3557 40.844L17.3707 40.3597L17.3888 39.876L17.41 39.393L17.4343 38.9106L17.4619 38.4287L17.4928 37.9472L17.5271 37.4661L17.5648 36.9854L17.606 36.505L17.6509 36.0249L17.6996 35.545L17.7521 35.0653L17.8086 34.5858L17.8693 34.1065L17.9341 33.6274L18.0033 33.1484L18.077 32.6696L18.1553 32.1911L18.2383 31.7128L18.3262 31.2347L18.4191 30.757L18.5171 30.2796L18.6205 29.8027L18.7293 29.3263L18.8438 28.8505L18.9641 28.3753L19.0904 27.901L19.2228 27.4276L19.3615 26.9553L19.5068 26.4842L19.6587 26.0144L19.8174 25.5462L19.9831 25.0797L20.156 24.6152L20.3362 24.1527L20.5238 23.6926L20.719 23.235L20.9219 22.7803L21.1326 22.3286L21.3512 21.8802L21.5779 21.4353L21.8127 20.9943L22.0557 20.5574L22.3069 20.1249L22.5664 19.697L22.8342 19.2741L23.1104 18.8565L23.395 18.4444L23.688 18.0383L23.9894 17.6384L24.2991 17.2451L24.6173 16.8586L24.9438 16.4794L25.2785 16.1078L25.6215 15.7442L25.9726 15.3887L26.3317 15.0419L26.6987 14.7041L27.0735 14.3755L27.4558 14.0565L27.8456 13.7473L28.2426 13.4484L28.6466 13.16L29.0574 12.8824L29.4747 12.6158L29.8983 12.3606L30.3279 12.1168L30.7631 11.8848L31.2037 11.6647L31.6493 11.4568L32.0996 11.2612L32.5543 11.078L33.0129 10.9073L33.4752 10.7493L33.9407 10.6039L34.409 10.4714L34.8798 10.3517L35.3527 10.2447L35.8273 10.1506L36.3031 10.0692L36.7798 10.0006L37.257 9.94454L37.7343 9.90105L38.2113 9.86999L38.6876 9.85123L39.1629 9.84461L39.6367 9.84999L40.1088 9.86717L40.5788 9.89598L41.0463 9.93621L41.511 9.98764L41.9726 10.05L42.4308 10.1231L42.8852 10.2067L43.3356 10.3003L43.7817 10.4038L44.2233 10.5168L44.66 10.6388L45.0916 10.7696L45.518 10.9089L45.9389 11.056L46.3541 11.2108L46.7635 11.3727L47.1669 11.5414L47.5642 11.7163L47.9552 11.8972L48.34 12.0835L48.7184 12.2747L49.0903 12.4705L49.4558 12.6704L49.8148 12.874L50.1673 13.0808L50.5134 13.2904L50.8531 13.5024L51.1865 13.7163L51.5136 13.9318L51.8347 14.1485L52.1496 14.3659L52.4587 14.5838L52.7621 14.8016L53.0599 15.0191L53.3523 15.2359L53.6395 15.4515L53.9217 15.6657L54.1992 15.8782L54.4722 16.0886L54.7409 16.2965L55.0056 16.5018L55.2667 16.7042L55.5243 16.9034L55.7787 17.0991L56.0303 17.2913L56.2794 17.4797L56.5263 17.6642L56.7712 17.8447L57.0145 18.021L57.2564 18.1931L57.4974 18.361L57.7376 18.5247L57.9774 18.6841L58.217 18.8392L58.4568 18.9903L58.6969 19.1373L58.9377 19.2804L59.1794 19.4197L59.4221 19.5553L59.6662 19.6875L59.9117 19.8165L60.159 19.9424L60.408 20.0655L60.6591 20.1861L60.9123 20.3045L61.1676 20.4208L61.4253 20.5355L61.6853 20.6488L61.9477 20.761L62.2126 20.8724L62.48 20.9834L62.7498 21.0943L63.022 21.2053L63.2967 21.3169L63.5737 21.4292L63.853 21.5428L64.1346 21.6577L64.4182 21.7744L64.7039 21.8932L64.9914 22.0145L65.2807 22.1384L65.5714 22.2653L65.8635 22.3955L66.1567 22.5294L66.4508 22.6672L66.7455 22.8092L67.0406 22.9557L67.3358 23.1069L67.6308 23.263L67.9253 23.4244L68.2189 23.5912L68.5115 23.7636L68.8026 23.9419L69.092 24.1261L69.3792 24.3165L69.6639 24.5131L69.9459 24.7162L70.2247 24.9257L70.5 25.1417L70.7716 25.3644L71.0389 25.5937L71.3018 25.8297L71.5599 26.0723L71.8128 26.3215L72.0604 26.5774L72.3021 26.8398L72.5379 27.1087L72.7673 27.384L72.99 27.6656L73.2059 27.9533L73.4146 28.2471L73.6159 28.5468L73.8096 28.8523L73.9954 29.1633L74.1732 29.4796L74.3427 29.8012L74.5038 30.1277L74.6563 30.459L74.8002 30.7948L74.9352 31.1349L75.0613 31.479L75.1785 31.8269L75.2867 32.1784L75.3857 32.5331L75.4757 32.8909L75.5567 33.2515L75.6286 33.6146L75.6914 33.9799L75.7453 34.3472L75.7903 34.7163L75.8266 35.0869L75.8541 35.4587L75.873 35.8316L75.8835 36.2053L75.8856 36.5795L75.8796 36.9541L75.8655 37.3289L75.8436 37.7036L75.8139 38.0781L75.7768 38.4522L75.7323 38.8257L75.6806 39.1985L75.6219 39.5704L75.5564 39.9413L75.4843 40.311L75.4056 40.6795L75.3207 41.0465L75.2296 41.412L75.1324 41.7759L75.0294 42.1381L74.9208 42.4985L74.8065 42.8571L74.687 43.2137L74.5622 43.5682L74.4324 43.9208L74.2977 44.2712L74.1583 44.6195L74.0144 44.9656L73.8662 45.3095L73.7138 45.6513L73.5574 45.9908L73.3971 46.3282L73.2332 46.6634L73.0657 46.9965L72.8948 47.3275L72.7207 47.6564L72.5436 47.9833L72.3635 48.3083L72.1806 48.6313L71.995 48.9526L71.8069 49.2721L71.6163 49.5899L71.4235 49.9061L71.2283 50.2208L71.0311 50.5341L70.8318 50.8462L70.6304 51.157L70.4272 51.4667L70.2222 51.7755Z" fill="#E0F1E9"/>
<path d="M6.84184 87.324C7.10806 87.6225 7.36217 87.9008 7.60419 88.1589C8.20117 88.8124 8.64486 89.3166 8.93528 89.6715C9.23377 90.0265 9.46772 90.3855 9.63713 90.7485C9.80654 91.1035 9.89125 91.4746 9.89125 91.8618C9.89125 92.3216 9.77024 92.7492 9.52822 93.1445C9.28621 93.5317 8.95948 93.8383 8.54806 94.0642C8.14469 94.29 7.701 94.403 7.21696 94.403C6.72486 94.403 6.2731 94.29 5.86167 94.0642C5.45024 93.8383 5.12352 93.5317 4.8815 93.1445C4.63949 92.7492 4.51848 92.3216 4.51848 91.8618C4.51848 91.3052 4.65562 90.805 4.92991 90.3613C5.21226 89.9095 5.62772 89.3932 6.17629 88.8124L5.76486 88.3647L6.84184 87.324ZM6.05528 91.7166C6.05528 91.9909 6.15612 92.2248 6.35781 92.4184C6.55949 92.6121 6.84587 92.7089 7.21696 92.7089C7.57999 92.7089 7.85831 92.6121 8.05192 92.4184C8.2536 92.2248 8.35444 91.9909 8.35444 91.7166C8.35444 91.523 8.26974 91.3052 8.10033 91.0631C7.93898 90.8131 7.64049 90.4379 7.20486 89.9378C6.7773 90.3895 6.47881 90.7364 6.3094 90.9784C6.13999 91.2205 6.05528 91.4665 6.05528 91.7166ZM14.0106 90.2403V91.9949C14.0106 92.2047 14.0631 92.3499 14.1679 92.4305C14.2809 92.5112 14.4584 92.5515 14.7004 92.5515H14.9303L15.0029 93.4349L14.9303 94.2941H14.7004C14.4342 94.2941 14.2002 94.2295 13.9985 94.1005C13.9179 95.1331 13.579 95.9317 12.9821 96.4964C12.3851 97.0611 11.5622 97.3435 10.5135 97.3435H9.75114V95.601H10.5135C11.0217 95.601 11.413 95.5405 11.6873 95.4194C11.9696 95.3065 12.1673 95.1089 12.2802 94.8265C12.4012 94.5522 12.4617 94.161 12.4617 93.6527V90.2403H14.0106ZM11.1185 87.3603H12.5706V88.8003H11.1185V87.3603ZM12.3044 85.6178H13.6839V86.9852H12.3044V85.6178ZM13.4177 87.3603H14.8577V88.8003H13.4177V87.3603ZM14.8196 92.5515H16.5984C16.9614 92.5515 17.2196 92.491 17.3729 92.37C17.5261 92.241 17.5947 92.0594 17.5786 91.8255C17.5383 91.3253 17.4334 90.6558 17.264 89.8168L18.7161 89.4537C18.8129 89.8813 18.9016 90.3371 18.9823 90.8211C19.071 91.3052 19.1154 91.6964 19.1154 91.9949C19.1154 92.3983 19.0267 92.7734 18.8492 93.1203C18.6717 93.4672 18.4014 93.7495 18.0384 93.9673C17.6835 94.1852 17.2438 94.2941 16.7194 94.2941H14.8196V92.5515ZM15.0374 95.7825H16.4774V97.2225H15.0374V95.7825ZM17.3003 95.7825H18.7524V97.2225H17.3003V95.7825ZM22.0119 95.601C22.5121 95.601 22.8913 95.5566 23.1494 95.4678C23.4076 95.3872 23.585 95.246 23.6818 95.0443C23.7867 94.8507 23.8472 94.5724 23.8634 94.2094H22.8227C22.0563 94.2094 21.4472 93.9875 20.9955 93.5438C20.5518 93.0921 20.3299 92.4628 20.3299 91.6561C20.3299 91.0833 20.4348 90.5751 20.6445 90.1314C20.8624 89.6796 21.1568 89.3327 21.5279 89.0907C21.9071 88.8487 22.3346 88.7277 22.8106 88.7277C23.3269 88.7277 23.7787 88.8487 24.1659 89.0907C24.5612 89.3327 24.8637 89.6756 25.0734 90.1193C25.2913 90.563 25.4002 91.0752 25.4002 91.6561V94.0278C25.4002 95.0282 25.1259 95.8309 24.5773 96.4359C24.0368 97.041 23.1817 97.3435 22.0119 97.3435H20.5719V95.601H22.0119ZM21.8062 91.5714C21.8062 91.9021 21.8869 92.1482 22.0482 92.3095C22.2096 92.4628 22.4677 92.5394 22.8227 92.5394H23.8634V91.6198C23.8634 90.7808 23.5124 90.3613 22.8106 90.3613C22.4798 90.3613 22.2297 90.4742 22.0603 90.7001C21.8909 90.926 21.8062 91.2164 21.8062 91.5714ZM31.402 94.2941C30.9018 94.2941 30.4622 94.1852 30.083 93.9673C29.7119 93.7415 29.4255 93.443 29.2238 93.0719C29.0302 92.6927 28.9334 92.2853 28.9334 91.8497C28.9334 91.6561 28.9496 91.4826 28.9818 91.3294C29.0222 91.1035 29.0746 90.8332 29.1391 90.5186C29.2117 90.204 29.2763 89.9297 29.3327 89.6958L30.7485 90.0467L30.6638 90.4339C30.5025 91.0631 30.4218 91.4988 30.4218 91.7408C30.4218 91.9909 30.5065 92.1885 30.6759 92.3337C30.8454 92.4789 31.0874 92.5515 31.402 92.5515H36.6054C36.9361 92.5515 37.1781 92.483 37.3314 92.3458C37.4847 92.2006 37.5613 92.011 37.5613 91.7771C37.5613 91.4625 37.4564 90.7808 37.2467 89.7321L38.6988 89.369C38.965 90.4984 39.0981 91.3334 39.0981 91.8739C39.0981 92.2773 39.0053 92.6645 38.8198 93.0356C38.6423 93.4067 38.3761 93.7092 38.0211 93.9431C37.6662 94.1771 37.2346 94.2941 36.7264 94.2941H31.402ZM32.1885 88.4857H33.6285V89.9257H32.1885V88.4857ZM34.4514 88.4857H35.9035V89.9257H34.4514V88.4857ZM40.3128 92.5515H43.6648C44.1891 92.5515 44.4513 92.2934 44.4513 91.7771V86.2107H45.9881V91.9344C45.9881 92.4668 45.8712 92.9105 45.6372 93.2655C45.4033 93.6205 45.1128 93.8826 44.7659 94.0521C44.4191 94.2134 44.0802 94.2941 43.7495 94.2941H40.3128V92.5515ZM42.0191 86.3438L42.37 91.6803L40.8211 91.7892L40.4822 86.4527L42.0191 86.3438ZM48.8843 95.6857C49.3845 95.6857 49.7636 95.6413 50.0218 95.5526C50.2799 95.4719 50.4574 95.3307 50.5542 95.129C50.6591 94.9354 50.7196 94.6571 50.7357 94.2941H49.695C48.9287 94.2941 48.3196 94.0722 47.8678 93.6285C47.4241 93.1768 47.2023 92.5475 47.2023 91.7408C47.2023 91.168 47.3071 90.6598 47.5169 90.2161C47.7347 89.7724 48.0292 89.4295 48.4003 89.1875C48.7794 88.9374 49.207 88.8124 49.6829 88.8124C50.1992 88.8124 50.651 88.9334 51.0382 89.1754C51.4335 89.4174 51.7361 89.7603 51.9458 90.204C52.1636 90.6477 52.2725 91.16 52.2725 91.7408V92.5515H52.9381L53.0349 93.4349L52.9381 94.2941H52.2725C52.2403 95.2379 51.9498 95.9963 51.4013 96.569C50.8527 97.1418 50.0137 97.4282 48.8843 97.4282H47.4443V95.6857H48.8843ZM48.6786 91.6561C48.6786 91.9868 48.7592 92.2329 48.9206 92.3942C49.0819 92.5475 49.3401 92.6242 49.695 92.6242H50.7357V91.7045C50.7357 90.8655 50.3848 90.446 49.6829 90.446C49.3522 90.446 49.1021 90.5589 48.9327 90.7848C48.7633 91.0107 48.6786 91.3011 48.6786 91.6561ZM56.0426 92.0191C56.0426 92.2773 56.1596 92.4426 56.3935 92.5152L57.6278 90.6759C58.0634 90.0225 58.491 89.5465 58.9105 89.248C59.3381 88.9495 59.8181 88.8003 60.3505 88.8003C60.8829 88.8003 61.3347 88.9334 61.7058 89.1996C62.0849 89.4578 62.3673 89.8006 62.5528 90.2282C62.7384 90.6557 62.8312 91.1196 62.8312 91.6198C62.8312 91.8779 62.8029 92.1159 62.7465 92.3337C62.9562 92.4789 63.2587 92.5515 63.654 92.5515H63.9323L64.0654 93.447L63.9323 94.2941H63.6177C63.3031 94.2941 63.0046 94.2295 62.7223 94.1005C62.4399 93.9714 62.1979 93.806 61.9962 93.6043C61.7623 93.8221 61.4839 93.9915 61.1612 94.1126C60.8386 94.2336 60.4836 94.2941 60.0964 94.2941H56.8897C56.6073 94.3021 56.3209 94.2457 56.0305 94.1247C55.7481 94.0036 55.486 93.8342 55.2439 93.6164C55.0019 93.8262 54.7317 93.9915 54.4332 94.1126C54.1428 94.2336 53.8483 94.2941 53.5498 94.2941H52.6907V92.5515H53.574C53.8967 92.5515 54.1307 92.5112 54.2759 92.4305C54.4292 92.3499 54.5058 92.2127 54.5058 92.0191V90.2403H56.0426V92.0191ZM60.0964 92.5515C60.9112 92.5515 61.3186 92.2369 61.3186 91.6077C61.3186 91.285 61.2379 91.0268 61.0765 90.8332C60.9152 90.6396 60.6611 90.5428 60.3142 90.5428C60.048 90.5428 59.814 90.6154 59.6123 90.7606C59.4187 90.8978 59.1969 91.1357 58.9468 91.4746C58.6886 91.7973 58.4144 92.1563 58.1239 92.5515H60.0964ZM71.6301 94.2941C71.138 94.2941 70.7144 94.1932 70.3595 93.9915C70.0126 93.7899 69.7423 93.4954 69.5487 93.1082C68.8388 93.4954 68.141 93.7899 67.4553 93.9915C66.7696 94.1932 66.0314 94.2941 65.2408 94.2941H63.7887V92.5515H65.2408C65.9992 92.5515 66.7131 92.4547 67.3827 92.2611C68.0523 92.0675 68.742 91.7811 69.4519 91.402C67.7497 90.8131 66.7575 90.5186 66.4751 90.5186C66.3057 90.5186 66.1645 90.571 66.0516 90.6759C65.9387 90.7727 65.8378 90.9421 65.7491 91.1842L64.3938 90.7485C64.5793 90.1193 64.8536 89.6393 65.2166 89.3085C65.5797 88.9778 65.9992 88.8124 66.4751 88.8124C66.8059 88.8124 67.3262 88.9374 68.0361 89.1875C68.7541 89.4376 69.698 89.8047 70.8677 90.2887L71.0976 92.1885L70.7588 92.3942C71.0331 92.4991 71.3074 92.5515 71.5817 92.5515H72.2472L72.3561 93.3986L72.2472 94.2941H71.6301ZM72.0856 92.5515H72.4002C72.5615 92.5515 72.6825 92.5152 72.7632 92.4426C72.8519 92.362 72.9165 92.2329 72.9568 92.0554L73.2714 90.8937C73.4489 90.1919 73.7474 89.6554 74.1669 89.2843C74.5864 88.9132 75.0906 88.7277 75.6795 88.7277C76.1474 88.7277 76.5629 88.8568 76.9259 89.1149C77.297 89.365 77.5874 89.7159 77.7972 90.1677C78.0069 90.6114 78.1118 91.1115 78.1118 91.6682C78.1118 92.3378 78.0029 92.8863 77.7851 93.3139C77.5672 93.7334 77.293 94.0399 76.9622 94.2336C76.6395 94.4191 76.3007 94.5119 75.9457 94.5119C75.6714 94.5119 75.381 94.4554 75.0745 94.3425C74.776 94.2376 74.3282 94.044 73.7313 93.7616C73.5457 93.931 73.34 94.0642 73.1141 94.161C72.8882 94.2497 72.6583 94.2941 72.4244 94.2941H72.0856V92.5515ZM74.4694 92.2974C74.9051 92.4991 75.2277 92.6363 75.4375 92.7089C75.6472 92.7815 75.8368 92.8178 76.0062 92.8178C76.4499 92.8178 76.6718 92.4386 76.6718 91.6803C76.6718 91.2689 76.583 90.9542 76.4056 90.7364C76.2281 90.5105 75.9982 90.3976 75.7158 90.3976C75.4819 90.3976 75.2761 90.4823 75.0987 90.6517C74.9212 90.8211 74.7921 91.0672 74.7114 91.3899L74.4694 92.2974Z" fill="#3D8361"/>
<g clip-path="url(#clip0_2247_26699)">
<path d="M58.6445 48.8746C57.9922 48.8746 57.4628 49.4041 57.4628 50.0564C57.4628 50.7087 57.9922 51.2381 58.6445 51.2381C59.2968 51.2381 59.8262 50.7087 59.8262 50.0564C59.8262 49.4041 59.2968 48.8746 58.6445 48.8746ZM53.9176 4.44214C53.2653 4.44214 52.7359 4.97155 52.7359 5.62386C52.7359 6.27617 53.2653 6.80558 53.9176 6.80558C54.5699 6.80558 55.0993 6.27617 55.0993 5.62386C55.0993 4.97155 54.5699 4.44214 53.9176 4.44214ZM30.2833 4.44214C29.631 4.44214 29.1016 4.97155 29.1016 5.62386C29.1016 6.27617 29.631 6.80558 30.2833 6.80558C30.9356 6.80558 31.465 6.27617 31.465 5.62386C31.465 4.97155 30.9356 4.44214 30.2833 4.44214ZM55.3247 51.3018C55.1185 50.6826 54.4495 50.3478 53.83 50.5542L46.4537 53.0122C45.8345 53.2185 45.4998 53.8877 45.7062 54.5069C45.9121 55.1249 46.5803 55.461 47.2008 55.2544L54.5771 52.7964C55.1964 52.59 55.531 51.9209 55.3247 51.3018Z" fill="#FFC436"/>
<path d="M71.9194 32.3614L65.5138 27.1204L71.7122 23.9273C72.6305 23.4544 72.54 22.1085 71.5663 21.7631L49.5863 13.9637C49.4131 13.9022 49.228 13.882 49.0456 13.9046C48.8632 13.9273 48.6886 13.9922 48.5357 14.0942L42.1008 18.3842L35.666 14.0943C35.5131 13.9923 35.3385 13.9274 35.1561 13.9048C34.9737 13.8821 34.7886 13.9024 34.6153 13.9638L12.6354 21.7632C12.625 21.7669 12.6153 21.7718 12.6051 21.7757C11.6531 22.1427 11.5928 23.4479 12.4741 23.9184C12.4794 23.9213 12.4842 23.9246 12.4895 23.9273L18.6879 27.1204L12.2823 32.3614L12.2794 32.3641C11.5773 32.9409 11.7728 34.0481 12.5941 34.3741L19.6484 37.1788V53.6015C19.6484 53.8495 19.7264 54.0913 19.8714 54.2925C20.0165 54.4937 20.2211 54.6442 20.4564 54.7226L41.7273 61.8129L41.7336 61.8147C41.8503 61.8529 41.9844 61.8739 42.1011 61.8739C42.2263 61.8738 42.3507 61.8537 42.4697 61.8144L42.4746 61.8129L63.7455 54.7226C63.9808 54.6442 64.1855 54.4937 64.3305 54.2925C64.4755 54.0913 64.5536 53.8495 64.5536 53.6015V37.1788L71.6077 34.3741C72.4433 34.0419 72.616 32.9312 71.9194 32.3614ZM49.354 16.3893L68.2018 23.0773L63.2732 25.6163L44.7667 19.4475L49.354 16.3893ZM15.9999 23.0773L34.8478 16.3893L39.4351 19.4475L20.9286 25.6163L15.9999 23.0773ZM15.3326 32.9195L21.0743 28.2218L39.5877 34.393L32.4683 39.7326L15.3326 32.9195ZM40.9192 59.0523L22.0118 52.7497V38.1185L32.2107 42.1734C32.3987 42.2482 32.6028 42.2734 32.8034 42.2467C33.004 42.2199 33.1943 42.1421 33.3562 42.0207L40.9192 36.3485V59.0523ZM42.101 32.7394L24.567 26.8947L42.101 21.05L59.6349 26.8947L42.101 32.7394ZM62.1901 52.7497L43.2827 59.0522V36.3485L50.8457 42.0207C51.0076 42.1422 51.198 42.22 51.3985 42.2467C51.5991 42.2735 51.8032 42.2482 51.9913 42.1734L62.1901 38.1185V52.7497ZM51.7337 39.7325L44.6143 34.3929L63.1276 28.2217L68.8692 32.9194L51.7337 39.7325ZM44.4644 3.73319H43.2827V2.55147C43.2827 1.89881 42.7535 1.36975 42.101 1.36975C41.4484 1.36975 40.9192 1.89881 40.9192 2.55147V3.73319H39.7375C39.085 3.73319 38.5558 4.26225 38.5558 4.91492C38.5558 5.56758 39.085 6.09664 39.7375 6.09664H40.9192V7.27836C40.9192 7.93103 41.4484 8.46008 42.101 8.46008C42.7535 8.46008 43.2827 7.93103 43.2827 7.27836V6.09664H44.4644C45.117 6.09664 45.6461 5.56758 45.6461 4.91492C45.6461 4.26225 45.117 3.73319 44.4644 3.73319ZM25.557 9.16912H24.3753V7.98739C24.3753 7.33473 23.8461 6.80567 23.1935 6.80567C22.541 6.80567 22.0118 7.33473 22.0118 7.98739V9.16912H20.8301C20.1775 9.16912 19.6484 9.69817 19.6484 10.3508C19.6484 11.0035 20.1775 11.5326 20.8301 11.5326H22.0118V12.7143C22.0118 13.3669 22.541 13.896 23.1935 13.896C23.8461 13.896 24.3753 13.3669 24.3753 12.7143V11.5326H25.557C26.2095 11.5326 26.7387 11.0035 26.7387 10.3508C26.7387 9.69817 26.2095 9.16912 25.557 9.16912ZM63.3718 9.16912H62.1901V7.98739C62.1901 7.33473 61.6609 6.80567 61.0084 6.80567C60.3559 6.80567 59.8267 7.33473 59.8267 7.98739V9.16912H58.645C57.9924 9.16912 57.4632 9.69817 57.4632 10.3508C57.4632 11.0035 57.9924 11.5326 58.645 11.5326H59.8267V12.7143C59.8267 13.3669 60.3559 13.896 61.0084 13.896C61.6609 13.896 62.1901 13.3669 62.1901 12.7143V11.5326H63.3718C64.0244 11.5326 64.5536 11.0035 64.5536 10.3508C64.5536 9.69817 64.0244 9.16912 63.3718 9.16912Z" fill="#3D8361"/>
</g>
<defs>
<clipPath id="clip0_2247_26699">
<rect width="60.5042" height="60.5042" fill="white" transform="translate(11.8486 1.36975)"/>
</clipPath>
</defs>
</svg>
