<svg width="239" height="212" viewBox="0 0 239 212" fill="none" xmlns="http://www.w3.org/2000/svg">
<path d="M-50.4301 78.142C-41.9392 76.8225 -33.6706 75.8564 -25.6243 75.2436C-25.1525 75.4951 -23.4075 76.4378 -20.7603 77.9842C-7.22803 86.5511 1.72335 95.3473 11.1017 109.287C22.608 126.393 35.4671 137.261 39.8082 136.313C40.1578 136.255 40.4842 136.081 40.7459 135.814C41.0077 135.547 41.193 135.199 41.2785 134.812L41.2808 134.802C42.6773 128.983 37.7577 118.059 27.0331 106.754C16.5402 95.6926 0.487871 84.2666 -20.6362 76.9099L-20.649 76.9063C-21.9473 76.1511 -23.0139 75.5502 -23.8038 75.1116C-10.9865 74.1743 1.86777 74.0263 14.7016 74.6682C15.2664 74.8804 15.8276 75.0975 16.3851 75.3194C28.8569 81.1926 58.0737 112.583 75.3124 141.887C80.0601 149.957 84.9641 159.389 89.7 168.51C100.128 188.578 106.706 200.868 110.402 200.664C111.162 200.622 111.757 200.091 112.17 199.088L112.174 199.067C117.619 185.669 107.396 159.37 96.0029 139.22C88.8778 126.62 81.0923 116.424 73.2512 108.144C52.4674 86.2398 31.3015 77.9713 21.0311 75.0511C41.5075 76.476 61.8241 80.0513 81.7164 85.7304C85.3199 89.2653 92.1673 97.9634 95.5213 108.725C100.913 126.027 105.451 134.75 109.007 134.669C110.724 134.629 112.066 132.712 113.111 128.808C115.248 120.838 112.914 112.14 106.356 103.689C105.263 102.28 104.108 100.934 102.896 99.6559C98.4751 94.9987 92.9611 90.7539 86.802 87.2349C93.5638 89.3162 99.7679 91.5063 105.383 93.6868C109.589 95.3205 113.574 96.9919 117.341 98.6687C120.229 103.81 124.498 115.087 129.423 128.125C134.676 142.019 139.731 156.269 146.422 169.392C149.383 175.196 157.123 188.008 160.059 174.828C165.308 151.235 140.862 121.446 126.973 106.815C124.157 103.839 121.774 101.501 120.16 99.9532C128.577 103.803 136.81 108.148 144.824 112.97C146.57 115.042 148.219 117.215 149.764 119.479C155.137 128.232 158.772 140.235 161.694 149.886C164.471 159.056 166.477 165.683 168.955 166.68C169.249 166.798 169.562 166.838 169.871 166.796C170.18 166.754 170.477 166.633 170.737 166.44L170.764 166.424C172.371 165.306 173.36 163.106 173.576 160.233C174.453 148.493 163.732 132.745 152.657 121.061C151.898 120.265 151.139 119.485 150.381 118.722C149.381 117.265 148.343 115.849 147.268 114.473C148.272 115.098 149.226 115.703 150.13 116.288C152.095 117.608 154.413 119.232 156.983 121.18C158.314 122.34 159.719 123.476 161.179 124.618C173.384 136.126 181.213 148.176 185.719 162.379C195.738 193.918 210.918 212.071 214.646 211.282C214.928 211.222 215.576 210.956 215.557 209.778L215.561 209.762C214.708 178.409 200.148 156.5 187.776 143.456C187.538 143.205 187.3 142.958 187.063 142.714C185.37 140.96 183.674 139.324 182.007 137.799C206.227 150.697 233.44 158.627 237.44 155.145C237.556 155.043 237.659 154.924 237.747 154.791L237.75 154.777C238.003 154.388 238.161 153.782 237.816 152.92C236.41 149.468 234.294 146.253 231.469 143.276C223.649 135.033 210.424 128.632 191.968 124.187C174.038 119.874 157.336 119.05 155.934 118.988C154.392 117.913 152.579 116.69 150.509 115.357C149.512 114.687 148.605 114.095 147.802 113.585C157.241 115.645 186.565 121.319 196.594 114.839C199.927 112.689 200.455 111.773 200.223 111.002C200.181 110.858 200.107 110.729 200.008 110.626C199.157 109.732 196.132 110.063 188.99 111.084C184.338 111.75 179.064 112.503 174.866 112.523C163.306 112.571 146.433 111.963 145.088 111.913C144.224 111.403 143.74 111.139 143.689 111.112C143.657 111.099 143.625 111.09 143.591 111.085C140.455 109.225 136.942 107.246 133.069 105.203C134.16 104.456 135.257 103.723 136.36 103.005C143.885 99.8398 154.384 98.2063 164.54 96.627C182.576 93.8187 201.223 90.9206 204.296 79.2299C204.8 77.3167 204.815 75.6284 204.358 74.1974C204.378 74.1206 204.381 74.0397 204.368 73.961C204.35 73.8557 204.303 73.7596 204.233 73.6864C204.202 73.6549 204.167 73.6277 204.13 73.605C203.849 72.9743 203.47 72.4052 203.011 71.9248C202.692 71.5907 202.343 71.2934 201.972 71.0373C199.09 69.0439 193.907 68.6694 187.329 70.0224C181.08 63.6087 153.931 65.7215 142.409 71.122C126.781 78.4424 111.839 90.6884 111.029 91.3465C108.725 92.2971 107.227 92.9465 106.755 93.1496L105.724 92.7451C98.7593 90.0366 90.8925 87.3153 82.1801 84.8073C82.1451 84.7976 82.1151 84.7739 82.0779 84.757C82.0406 84.7401 82.0503 84.7494 82.0374 84.7458C82.0229 84.7407 82.0082 84.7366 81.9933 84.7336C81.9806 84.729 81.9678 84.7254 81.9547 84.7229C81.9408 84.7181 81.9266 84.7142 81.9124 84.7111C81.9013 84.7081 81.8921 84.7055 81.8811 84.7025C77.9655 83.5802 73.8898 82.5064 69.6542 81.4813C70.5273 81.1328 71.7675 80.6292 73.3096 79.9832C82.3639 78.1113 91.2832 75.4941 99.9958 72.1526C113.039 67.1168 130.186 58.3493 137.819 45.126C141.523 38.7123 142.512 34.7406 140.846 32.9834L140.828 32.9628C136.481 28.4775 115.364 42.7592 105.263 51.6714C104.246 52.5675 103.231 53.4571 102.219 54.3401C101.966 53.3647 101.484 52.4843 100.822 51.7926C100.451 51.4033 100.035 51.0717 99.5861 50.8065C85.4133 42.4506 58.4131 52.4093 39.3932 73.0049L39.3892 73.0236C37.5072 74.3723 36.3929 75.284 36.1783 75.4638C29.4516 74.6452 22.4569 74.0398 15.1943 73.6478C14.8951 73.5978 14.7269 73.5731 14.6948 73.5686C14.6562 73.5651 14.6175 73.5662 14.5791 73.5716C14.5592 73.5743 14.5394 73.5783 14.5199 73.5838C14.5117 73.5866 14.5037 73.5903 14.4961 73.5947C14.4822 73.5996 14.4686 73.6054 14.4553 73.6119C9.66366 73.3752 4.76082 73.2496 -0.253288 73.2352C0.266667 72.3672 1.22695 70.7915 2.58183 68.6467C17.0965 49.296 28.9181 42.0311 43.8762 32.8389C47.618 30.5393 51.4875 28.1631 55.6196 25.4492C62.926 20.6691 70.727 10.1291 70.7922 4.96361C70.8052 3.88923 70.4689 3.23833 70.0979 2.84567C70.0009 2.74377 69.8953 2.65272 69.7827 2.57382C69.7739 2.57212 69.7653 2.56973 69.7569 2.56668C67.1147 0.718761 63.7054 0.401348 59.629 1.62022C43.0969 6.56025 16.5826 37.0564 1.72994 68.2151C1.7259 68.2294 1.72274 68.2439 1.72049 68.2586C0.0446366 70.9027 -1.01206 72.6801 -1.34514 73.2442C-9.1349 73.2563 -17.1811 73.5757 -25.4839 74.2023C-25.5437 74.1945 -25.6042 74.1994 -25.6624 74.2165C-33.7282 74.8473 -42.0195 75.8159 -50.5362 77.1224C-50.6556 77.1411 -50.7634 77.2125 -50.8359 77.3208C-50.8718 77.3745 -50.898 77.4356 -50.9129 77.5007C-50.9278 77.5658 -50.9313 77.6335 -50.923 77.7001C-50.9146 77.7667 -50.8947 77.8309 -50.8644 77.8889C-50.8341 77.9468 -50.794 77.9975 -50.7463 78.0381C-50.6986 78.0786 -50.6443 78.1082 -50.5865 78.1251C-50.5287 78.142 -50.4685 78.146 -50.4094 78.1367L-50.4301 78.142ZM39.6361 135.31C37.3843 135.803 31.4029 131.87 24.3143 124.398C19.7676 119.56 15.5902 114.299 11.8262 108.672C5.4504 99.1932 -0.731967 92.0736 -8.26228 85.7923C7.87325 96.5388 30.7354 114.431 40.3538 134.708C40.293 134.871 40.1944 135.013 40.0682 135.119C39.9419 135.225 39.7927 135.291 39.6361 135.31ZM40.6114 133.117C36.8817 125.657 31.4231 118.536 25.2121 111.988C11.6496 97.6891 -5.48191 86.1329 -15.923 79.725C21.4082 94.3837 41.3101 121.453 40.6114 133.117ZM168.553 165.194C166.703 163.243 164.765 156.841 162.56 149.56C160.628 143.197 158.4 135.824 155.56 128.999C164.517 145.481 169.259 162.876 170.006 165.717C169.771 165.818 169.511 165.818 169.275 165.719C169.005 165.602 168.758 165.423 168.553 165.194ZM172.687 160.142C172.522 162.36 171.856 164.105 170.793 165.141C169.721 161.098 163.939 140.5 153.152 122.966C168.306 139.221 173.245 152.69 172.687 160.142ZM153.072 178.254C146.899 171.748 137.799 147.674 130.261 127.739C126.548 117.905 123.202 109.071 120.529 103.085C130.278 116.898 158.546 159.073 155.699 179.94C154.902 179.84 154.023 179.256 153.072 178.254ZM159.185 174.59C158.535 177.512 157.679 179.244 156.637 179.77C157.925 169.24 152.105 152.69 139.305 130.508C132.318 118.401 124.926 107.624 120.948 102.016C127.045 107.941 136.314 117.913 144.147 129.086C156.815 147.17 161.875 162.481 159.185 174.59ZM237.008 153.357C237.049 153.456 237.081 153.559 237.105 153.665C212.632 134.865 176.02 124.105 161.831 120.441C178.852 121.936 226.818 128.35 237.006 153.349L237.008 153.357ZM179.018 135.178C177.001 134.044 175.014 132.872 173.057 131.662C170.008 129.774 167.058 127.803 164.267 125.749L163.871 125.455C163.451 125.145 163.032 124.829 162.622 124.516C162.67 124.417 162.687 124.304 162.671 124.193C162.656 124.082 162.608 123.98 162.535 123.903C162.523 123.889 162.509 123.876 162.494 123.866C162.442 123.82 160.972 122.6 158.161 120.567C168.511 123.066 209.891 133.978 236.624 154.532C232.008 157.169 203.611 149.006 179.015 135.171L179.018 135.178ZM214.494 210.274C213.824 210.415 212.268 209.358 210.151 207.127C204.281 200.941 194.116 185.738 186.59 162.032C182.915 150.457 177.078 140.294 168.495 130.709C186.06 146.635 207.57 172.862 214.661 209.828C214.663 210.242 214.548 210.269 214.494 210.274ZM186.48 143.487C198.088 155.503 211.945 175.502 214.34 203.981C207.615 175.696 192.591 154.04 178.115 138.77C175.386 135.895 172.685 133.247 170.047 130.825C172.638 132.485 175.328 134.096 178.076 135.646C180.992 138.101 183.797 140.721 186.478 143.495L186.48 143.487ZM174.882 113.544C179.137 113.527 184.439 112.766 189.118 112.096C193.44 111.477 198.821 110.706 199.372 111.273C199.35 111.379 199.131 112.025 196.158 113.947C187.311 119.668 161.917 115.402 150.627 113.119C156.869 113.32 167.081 113.585 174.881 113.552L174.882 113.544ZM142.753 72.0605C148.69 69.2762 158.791 67.3391 168.471 67.1163C176.896 66.9275 183.323 68.1102 186.142 70.2729C186.474 70.5193 186.776 70.8125 187.041 71.1455C187.17 71.3101 187.285 71.489 187.383 71.6795C187.573 72.0343 187.686 72.4342 187.714 72.8471C185.988 72.5666 184.248 72.4082 182.504 72.3729C181.389 72.3432 180.237 72.3517 179.048 72.3981C158.583 73.1631 128.312 84.3841 114.269 90.0275C119.36 86.0885 130.87 77.6419 142.757 72.0703L142.753 72.0605ZM179.456 73.3917C182.183 73.2792 184.914 73.4355 187.617 73.8587C187.172 75.8385 185.235 77.9426 183.403 79.5534L183.384 79.57C182.622 80.2369 181.836 80.8634 181.026 81.4498C175.877 85.2012 169.919 87.2728 163.554 88.4103C162.357 88.6258 161.147 88.8092 159.925 88.9607C157.009 89.3246 154.028 89.5211 151.005 89.6356C150.433 89.655 149.862 89.6722 149.288 89.6864C145.598 89.7808 141.865 89.7512 138.166 89.7246C130.637 89.6699 122.897 89.6139 115.606 90.5585C129.269 85.106 156.25 75.2254 175.897 73.5926C177.124 73.507 178.309 73.4381 179.46 73.4015L179.456 73.3917ZM157.112 90.2971C151.265 93.1063 145.278 96.3092 139.382 99.9261C142.666 96.6506 146.101 93.5724 149.673 90.7044C152.174 90.6447 154.662 90.5179 157.112 90.2971ZM203.427 78.9319C200.519 89.9986 182.17 92.852 164.425 95.6115C156.047 96.9154 147.435 98.2553 140.403 100.468C146.816 96.5844 153.406 93.0818 160.146 89.9746C168.938 88.8668 177.143 86.3031 183.831 80.4843C194.131 76.9559 201.633 75.1192 203.537 74.6724C203.894 75.8669 203.86 77.2889 203.427 78.9319ZM201.495 71.9107C202.165 72.357 202.73 72.9775 203.144 73.7202C201.087 74.2125 194.544 75.8385 185.585 78.8257C188.411 75.877 189.283 73.3105 188.172 71.1694C188.132 71.0925 188.088 71.0187 188.044 70.9449C194.074 69.741 198.828 70.0624 201.495 71.9107ZM111.407 92.2812C119.841 90.6239 129.163 90.6927 138.177 90.7596C141.449 90.7884 144.741 90.8079 148.014 90.7493C143.772 94.2606 139.726 98.0612 135.897 102.13C134.62 102.96 133.351 103.811 132.091 104.682C127.775 102.431 123.026 100.116 117.862 97.8122C117.862 97.8122 117.846 97.8076 117.838 97.8055L117.8 97.7948C117.8 97.7948 117.779 97.7892 117.77 97.7867C114.689 96.4141 111.457 95.0496 108.074 93.6931C108.845 93.3512 109.97 92.875 111.407 92.2812ZM106.847 132.426C104.002 129.428 100.325 121.036 96.3835 108.391C94.0001 100.746 89.8876 94.1237 86.3691 89.587C94.9508 97.2576 111.955 115.101 108.758 133.634C108.176 133.56 107.535 133.152 106.847 132.426ZM112.251 128.514C111.729 130.46 110.894 132.725 109.715 133.43C112.092 118.332 101.653 103.816 92.9461 94.638C90.2586 91.8049 87.7374 89.4812 85.8068 87.8042C108.147 100.054 115.282 117.196 112.251 128.514ZM84.1988 64.3716C69.7103 64.5257 58.3562 64.943 49.5142 67.7802C61.1912 61.2349 79.6109 53.7709 99.6198 56.6119C96.7384 59.1062 93.9254 61.4921 91.2495 63.7316C88.9175 64.1475 86.5604 64.3615 84.1988 64.3716ZM78.3612 77.8382C95.5535 70.2622 129.533 53.4743 140.67 34.8028C140.866 36.2053 140.277 39.0059 137.053 44.5864C125.493 64.6092 91.4511 74.6354 78.3626 77.832L78.3612 77.8382ZM140.209 33.7375C140.199 33.7489 140.191 33.7612 140.183 33.7744C129.03 53.1898 92.3635 70.7037 75.9517 77.7826C77.4964 76.4787 79.5032 74.8155 81.8027 72.8997C84.6813 70.5079 88.0402 67.7179 91.672 64.6589C92.2176 64.1998 92.7698 63.7338 93.3288 63.2608C95.7621 61.2044 98.3011 59.0389 100.888 56.7946L101.466 56.2962L101.885 55.9335L102.389 55.496C103.527 54.5073 104.669 53.5067 105.815 52.4942C116.965 42.6608 136.756 30.174 140.209 33.7375ZM99.1536 51.7294C99.7305 52.0521 100.235 52.5182 100.629 53.0926C101.022 53.6669 101.295 54.3345 101.426 55.0447L100.638 55.7285C76.3792 51.9176 54.3299 63.2469 43.3807 70.3102C61.6219 52.6536 86.3468 44.176 99.1536 51.7294ZM43.0551 71.7019C52.4612 66.1867 65.7714 65.5961 84.2011 65.3844C86.0599 65.3696 87.9162 65.2356 89.7611 64.9831C86.659 67.5962 83.7707 69.9875 81.2584 72.066C77.3167 75.3399 74.45 77.7219 73.016 79.0192C70.0733 80.2516 68.2193 80.9692 67.9236 81.0826C58.5463 78.8887 48.3898 77.0056 37.5084 75.6328C38.532 74.8519 40.4274 73.4322 43.0551 71.7019ZM69.8794 4.96518C69.8231 9.35372 62.673 19.6527 55.1524 24.593C51.0263 27.2976 47.1631 29.6711 43.4259 31.9676C31.1281 39.522 20.252 46.2037 8.27535 60.0537C20.781 41.8738 44.7011 11.4816 69.4498 3.59464C69.7265 3.87336 69.8788 4.33052 69.8794 4.96518ZM59.859 2.62586C63.216 1.62245 66.0664 1.71245 68.351 2.8904C42.8106 11.559 18.3393 43.4932 6.29466 61.2829C21.4242 33.0595 44.8336 7.10107 59.8475 2.61607L59.859 2.62586ZM110.373 199.648C107.039 199.821 98.6252 183.657 90.4912 168.009C85.7465 158.875 80.8392 149.431 76.0772 141.337C61.0368 115.763 36.8667 88.6147 22.4798 77.9951C53.285 92.7807 75.1163 122.771 88.3472 146.263C103.18 172.603 110.555 196.423 111.281 198.819C110.907 199.607 110.502 199.631 110.362 199.638L110.373 199.648ZM95.257 139.772C111.648 168.76 114.594 188.249 111.812 197.395C110.079 191.909 102.729 169.878 89.1374 145.74C81.8069 132.73 71.8544 117.726 59.2027 104.387C48.2566 92.8442 35.2849 82.549 20.2477 75.8569C25.2358 77.2093 33.1327 79.8995 42.3788 85.0495C56.9743 93.1735 78.0054 109.271 95.2455 139.763L95.257 139.772Z" fill="#E3E3E3"/>
</svg>
