<svg width="49" height="52" viewBox="0 0 49 52" fill="none" xmlns="http://www.w3.org/2000/svg">
<g clip-path="url(#clip0_10661_18641)">
<path d="M38.4435 26.8711C37.6967 26.7994 37.1369 26.4659 36.4087 26.3759C35.6606 26.2999 34.8569 26.3274 34.025 26.4574C32.6052 26.6988 31.1545 27.1388 29.7389 27.7574C29.2648 27.9159 28.8045 28.161 28.4013 28.4696C28.0724 28.7683 28.2532 28.9904 28.5764 29.0252C29.1118 29.0314 29.6855 28.9439 30.264 28.7677C31.0804 28.5629 31.8989 28.3259 32.7161 28.0575C34.6232 27.433 36.668 26.7441 38.3692 27.0454C38.4989 27.0681 38.6431 26.8534 38.5118 26.8279C37.2591 26.5867 35.7676 26.9112 34.3035 27.3437C32.8091 27.846 31.3115 28.2859 29.8178 28.6613C29.6148 28.7034 28.4141 28.9763 28.5397 28.6486C28.5853 28.5359 28.8323 28.4084 28.9476 28.3456C29.1892 28.2142 29.437 28.0962 29.6884 27.9929C30.9828 27.4171 32.3093 26.9882 33.6183 26.7223C34.531 26.5511 35.4168 26.497 36.2423 26.5621C37.0158 26.6296 37.6067 26.9565 38.4279 26.9552C38.4349 26.9554 38.4424 26.9543 38.45 26.9521C38.4576 26.9499 38.4651 26.9466 38.4721 26.9423C38.4791 26.9381 38.4855 26.933 38.4909 26.9274C38.4963 26.9218 38.5006 26.9158 38.5036 26.9096C38.5066 26.9035 38.5081 26.8974 38.5082 26.8916C38.5082 26.8859 38.5068 26.8806 38.504 26.8762C38.5011 26.8717 38.4969 26.8681 38.4916 26.8656C38.4863 26.8631 38.48 26.8618 38.473 26.8616L38.4435 26.8711Z" fill="#83C5A5"/>
<path d="M38.3885 26.9779C39.3281 27.2423 40.4736 26.8436 41.5926 26.5503C42.2105 26.3887 42.8289 26.2381 43.4412 26.1173C44.0962 25.9954 44.7373 25.9364 45.3509 25.9417C45.4556 25.9413 45.5701 25.7963 45.4628 25.772C44.4673 25.5623 43.1239 25.9514 41.9662 26.2483C40.8085 26.5452 39.4988 27.0837 38.4663 26.8804C38.3998 26.8663 38.322 26.9637 38.3885 26.9779Z" fill="#83C5A5"/>
<path d="M35.5431 28.1068C36.4273 27.7703 37.3214 27.5392 38.191 27.4225C38.6009 27.3674 39.0161 27.2907 39.434 27.1927C39.6338 27.1449 39.8314 27.0833 40.029 27.0218C40.2084 26.9795 40.3884 26.9014 40.5512 26.7953C40.5623 26.7861 40.5712 26.7754 40.577 26.7643C40.5828 26.7533 40.5852 26.7422 40.5842 26.7322C40.5831 26.7223 40.5786 26.7137 40.5709 26.7075C40.5633 26.7012 40.5529 26.6973 40.5407 26.6963C40.365 26.7243 40.1848 26.7787 40.0095 26.8567C39.796 26.9311 39.5776 26.9972 39.3636 27.0607C38.9225 27.1858 38.4832 27.2772 38.0523 27.3337C37.2308 27.4464 36.3825 27.6949 35.5591 28.0638C35.5329 28.079 35.5328 28.109 35.5737 28.0891L35.5431 28.1068Z" fill="#83C5A5"/>
<path d="M36.2891 27.7626C33.126 28.7257 29.5274 29.3585 26.7552 31.6045C26.3603 31.9301 25.0115 32.9866 25.4322 33.3517C25.7616 33.6193 26.4573 33.2289 26.8776 32.9675C27.791 32.3989 28.7569 31.9012 29.6963 31.3776C30.75 30.7693 31.8036 30.161 32.867 29.5695C33.9889 28.9542 35.1307 28.3802 36.2872 27.8501C36.3877 27.792 36.3871 27.6798 36.2708 27.7207C34.4486 28.3712 32.6816 29.4402 30.9711 30.4052C30.0967 30.91 29.1776 31.4182 28.2776 31.919C27.8797 32.1487 27.4721 32.3615 27.0803 32.5915C26.7738 32.8062 26.4427 32.9898 26.0999 33.135C25.9378 33.1874 25.66 33.2314 25.6355 33.0879C25.611 32.9444 25.7576 32.8148 25.8442 32.7123C26.1457 32.3649 26.4944 32.0373 26.8796 31.7392C27.8782 30.9394 29.0192 30.2806 30.2111 29.8157C32.2231 28.9994 34.2618 28.6029 36.2754 27.7893L36.2608 27.764L36.2891 27.7626Z" fill="#83C5A5"/>
<path d="M31.9985 31.7108C33.2454 30.8559 34.5383 30.0579 35.8667 29.3236C36.388 29.0452 36.9114 28.7805 37.4331 28.513C38.0675 28.1881 38.6921 27.8462 39.3253 27.5294C39.7787 27.3052 40.2157 27.1129 40.6663 26.9241C41.055 26.7875 41.4408 26.6287 41.8203 26.4492C41.9209 26.3911 41.8912 26.2994 41.8034 26.3089C41.46 26.3727 41.1099 26.4906 40.7737 26.6557C40.3875 26.8148 40.0095 26.988 39.6364 27.1697C38.9529 27.5005 38.3004 27.8847 37.6196 28.2403C36.523 28.7871 35.4442 29.3761 34.3885 30.0044C33.5498 30.5289 32.7336 31.0841 31.9441 31.6671C31.8917 31.6974 31.9405 31.7517 31.9766 31.7234L31.9985 31.7108Z" fill="#83C5A5"/>
<path d="M32.6774 31.161C31.8104 31.5978 30.9628 32.0683 30.0936 32.4913C29.2244 32.9144 28.4161 33.261 27.5846 33.6585C26.75 34.0428 25.9416 34.4982 25.1785 35.0139C24.6502 35.3363 24.169 35.7198 23.7613 36.1436C23.5476 36.4096 23.511 36.7197 23.8928 36.6944C24.267 36.6372 24.6532 36.5033 25.0148 36.3055C25.7998 35.9386 26.5827 35.5579 27.3542 35.1575C28.2015 34.7358 29.0295 34.2691 29.8303 33.7617C30.4452 33.3407 31.024 32.8807 31.5565 32.3898C32.0839 31.9202 32.6234 31.4511 33.1095 30.9603C33.1752 30.8923 33.0712 30.8435 32.9963 30.9056C32.0942 31.6553 31.2477 32.4405 30.3086 33.1666C29.06 34.1239 27.5479 34.8468 26.141 35.5502C25.6143 35.8261 25.0792 36.0824 24.5382 36.318C24.3632 36.3984 24.1826 36.4556 24.0059 36.4865C23.6857 36.5175 23.9099 36.2192 24.0751 36.0712C24.2695 35.8936 24.48 35.7268 24.703 35.5736C24.9868 35.3685 25.257 35.1599 25.5489 34.9689C26.2477 34.5254 26.9754 34.1254 27.7216 33.7745C29.3976 32.972 31.1388 32.252 32.7197 31.2341C32.7347 31.2254 32.747 31.2132 32.7537 31.2002C32.7604 31.1872 32.761 31.1744 32.7554 31.1647C32.7498 31.155 32.7384 31.1492 32.7238 31.1485C32.7092 31.1478 32.6925 31.1523 32.6774 31.161Z" fill="#83C5A5"/>
<path d="M28.0013 17.0332C28.5195 17.4058 29.2167 17.6037 29.7421 17.9684C30.2747 18.3882 30.6776 18.9087 30.9347 19.509C31.206 20.0849 31.5238 20.6355 31.8869 21.1584C32.251 21.6585 32.6792 22.1166 33.1675 22.5282C33.72 23.0026 34.3566 23.4083 35.0675 23.7392C35.1867 23.7942 35.3969 23.5828 35.2864 23.5227C34.0416 22.8899 33.0066 22.0574 32.2173 21.054C31.852 20.5324 31.5341 19.9818 31.265 19.4046C31.0155 18.852 30.6434 18.3673 30.1609 17.9668C29.5725 17.5334 28.7182 17.3662 28.0954 16.9639C28.0775 16.9329 27.9965 16.9947 28.021 17.0068L28.0013 17.0332Z" fill="#83C5A5"/>
<path d="M23.6897 27.8502C25.5038 26.8038 27.4057 25.932 29.3363 25.2619C30.3052 24.9257 31.2777 24.6453 32.2449 24.4233C33.207 24.2017 34.1394 24.08 35.0889 23.9071C35.2848 23.8728 35.3981 23.6047 35.1953 23.6168C34.253 23.6948 33.2821 23.8673 32.3032 24.1306C31.3219 24.3735 30.3372 24.6686 29.3564 25.0139C27.3834 25.6929 25.4478 26.6236 23.6393 27.7629C23.6267 27.7734 23.6174 27.7858 23.6129 27.7983C23.6083 27.8108 23.6087 27.8226 23.6141 27.8319C23.6195 27.8412 23.6295 27.8475 23.6426 27.8498C23.6557 27.8521 23.6711 27.8503 23.6865 27.8446L23.6897 27.8502Z" fill="#83C5A5"/>
<path d="M9.68604 25.5359C15.3789 24.128 20.9794 23.4099 26.289 23.4071C31.6097 23.4148 36.6599 23.9762 41.3325 25.0795C42.6814 25.3965 44.0385 25.7276 45.2827 26.1764C45.9175 26.3969 46.5234 26.6509 47.0978 26.9373C47.6447 27.2183 48.1238 27.5534 48.6292 27.8733C48.7461 27.9446 49.0298 27.7696 48.9364 27.6584C48.3003 26.8998 47.2066 26.4392 46.177 26.0391C45.0495 25.607 43.865 25.2409 42.6292 24.9426C40.2997 24.3636 37.8793 23.9094 35.3788 23.5819C30.3621 22.8895 24.9573 22.8645 19.3285 23.5077C16.1739 23.8815 12.9511 24.5212 9.71049 25.4167C9.63079 25.4402 9.62219 25.5465 9.70352 25.5258L9.68604 25.5359Z" fill="#83C5A5"/>
<path d="M29.0808 17.5506C28.5904 17.2225 28.0598 16.9309 27.4924 16.6775C26.9476 16.4103 26.3826 16.1586 25.7836 15.9491C24.8241 15.6098 23.7178 15.1678 22.4152 15.4056C22.1942 15.4469 21.9049 15.5314 21.8899 15.7577C21.9509 15.9863 22.1064 16.1679 22.3372 16.2801C22.9902 16.6744 23.7476 16.967 24.588 17.1497C25.9182 17.5364 27.411 17.703 29.0057 17.6427C29.1982 17.6329 29.3301 17.3766 29.1392 17.3892C27.8464 17.4639 26.6197 17.3796 25.4971 17.139C24.9261 17.0183 24.3776 16.8659 23.8318 16.7081C23.5069 16.6217 23.2012 16.5108 22.9175 16.3766C22.6719 16.2581 22.4496 16.1164 22.2534 15.9532C22.1649 15.8982 22.1052 15.819 22.0798 15.7232C22.0852 15.5812 22.3333 15.5768 22.4605 15.5446C23.6647 15.3485 24.6888 15.7592 25.5923 16.052C26.1941 16.2562 26.7619 16.5026 27.3154 16.7647C27.869 17.0268 28.4085 17.3758 29.0178 17.6132C29.0308 17.6357 29.0921 17.5703 29.072 17.5556L29.0808 17.5506Z" fill="#83C5A5"/>
<path d="M30.6929 18.0199C30.7765 16.7107 30.0208 15.6946 29.1936 14.8474C28.255 13.8882 27.0629 13.0753 26.325 11.9589C26.1365 11.6324 25.7547 11.1023 26.419 10.6475C27.0833 10.1927 27.7583 10.6248 28.1228 10.8422C29.3403 11.5878 29.8294 12.8591 30.2171 14.1364C30.3771 14.7459 30.4542 15.39 30.4474 16.06C30.4016 16.749 30.4258 17.4189 30.5199 18.0635C30.5605 18.1338 30.7209 18.1088 30.7371 18.0056C30.8078 17.3501 30.8179 16.7097 30.7674 16.0892C30.7739 15.4351 30.7123 14.8018 30.5833 14.1952C30.4131 13.5311 30.1741 12.8977 29.8681 12.3001C29.5688 11.6688 29.1047 11.1315 28.4968 10.7125C28.0878 10.4383 27.5396 10.0643 26.8148 10.2426C26.5827 10.2992 26.3522 10.4165 26.1627 10.5745C25.9732 10.7326 25.8365 10.9214 25.7759 11.1088C25.7064 11.3464 25.7233 11.569 25.8247 11.7486C25.9953 12.0691 26.203 12.3682 26.4462 12.6433C26.9124 13.1717 27.4245 13.6678 27.9804 14.1293C28.6179 14.6541 29.1902 15.2303 29.693 15.8538C30.1704 16.4854 30.4666 17.2273 30.5685 18.0467C30.5912 18.0861 30.6862 18.0688 30.6897 18.0142L30.6929 18.0199Z" fill="#83C5A5"/>
<path d="M30.5395 17.2191C30.3837 17.8992 30.455 18.5317 30.7462 19.0512C30.865 19.3579 31.0051 19.6711 31.1593 19.9686C31.2422 20.1121 31.3218 20.25 31.4096 20.402C31.4689 20.556 31.5645 20.6909 31.6927 20.8015C31.7099 20.8146 31.7347 20.8208 31.7631 20.8189C31.7916 20.817 31.8221 20.8073 31.8499 20.7912C31.8778 20.7751 31.9015 20.7535 31.9173 20.7299C31.9332 20.7062 31.9402 20.6817 31.9375 20.6601C31.9041 20.5079 31.8383 20.37 31.7422 20.2512L31.492 19.8178C31.3295 19.5363 31.2078 19.2651 31.0797 18.9825C30.9515 18.7 30.8331 18.4343 30.7508 18.1404C30.6939 17.8337 30.6811 17.5104 30.7126 17.1754C30.7178 17.0936 30.5633 17.1491 30.5395 17.2191Z" fill="#83C5A5"/>
<path d="M34.429 20.1296C34.8912 18.7594 34.7486 17.4119 34.4827 16.2445C34.1714 15.0398 33.7267 13.895 33.1528 12.8203C32.9659 12.4967 32.8537 11.9085 33.2638 11.4578C33.3928 11.3428 33.5518 11.2532 33.716 11.2033C33.8802 11.1533 34.0403 11.1457 34.1712 11.1816C34.4973 11.2558 34.7398 11.4309 34.8612 11.6801C35.1898 12.1581 35.4356 12.6854 35.5946 13.2532C35.7533 13.9102 35.8153 14.6063 35.7796 15.3306C35.7635 16.0373 35.6492 16.77 35.4386 17.5165C35.2087 18.2786 34.8368 19.0516 34.3364 19.8078C34.2553 19.9297 34.4678 19.9646 34.5582 19.8486C35.641 18.4729 35.9806 16.9408 36.0643 15.6015C36.131 14.8501 36.1022 14.1238 35.9783 13.4332C35.8314 12.7905 35.5852 12.1914 35.2442 11.6467C34.9939 11.2132 34.6148 10.8091 33.8553 10.9474C33.7253 10.9684 33.5919 11.0114 33.4638 11.0736C33.3357 11.1358 33.2158 11.2158 33.1122 11.3083C33.0085 11.4008 32.9234 11.5036 32.8625 11.6101C32.8016 11.7165 32.7662 11.8241 32.7587 11.9258C32.601 12.531 32.8834 12.9797 33.0998 13.4252C33.3957 14.0387 33.6741 14.6623 33.9044 15.3136C34.1645 16.036 34.341 16.7974 34.4322 17.5908C34.4928 18.4152 34.4579 19.2702 34.328 20.1466C34.3265 20.1527 34.3265 20.1584 34.328 20.1636C34.3295 20.1688 34.3324 20.1732 34.3366 20.1767C34.3407 20.1802 34.3461 20.1827 34.3524 20.184C34.3587 20.1853 34.3657 20.1855 34.3732 20.1844C34.3806 20.1833 34.3882 20.181 34.3956 20.1777C34.4031 20.1744 34.4101 20.1701 34.4164 20.1651C34.4227 20.1601 34.4281 20.1544 34.4323 20.1484C34.4366 20.1424 34.4395 20.1362 34.441 20.1302L34.429 20.1296Z" fill="#83C5A5"/>
<path d="M34.4411 19.676C34.2048 20.1501 34.0978 20.6219 34.1288 21.0535C34.1189 21.5142 34.1932 21.9487 34.3495 22.3446C34.5051 22.7306 34.7348 23.0774 35.0326 23.3763C35.2915 23.7127 35.6879 23.9506 36.1832 24.0668C36.3064 24.0782 36.3975 23.9431 36.3377 23.88C36.1885 23.7528 36.0192 23.6421 35.8319 23.5491C35.2944 23.1951 34.9002 22.7219 34.6731 22.1578C34.5223 21.7948 34.4388 21.3993 34.4246 20.9803C34.4136 20.7526 34.4243 20.5181 34.4567 20.2787C34.505 20.0688 34.5389 19.8613 34.5584 19.6571C34.5618 19.6026 34.4674 19.6308 34.4411 19.676Z" fill="#83C5A5"/>
<path d="M23.9614 27.6143C22.7138 28.0382 21.4778 28.5528 20.2376 29.04C19.1437 29.451 18.0593 29.9178 16.9926 30.4368C16.4106 30.7271 15.8494 31.0637 15.3213 31.4393C14.9363 31.7216 14.4326 32.1213 14.3798 32.5045C14.3271 32.8877 14.8298 33.0516 15.2425 33.0497C15.7024 33.0222 16.1934 32.8869 16.6607 32.6587C18.0276 31.9977 19.336 31.2006 20.5419 30.2941C21.7344 29.4517 22.8758 28.5713 24.0309 27.6943C24.0501 27.6774 24.0635 27.6574 24.0685 27.6379C24.0736 27.6185 24.07 27.6008 24.0585 27.5881C24.0469 27.5754 24.0281 27.5684 24.0055 27.5685C23.9828 27.5685 23.9578 27.5756 23.9348 27.5884C22.9929 28.1885 22.1259 28.8879 21.2205 29.5308C20.0493 30.4144 18.8149 31.2338 17.5331 31.9787C16.7286 32.4432 15.2802 33.1856 14.7174 32.6248C14.4589 32.3688 14.977 31.9233 15.3253 31.6584C15.8214 31.284 16.3554 30.9491 16.9132 30.6628C17.9538 30.1427 19.0161 29.6826 20.0888 29.2872C21.3815 28.7698 22.6829 28.2774 23.9638 27.6993C24.025 27.6639 24.0263 27.5956 23.9543 27.6222L23.9614 27.6143Z" fill="#83C5A5"/>
<path d="M24.1522 26.6633C24.8428 26.5896 25.5488 26.4598 26.2601 26.2756C26.9349 26.1239 27.6156 25.888 28.2761 25.5771C28.3416 25.5392 28.3163 25.4751 28.2371 25.5096C26.8786 26.0149 25.5074 26.3648 24.1723 26.5466C24.0785 26.5557 24.054 26.6749 24.1478 26.6658L24.1522 26.6633Z" fill="#83C5A5"/>
<path d="M24.9271 26.46C24.092 26.4529 23.2754 26.4069 22.4809 26.3224C21.6575 26.2563 20.7744 26.3077 19.864 26.4747C18.9148 26.6621 17.9573 26.9075 17 27.2088C16.107 27.4296 15.2112 27.7873 14.3661 28.2604C13.9289 28.5128 13.1924 29.0244 13.2115 29.4412C13.2246 29.7263 13.6697 29.6795 13.9758 29.6341C14.477 29.5422 14.985 29.4063 15.4905 29.2287C16.1037 29.0286 16.7179 28.8203 17.3354 28.6176C18.4787 28.2353 19.622 27.8529 20.7712 27.5009C21.9404 27.1548 23.1087 26.8561 24.2711 26.6061C24.2949 26.5999 24.3184 26.5872 24.337 26.5704C24.3556 26.5536 24.3682 26.5339 24.3723 26.5149C24.3764 26.496 24.3717 26.4791 24.3592 26.4674C24.3467 26.4558 24.3272 26.4502 24.3044 26.4518C23.4317 26.5657 22.5396 26.7621 21.646 27.0371C20.7306 27.2992 19.8139 27.5995 18.8988 27.9027C17.5917 28.3346 16.2763 28.8126 14.9884 29.2071C14.529 29.3854 14.0629 29.4777 13.6334 29.4753C13.0601 29.401 14.0434 28.6607 14.3178 28.4797C15.0928 28.0125 15.9273 27.6588 16.7625 27.4435C17.6875 27.1483 18.6133 26.8971 19.5344 26.6913C20.5334 26.4829 21.5055 26.4088 22.41 26.4722C23.2086 26.5328 24.008 26.6754 24.9181 26.5253C24.9656 26.5166 24.9925 26.4523 24.9462 26.4528L24.9271 26.46Z" fill="#83C5A5"/>
<path d="M25.7978 27.5637C26.8771 26.9594 27.9498 26.3438 29.0572 25.7982C30.1931 25.2563 31.3444 24.762 32.5048 24.3182C32.5298 24.3092 32.5529 24.2934 32.5692 24.2742C32.5854 24.2549 32.5934 24.2339 32.5913 24.2156C32.5893 24.1974 32.5774 24.1835 32.5583 24.1769C32.5392 24.1703 32.5145 24.1717 32.4895 24.1806C31.3366 24.5705 30.193 25.0459 29.0765 25.5994C27.9236 26.1369 26.8074 26.7713 25.7539 27.4877C25.7423 27.4975 25.7337 27.509 25.7296 27.5206C25.7254 27.5321 25.7259 27.5431 25.7308 27.5517C25.7358 27.5603 25.7451 27.5662 25.7572 27.5684C25.7693 27.5705 25.7835 27.5689 25.7978 27.5637Z" fill="#83C5A5"/>
<path d="M26.5699 26.9527C25.7088 27.5105 24.8203 28.0298 23.911 28.5066C23.0349 28.9916 22.1868 29.5264 21.3769 30.1047C20.565 30.6832 19.7958 31.3044 19.079 31.9606C18.5333 32.4022 18.0613 32.8961 17.6873 33.4171C17.5111 33.7177 17.5124 34.0734 17.9632 33.9858C18.391 33.8609 18.8114 33.6493 19.1783 33.3744C20.4602 32.5211 21.6471 31.5617 22.7036 30.5247C23.2477 29.9929 23.7869 29.4526 24.3554 28.933C25.0844 28.2754 25.8464 27.6399 26.6377 27.0299C26.6551 27.0198 26.6692 27.0058 26.6769 26.9907C26.6847 26.9757 26.6854 26.961 26.6789 26.9498C26.6725 26.9386 26.6593 26.9319 26.6425 26.931C26.6256 26.9302 26.6064 26.9354 26.589 26.9454C25.3501 27.8004 24.208 28.7554 23.1962 29.7824C22.2679 30.6989 21.268 31.575 20.2077 32.401C19.7292 32.7815 19.2195 33.1336 18.6867 33.4518C18.4069 33.6134 17.702 33.9978 17.9339 33.5111C18.0676 33.266 18.2581 33.0279 18.4928 32.8132C18.7462 32.5655 19.0057 32.3182 19.2683 32.0764C20.6618 30.7885 22.2538 29.6392 23.9671 28.6844C24.9022 28.1922 25.8032 27.633 26.6536 27.017C26.7279 26.9741 26.6595 26.8859 26.6016 26.9269L26.5699 26.9527Z" fill="#83C5A5"/>
<path d="M23.7441 21.3002C24.2882 21.8823 24.9316 22.3911 25.6642 22.8186C25.9897 22.9879 26.3513 23.12 26.7429 23.2128C27.1072 23.3363 27.5403 23.3695 28.0054 23.3096C28.1075 23.2844 28.1974 23.1574 28.0961 23.1334C27.9034 23.1102 27.7029 23.1005 27.4964 23.1043C27.2639 23.0853 27.0399 23.0516 26.8261 23.0035C26.4446 22.9115 26.0901 22.7844 25.7675 22.6239C25.0257 22.2375 24.3663 21.772 23.7994 21.2345C23.7783 21.1979 23.6919 21.2703 23.7217 21.3019L23.7441 21.3002Z" fill="#83C5A5"/>
<path d="M24.2205 21.4902C23.2165 20.822 22.0524 20.3022 20.7568 19.9436C19.5918 19.5902 18.2732 19.4421 16.8608 19.5059C16.4206 19.5311 15.0843 19.781 15.3387 19.1313C15.5931 18.4815 16.7972 18.1841 17.3897 18.0897C18.9267 17.844 20.2154 18.3798 21.2018 18.9474C21.7924 19.3029 22.3358 19.7012 22.8287 20.1397C23.41 20.6044 23.862 21.1694 24.1697 21.8161C24.2347 21.9287 24.497 21.7772 24.4407 21.6596C24.163 21.0639 23.7581 20.5394 23.2384 20.1021C22.7536 19.6497 22.2135 19.2404 21.6219 18.8774C20.6084 18.2729 19.3051 17.7119 17.7434 17.8743C17.0535 17.9207 16.3108 18.1774 15.6537 18.5966C15.1715 18.9426 14.963 19.4195 15.3717 19.6226C15.569 19.7067 15.8099 19.739 16.0731 19.7167C16.4817 19.6873 16.8881 19.644 17.2872 19.6387C18.1025 19.6317 18.8824 19.6997 19.6137 19.8417C20.4499 20.0058 21.2373 20.238 21.9673 20.5357C22.7295 20.8462 23.4255 21.2137 24.1603 21.5475C24.175 21.5728 24.2434 21.4995 24.2189 21.4874L24.2205 21.4902Z" fill="#83C5A5"/>
<path d="M16.6273 21.9789C17.1521 22.0699 17.6784 22.1638 18.1665 22.3024C18.6566 22.468 19.1159 22.6694 19.5405 22.9052C19.947 23.1154 20.4015 23.276 20.8953 23.3839C21.3453 23.5036 21.8558 23.5376 22.3988 23.4841C22.5058 23.4674 22.5378 23.3513 22.4534 23.3362C22.2097 23.308 21.937 23.3304 21.6906 23.3075C21.405 23.2856 21.1302 23.2448 20.8683 23.1856C20.3823 23.059 19.9329 22.886 19.5267 22.6692C19.122 22.452 18.6793 22.2731 18.2037 22.1346C17.7227 22.0195 17.2211 21.9331 16.7019 21.8758C16.6343 21.8698 16.5576 21.9591 16.6289 21.9817L16.6273 21.9789Z" fill="#83C5A5"/>
<path d="M17.6124 21.9991C15.3046 21.4551 12.7576 21.1731 9.84673 22.1894C9.39026 22.3478 8.67197 22.6687 8.4822 23.0973C8.36721 23.3626 8.66907 23.421 8.91169 23.4273C9.30829 23.4212 9.71426 23.3924 10.1269 23.3411C10.9009 23.2569 11.6861 23.1332 12.478 22.9707C13.3129 22.8114 14.1539 22.6223 14.9877 22.4712C15.8215 22.3201 16.6943 22.2365 17.5557 22.1332C17.6866 22.1176 17.7347 21.9585 17.6207 21.953C17.0228 21.9323 16.3907 21.9864 15.7432 22.1138C15.0737 22.2264 14.3997 22.3716 13.7263 22.5277C12.408 22.8277 11.0987 23.0621 9.80619 23.2298C9.42836 23.3133 9.06613 23.3211 8.75261 23.2527C8.57405 23.1756 8.73391 23.0083 8.89966 22.8713C9.18902 22.6446 9.52737 22.4714 9.87164 22.3739C11.1993 21.9375 12.5242 21.7092 13.7632 21.7033C15.067 21.7623 16.3334 21.8921 17.5553 22.0921C17.6082 22.1029 17.669 22.0265 17.6156 22.0048L17.6124 21.9991Z" fill="#83C5A5"/>
<path d="M19.6669 25.0836C20.2725 24.9157 20.876 24.7831 21.4722 24.6868C22.0588 24.5921 22.6419 24.5219 23.2357 24.3892C23.8151 24.2478 24.3963 24.0814 24.9766 23.8908C25.2818 23.7934 25.5842 23.7013 25.8866 23.6093C26.1993 23.5412 26.5153 23.4274 26.8182 23.2741C26.8358 23.2632 26.851 23.2495 26.862 23.2345C26.8731 23.2195 26.8795 23.2037 26.8807 23.189C26.8819 23.1743 26.8778 23.1612 26.8687 23.1512C26.8597 23.1412 26.8462 23.1347 26.8297 23.1324C26.5696 23.161 26.2994 23.2315 26.0344 23.3401L25.0543 23.662C24.4055 23.8911 23.7539 24.0854 23.1049 24.2433C22.5302 24.3687 21.9623 24.4452 21.3871 24.5596C20.8092 24.6777 20.2264 24.8334 19.6447 25.0251C19.5923 25.0554 19.5948 25.1103 19.6537 25.0912L19.6669 25.0836Z" fill="#83C5A5"/>
<path d="M20.7162 24.7295C20.3708 24.9289 19.9283 24.8692 19.5857 24.9019C19.2432 24.9345 18.8591 24.9761 18.4936 25.0295C17.7897 25.1353 17.077 25.2809 16.3609 25.4652C14.9334 25.7955 13.4954 26.2833 12.0906 26.9137C11.6143 27.1134 11.1759 27.4165 10.8408 27.7779C10.6353 28.0278 10.5661 28.3117 10.8373 28.3878C11.0251 28.4234 11.2471 28.4006 11.4701 28.3227C11.8595 28.2039 12.2481 28.0636 12.6326 27.903C13.3787 27.5998 14.1075 27.2466 14.847 26.9322C15.6832 26.5733 16.5388 26.2782 17.3787 25.9659C18.2185 25.6537 19.1827 25.3447 20.0718 24.9965C20.1636 24.9435 20.1924 24.8218 20.0816 24.852C19.3972 25.0451 18.7127 25.2772 18.0341 25.5463C17.3236 25.8101 16.6006 26.0924 15.9033 26.3487C14.5812 26.8455 13.2993 27.5331 11.9784 28.0217C11.6622 28.1405 11.2192 28.3324 10.9415 28.2451C10.6637 28.1578 10.8805 27.9275 11.0459 27.7495C11.5003 27.3377 12.0564 27.0075 12.6391 26.8034C13.3131 26.5281 13.9938 26.2894 14.6752 26.0895C15.3407 25.8891 16.0138 25.6919 16.6791 25.5217C17.3949 25.3453 18.1064 25.2079 18.8084 25.1104C19.1592 25.0618 19.5018 25.0291 19.8504 24.9967C20.1288 25.0083 20.4455 24.9213 20.7309 24.7549C20.7378 24.7508 20.7435 24.7452 20.7465 24.7392C20.7496 24.7332 20.7499 24.7273 20.7473 24.7228C20.7448 24.7183 20.7395 24.7156 20.7328 24.7153C20.726 24.715 20.7183 24.7171 20.7114 24.7211L20.7162 24.7295Z" fill="#83C5A5"/>
<path d="M11.102 25.0299C9.86203 25.1641 8.61646 25.3391 7.376 25.4623C6.20264 25.554 4.99739 25.7468 3.77924 26.0378C2.60915 26.347 1.4374 26.7712 0.293264 27.2998C-0.263377 27.5574 -0.817892 27.8288 -1.36103 28.1198C-1.73127 28.3064 -2.08042 28.536 -2.39206 28.7977C-2.47249 28.8589 -2.53957 28.9304 -2.58747 29.006C-2.63536 29.0816 -2.6626 29.159 -2.66681 29.2314C-2.67101 29.3038 -2.65206 29.369 -2.6116 29.4213C-2.57113 29.4736 -2.51039 29.5115 -2.43468 29.5316C-1.95349 29.6436 -1.3846 29.6189 -0.796916 29.4604C-0.0710738 29.2786 0.657523 29.033 1.37452 28.7284C2.29307 28.3707 3.20787 27.9964 4.12317 27.633C5.29407 27.1672 6.46547 26.7123 7.64437 26.2906C8.82327 25.8689 9.9446 25.5292 11.0867 25.1851C11.1959 25.1521 11.2002 25.0182 11.0949 25.0378C9.22906 25.4207 7.2854 26.1939 5.43355 26.914C3.7406 27.5762 2.06217 28.2938 0.364968 28.9284C-0.297347 29.1904 -0.970382 29.3515 -1.61189 29.4018C-1.8715 29.4166 -2.63337 29.4399 -2.3871 29.0688C-2.1717 28.8226 -1.88756 28.6101 -1.57282 28.4598C-1.07938 28.1824 -0.575559 27.9253 -0.0643142 27.6902C1.04945 27.1614 2.19031 26.7244 3.33458 26.3883C4.60825 26.043 5.87186 25.8175 7.09748 25.7169C8.39821 25.5991 9.71854 25.4183 11.0518 25.1752C11.0739 25.1688 11.0953 25.1567 11.1123 25.141C11.1292 25.1254 11.1407 25.1072 11.1445 25.0896C11.1484 25.0721 11.1444 25.0564 11.1333 25.0453C11.1223 25.0342 11.1048 25.0284 11.084 25.029L11.102 25.0299Z" fill="#83C5A5"/>
<path d="M3.54309 23.1043C5.21685 23.459 6.60898 24.1638 8.2389 24.5738C8.86167 24.7449 9.54203 24.8376 10.2636 24.8497C10.9376 24.8359 11.6422 24.8043 12.3399 24.7506C13.0473 24.7192 13.7761 24.629 14.5161 24.4811C14.5449 24.4741 14.5734 24.459 14.5961 24.4388C14.6188 24.4186 14.6341 24.3947 14.639 24.3718C14.6439 24.3489 14.6381 24.3286 14.6226 24.3148C14.6072 24.3009 14.5833 24.2946 14.5555 24.297C13.2283 24.4215 11.8907 24.5783 10.5982 24.6115C8.96056 24.6526 7.60898 24.1794 6.28452 23.7432C5.44471 23.4391 4.55886 23.1897 3.63238 22.9965C3.55991 22.982 3.47062 23.0899 3.54746 23.1018L3.54309 23.1043Z" fill="#83C5A5"/>
<path d="M5.21993 23.4236C4.55191 23.0596 3.84088 22.7383 3.09046 22.4614C2.40464 22.1578 1.66497 21.9134 0.878859 21.7305C-0.243455 21.4723 -1.56644 21.5279 -2.93441 21.8905C-3.34817 22.0018 -5.16361 22.472 -4.8511 23.0234C-4.70443 23.1956 -4.46374 23.2951 -4.16949 23.3054C-3.85081 23.3545 -3.52221 23.3878 -3.18508 23.405C-2.431 23.4373 -1.65706 23.4291 -0.867508 23.3805C0.923198 23.2489 2.68491 23.1963 4.4104 23.223C4.50635 23.2276 4.55641 23.1124 4.47795 23.0976C3.24476 22.8902 1.75657 23.0589 0.381539 23.151C-1.08433 23.2971 -2.50944 23.3243 -3.87366 23.2322C-4.17889 23.1982 -4.64991 23.1699 -4.72907 22.9117C-4.77434 22.7727 -4.62445 22.6486 -4.45394 22.5502C-3.99044 22.3206 -3.50744 22.1553 -3.03269 22.0636C-1.75982 21.74 -0.526955 21.6744 0.547322 21.8731C1.36377 22.044 2.13015 22.2835 2.8375 22.5886C3.56239 22.9396 4.32561 23.2505 5.12412 23.5202C5.18785 23.5397 5.29127 23.4462 5.23141 23.4132L5.21993 23.4236Z" fill="#83C5A5"/>
<path d="M4.44825 21.865C5.36715 22.2652 5.95455 22.9393 6.63164 23.5467C6.93399 23.8233 7.27905 24.0661 7.66272 24.2724C7.8461 24.3661 8.04373 24.4451 8.254 24.5089C8.44309 24.587 8.67086 24.6186 8.91943 24.6013C8.97727 24.5905 9.03373 24.5166 8.99074 24.4926C8.79949 24.4124 8.59077 24.3519 8.36762 24.312C8.14612 24.2404 7.9368 24.1544 7.741 24.0545C7.34011 23.8382 6.97271 23.59 6.64182 23.3119C6.03008 22.7248 5.30986 22.222 4.49371 21.8125C4.47909 21.7872 4.41939 21.8554 4.44825 21.865Z" fill="#83C5A5"/>
<path d="M4.88902 21.9822C4.16883 21.381 3.29264 20.9336 2.48327 20.4102C1.83268 19.9159 0.958565 19.6258 -0.055074 19.5677C-0.379059 19.5311 -0.752669 19.5949 -1.11636 19.7488C-1.27403 19.8409 -1.40161 19.9691 -1.47129 20.1057C-1.54097 20.2422 -1.54709 20.376 -1.48833 20.4777C-1.37963 20.6138 -1.2233 20.7157 -1.03035 20.7763C-0.81349 20.8728 -0.584399 20.9561 -0.34424 21.0256C0.147259 21.1592 0.657546 21.2679 1.18459 21.3514C1.82654 21.4536 2.46363 21.5474 3.10883 21.6552C3.75404 21.7631 4.24358 21.9345 4.80409 22.0875C4.89943 22.1113 5.04445 21.9788 4.96285 21.9283C4.2817 21.526 3.25856 21.4299 2.36535 21.2964C1.35644 21.186 0.395456 20.9976 -0.507248 20.7332C-0.776264 20.6408 -1.61229 20.3842 -1.12154 19.962C-0.836508 19.7186 -0.319134 19.7464 -0.0667548 19.7696C0.870516 19.8412 1.68428 20.1122 2.30766 20.5604C3.13564 21.0656 4.02057 21.5079 4.80696 22.0521C4.81518 22.0583 4.82762 22.0604 4.84154 22.058C4.85545 22.0556 4.86972 22.0489 4.88118 22.0393C4.89264 22.0297 4.90037 22.018 4.90266 22.0068C4.90496 21.9956 4.90162 21.9859 4.8934 21.9797L4.88902 21.9822Z" fill="#83C5A5"/>
<path d="M10.3979 26.9301C12.1296 25.8322 13.9759 24.9172 15.864 24.2208C15.9743 24.1797 15.9874 24.0408 15.8733 24.0653C15.0332 24.2755 14.1905 24.6018 13.3864 25.0283C12.3355 25.5633 11.3185 26.1706 10.3519 26.8403C10.2732 26.8857 10.316 26.9699 10.3974 26.9191L10.3979 26.9301Z" fill="#83C5A5"/>
<path d="M10.2773 26.9434C8.93816 27.7861 7.72126 28.7776 6.6895 29.8667C5.59889 31.0068 4.64123 32.1751 3.29546 33.166C2.88588 33.4663 2.06023 34.0556 1.57133 33.9963C1.08244 33.9371 1.70465 33.2176 1.93246 32.966C2.90832 31.8914 4.05733 30.8992 5.32836 30.0333C6.93477 28.9446 8.60192 27.9331 10.3147 27.0081C10.3978 26.9602 10.3511 26.8895 10.2692 26.9293C8.53413 27.8097 6.85552 28.8115 5.26173 29.9179C3.94348 30.7909 2.74967 31.8004 1.73642 32.899C1.44291 33.2186 1.02451 33.6853 1.12581 34.0021C1.2271 34.3189 1.77604 34.2196 2.17966 34.0504C2.86337 33.7331 3.50388 33.3132 4.0531 32.8224C4.71339 32.2534 5.32222 31.6504 5.87038 31.0226C6.48621 30.3071 7.15165 29.6106 7.86163 28.9385C8.62045 28.2437 9.43992 27.5895 10.3077 26.9859C10.3558 26.9581 10.3293 26.9021 10.2784 26.9352L10.2773 26.9434Z" fill="#83C5A5"/>
<path d="M8.41498 27.9476C7.92253 28.1043 7.4447 28.2863 6.92439 28.4554C6.40408 28.6245 5.87951 28.7659 5.35169 28.9018C4.39975 29.1512 3.4468 29.3786 2.49188 29.6935C1.50736 29.9998 0.535927 30.4472 -0.367786 31.0105C-0.949999 31.3319 -1.47189 31.7456 -1.88341 32.2121C-2.08684 32.5059 -2.06164 32.7616 -1.66774 32.7068C-1.19596 32.6033 -0.719255 32.4263 -0.265978 32.1864C0.519015 31.8195 1.30462 31.4335 2.08799 31.0638C2.95331 30.6543 3.82025 30.2476 4.68831 29.8327C5.76286 29.3212 6.85804 28.8352 7.91534 28.2736C7.93389 28.2629 7.94894 28.2478 7.95718 28.2318C7.96542 28.2158 7.96618 28.2001 7.95929 28.1882C7.95239 28.1762 7.93841 28.169 7.92041 28.1681C7.90242 28.1673 7.88189 28.1728 7.86333 28.1835C6.99276 28.5435 6.14156 28.9674 5.28499 29.3719C4.50762 29.7419 3.73625 30.1122 2.9605 30.485C2.18476 30.8578 1.32981 31.2651 0.509842 31.6522C0.0515142 31.868 -0.403563 32.0895 -0.876516 32.28C-1.05128 32.3509 -1.88538 32.7236 -1.79975 32.4377C-1.67553 32.1914 -1.4536 31.9578 -1.17614 31.7812C-0.914832 31.5859 -0.645252 31.399 -0.368594 31.2212C0.499136 30.6713 1.43472 30.2332 2.38463 29.9318C3.39964 29.5897 4.41317 29.3461 5.42845 29.0751C6.4275 28.8616 7.43822 28.5094 8.41301 28.035C8.42461 28.0283 8.43401 28.0189 8.43916 28.0089C8.44432 27.9989 8.44479 27.9891 8.44048 27.9816C8.43617 27.9742 8.42743 27.9697 8.41618 27.9691C8.40494 27.9686 8.3921 27.972 8.38051 27.9787L8.41498 27.9476Z" fill="#83C5A5"/>
</g>
<defs>
<clipPath id="clip0_10661_18641">
<rect width="32" height="46.5714" fill="white" transform="translate(8.66797 51.0538) rotate(-120)"/>
</clipPath>
</defs>
</svg>
