<svg width="49" height="52" viewBox="0 0 49 52" fill="none" xmlns="http://www.w3.org/2000/svg">
<g clip-path="url(#clip0_10661_18676)">
<path d="M10.5565 24.238C11.3033 24.3097 11.8631 24.6433 12.5913 24.7332C13.3394 24.8093 14.1431 24.7818 14.975 24.6517C16.3948 24.4103 17.8455 23.9703 19.2611 23.3518C19.7352 23.1932 20.1955 22.9482 20.5987 22.6396C20.9276 22.3409 20.7468 22.1187 20.4236 22.0839C19.8882 22.0777 19.3145 22.1653 18.736 22.3414C17.9196 22.5462 17.1011 22.7832 16.2839 23.0516C14.3768 23.6761 12.332 24.365 10.6308 24.0638C10.5011 24.0411 10.3569 24.2557 10.4882 24.2812C11.7409 24.5224 13.2324 24.198 14.6965 23.7655C16.1909 23.2631 17.6885 22.8232 19.1822 22.4478C19.3852 22.4057 20.5859 22.1328 20.4603 22.4605C20.4147 22.5732 20.1677 22.7008 20.0524 22.7636C19.8108 22.895 19.563 23.0129 19.3116 23.1162C18.0172 23.692 16.6907 24.1209 15.3817 24.3869C14.469 24.558 13.5832 24.6121 12.7577 24.5471C11.9842 24.4795 11.3933 24.1527 10.5721 24.1539C10.5651 24.1538 10.5576 24.1548 10.55 24.157C10.5424 24.1592 10.5349 24.1626 10.5279 24.1668C10.5209 24.171 10.5145 24.1761 10.5091 24.1817C10.5037 24.1873 10.4994 24.1934 10.4964 24.1995C10.4934 24.2057 10.4919 24.2118 10.4918 24.2175C10.4918 24.2232 10.4932 24.2285 10.496 24.233C10.4989 24.2374 10.5031 24.241 10.5084 24.2435C10.5137 24.246 10.52 24.2474 10.527 24.2475L10.5565 24.238Z" fill="#83C5A5"/>
<path d="M10.6115 24.1312C9.67192 23.8669 8.52638 24.2655 7.40741 24.5588C6.78952 24.7204 6.17112 24.871 5.55884 24.9918C4.90384 25.1138 4.2627 25.1727 3.64911 25.1675C3.54441 25.1679 3.42989 25.3128 3.53722 25.3372C4.53265 25.5468 5.87611 25.1577 7.03381 24.8608C8.19151 24.564 9.50119 24.0255 10.5337 24.2287C10.6002 24.2429 10.678 24.1454 10.6115 24.1312Z" fill="#83C5A5"/>
<path d="M13.4569 23.0023C12.5727 23.3388 11.6786 23.5699 10.809 23.6867C10.3991 23.7417 9.98391 23.8185 9.566 23.9165C9.36624 23.9642 9.1686 24.0258 8.97097 24.0874C8.79165 24.1296 8.61163 24.2077 8.44881 24.3138C8.43769 24.3231 8.4288 24.3338 8.42302 24.3448C8.41724 24.3559 8.41475 24.3669 8.41581 24.3769C8.41687 24.3869 8.42143 24.3954 8.42906 24.4017C8.43668 24.408 8.44711 24.4118 8.45933 24.4128C8.63504 24.3848 8.81522 24.3304 8.99051 24.2525C9.204 24.178 9.42237 24.112 9.63637 24.0485C10.0775 23.9234 10.5168 23.8319 10.9477 23.7755C11.7692 23.6627 12.6175 23.4143 13.4409 23.0453C13.4671 23.0302 13.4672 23.0001 13.4263 23.02L13.4569 23.0023Z" fill="#83C5A5"/>
<path d="M12.7109 23.3465C15.874 22.3834 19.4726 21.7506 22.2448 19.5046C22.6397 19.179 23.9885 18.1226 23.5678 17.7575C23.2384 17.4898 22.5427 17.8802 22.1224 18.1416C21.209 18.7103 20.2431 19.2079 19.3037 19.7315C18.25 20.3398 17.1964 20.9482 16.133 21.5396C15.0111 22.1549 13.8693 22.729 12.7128 23.259C12.6123 23.3171 12.6129 23.4293 12.7292 23.3884C14.5514 22.738 16.3184 21.669 18.0289 20.7039C18.9033 20.1991 19.8224 19.691 20.7224 19.1901C21.1203 18.9604 21.5279 18.7476 21.9197 18.5176C22.2262 18.3029 22.5573 18.1194 22.9001 17.9741C23.0622 17.9218 23.34 17.8778 23.3645 18.0212C23.389 18.1647 23.2424 18.2944 23.1558 18.3969C22.8543 18.7442 22.5056 19.0718 22.1204 19.37C21.1218 20.1698 19.9808 20.8285 18.7889 21.2934C16.7769 22.1098 14.7382 22.5062 12.7246 23.3198L12.7392 23.3451L12.7109 23.3465Z" fill="#83C5A5"/>
<path d="M17.0015 19.3984C15.7546 20.2533 14.4617 21.0512 13.1333 21.7855C12.612 22.064 12.0886 22.3286 11.5669 22.5961C10.9325 22.9211 10.3079 23.2629 9.67473 23.5797C9.22128 23.804 8.78431 23.9962 8.33372 24.1851C7.94505 24.3216 7.55917 24.4804 7.17969 24.6599C7.07913 24.718 7.10878 24.8097 7.19661 24.8003C7.54005 24.7364 7.89014 24.6185 8.22635 24.4534C8.61248 24.2943 8.9905 24.1211 9.36363 23.9394C10.0471 23.6087 10.6996 23.2244 11.3804 22.8689C12.477 22.322 13.5558 21.733 14.6115 21.1047C15.4502 20.5802 16.2664 20.025 17.0559 19.442C17.1083 19.4117 17.0595 19.3574 17.0234 19.3857L17.0015 19.3984Z" fill="#83C5A5"/>
<path d="M16.3226 19.9482C17.1896 19.5114 18.0372 19.0408 18.9064 18.6178C19.7756 18.1948 20.5839 17.8482 21.4154 17.4507C22.25 17.0664 23.0584 16.611 23.8215 16.0953C24.3498 15.7728 24.831 15.3893 25.2387 14.9656C25.4524 14.6996 25.489 14.3895 25.1072 14.4148C24.733 14.472 24.3468 14.6058 23.9852 14.8036C23.2002 15.1705 22.4173 15.5512 21.6458 15.9516C20.7985 16.3733 19.9705 16.8401 19.1697 17.3474C18.5548 17.7685 17.976 18.2285 17.4435 18.7193C16.9161 19.189 16.3766 19.658 15.8905 20.1488C15.8248 20.2168 15.9288 20.2656 16.0037 20.2036C16.9058 19.4538 17.7523 18.6686 18.6914 17.9425C19.94 16.9852 21.4521 16.2623 22.859 15.5589C23.3857 15.283 23.9208 15.0267 24.4618 14.7911C24.6368 14.7107 24.8174 14.6536 24.9941 14.6227C25.3143 14.5917 25.0901 14.89 24.9249 15.0379C24.7305 15.2155 24.52 15.3823 24.297 15.5355C24.0132 15.7407 23.743 15.9492 23.4511 16.1403C22.7523 16.5838 22.0246 16.9838 21.2784 17.3346C19.6024 18.1371 17.8612 18.8572 16.2803 19.875C16.2653 19.8837 16.253 19.8959 16.2463 19.9089C16.2396 19.9219 16.239 19.9347 16.2446 19.9444C16.2502 19.9541 16.2616 19.9599 16.2762 19.9606C16.2908 19.9614 16.3075 19.9569 16.3226 19.9482Z" fill="#83C5A5"/>
<path d="M20.9987 34.0759C20.4805 33.7034 19.7833 33.5054 19.2579 33.1407C18.7253 32.7209 18.3224 32.2004 18.0653 31.6001C17.794 31.0242 17.4762 30.4736 17.1131 29.9507C16.749 29.4506 16.3208 28.9925 15.8325 28.5809C15.28 28.1066 14.6434 27.7008 13.9325 27.3699C13.8133 27.3149 13.6031 27.5263 13.7136 27.5864C14.9584 28.2193 15.9934 29.0517 16.7827 30.0551C17.148 30.5767 17.4659 31.1274 17.735 31.7045C17.9845 32.2572 18.3566 32.7418 18.8391 33.1423C19.4275 33.5758 20.2818 33.743 20.9046 34.1452C20.9225 34.1762 21.0035 34.1144 20.979 34.1023L20.9987 34.0759Z" fill="#83C5A5"/>
<path d="M25.3103 23.2589C23.4962 24.3053 21.5943 25.1771 19.6637 25.8473C18.6948 26.1835 17.7223 26.4638 16.7551 26.6859C15.793 26.9074 14.8606 27.0291 13.9111 27.202C13.7152 27.2363 13.6019 27.5044 13.8047 27.4923C14.747 27.4144 15.7179 27.2419 16.6968 26.9785C17.6781 26.7356 18.6628 26.4405 19.6436 26.0953C21.6166 25.4162 23.5522 24.4855 25.3607 23.3462C25.3733 23.3357 25.3826 23.3233 25.3871 23.3108C25.3917 23.2983 25.3913 23.2865 25.3859 23.2772C25.3805 23.2679 25.3705 23.2616 25.3574 23.2593C25.3443 23.257 25.3289 23.2589 25.3135 23.2646L25.3103 23.2589Z" fill="#83C5A5"/>
<path d="M39.314 25.5732C33.6211 26.9811 28.0206 27.6992 22.711 27.7021C17.3903 27.6944 12.3401 27.1329 7.66748 26.0296C6.31856 25.7126 4.96152 25.3815 3.71727 24.9327C3.08249 24.7122 2.47664 24.4582 1.90221 24.1718C1.35528 23.8909 0.876167 23.5558 0.370824 23.2358C0.253862 23.1645 -0.0298101 23.3395 0.0635511 23.4507C0.699709 24.2093 1.7934 24.6699 2.823 25.07C3.9505 25.5021 5.13501 25.8682 6.37079 26.1666C8.70027 26.7455 11.1207 27.1997 13.6212 27.5272C18.6379 28.2197 24.0427 28.2447 29.6715 27.6014C32.8261 27.2276 36.0489 26.5879 39.2895 25.6924C39.3692 25.6689 39.3778 25.5626 39.2965 25.5833L39.314 25.5732Z" fill="#83C5A5"/>
<path d="M19.9192 33.5586C20.4096 33.8866 20.9402 34.1782 21.5076 34.4316C22.0524 34.6988 22.6174 34.9505 23.2164 35.1601C24.1759 35.4993 25.2822 35.9414 26.5848 35.7035C26.8058 35.6622 27.0951 35.5777 27.1101 35.3514C27.0491 35.1228 26.8936 34.9412 26.6628 34.829C26.0098 34.4348 25.2524 34.1421 24.412 33.9595C23.0818 33.5728 21.589 33.4062 19.9943 33.4664C19.8018 33.4763 19.6699 33.7325 19.8608 33.7199C21.1536 33.6453 22.3803 33.7296 23.5029 33.9701C24.0739 34.0908 24.6224 34.2432 25.1682 34.401C25.4931 34.4875 25.7988 34.5983 26.0825 34.7325C26.3281 34.851 26.5504 34.9927 26.7466 35.1559C26.8351 35.211 26.8948 35.2901 26.9202 35.386C26.9148 35.528 26.6667 35.5324 26.5395 35.5645C25.3353 35.7606 24.3112 35.3499 23.4077 35.0572C22.8059 34.8529 22.2381 34.6066 21.6846 34.3445C21.131 34.0824 20.5915 33.7334 19.9822 33.4959C19.9692 33.4734 19.9079 33.5389 19.928 33.5535L19.9192 33.5586Z" fill="#83C5A5"/>
<path d="M18.3071 33.0893C18.2235 34.3985 18.9792 35.4145 19.8064 36.2617C20.745 37.2209 21.9371 38.0338 22.675 39.1502C22.8635 39.4767 23.2453 40.0068 22.581 40.4616C21.9167 40.9165 21.2417 40.4843 20.8772 40.267C19.6597 39.5213 19.1706 38.25 18.7829 36.9727C18.6229 36.3632 18.5458 35.7191 18.5526 35.0491C18.5984 34.3601 18.5742 33.6903 18.4801 33.0457C18.4395 32.9753 18.2791 33.0004 18.2629 33.1035C18.1922 33.759 18.1821 34.3994 18.2326 35.02C18.2261 35.6741 18.2877 36.3074 18.4167 36.9139C18.5869 37.5781 18.8259 38.2114 19.1319 38.809C19.4312 39.4403 19.8953 39.9776 20.5032 40.3966C20.9122 40.6708 21.4604 41.0449 22.1852 40.8666C22.4173 40.81 22.6478 40.6926 22.8373 40.5346C23.0268 40.3766 23.1635 40.1877 23.2241 40.0003C23.2936 39.7627 23.2767 39.5401 23.1753 39.3605C23.0047 39.04 22.797 38.7409 22.5538 38.4658C22.0876 37.9374 21.5755 37.4414 21.0196 36.9798C20.3821 36.455 19.8098 35.8789 19.307 35.2553C18.8296 34.6237 18.5334 33.8818 18.4315 33.0625C18.4088 33.0231 18.3138 33.0404 18.3103 33.0949L18.3071 33.0893Z" fill="#83C5A5"/>
<path d="M18.4605 33.8901C18.6163 33.21 18.545 32.5775 18.2538 32.0579C18.135 31.7512 17.9949 31.438 17.8407 31.1406C17.7578 30.997 17.6782 30.8591 17.5904 30.7071C17.5311 30.5531 17.4355 30.4182 17.3073 30.3076C17.2901 30.2945 17.2653 30.2884 17.2369 30.2902C17.2084 30.2921 17.1779 30.3018 17.1501 30.3179C17.1222 30.334 17.0985 30.3556 17.0827 30.3793C17.0668 30.403 17.0598 30.4275 17.0625 30.449C17.0959 30.6013 17.1617 30.7391 17.2578 30.8579L17.508 31.2913C17.6705 31.5728 17.7922 31.8441 17.9203 32.1266C18.0485 32.4091 18.1669 32.6748 18.2492 32.9688C18.3061 33.2754 18.3189 33.5988 18.2874 33.9337C18.2822 34.0155 18.4367 33.9601 18.4605 33.8901Z" fill="#83C5A5"/>
<path d="M14.571 30.9795C14.1088 32.3497 14.2514 33.6972 14.5173 34.8647C14.8286 36.0693 15.2733 37.2141 15.8472 38.2888C16.0341 38.6125 16.1463 39.2006 15.7362 39.6514C15.6072 39.7664 15.4482 39.8559 15.284 39.9059C15.1198 39.9558 14.9597 39.9635 14.8288 39.9275C14.5027 39.8534 14.2602 39.6782 14.1388 39.429C13.8102 38.9511 13.5644 38.4237 13.4054 37.8559C13.2467 37.199 13.1847 36.5028 13.2204 35.7786C13.2365 35.0718 13.3508 34.3391 13.5614 33.5927C13.7913 32.8305 14.1632 32.0575 14.6636 31.3014C14.7447 31.1794 14.5322 31.1445 14.4418 31.2605C13.359 32.6362 13.0194 34.1683 12.9357 35.5076C12.869 36.2591 12.8978 36.9853 13.0217 37.6759C13.1686 38.3187 13.4148 38.9178 13.7558 39.4624C14.0061 39.8959 14.3852 40.3 15.1447 40.1617C15.2747 40.1407 15.4081 40.0977 15.5362 40.0355C15.6643 39.9733 15.7842 39.8933 15.8878 39.8008C15.9915 39.7084 16.0766 39.6055 16.1375 39.499C16.1984 39.3926 16.2338 39.285 16.2413 39.1834C16.399 38.5781 16.1166 38.1295 15.9002 37.684C15.6043 37.0705 15.3259 36.4469 15.0956 35.7955C14.8355 35.0731 14.659 34.3117 14.5678 33.5183C14.5072 32.694 14.5421 31.8389 14.672 30.9625C14.6735 30.9565 14.6735 30.9507 14.672 30.9455C14.6705 30.9404 14.6676 30.9359 14.6634 30.9324C14.6593 30.9289 14.6539 30.9264 14.6476 30.9251C14.6413 30.9238 14.6343 30.9237 14.6268 30.9248C14.6194 30.9258 14.6118 30.9281 14.6044 30.9314C14.5969 30.9347 14.5899 30.939 14.5836 30.944C14.5773 30.9491 14.5719 30.9547 14.5677 30.9607C14.5634 30.9667 14.5605 30.9729 14.559 30.9789L14.571 30.9795Z" fill="#83C5A5"/>
<path d="M14.5589 31.4331C14.7952 30.9591 14.9022 30.4872 14.8712 30.0556C14.8811 29.595 14.8068 29.1605 14.6505 28.7645C14.4949 28.3786 14.2652 28.0318 13.9674 27.7328C13.7085 27.3965 13.3121 27.1586 12.8168 27.0424C12.6936 27.0309 12.6025 27.166 12.6623 27.2291C12.8115 27.3563 12.9808 27.467 13.1681 27.5601C13.7056 27.914 14.0998 28.3873 14.3269 28.9513C14.4777 29.3143 14.5612 29.7098 14.5754 30.1288C14.5864 30.3565 14.5757 30.591 14.5433 30.8304C14.495 31.0403 14.4611 31.2479 14.4416 31.452C14.4382 31.5066 14.5326 31.4783 14.5589 31.4331Z" fill="#83C5A5"/>
<path d="M25.0386 23.4948C26.2862 23.071 27.5222 22.5563 28.7624 22.0692C29.8563 21.6582 30.9407 21.1914 32.0074 20.6723C32.5894 20.382 33.1506 20.0454 33.6787 19.6698C34.0637 19.3875 34.5674 18.9878 34.6202 18.6046C34.6729 18.2214 34.1702 18.0575 33.7575 18.0594C33.2976 18.0869 32.8066 18.2223 32.3393 18.4504C30.9724 19.1115 29.664 19.9086 28.4581 20.815C27.2656 21.6574 26.1242 22.5378 24.9691 23.4148C24.9499 23.4318 24.9365 23.4517 24.9315 23.4712C24.9264 23.4906 24.93 23.5083 24.9415 23.521C24.9531 23.5337 24.9719 23.5407 24.9945 23.5406C25.0172 23.5406 25.0422 23.5335 25.0652 23.5207C26.0071 22.9207 26.8741 22.2212 27.7795 21.5783C28.9507 20.6948 30.1851 19.8753 31.4669 19.1304C32.2714 18.666 33.7198 17.9235 34.2826 18.4843C34.5411 18.7403 34.023 19.1858 33.6747 19.4507C33.1786 19.8252 32.6446 20.16 32.0868 20.4463C31.0462 20.9664 29.9839 21.4265 28.9112 21.8219C27.6185 22.3393 26.3171 22.8317 25.0362 23.4099C24.975 23.4452 24.9737 23.5135 25.0457 23.4869L25.0386 23.4948Z" fill="#83C5A5"/>
<path d="M24.8478 24.4459C24.1572 24.5195 23.4512 24.6494 22.7399 24.8335C22.0651 24.9852 21.3844 25.2211 20.7239 25.532C20.6584 25.5699 20.6837 25.634 20.7629 25.5996C22.1214 25.0942 23.4926 24.7444 24.8277 24.5625C24.9215 24.5534 24.946 24.4342 24.8522 24.4433L24.8478 24.4459Z" fill="#83C5A5"/>
<path d="M24.0729 24.6491C24.908 24.6563 25.7246 24.7022 26.5191 24.7867C27.3425 24.8528 28.2256 24.8014 29.136 24.6344C30.0852 24.4471 31.0427 24.2016 32 23.9003C32.893 23.6795 33.7888 23.3219 34.6339 22.8487C35.0711 22.5963 35.8076 22.0848 35.7885 21.668C35.7754 21.3828 35.3303 21.4296 35.0242 21.475C34.523 21.5669 34.015 21.7029 33.5095 21.8804C32.8963 22.0806 32.2821 22.2888 31.6646 22.4915C30.5213 22.8739 29.378 23.2563 28.2288 23.6083C27.0596 23.9543 25.8913 24.253 24.7289 24.503C24.7051 24.5092 24.6816 24.5219 24.663 24.5387C24.6444 24.5555 24.6318 24.5753 24.6277 24.5942C24.6236 24.6132 24.6283 24.6301 24.6408 24.6417C24.6533 24.6533 24.6728 24.6589 24.6956 24.6574C25.5683 24.5435 26.4604 24.347 27.354 24.072C28.2694 23.8099 29.1861 23.5096 30.1012 23.2065C31.4083 22.7746 32.7237 22.2966 34.0116 21.902C34.471 21.7237 34.9371 21.6315 35.3666 21.6339C35.9399 21.7081 34.9566 22.4485 34.6822 22.6294C33.9072 23.0967 33.0727 23.4504 32.2375 23.6656C31.3125 23.9608 30.3867 24.212 29.4656 24.4178C28.4666 24.6262 27.4945 24.7003 26.59 24.6369C25.7914 24.5764 24.992 24.4337 24.0819 24.5839C24.0344 24.5925 24.0075 24.6569 24.0538 24.6564L24.0729 24.6491Z" fill="#83C5A5"/>
<path d="M23.2022 23.5454C22.1229 24.1498 21.0502 24.7654 19.9428 25.3109C18.8069 25.8528 17.6556 26.3471 16.4952 26.791C16.4702 26.7999 16.4471 26.8158 16.4308 26.835C16.4146 26.8542 16.4066 26.8752 16.4087 26.8935C16.4107 26.9117 16.4226 26.9257 16.4417 26.9322C16.4608 26.9388 16.4855 26.9375 16.5105 26.9285C17.6634 26.5386 18.807 26.0632 19.9235 25.5097C21.0764 24.9722 22.1926 24.3379 23.2461 23.6214C23.2577 23.6116 23.2663 23.6001 23.2704 23.5885C23.2746 23.577 23.2741 23.5661 23.2692 23.5574C23.2642 23.5488 23.2549 23.5429 23.2428 23.5408C23.2307 23.5386 23.2165 23.5402 23.2022 23.5454Z" fill="#83C5A5"/>
<path d="M22.4301 24.1564C23.2912 23.5986 24.1797 23.0794 25.089 22.6026C25.9651 22.1175 26.8132 21.5827 27.6231 21.0044C28.435 20.4259 29.2042 19.8047 29.921 19.1486C30.4667 18.7069 30.9387 18.213 31.3127 17.692C31.4889 17.3914 31.4876 17.0357 31.0368 17.1233C30.609 17.2482 30.1886 17.4598 29.8217 17.7347C28.5398 18.588 27.3529 19.5474 26.2964 20.5845C25.7523 21.1163 25.2131 21.6565 24.6446 22.1761C23.9156 22.8338 23.1536 23.4692 22.3623 24.0793C22.3449 24.0893 22.3308 24.1034 22.3231 24.1184C22.3153 24.1334 22.3146 24.1481 22.3211 24.1593C22.3275 24.1705 22.3407 24.1773 22.3575 24.1781C22.3744 24.1789 22.3936 24.1737 22.411 24.1637C23.6499 23.3087 24.792 22.3537 25.8038 21.3267C26.7321 20.4102 27.732 19.5341 28.7923 18.7081C29.2708 18.3277 29.7805 17.9756 30.3133 17.6573C30.5931 17.4958 31.298 17.1113 31.0661 17.598C30.9324 17.8432 30.7419 18.0812 30.5072 18.296C30.2538 18.5436 29.9943 18.791 29.7317 19.0327C28.3382 20.3207 26.7462 21.47 25.0329 22.4248C24.0978 22.917 23.1968 23.4762 22.3464 24.0922C22.2721 24.1351 22.3405 24.2232 22.3984 24.1822L22.4301 24.1564Z" fill="#83C5A5"/>
<path d="M25.2559 29.8089C24.7118 29.2268 24.0684 28.718 23.3358 28.2905C23.0103 28.1213 22.6487 27.9891 22.2571 27.8963C21.8928 27.7728 21.4597 27.7397 20.9946 27.7996C20.8925 27.8247 20.8026 27.9517 20.9039 27.9757C21.0966 27.9989 21.2971 28.0086 21.5036 28.0048C21.7361 28.0238 21.9601 28.0575 22.1739 28.1057C22.5554 28.1976 22.9099 28.3247 23.2325 28.4852C23.9743 28.8716 24.6337 29.3371 25.2006 29.8746C25.2217 29.9112 25.3081 29.8388 25.2783 29.8073L25.2559 29.8089Z" fill="#83C5A5"/>
<path d="M24.7795 29.6189C25.7835 30.2872 26.9476 30.8069 28.2432 31.1656C29.4082 31.5189 30.7268 31.6671 32.1392 31.6032C32.5794 31.578 33.9157 31.3281 33.6613 31.9779C33.4069 32.6276 32.2028 32.925 31.6103 33.0194C30.0733 33.2651 28.7846 32.7294 27.7982 32.1618C27.2076 31.8063 26.6642 31.408 26.1713 30.9695C25.59 30.5047 25.138 29.9397 24.8303 29.2931C24.7653 29.1805 24.503 29.3319 24.5593 29.4496C24.837 30.0452 25.2419 30.5697 25.7616 31.0071C26.2464 31.4594 26.7865 31.8687 27.3781 32.2317C28.3916 32.8362 29.6949 33.3972 31.2566 33.2349C31.9465 33.1884 32.6892 32.9317 33.3463 32.5125C33.8285 32.1665 34.037 31.6896 33.6283 31.4865C33.431 31.4024 33.1901 31.3701 32.9269 31.3924C32.5183 31.4218 32.1119 31.4651 31.7128 31.4704C30.8975 31.4775 30.1176 31.4094 29.3863 31.2674C28.5501 31.1033 27.7627 30.8711 27.0327 30.5734C26.2705 30.2629 25.5745 29.8954 24.8397 29.5616C24.825 29.5363 24.7566 29.6096 24.7811 29.6217L24.7795 29.6189Z" fill="#83C5A5"/>
<path d="M32.3727 29.1303C31.8479 29.0392 31.3216 28.9453 30.8335 28.8068C30.3434 28.6412 29.8841 28.4397 29.4595 28.204C29.053 27.9938 28.5985 27.8332 28.1047 27.7252C27.6547 27.6056 27.1442 27.5716 26.6012 27.6251C26.4942 27.6418 26.4622 27.7579 26.5466 27.7729C26.7903 27.8011 27.063 27.7787 27.3094 27.8016C27.595 27.8235 27.8698 27.8643 28.1317 27.9235C28.6177 28.0502 29.0671 28.2231 29.4733 28.4399C29.878 28.6572 30.3207 28.836 30.7963 28.9746C31.2773 29.0897 31.7789 29.1761 32.2981 29.2334C32.3657 29.2394 32.4424 29.1501 32.3711 29.1275L32.3727 29.1303Z" fill="#83C5A5"/>
<path d="M31.3876 29.11C33.6954 29.654 36.2424 29.9361 39.1533 28.9198C39.6097 28.7613 40.328 28.4404 40.5178 28.0118C40.6328 27.7466 40.3309 27.6882 40.0883 27.6819C39.6917 27.688 39.2857 27.7167 38.8731 27.768C38.0991 27.8522 37.3139 27.9759 36.522 28.1384C35.6871 28.2977 34.8461 28.4868 34.0123 28.6379C33.1785 28.7891 32.3057 28.8727 31.4443 28.9759C31.3134 28.9915 31.2653 29.1506 31.3793 29.1561C31.9772 29.1769 32.6093 29.1227 33.2568 28.9953C33.9263 28.8827 34.6003 28.7375 35.2737 28.5814C36.592 28.2815 37.9013 28.047 39.1938 27.8793C39.5716 27.7959 39.9339 27.788 40.2474 27.8565C40.4259 27.9335 40.2661 28.1009 40.1003 28.2379C39.811 28.4646 39.4726 28.6377 39.1284 28.7352C37.8007 29.1716 36.4758 29.3999 35.2368 29.4058C33.933 29.3469 32.6666 29.217 31.4447 29.017C31.3918 29.0062 31.331 29.0826 31.3844 29.1044L31.3876 29.11Z" fill="#83C5A5"/>
<path d="M29.3331 26.0255C28.7275 26.1934 28.124 26.326 27.5278 26.4223C26.9412 26.517 26.3581 26.5873 25.7643 26.7199C25.1849 26.8613 24.6037 27.0277 24.0234 27.2184C23.7182 27.3158 23.4158 27.4078 23.1134 27.4999C22.8007 27.568 22.4847 27.6817 22.1818 27.8351C22.1642 27.8459 22.149 27.8596 22.138 27.8746C22.1269 27.8896 22.1205 27.9054 22.1193 27.9201C22.1181 27.9348 22.1222 27.9479 22.1313 27.958C22.1403 27.968 22.1538 27.9745 22.1703 27.9768C22.4304 27.9482 22.7006 27.8776 22.9656 27.7691L23.9457 27.4472C24.5945 27.2181 25.2461 27.0237 25.8951 26.8658C26.4698 26.7404 27.0377 26.664 27.6129 26.5495C28.1908 26.4314 28.7736 26.2757 29.3553 26.084C29.4077 26.0537 29.4052 25.9989 29.3463 26.0179L29.3331 26.0255Z" fill="#83C5A5"/>
<path d="M28.2838 26.3796C28.6292 26.1802 29.0717 26.2399 29.4143 26.2073C29.7568 26.1746 30.1409 26.133 30.5064 26.0796C31.2103 25.9738 31.923 25.8282 32.6391 25.6439C34.0666 25.3136 35.5046 24.8258 36.9094 24.1955C37.3857 23.9958 37.8241 23.6926 38.1592 23.3313C38.3647 23.0813 38.4339 22.7974 38.1627 22.7213C37.9749 22.6857 37.7529 22.7086 37.5299 22.7864C37.1405 22.9052 36.7519 23.0455 36.3674 23.2062C35.6213 23.5093 34.8925 23.8625 34.153 24.1769C33.3168 24.5358 32.4612 24.8309 31.6213 25.1432C30.7815 25.4554 29.8173 25.7644 28.9282 26.1126C28.8364 26.1656 28.8076 26.2873 28.9184 26.2571C29.6028 26.064 30.2873 25.832 30.9659 25.5629C31.6764 25.2991 32.3994 25.0167 33.0967 24.7605C34.4188 24.2636 35.7007 23.5761 37.0216 23.0874C37.3378 22.9686 37.7808 22.7767 38.0585 22.864C38.3363 22.9513 38.1195 23.1816 37.9541 23.3596C37.4997 23.7714 36.9436 24.1017 36.3609 24.3057C35.6869 24.5811 35.0062 24.8198 34.3248 25.0197C33.6593 25.22 32.9862 25.4172 32.3209 25.5875C31.6051 25.7638 30.8936 25.9012 30.1916 25.9987C29.8408 26.0474 29.4982 26.08 29.1496 26.1124C28.8712 26.1008 28.5545 26.1878 28.2691 26.3543C28.2622 26.3583 28.2565 26.3639 28.2535 26.3699C28.2504 26.3759 28.2501 26.3818 28.2527 26.3863C28.2552 26.3908 28.2605 26.3935 28.2672 26.3938C28.274 26.3941 28.2817 26.3921 28.2886 26.3881L28.2838 26.3796Z" fill="#83C5A5"/>
<path d="M37.898 26.0792C39.138 25.945 40.3835 25.7701 41.624 25.6468C42.7974 25.5551 44.0026 25.3623 45.2208 25.0714C46.3909 24.7622 47.5626 24.338 48.7067 23.8093C49.2634 23.5517 49.8179 23.2804 50.361 22.9893C50.7313 22.8027 51.0804 22.5732 51.3921 22.3115C51.4725 22.2503 51.5396 22.1787 51.5875 22.1031C51.6354 22.0275 51.6626 21.9502 51.6668 21.8778C51.671 21.8054 51.6521 21.7402 51.6116 21.6878C51.5711 21.6355 51.5104 21.5977 51.4347 21.5776C50.9535 21.4656 50.3846 21.4903 49.7969 21.6487C49.0711 21.8305 48.3425 22.0761 47.6255 22.3808C46.7069 22.7385 45.7921 23.1128 44.8768 23.4761C43.7059 23.9419 42.5345 24.3968 41.3556 24.8185C40.1767 25.2402 39.0554 25.5799 37.9133 25.924C37.8041 25.957 37.7998 26.0909 37.9051 26.0714C39.7709 25.6884 41.7146 24.9152 43.5665 24.1951C45.2594 23.5329 46.9378 22.8153 48.635 22.1807C49.2973 21.9188 49.9704 21.7576 50.6119 21.7074C50.8715 21.6926 51.6334 21.6693 51.3871 22.0404C51.1717 22.2865 50.8876 22.499 50.5728 22.6494C50.0794 22.9268 49.5756 23.1838 49.0643 23.419C47.9505 23.9478 46.8097 24.3847 45.6654 24.7208C44.3917 25.0662 43.1281 25.2916 41.9025 25.3922C40.6018 25.51 39.2815 25.6909 37.9482 25.9339C37.9261 25.9403 37.9047 25.9524 37.8877 25.9681C37.8708 25.9838 37.8593 26.002 37.8555 26.0195C37.8516 26.037 37.8556 26.0527 37.8667 26.0638C37.8777 26.0749 37.8952 26.0807 37.916 26.0801L37.898 26.0792Z" fill="#83C5A5"/>
<path d="M45.4569 28.0048C43.7832 27.6502 42.391 26.9453 40.7611 26.5353C40.1383 26.3642 39.458 26.2715 38.7364 26.2594C38.0624 26.2733 37.3578 26.3048 36.6601 26.3586C35.9527 26.3899 35.2239 26.4801 34.4839 26.628C34.4551 26.6351 34.4266 26.6502 34.4039 26.6703C34.3812 26.6905 34.3659 26.7144 34.361 26.7373C34.3561 26.7602 34.3619 26.7805 34.3774 26.7944C34.3928 26.8082 34.4167 26.8145 34.4445 26.8121C35.7717 26.6876 37.1093 26.5308 38.4018 26.4976C40.0394 26.4566 41.391 26.9297 42.7155 27.3659C43.5553 27.6701 44.4411 27.9195 45.3676 28.1127C45.4401 28.1271 45.5294 28.0193 45.4525 28.0073L45.4569 28.0048Z" fill="#83C5A5"/>
<path d="M43.7801 27.6855C44.4481 28.0495 45.1591 28.3708 45.9095 28.6478C46.5954 28.9513 47.335 29.1958 48.1211 29.3787C49.2435 29.6368 50.5664 29.5813 51.9344 29.2186C52.3482 29.1073 54.1636 28.6371 53.8511 28.0857C53.7044 27.9136 53.4637 27.814 53.1695 27.8038C52.8508 27.7546 52.5222 27.7214 52.1851 27.7041C51.431 27.6718 50.6571 27.68 49.8675 27.7287C48.0768 27.8602 46.3151 27.9128 44.5896 27.8862C44.4936 27.8815 44.4436 27.9967 44.5221 28.0115C45.7552 28.219 47.2434 28.0503 48.6185 27.9582C50.0843 27.8121 51.5094 27.7849 52.8737 27.877C53.1789 27.9109 53.6499 27.9392 53.7291 28.1975C53.7743 28.3365 53.6245 28.4605 53.4539 28.559C52.9904 28.7885 52.5074 28.9539 52.0327 29.0455C50.7598 29.3691 49.527 29.4347 48.4527 29.236C47.6362 29.0651 46.8699 28.8256 46.1625 28.5205C45.4376 28.1695 44.6744 27.8586 43.8759 27.589C43.8122 27.5695 43.7087 27.6629 43.7686 27.6959L43.7801 27.6855Z" fill="#83C5A5"/>
<path d="M44.5518 29.2441C43.6328 28.8439 43.0454 28.1698 42.3684 27.5625C42.066 27.2859 41.721 27.043 41.3373 26.8368C41.1539 26.7431 40.9563 26.664 40.746 26.6002C40.5569 26.5222 40.3291 26.4905 40.0806 26.5078C40.0227 26.5187 39.9663 26.5925 40.0093 26.6165C40.2005 26.6968 40.4092 26.7573 40.6324 26.7972C40.8539 26.8687 41.0632 26.9547 41.259 27.0546C41.6599 27.2709 42.0273 27.5192 42.3582 27.7973C42.9699 28.3844 43.6901 28.8871 44.5063 29.2966C44.5209 29.322 44.5806 29.2537 44.5518 29.2441Z" fill="#83C5A5"/>
<path d="M44.111 29.1269C44.8312 29.7281 45.7074 30.1755 46.5167 30.6989C47.1673 31.1932 48.0414 31.4833 49.0551 31.5414C49.3791 31.578 49.7527 31.5142 50.1164 31.3603C50.274 31.2683 50.4016 31.14 50.4713 31.0035C50.541 30.8669 50.5471 30.7332 50.4883 30.6314C50.3796 30.4953 50.2233 30.3934 50.0303 30.3329C49.8135 30.2363 49.5844 30.1531 49.3442 30.0835C48.8527 29.9499 48.3425 29.8412 47.8154 29.7578C47.1735 29.6555 46.5364 29.5618 45.8912 29.4539C45.246 29.3461 44.7564 29.1746 44.1959 29.0216C44.1006 28.9978 43.9555 29.1304 44.0371 29.1808C44.7183 29.5832 45.7414 29.6792 46.6346 29.8128C47.6436 29.9231 48.6045 30.1115 49.5072 30.3759C49.7763 30.4683 50.6123 30.7249 50.1215 31.1471C49.8365 31.3905 49.3191 31.3627 49.0668 31.3395C48.1295 31.268 47.3157 30.9969 46.6923 30.5488C45.8644 30.0436 44.9794 29.6013 44.193 29.057C44.1848 29.0508 44.1724 29.0487 44.1585 29.0511C44.1445 29.0535 44.1303 29.0603 44.1188 29.0699C44.1074 29.0795 44.0996 29.0911 44.0973 29.1023C44.095 29.1135 44.0984 29.1233 44.1066 29.1295L44.111 29.1269Z" fill="#83C5A5"/>
<path d="M38.6021 24.1791C36.8704 25.2769 35.0241 26.192 33.136 26.8883C33.0257 26.9295 33.0126 27.0684 33.1267 27.0438C33.9668 26.8336 34.8095 26.5073 35.6136 26.0808C36.6645 25.5458 37.6815 24.9385 38.6481 24.2688C38.7268 24.2234 38.684 24.1393 38.6026 24.19L38.6021 24.1791Z" fill="#83C5A5"/>
<path d="M38.7227 24.1657C40.0618 23.323 41.2787 22.3315 42.3105 21.2424C43.4011 20.1024 44.3588 18.934 45.7045 17.9431C46.1141 17.6428 46.9398 17.0536 47.4287 17.1128C47.9176 17.172 47.2953 17.8916 47.0675 18.1432C46.0917 19.2177 44.9427 20.2099 43.6716 21.0758C42.0652 22.1645 40.3981 23.176 38.6853 24.101C38.6022 24.149 38.6489 24.2196 38.7308 24.1798C40.4659 23.2994 42.1445 22.2976 43.7383 21.1912C45.0565 20.3182 46.2503 19.3087 47.2636 18.2101C47.5571 17.8905 47.9755 17.4238 47.8742 17.107C47.7729 16.7902 47.224 16.8895 46.8203 17.0587C46.1366 17.3761 45.4961 17.7959 44.9469 18.2867C44.2866 18.8558 43.6778 19.4587 43.1296 20.0865C42.5138 20.802 41.8483 21.4985 41.1384 22.1706C40.3796 22.8655 39.5601 23.5196 38.6923 24.1232C38.6442 24.151 38.6707 24.207 38.7216 24.1739L38.7227 24.1657Z" fill="#83C5A5"/>
<path d="M40.585 23.1616C41.0775 23.0048 41.5553 22.8228 42.0756 22.6537C42.5959 22.4847 43.1205 22.3432 43.6483 22.2073C44.6003 21.958 45.5532 21.7305 46.5081 21.4156C47.4926 21.1093 48.4641 20.6619 49.3678 20.0986C49.95 19.7773 50.4719 19.3635 50.8834 18.8971C51.0868 18.6032 51.0616 18.3476 50.6677 18.4023C50.196 18.5059 49.7193 18.6828 49.266 18.9227C48.481 19.2896 47.6954 19.6756 46.912 20.0453C46.0467 20.4548 45.1798 20.8616 44.3117 21.2764C43.2371 21.788 42.142 22.2739 41.0847 22.8356C41.0661 22.8463 41.0511 22.8613 41.0428 22.8773C41.0346 22.8933 41.0338 22.909 41.0407 22.921C41.0476 22.9329 41.0616 22.9401 41.0796 22.941C41.0976 22.9419 41.1181 22.9363 41.1367 22.9256C42.0072 22.5656 42.8584 22.1417 43.715 21.7372C44.4924 21.3672 45.2638 20.9969 46.0395 20.6241C46.8152 20.2513 47.6702 19.844 48.4902 19.4569C48.9485 19.2411 49.4036 19.0196 49.8765 18.8291C50.0513 18.7583 50.8854 18.3855 50.7998 18.6714C50.6755 18.9177 50.4536 19.1514 50.1761 19.3279C49.9148 19.5232 49.6453 19.7102 49.3686 19.888C48.5009 20.4378 47.5653 20.876 46.6154 21.1773C45.6004 21.5194 44.5868 21.7631 43.5715 22.034C42.5725 22.2475 41.5618 22.5998 40.587 23.0741C40.5754 23.0808 40.566 23.0902 40.5608 23.1002C40.5557 23.1102 40.5552 23.12 40.5595 23.1275C40.5638 23.135 40.5726 23.1395 40.5838 23.14C40.5951 23.1405 40.6079 23.1371 40.6195 23.1304L40.585 23.1616Z" fill="#83C5A5"/>
</g>
<defs>
<clipPath id="clip0_10661_18676">
<rect width="32" height="46.5714" fill="white" transform="translate(40.332 0.0552979) rotate(60)"/>
</clipPath>
</defs>
</svg>
