<svg width="186" height="146" viewBox="0 0 186 146" fill="none" xmlns="http://www.w3.org/2000/svg">
<g clip-path="url(#clip0_10948_24979)">
<path d="M163.775 29.7178C141.023 35.1459 120.051 46.0766 100.669 58.9467C91.0162 65.3272 81.8878 72.0984 72.8292 79.1383C63.7113 85.9898 55.2591 93.6845 47.5844 102.12C43.7961 106.407 40.3793 111.008 37.3707 115.873C34.3781 120.945 31.8251 126.264 29.7395 131.771C29.4645 132.444 28.5415 132.056 28.7145 131.379C31.3189 121.471 37.3152 112.274 43.7327 104.414C51.0057 95.7729 59.1836 87.9358 68.1264 81.0366C86.4213 66.4027 105.804 52.5826 126.856 42.1661C138.556 36.3184 150.93 31.9306 163.7 29.1016C164.054 28.9434 164.187 29.6337 163.784 29.7386L163.775 29.7178Z" fill="#CBCBCB"/>
<path d="M35.7251 72.6792C33.4179 86.7362 33.7637 101.1 36.7447 115.028C36.8986 115.709 35.8187 115.866 35.6857 115.176C32.6598 101.135 32.3466 86.644 34.7629 72.4837C34.8503 71.895 35.8054 72.0187 35.6786 72.575L35.7251 72.6792Z" fill="#CBCBCB"/>
<path d="M35.638 72.0932C32.4581 74.3086 29.9232 77.3279 28.2922 80.8428C26.7625 84.3738 26.0784 88.2127 26.2943 92.054C26.8873 100.673 30.5618 108.789 36.6467 114.922C37.0876 115.35 36.4002 116.106 35.9268 115.718C29.1771 110.058 25.3263 100.082 25.0953 91.4395C24.9991 87.405 25.8406 83.4028 27.5537 79.7479C29.0775 76.1492 31.8676 73.2331 35.3962 71.5513C35.4681 71.5193 35.5498 71.5171 35.6233 71.5452C35.6968 71.5733 35.7561 71.6295 35.7881 71.7013C35.8202 71.7732 35.8224 71.8548 35.7942 71.9283C35.7661 72.0018 35.7099 72.0611 35.638 72.0932Z" fill="#CBCBCB"/>
<path d="M35.825 71.5596C40.2674 77.8528 42.478 85.4505 42.1056 93.1454C42.0155 96.99 41.49 100.812 40.5391 104.539C40.0872 106.44 39.5032 108.324 38.896 110.27C38.4124 112.129 37.6553 113.907 36.6497 115.545C36.3998 115.881 35.7946 115.701 35.8659 115.245C36.3063 113.622 36.8787 112.038 37.5775 110.508C38.1849 108.788 38.7321 107.044 39.198 105.287C40.173 101.59 40.7617 97.8019 40.9547 93.9836C41.3413 86.2972 39.3322 78.6811 35.2046 72.1861C34.9908 71.7068 35.5233 71.2194 35.8622 71.6429L35.825 71.5596Z" fill="#CBCBCB"/>
<path d="M64.7175 53.2222C60.5771 65.2726 58.1233 77.837 57.426 90.5583C57.3993 91.3948 56.05 91.1722 56.1348 90.4097C57.0353 77.6024 59.8379 64.9998 64.4507 53.0164C64.5431 52.7753 64.9141 52.9346 64.8217 53.1757L64.7175 53.2222Z" fill="#CBCBCB"/>
<path d="M64.6427 53.0558C67.6994 58.8218 68.7444 65.4429 67.6122 71.871C67.0832 75.3066 65.9794 78.6289 64.3471 81.6985C62.6649 85.1548 60.2416 88.1983 57.2495 90.6123C56.7331 90.9676 55.9025 90.3387 56.3863 89.798C57.6361 88.3408 59.0808 87.0966 60.2726 85.5654C63.4942 81.5049 65.5869 76.6666 66.3393 71.5393C67.0112 65.3685 66.2376 59.1264 64.0797 53.307C64.0692 53.2378 64.0816 53.1671 64.1152 53.1056C64.1488 53.0442 64.2016 52.9955 64.2655 52.967C64.3295 52.9384 64.401 52.9317 64.4691 52.9477C64.5373 52.9638 64.5982 53.0018 64.6427 53.0558Z" fill="#CBCBCB"/>
<path d="M64.7246 53.5189C61.2142 54.8514 58.0668 56.9917 55.5376 59.7666C53.5132 62.4698 52.2719 65.6776 51.9496 69.0386C51.6447 72.5617 51.9511 76.1108 52.8552 79.5292C53.5812 83.2199 55.2986 86.6431 57.8231 89.4317C58.5077 90.1257 57.3199 91.1055 56.6353 90.4114C54.0169 87.4611 52.2386 83.8622 51.4859 79.9901C50.4788 76.2139 50.1916 72.2817 50.6393 68.3988C51.0588 64.985 52.384 61.7452 54.4774 59.0152C57.1575 56.0772 60.6027 53.9431 64.4271 52.8521C64.5156 52.8126 64.6161 52.8099 64.7065 52.8445C64.797 52.8791 64.87 52.9482 64.9094 53.0367C64.9489 53.1251 64.9516 53.2256 64.9169 53.316C64.8823 53.4065 64.8131 53.4795 64.7246 53.5189Z" fill="#CBCBCB"/>
<path d="M89.487 34.2753C85.3375 46.3232 82.8835 58.8889 82.1956 71.6114C82.148 72.4572 80.7988 72.2346 80.8836 71.4721C81.7615 58.7044 84.5385 46.1381 89.123 34.1878C89.2061 33.9258 89.54 34.0017 89.5056 34.3169L89.487 34.2753Z" fill="#CBCBCB"/>
<path d="M89.394 34.067C92.4609 39.8296 93.5064 46.4542 92.3636 52.8821C91.8512 56.3218 90.7465 59.6468 89.0985 62.7097C87.4247 66.1713 85 69.2164 82.0009 71.6234C81.438 71.8745 80.6747 71.3405 81.1376 70.8092C82.3874 69.352 83.8322 68.1077 85.024 66.5765C88.2363 62.5174 90.331 57.6892 91.1 52.5713C91.7602 46.3957 90.969 40.1518 88.7894 34.3368C88.7788 34.2676 88.7913 34.1969 88.8249 34.1354C88.8584 34.074 88.9112 34.0253 88.9752 33.9967C89.0391 33.9682 89.1107 33.9615 89.1788 33.9775C89.2469 33.9936 89.3079 34.0316 89.3523 34.0856L89.394 34.067Z" fill="#CBCBCB"/>
<path d="M89.4115 34.6092C86.3408 35.804 83.6262 37.7633 81.5253 40.3012C79.4243 42.8391 78.0068 45.8714 77.4071 49.1104C76.5851 54.5982 77.2881 60.2059 79.4393 65.3202C80.1153 67.2371 81.1583 69.0038 82.51 70.5219C83.2155 71.2067 82.0277 72.1864 81.3431 71.4924C78.1636 68.2882 76.7569 62.8938 76.0677 58.6035C74.8022 52.5244 75.9352 46.1908 79.2302 40.9256C81.6801 37.6335 85.127 35.2193 89.0585 34.042C89.147 34.0025 89.2475 33.9998 89.338 34.0345C89.4284 34.0691 89.5014 34.1382 89.5408 34.2266C89.5803 34.3151 89.583 34.4155 89.5483 34.506C89.5137 34.5964 89.4445 34.6694 89.356 34.7089L89.4115 34.6092Z" fill="#CBCBCB"/>
<path d="M119.888 14.39C115.741 26.4386 113.287 39.0039 112.597 51.726C112.54 52.551 111.2 52.3493 111.306 51.5775C112.163 38.7943 114.924 26.2099 119.496 14.24C119.506 14.2142 119.521 14.1907 119.54 14.1707C119.559 14.1507 119.582 14.1346 119.607 14.1234C119.632 14.1122 119.659 14.106 119.687 14.1053C119.714 14.1045 119.742 14.1092 119.767 14.1191C119.793 14.1289 119.817 14.1437 119.837 14.1627C119.857 14.1816 119.873 14.2043 119.884 14.2295C119.895 14.2546 119.901 14.2818 119.902 14.3093C119.903 14.3368 119.898 14.3642 119.888 14.39Z" fill="#CBCBCB"/>
<path d="M119.815 14.2234C122.875 19.9839 123.911 26.6062 122.754 33.027C122.272 36.4444 121.213 39.7555 119.623 42.8195C117.937 46.27 115.511 49.3065 112.516 51.7124C111.988 52.0979 111.179 51.4596 111.632 50.9074C112.891 49.4711 114.336 48.2269 115.519 46.6748C116.675 45.2135 117.692 43.6472 118.556 41.9964C120.074 39.0632 121.104 35.903 121.606 32.6395C122.282 26.47 121.501 20.2286 119.326 14.4165C119.291 14.3391 119.289 14.2512 119.319 14.1721C119.35 14.0929 119.41 14.029 119.488 13.9945C119.565 13.96 119.653 13.9576 119.732 13.9879C119.811 14.0182 119.875 14.0787 119.91 14.1561L119.815 14.2234Z" fill="#CBCBCB"/>
<path d="M119.75 14.7519C116.579 16.3273 113.815 18.6135 111.673 21.4322C109.531 24.251 108.069 27.526 107.401 31.002C106.733 34.478 106.877 38.061 107.822 41.4716C108.767 44.8823 110.487 48.0284 112.848 50.6646C113.533 51.3586 112.345 52.3384 111.661 51.6443C100.804 40.6459 104.899 19.6785 119.452 14.085C119.541 14.0455 119.641 14.0428 119.732 14.0774C119.822 14.112 119.895 14.1812 119.935 14.2696C119.974 14.358 119.977 14.4585 119.942 14.5489C119.908 14.6394 119.838 14.7124 119.75 14.7519Z" fill="#CBCBCB"/>
<path d="M148.392 61.4684C135.64 60.1575 123.155 56.9518 111.35 51.9573C110.578 51.6271 111.061 50.4122 111.812 50.7516C123.485 55.8669 135.812 59.3401 148.44 61.0721C148.471 61.0684 148.502 61.0719 148.532 61.0821C148.561 61.0923 148.588 61.109 148.61 61.131C148.632 61.153 148.648 61.1798 148.658 61.2092C148.668 61.2386 148.672 61.2699 148.668 61.3007C148.664 61.3316 148.654 61.3612 148.637 61.3874C148.62 61.4135 148.597 61.4354 148.571 61.4516C148.544 61.4677 148.514 61.4776 148.483 61.4805C148.452 61.4834 148.421 61.4793 148.392 61.4684Z" fill="#CBCBCB"/>
<path d="M148.07 61.5872C143.852 57.0303 138.624 53.526 132.806 51.3558C129.705 50.3209 126.456 49.7954 123.187 49.8C121.321 49.8324 119.461 50.0347 117.632 50.4043C115.755 50.7919 113.976 51.5108 112.115 51.991C111.434 52.1451 111.233 51.1351 111.777 50.8422C115.281 49.2535 119.091 48.4578 122.937 48.512C126.411 48.4397 129.871 48.9576 133.17 50.0437C139.43 51.9077 144.882 55.8201 148.651 61.153C148.695 61.2196 148.713 61.3003 148.7 61.3792C148.688 61.4582 148.646 61.5296 148.584 61.5794C148.521 61.6293 148.442 61.6539 148.363 61.6484C148.283 61.643 148.208 61.6079 148.153 61.55L148.07 61.5872Z" fill="#CBCBCB"/>
<path d="M148.573 61.5375C137.087 71.9342 116.454 66.1972 111.614 51.5397C111.215 50.6436 112.695 49.9832 113.011 50.9165C114.301 54.2089 116.333 57.159 118.95 59.5374C121.567 61.9157 124.698 63.6579 128.1 64.6285C131.501 65.5991 135.08 65.772 138.56 65.1335C142.039 64.495 145.324 63.0624 148.16 60.9473C148.236 60.8869 148.332 60.8592 148.429 60.8701C148.525 60.8811 148.613 60.9297 148.673 61.0055C148.734 61.0813 148.761 61.1781 148.75 61.2743C148.739 61.3706 148.691 61.4586 148.615 61.5189L148.573 61.5375Z" fill="#CBCBCB"/>
<path d="M117.499 80.9233C104.715 79.6284 92.1957 76.4387 80.3526 71.4588C79.5804 71.1287 80.054 69.8929 80.8355 70.2439C92.4988 75.3553 104.815 78.8246 117.433 80.5527C117.488 80.5578 117.54 80.5848 117.575 80.6275C117.61 80.6703 117.628 80.7253 117.622 80.7806C117.617 80.836 117.59 80.887 117.547 80.9225C117.505 80.9579 117.45 80.975 117.394 80.9699L117.499 80.9233Z" fill="#CBCBCB"/>
<path d="M117.135 81.0607C112.913 76.5072 107.692 72.9947 101.883 70.7991C96.9218 69.1728 91.619 68.8839 86.5098 69.9615C84.6235 70.3283 82.8443 71.0471 81.0045 71.5181C80.3117 71.7022 80.1111 70.6923 80.6763 70.3902C84.15 68.7817 87.9317 67.9471 91.7594 67.9442C95.2432 67.8762 98.7132 68.3979 102.022 69.4874C108.269 71.356 113.709 75.2632 117.473 80.5852C117.529 80.6499 117.556 80.734 117.549 80.819C117.543 80.904 117.503 80.9828 117.438 81.0382C117.373 81.0936 117.289 81.121 117.204 81.1144C117.119 81.1078 117.04 81.0678 116.985 81.003L117.135 81.0607Z" fill="#CBCBCB"/>
<path d="M117.7 80.9834C106.215 91.3801 85.581 85.6432 80.7322 70.9648C80.3417 70.0895 81.822 69.4291 82.1291 70.3416C83.3312 73.5586 85.26 76.4547 87.7651 78.8042C90.2702 81.1538 93.2841 82.8935 96.5723 83.8879C100.053 85.0281 103.76 85.3068 107.373 84.7002C110.986 84.0935 114.398 82.6195 117.317 80.4048C117.392 80.3416 117.488 80.3107 117.586 80.3188C117.683 80.3269 117.773 80.3734 117.836 80.448C117.9 80.5226 117.93 80.6191 117.922 80.7165C117.914 80.8138 117.868 80.9039 117.793 80.9671L117.7 80.9834Z" fill="#CBCBCB"/>
<path d="M98.2516 101.155C84.0257 99.9039 70.0733 96.4985 56.8725 91.0554C56.0794 90.7345 56.5623 89.5196 57.3346 89.8497C70.3994 95.3917 84.1859 99.0507 98.2812 100.717C98.3243 100.733 98.3607 100.763 98.3846 100.803C98.4085 100.842 98.4185 100.888 98.413 100.934C98.4074 100.98 98.3866 101.022 98.354 101.055C98.3214 101.087 98.2787 101.108 98.233 101.113L98.2516 101.155Z" fill="#CBCBCB"/>
<path d="M97.9386 101.294C93.313 96.183 87.4915 92.2983 80.995 89.9882C77.3625 88.8532 73.5616 88.3513 69.7586 88.5045C67.8188 88.5887 65.8898 88.8391 63.9927 89.2528C61.7126 89.7453 59.7551 90.5687 57.6141 91.1491C56.9213 91.3333 56.7207 90.3233 57.2859 90.0212C59.3631 89.0147 61.5721 88.3068 63.8473 87.9183C65.8703 87.4958 67.9257 87.2476 69.991 87.1764C73.8303 87.0361 77.6648 87.5567 81.3271 88.7155C88.2617 90.7025 94.3112 94.9927 98.4781 100.879C98.5295 100.942 98.5537 101.023 98.5454 101.104C98.537 101.185 98.4967 101.26 98.4335 101.311C98.3702 101.362 98.2891 101.387 98.2081 101.378C98.127 101.37 98.0526 101.33 98.0012 101.267L97.9386 101.294Z" fill="#CBCBCB"/>
<path d="M98.4325 101.224C95.2322 104.064 91.3598 106.039 87.1824 106.962C83.005 107.886 78.6612 107.727 74.5631 106.501C70.6023 105.458 66.952 103.475 63.9215 100.721C60.8911 97.9664 58.5699 94.522 57.1548 90.6796C56.7643 89.8043 58.2561 89.1137 58.5517 90.0564C59.8459 93.6621 61.9822 96.9068 64.7833 99.5207C67.5843 102.135 70.969 104.042 74.6563 105.085C78.6133 106.275 82.7989 106.496 86.8596 105.728C90.9203 104.96 94.7368 103.226 97.9868 100.674C98.0202 100.629 98.0632 100.593 98.1127 100.568C98.1621 100.543 98.2167 100.529 98.2722 100.528C98.3276 100.527 98.3826 100.539 98.4329 100.562C98.4832 100.586 98.5274 100.62 98.5623 100.664C98.5972 100.707 98.6218 100.757 98.6343 100.811C98.6467 100.865 98.6467 100.922 98.6342 100.976C98.6217 101.03 98.597 101.08 98.5621 101.123C98.5271 101.166 98.4828 101.201 98.4325 101.224Z" fill="#CBCBCB"/>
<path d="M77.2988 125.52C63.0698 124.257 49.1152 120.844 35.9104 115.4C35.1173 115.079 35.5909 113.843 36.3632 114.173C49.4331 119.714 63.2215 123.38 77.3191 125.062C77.35 125.058 77.3813 125.061 77.4106 125.072C77.44 125.082 77.4667 125.099 77.4886 125.121C77.5106 125.143 77.5272 125.169 77.5373 125.199C77.5474 125.228 77.5507 125.259 77.547 125.29C77.5432 125.321 77.5326 125.351 77.5157 125.377C77.4988 125.403 77.4762 125.425 77.4497 125.441C77.4231 125.457 77.3932 125.467 77.3622 125.47C77.3312 125.473 77.3 125.469 77.2709 125.458L77.2988 125.52Z" fill="#CBCBCB"/>
<path d="M77.028 125.641C72.4087 120.523 66.5852 116.637 60.0844 114.335C56.4532 113.194 52.6513 112.692 48.848 112.851C46.9129 112.925 44.9877 113.166 43.0937 113.569C40.8228 114.083 38.8653 114.906 36.7035 115.496C36.0107 115.68 35.8101 114.67 36.3753 114.368C38.4525 113.362 40.6615 112.654 42.9367 112.265C44.9641 111.825 47.0277 111.574 49.1012 111.514C52.929 111.387 56.7507 111.904 60.4072 113.042C67.3275 115.052 73.3642 119.341 77.5374 125.214C77.5704 125.278 77.5811 125.35 77.5678 125.421C77.5544 125.491 77.5179 125.555 77.464 125.602C77.4101 125.649 77.3419 125.677 77.2704 125.68C77.1989 125.684 77.1282 125.664 77.0697 125.623L77.028 125.641Z" fill="#CBCBCB"/>
<path d="M77.5008 125.58C74.2994 128.425 70.4237 130.403 66.2423 131.329C62.0608 132.254 57.7125 132.095 53.6106 130.867C49.6507 129.821 46.0012 127.838 42.971 125.084C39.9408 122.33 37.6191 118.886 36.2024 115.045C35.8026 114.149 37.3037 113.479 37.5992 114.422C38.9002 118.022 41.0406 121.261 43.8433 123.869C46.6459 126.477 50.0301 128.38 53.7154 129.42C57.6719 130.614 61.8583 130.837 65.9197 130.069C69.9811 129.301 73.7977 127.565 77.0458 125.009C77.1205 124.946 77.2171 124.915 77.3145 124.923C77.4118 124.931 77.502 124.977 77.5651 125.052C77.6282 125.126 77.6591 125.223 77.6509 125.32C77.6428 125.418 77.5963 125.508 77.5217 125.571L77.5008 125.58Z" fill="#CBCBCB"/>
<path d="M163.263 29.5216C160.459 28.0773 157.404 27.1839 154.264 26.8897C151.033 26.8467 147.832 27.5155 144.889 28.8487C141.956 29.9408 139.246 31.5561 136.891 33.6161C135.738 34.6833 134.712 35.8791 133.831 37.1801C133.033 38.3608 132.652 39.8049 131.857 40.9346C131.53 41.3801 130.941 41.0682 130.943 40.5677C131.163 39.123 131.751 37.7591 132.651 36.6073C133.514 35.2715 134.521 34.0344 135.655 32.9183C138.219 30.5563 141.224 28.7232 144.497 27.5239C147.599 26.1637 150.966 25.5154 154.351 25.6267C157.677 25.7247 160.893 26.8352 163.57 28.8098C163.916 29.0803 163.632 29.7319 163.191 29.5286L163.263 29.5216Z" fill="#CBCBCB"/>
<path d="M163.972 29.4302C163.325 32.1998 161.807 34.6896 159.641 36.5344C157.284 38.8805 154.473 40.7212 151.381 41.9442C144.695 44.5523 137.659 43.5184 130.937 41.6197C130.16 41.3916 130.62 40.2369 131.376 40.4744C137.694 42.2532 144.352 43.2807 150.682 40.8817C153.497 39.8079 156.084 38.2126 158.308 36.1797C160.603 34.3976 162.38 32.0348 163.455 29.336C163.538 29.074 163.934 29.122 163.93 29.4488L163.972 29.4302Z" fill="#CBCBCB"/>
</g>
<defs>
<clipPath id="clip0_10948_24979">
<rect width="85.9611" height="165.31" fill="white" transform="matrix(-0.407436 -0.913234 -0.913234 0.407436 185.99 78.5024)"/>
</clipPath>
</defs>
</svg>
