<svg width="47" height="45" viewBox="0 0 47 45" fill="none" xmlns="http://www.w3.org/2000/svg">
<path d="M12.7489 35.2152C15.5241 34.5871 18.7813 32.5314 19.8018 29.355C20.4418 27.3636 20.1212 25.4931 18.899 24.0881C17.6565 22.6596 15.6582 21.9451 13.8086 22.2665C10.8649 22.7787 7.69407 25.79 6.58721 29.118C5.91055 31.1558 6.16075 32.9383 7.29238 34.1362C7.76098 34.622 8.34556 34.9804 8.99096 35.1777C10.0437 35.5148 11.3345 35.5354 12.7489 35.2152ZM18.7116 24.2512C19.874 25.5878 20.1774 27.3731 19.5649 29.2786C18.5736 32.3614 15.4 34.36 12.6936 34.9726C10.4908 35.4714 8.54021 35.0957 7.47339 33.9654C6.40656 32.8351 6.17654 31.1434 6.8234 29.1965C7.90307 25.946 10.9923 23.0079 13.8514 22.5115C14.6808 22.3726 15.5315 22.4365 16.3309 22.6976C17.2505 22.9904 18.0733 23.5274 18.7116 24.2512Z" fill="#3D8361"/>
<path d="M28.1844 35.0432C30.4124 33.498 31.7453 30.8533 31.5872 28.3005C31.4718 26.4614 30.6071 25.0306 29.153 24.2708C27.6748 23.4995 25.8068 23.5556 24.3918 24.412C21.9197 25.915 20.7601 29.4321 20.9213 31.9807C21.0402 33.8613 21.8112 35.213 23.0915 35.7852C23.2343 35.8492 23.3804 35.9053 23.5293 35.9531C24.9891 36.4229 26.6587 36.1017 28.1844 35.0432ZM29.039 24.4904C30.4155 25.2101 31.2303 26.5659 31.3404 28.3147C31.4953 30.7806 30.2017 33.341 28.0453 34.839C26.436 35.9555 24.6701 36.219 23.1976 35.5609C22.0059 35.0276 21.2871 33.7516 21.1745 31.9676C20.9642 28.6507 22.7446 25.7102 24.5258 24.6276C25.6542 23.9413 27.0845 23.7955 28.3455 24.2019C28.5845 24.2781 28.8165 24.3746 29.039 24.4904Z" fill="#3D8361"/>
<path d="M18.5217 24.0255C18.4958 24.0172 18.4732 24.0006 18.4576 23.9783C18.4483 23.9648 18.4417 23.9496 18.4383 23.9336C18.4349 23.9176 18.4346 23.9011 18.4376 23.885C18.4405 23.8689 18.4466 23.8535 18.4555 23.8398C18.4644 23.826 18.476 23.8142 18.4894 23.8049C18.6153 23.7178 31.26 15.1413 45.2895 19.4669C45.3209 19.4768 45.3471 19.4987 45.3624 19.5278C45.3778 19.5569 45.3809 19.5909 45.3713 19.6223C45.3616 19.6539 45.3398 19.6803 45.3106 19.6958C45.2815 19.7113 45.2474 19.7146 45.2158 19.7049C31.3041 15.4152 18.756 23.923 18.6306 24.0097C18.6149 24.0205 18.5969 24.0275 18.578 24.0303C18.5591 24.033 18.5399 24.0314 18.5217 24.0255Z" fill="#3D8361"/>
<path d="M28.7645 24.3357C28.7605 24.3347 28.7566 24.3333 28.7529 24.3315C28.7226 24.3184 28.6987 24.2939 28.6865 24.2632C28.6743 24.2325 28.6748 24.1983 28.6879 24.1679C30.2017 20.6456 33.5597 18.4677 33.5936 18.4462C33.6215 18.4282 33.6555 18.422 33.688 18.4291C33.7041 18.4326 33.7193 18.4392 33.7329 18.4486C33.7464 18.458 33.7579 18.4699 33.7669 18.4838C33.7758 18.4976 33.7819 18.5131 33.7848 18.5293C33.7877 18.5455 33.7875 18.5621 33.784 18.5782C33.7805 18.5943 33.7739 18.6096 33.7645 18.6231C33.7551 18.6366 33.7432 18.6482 33.7293 18.6571C33.6959 18.6782 30.4008 20.817 28.9195 24.2664C28.9073 24.2954 28.8845 24.3187 28.8557 24.3316C28.8269 24.3445 28.7943 24.3459 28.7645 24.3357Z" fill="#3D8361"/>
<path d="M14.5646 13.9112C14.5456 13.905 14.5283 13.8944 14.5143 13.8801C14.5002 13.8658 14.4898 13.8484 14.4839 13.8293C14.4743 13.7977 14.4775 13.7637 14.493 13.7346C14.5084 13.7054 14.5347 13.6836 14.5662 13.6739C23.1311 11.0265 37.7275 18.1882 37.8753 18.2623C37.9036 18.2776 37.9249 18.3034 37.9347 18.3341C37.9445 18.3649 37.942 18.3982 37.9277 18.4271C37.9134 18.456 37.8884 18.4782 37.8581 18.4891C37.8277 18.4999 37.7943 18.4986 37.7649 18.4853C37.6196 18.4132 23.1114 11.2957 14.6393 13.9116C14.615 13.9191 14.5889 13.919 14.5646 13.9112Z" fill="#3D8361"/>
<path d="M17.9183 15.2483C23.8911 15.4048 27.8334 16.123 30.7135 16.6459C32.4036 16.9528 33.7384 17.1954 34.8748 17.208C34.9004 17.2083 34.9255 17.2006 34.9466 17.1861C34.9677 17.1716 34.9838 17.151 34.9928 17.127C35.0017 17.1029 35.003 17.0768 34.9965 17.052C34.99 17.0272 34.9761 17.005 34.9565 16.9885C30.3249 13.0628 21.2045 11.154 18.0291 11.6156C16.1101 11.8941 14.4743 12.9631 14.5303 13.9035C14.5482 14.2054 14.7527 14.6439 15.6675 14.9383C16.1717 15.1006 16.8923 15.2188 17.9183 15.2483ZM34.5172 16.9495C33.4783 16.8967 32.2599 16.6756 30.759 16.4031C27.871 15.8785 23.9154 15.1609 17.9249 14.9995C15.1413 14.9252 14.7986 14.1995 14.7804 13.8905C14.7374 13.1648 16.1338 12.1444 18.0667 11.8641C19.844 11.6057 23.5042 12.0991 27.1781 13.2817C29.8588 14.1426 32.5488 15.374 34.5172 16.9495Z" fill="#3D8361"/>
<path d="M24.8581 34.4208C24.8301 34.4112 24.8064 34.392 24.7913 34.3665C24.7761 34.341 24.7706 34.3109 24.7756 34.2818C24.7807 34.2526 24.796 34.2261 24.8188 34.2072C24.8416 34.1883 24.8703 34.1781 24.9 34.1785C27.5061 34.2648 29.1627 31.0897 29.556 29.5384C29.5643 29.5065 29.5848 29.4791 29.6131 29.4623C29.6415 29.4455 29.6753 29.4407 29.7073 29.4488C29.7392 29.4569 29.7666 29.4774 29.7835 29.5057C29.8004 29.5339 29.8054 29.5678 29.7974 29.5997C29.2761 31.6545 27.409 34.5107 24.8916 34.4271C24.8802 34.4267 24.8689 34.4246 24.8581 34.4208Z" fill="#3D8361"/>
<path d="M9.88564 33.3304C9.82961 33.3126 9.77461 33.2917 9.72088 33.2679C9.69173 33.2539 9.66918 33.229 9.65803 33.1986C9.64688 33.1683 9.64799 33.1347 9.66112 33.1052C9.67425 33.0756 9.69838 33.0523 9.72839 33.0402C9.7584 33.0282 9.79193 33.0283 9.82189 33.0405C11.0277 33.5782 14.555 32.8175 16.4724 30.0133C16.4915 29.9874 16.5199 29.9699 16.5517 29.9645C16.5834 29.9591 16.616 29.9662 16.6427 29.9844C16.6693 30.0025 16.6878 30.0303 16.6944 30.0618C16.701 30.0934 16.6951 30.1262 16.678 30.1535C15.7985 31.4404 14.4722 32.4577 12.9439 33.0191C11.777 33.448 10.6069 33.5636 9.88564 33.3304Z" fill="#3D8361"/>
</svg>
