<svg width="32" height="32" viewBox="0 0 32 32" fill="none" xmlns="http://www.w3.org/2000/svg">
<rect x="0.5" y="0.5" width="31" height="31" rx="7.5" stroke="#3D8361"/>
<path opacity="0.4" d="M15.1753 22.6833C19.3221 22.6833 22.6837 19.3217 22.6837 15.175C22.6837 11.0282 19.3221 7.66663 15.1753 7.66663C11.0286 7.66663 7.66699 11.0282 7.66699 15.175C7.66699 19.3217 11.0286 22.6833 15.1753 22.6833Z" fill="#3D8361"/>
<path d="M24.3247 21.7917C24.0497 21.2833 23.4664 21 22.6831 21C22.0914 21 21.5831 21.2417 21.2831 21.6583C20.9831 22.075 20.9164 22.6333 21.0997 23.1917C21.4581 24.275 22.0831 24.5167 22.4247 24.5583C22.4747 24.5667 22.5247 24.5667 22.5831 24.5667C22.9497 24.5667 23.5164 24.4083 24.0664 23.5833C24.5081 22.9417 24.5914 22.3 24.3247 21.7917Z" fill="#3D8361"/>
</svg>
