<svg width="32" height="32" viewBox="0 0 32 32" fill="none" xmlns="http://www.w3.org/2000/svg">
<rect x="0.5" y="0.5" width="31" height="31" rx="7.5" stroke="#3D8361"/>
<path opacity="0.4" d="M14.334 9.125H15.3757V13.0833C15.3757 13.425 15.659 13.7083 16.0007 13.7083C16.3423 13.7083 16.6257 13.425 16.6257 13.0833V9.125H17.6673C18.009 9.125 18.2923 8.84167 18.2923 8.5C18.2923 8.15833 18.009 7.875 17.6673 7.875H14.334C13.9923 7.875 13.709 8.15833 13.709 8.5C13.709 8.84167 13.9923 9.125 14.334 9.125Z" fill="#3D8361"/>
<path opacity="0.4" d="M17.6673 22.8751H16.6257V18.9167C16.6257 18.5751 16.3423 18.2917 16.0007 18.2917C15.659 18.2917 15.3757 18.5751 15.3757 18.9167V22.8751H14.334C13.9923 22.8751 13.709 23.1584 13.709 23.5001C13.709 23.8417 13.9923 24.1251 14.334 24.1251H17.6673C18.009 24.1251 18.2923 23.8417 18.2923 23.5001C18.2923 23.1584 18.009 22.8751 17.6673 22.8751Z" fill="#3D8361"/>
<path opacity="0.4" d="M8.35849 14.2333C8.45849 14.2917 8.56682 14.3167 8.66682 14.3167C8.88349 14.3167 9.09182 14.2083 9.20849 14L9.73349 13.1L13.1668 15.0833C13.2585 15.1417 13.3668 15.1667 13.4752 15.1667C13.6918 15.1667 13.9002 15.0583 14.0168 14.85C14.1918 14.55 14.0835 14.1667 13.7918 14L10.3668 12.0167L10.8835 11.1167C11.0585 10.8167 10.9502 10.4333 10.6585 10.2667C10.3585 10.0917 9.97515 10.1917 9.80849 10.4917L8.14182 13.375C7.95849 13.6833 8.05849 14.0583 8.35849 14.2333Z" fill="#3D8361"/>
<path opacity="0.4" d="M23.642 17.7667C23.342 17.5917 22.9587 17.6917 22.792 17.9917L22.267 18.8917L18.8337 16.9167C18.5337 16.7417 18.1504 16.85 17.9837 17.1417C17.8087 17.4417 17.917 17.825 18.2087 17.9917L21.6337 19.975L21.117 20.875C20.942 21.175 21.0504 21.5583 21.342 21.725C21.442 21.7833 21.5504 21.8083 21.6504 21.8083C21.867 21.8083 22.0754 21.7 22.192 21.4917L23.8587 18.6083C24.042 18.3167 23.942 17.9417 23.642 17.7667Z" fill="#3D8361"/>
<path opacity="0.4" d="M21.6424 12.0167L18.2174 14.0001C17.9174 14.1751 17.8174 14.5584 17.9924 14.8501C18.109 15.0501 18.3174 15.1667 18.534 15.1667C18.6424 15.1667 18.7507 15.1417 18.8424 15.0834L22.2674 13.1001L22.7924 14.0001C22.909 14.2001 23.1174 14.3167 23.334 14.3167C23.4424 14.3167 23.5507 14.2917 23.6424 14.2334C23.9424 14.0584 24.0424 13.6751 23.8674 13.3834L22.2007 10.5001C22.0257 10.2001 21.6424 10.1001 21.3507 10.2751C21.0507 10.4501 20.9507 10.8334 21.1257 11.1251L21.6424 12.0167Z" fill="#3D8361"/>
<path opacity="0.4" d="M10.359 19.9833L13.784 18C14.084 17.825 14.184 17.4416 14.009 17.15C13.834 16.85 13.4506 16.75 13.159 16.925L9.73396 18.9083L9.20896 18.0083C9.03396 17.7083 8.65063 17.6083 8.35896 17.7833C8.05896 17.9583 7.95896 18.3416 8.13396 18.6333L9.80063 21.5166C9.9173 21.7166 10.1256 21.8333 10.3423 21.8333C10.4506 21.8333 10.559 21.8083 10.6506 21.75C10.9506 21.575 11.0506 21.1916 10.8756 20.9L10.359 19.9833Z" fill="#3D8361"/>
<path d="M13.9583 9.13913L11.0715 10.8058C10.7756 10.9766 10.3886 10.8729 10.2178 10.577C10.0469 10.2811 10.1506 9.8941 10.4465 9.72327L13.3333 8.0566C13.6292 7.88577 14.0162 7.98947 14.1871 8.28537C14.3579 8.58126 14.2542 8.9683 13.9583 9.13913Z" fill="#3D8361"/>
<path d="M21.4583 22.1299L18.5715 23.7965C18.2756 23.9674 17.8886 23.8636 17.7178 23.5678C17.5469 23.2719 17.6506 22.8848 17.9465 22.714L20.8333 21.0473C21.1292 20.8765 21.5162 20.9802 21.6871 21.2761C21.8579 21.572 21.7542 21.959 21.4583 22.1299Z" fill="#3D8361"/>
<path d="M8.76733 18.1306C8.67351 18.1848 8.5672 18.2173 8.45865 18.2126C8.11134 18.2111 7.83307 17.9291 7.83879 17.589L7.84049 14.2586C7.84205 13.9113 8.12403 13.6331 8.46412 13.6388C8.81143 13.6403 9.08969 13.9223 9.08397 14.2624L9.08227 17.5928C9.08123 17.8243 8.94775 18.0265 8.76733 18.1306Z" fill="#3D8361"/>
<path d="M23.7605 18.1348C23.6667 18.189 23.5604 18.2215 23.4518 18.2168C23.1045 18.2152 22.8262 17.9333 22.832 17.5932L22.8337 14.2628C22.8352 13.9155 23.1172 13.6372 23.4573 13.6429C23.8046 13.6445 24.0829 13.9265 24.0771 14.2666L24.0754 17.5969C24.0816 17.8243 23.9481 18.0265 23.7605 18.1348Z" fill="#3D8361"/>
<path d="M21.454 10.8055C21.2663 10.9139 21.0317 10.9242 20.8265 10.8021L17.9415 9.13843C17.6399 8.96613 17.5421 8.57998 17.7114 8.28981C17.8837 7.98825 18.2698 7.89041 18.56 8.05967L21.445 9.72338C21.7466 9.89569 21.8444 10.2818 21.6752 10.572C21.6291 10.6756 21.5478 10.7514 21.454 10.8055Z" fill="#3D8361"/>
<path d="M13.9598 23.793C13.7722 23.9013 13.5376 23.9117 13.3324 23.7896L10.4474 22.1259C10.1458 21.9536 10.048 21.5674 10.2172 21.2772C10.3895 20.9757 10.7757 20.8778 11.0658 21.0471L13.9509 22.7108C14.2524 22.8831 14.3503 23.2692 14.181 23.5594C14.1278 23.6672 14.0464 23.743 13.9598 23.793Z" fill="#3D8361"/>
<path d="M18.9163 16C18.9163 16.5334 18.7747 17.025 18.5247 17.4584C18.0163 18.3334 17.0747 18.9167 15.9997 18.9167C14.9247 18.9167 13.983 18.3334 13.4747 17.4584C13.2247 17.025 13.083 16.5334 13.083 16C13.083 15.4667 13.2247 14.975 13.4747 14.5417C13.983 13.6667 14.9247 13.0834 15.9997 13.0834C17.0747 13.0834 18.0163 13.6667 18.5247 14.5417C18.7747 14.975 18.9163 15.4667 18.9163 16Z" fill="#3D8361"/>
<path d="M16 10.7646L17.0825 13.5316H14.9175L16 10.7646Z" fill="#3D8361"/>
</svg>
