<svg width="24" height="24" viewBox="0 0 24 24" fill="none" xmlns="http://www.w3.org/2000/svg">
<g clip-path="url(#clip0_10328_3059)">
<path opacity="0.5" d="M15.9998 2L14.9998 2C12.1714 2 10.7576 2.00023 9.87891 2.87891C9.00023 3.75759 9.00023 5.1718 9.00023 8.00023L9.00023 16.0002C9.00023 18.8287 9.00023 20.2429 9.87891 21.1215C10.7574 22 12.1706 22 14.9976 22L14.9998 22L15.9998 22C18.8282 22 20.2424 22 21.1211 21.1213C21.9998 20.2426 21.9998 18.8284 21.9998 16L21.9998 8L21.9998 7.99998C21.9998 5.17157 21.9998 3.75736 21.1211 2.87868C20.2424 2 18.8282 2 15.9998 2Z" fill="white"/>
<path fill-rule="evenodd" clip-rule="evenodd" d="M4.25098 11.999C4.25098 11.5848 4.58676 11.249 5.00098 11.249L16.9735 11.249L15.0129 9.56845C14.6984 9.29889 14.662 8.82541 14.9315 8.51092C15.2011 8.19642 15.6746 8.16 15.9891 8.42957L19.4891 11.4296C19.6553 11.5721 19.751 11.7801 19.751 11.999C19.751 12.218 19.6553 12.426 19.4891 12.5685L15.9891 15.5685C15.6746 15.838 15.2011 15.8016 14.9315 15.4871C14.662 15.1726 14.6984 14.6991 15.0129 14.4296L16.9735 12.749L5.00098 12.749C4.58676 12.749 4.25098 12.4132 4.25098 11.999Z" fill="white"/>
</g>
<defs>
<clipPath id="clip0_10328_3059">
<rect width="24" height="24" rx="5" fill="white"/>
</clipPath>
</defs>
</svg>
