<svg width="32" height="32" viewBox="0 0 32 32" fill="none" xmlns="http://www.w3.org/2000/svg">
<rect width="32" height="32" rx="8" fill="#3D8361"/>
<path opacity="0.4" d="M13.5 12V19.9916C13.5 22.6666 15.1667 24.3333 17.8333 24.3333H19.9917C22.6583 24.3333 24.325 22.6666 24.325 20V12C24.3333 9.33329 22.6667 7.66663 20 7.66663H17.8333C15.1667 7.66663 13.5 9.33329 13.5 12Z" fill="white"/>
<path d="M16.3587 12.7667L19.1503 15.5584C19.392 15.8001 19.392 16.2001 19.1503 16.4417L16.3587 19.2334C16.117 19.4751 15.717 19.4751 15.4753 19.2334C15.2337 18.9917 15.2337 18.5917 15.4753 18.3501L17.2003 16.6251H8.29199C7.95033 16.6251 7.66699 16.3417 7.66699 16.0001C7.66699 15.6584 7.95033 15.3751 8.29199 15.3751H17.2003L15.4753 13.6501C15.3503 13.5251 15.292 13.3667 15.292 13.2084C15.292 13.0501 15.3503 12.8917 15.4753 12.7667C15.717 12.5167 16.1087 12.5167 16.3587 12.7667Z" fill="white"/>
</svg>
