<svg width="32" height="32" viewBox="0 0 32 32" fill="none" xmlns="http://www.w3.org/2000/svg">
<rect x="0.5" y="0.5" width="31" height="31" rx="7.5" stroke="#3D8361"/>
<path d="M23.5 12.4584H8.5C8.15833 12.4584 7.875 12.175 7.875 11.8334C7.875 11.4917 8.15833 11.2084 8.5 11.2084H23.5C23.8417 11.2084 24.125 11.4917 24.125 11.8334C24.125 12.175 23.8417 12.4584 23.5 12.4584Z" fill="#3D8361"/>
<path d="M23.5 16.625H8.5C8.15833 16.625 7.875 16.3417 7.875 16C7.875 15.6583 8.15833 15.375 8.5 15.375H23.5C23.8417 15.375 24.125 15.6583 24.125 16C24.125 16.3417 23.8417 16.625 23.5 16.625Z" fill="#3D8361"/>
<path d="M23.5 20.7916H8.5C8.15833 20.7916 7.875 20.5083 7.875 20.1666C7.875 19.825 8.15833 19.5416 8.5 19.5416H23.5C23.8417 19.5416 24.125 19.825 24.125 20.1666C24.125 20.5083 23.8417 20.7916 23.5 20.7916Z" fill="#3D8361"/>
</svg>
