<svg width="32" height="32" viewBox="0 0 32 32" fill="none" xmlns="http://www.w3.org/2000/svg">
<path d="M20.9494 22.3637L9.63567 11.05C9.24911 10.6635 9.24911 10.0224 9.63567 9.63582C10.0222 9.24927 10.6633 9.24927 11.0499 9.63582L22.3636 20.9495C22.7501 21.3361 22.7501 21.9772 22.3636 22.3637C21.977 22.7503 21.3359 22.7503 20.9494 22.3637Z" fill="#3D8361"/>
<path d="M9.63641 22.3637C9.24986 21.9772 9.24986 21.3361 9.63641 20.9495L20.9501 9.63582C21.3367 9.24927 21.9778 9.24927 22.3643 9.63582C22.7509 10.0224 22.7509 10.6635 22.3643 11.05L11.0506 22.3637C10.6641 22.7503 10.023 22.7503 9.63641 22.3637Z" fill="#3D8361"/>
</svg>
