<svg width="219" height="198" viewBox="0 0 219 198" fill="none" xmlns="http://www.w3.org/2000/svg">
<path d="M201.743 102.788C201.743 124.063 194.609 144.053 182.718 159.826C176.133 168.446 168.267 175.965 159.121 181.834C144.487 191.554 126.744 197.056 107.903 197.056C56.135 197.24 14.0625 155.057 14.0625 102.788C14.0625 50.7019 55.9521 8.33612 107.903 8.33612C126.744 8.33612 144.304 13.8382 159.121 23.5584C168.267 29.4273 176.133 36.9468 182.718 45.5666C194.609 61.5226 201.743 81.3299 201.743 102.788Z" fill="#EAEEF9"/>
<path d="M93.0843 9.0697C94.7306 9.0697 96.194 7.78589 96.194 5.95187C96.194 4.30126 94.9136 2.83405 93.0843 2.83405C91.438 2.83405 89.9746 4.11786 89.9746 5.95187C90.1575 7.78589 91.438 9.0697 93.0843 9.0697Z" fill="#3D8361"/>
<path d="M145.767 14.7551C147.047 14.7551 148.145 13.6547 148.145 12.3709C148.145 11.0871 147.047 9.98669 145.767 9.98669C144.486 9.98669 143.389 11.0871 143.389 12.3709C143.389 13.6547 144.486 14.7551 145.767 14.7551Z" fill="#FFC436"/>
<path d="M211.986 92.334C214.73 89.7664 214.913 85.5481 212.352 82.6137C209.791 79.8627 205.584 79.6793 202.84 82.2469C200.096 84.8145 199.913 89.0328 202.474 91.9672C205.035 94.5348 209.242 94.7182 211.986 92.334Z" fill="#EAEEF9"/>
<path d="M79.1834 62.4395L76.9883 58.9549" stroke="#BBC6D8" stroke-width="1.5" stroke-miterlimit="10" stroke-linecap="round" stroke-linejoin="round"/>
<path d="M66.7441 62.9897L82.8415 87.1987L96.7437 90.6834L81.1951 65.5574" stroke="#BBC6D8" stroke-width="1.5" stroke-miterlimit="10" stroke-linecap="round" stroke-linejoin="round"/>
<path d="M59.0623 110.858H58.3306C57.7819 110.858 57.416 110.491 57.416 109.941C57.416 109.39 57.7819 109.024 58.3306 109.024H59.0623C59.6111 109.024 59.9769 109.39 59.9769 109.941C59.9769 110.491 59.6111 110.858 59.0623 110.858Z" fill="#2D5887"/>
<path d="M59.0623 114.892H58.3306C57.7819 114.892 57.416 114.526 57.416 113.975C57.416 113.425 57.7819 113.058 58.3306 113.058H59.0623C59.6111 113.058 59.9769 113.425 59.9769 113.975C59.9769 114.526 59.6111 114.892 59.0623 114.892Z" fill="#2D5887"/>
<path d="M59.0623 118.927H58.3306C57.7819 118.927 57.416 118.56 57.416 118.01C57.416 117.46 57.7819 117.093 58.3306 117.093H59.0623C59.6111 117.093 59.9769 117.46 59.9769 118.01C59.9769 118.56 59.6111 118.927 59.0623 118.927Z" fill="#2D5887"/>
<path d="M59.0623 122.962H58.3306C57.7819 122.962 57.416 122.595 57.416 122.045C57.416 121.495 57.7819 121.128 58.3306 121.128H59.0623C59.6111 121.128 59.9769 121.495 59.9769 122.045C59.9769 122.595 59.6111 122.962 59.0623 122.962Z" fill="#2D5887"/>
<path d="M98.5721 110.674H85.0357C84.4869 110.674 84.1211 110.307 84.1211 109.757C84.1211 109.207 84.4869 108.84 85.0357 108.84H98.5721C99.1209 108.84 99.4867 109.207 99.4867 109.757C99.4867 110.307 99.1209 110.674 98.5721 110.674Z" fill="white"/>
<path d="M128.937 122.779H85.0357C84.4869 122.779 84.1211 122.412 84.1211 121.862C84.1211 121.311 84.4869 120.945 85.0357 120.945H128.937C129.486 120.945 129.852 121.311 129.852 121.862C129.852 122.412 129.486 122.779 128.937 122.779Z" fill="url(#paint0_linear_6927_34759)"/>
<path d="M98.5715 114.526H78.9986C78.4498 114.526 78.084 114.159 78.084 113.609C78.084 113.058 78.4498 112.692 78.9986 112.692H98.5715C99.1203 112.692 99.4861 113.058 99.4861 113.609C99.4861 114.159 99.1203 114.526 98.5715 114.526Z" fill="#2D5887"/>
<path d="M114.119 118.744H79.1802C78.6315 118.744 78.2656 118.377 78.2656 117.827C78.2656 117.277 78.6315 116.91 79.1802 116.91H114.119C114.668 116.91 115.033 117.277 115.033 117.827C114.85 118.377 114.485 118.744 114.119 118.744Z" fill="#2D5887"/>
<path d="M129.12 118.744H116.864C116.315 118.744 115.949 118.377 115.949 117.827C115.949 117.277 116.315 116.91 116.864 116.91H129.12C129.669 116.91 130.034 117.277 130.034 117.827C130.034 118.377 129.669 118.744 129.12 118.744Z" fill="white"/>
<path d="M137.17 118.744H132.231C131.682 118.744 131.316 118.377 131.316 117.827C131.316 117.277 131.682 116.91 132.231 116.91H137.17C137.719 116.91 138.085 117.277 138.085 117.827C138.085 118.377 137.719 118.744 137.17 118.744Z" fill="url(#paint1_linear_6927_34759)"/>
<path d="M2.7207 175.048H217.108" stroke="#D6DEE8" stroke-width="2" stroke-miterlimit="10" stroke-linecap="round" stroke-linejoin="round"/>
<path d="M145.766 108.657V173.948H53.0234C49.365 173.948 46.6211 171.013 46.6211 167.529V108.657H145.766Z" fill="white"/>
<path d="M180.888 108.657V167.529C180.888 171.197 177.962 173.948 174.486 173.948H145.584V108.657H180.888Z" fill="#DAE1ED"/>
<path opacity="0.3" d="M180.888 108.657V167.529C180.888 171.197 177.962 173.948 174.486 173.948H145.584V108.657H180.888Z" fill="url(#paint2_linear_6927_34759)"/>
<path d="M82.8418 109.207L102.232 78.7623H201.742L181.804 109.207H82.8418Z" fill="#C5CDDB"/>
<path opacity="0.2" d="M82.8418 109.207L102.232 78.7623H201.742L181.804 109.207H82.8418Z" fill="url(#paint3_linear_6927_34759)"/>
<path d="M196.072 67.7582C194.426 69.4088 192.048 70.3258 189.67 70.1424H189.304C187.841 70.1424 186.377 70.6926 185.28 71.793C184.182 72.8935 183.633 74.3607 183.816 75.8279V76.0113C183.999 78.3955 183.085 80.7797 181.438 82.4303C179.792 84.0809 177.414 84.998 175.036 84.8146H174.853C173.39 84.8146 171.926 85.3648 170.829 86.2818C169.731 87.3822 169.182 88.8494 169.182 90.3166C169.365 92.7008 168.451 95.085 166.804 96.7357C165.158 98.3863 162.78 99.3033 160.402 99.1199H159.67C158.939 99.1199 158.207 98.3863 158.207 97.4693C158.207 96.7357 158.939 96.0021 159.853 96.0021H160.585C162.048 96.1855 163.695 95.6352 164.792 94.5348C165.89 93.4344 166.439 91.9672 166.439 90.5C166.256 88.1158 167.17 85.7316 168.817 84.0809C170.463 82.4303 172.841 81.5133 175.219 81.6967H175.402C176.865 81.6967 178.329 81.1465 179.426 80.2295C180.524 79.1291 181.073 77.6619 181.073 76.1947V76.0113C180.89 73.6271 181.804 71.2428 183.451 69.5922C185.097 67.9416 187.475 67.0246 189.853 67.208H190.219C191.865 67.3914 193.511 66.4744 194.609 65.1906C195.158 64.457 196.072 64.457 196.621 65.0072C197.353 65.5574 197.353 66.4744 196.804 67.0246C196.438 67.3914 196.255 67.5748 196.072 67.7582Z" fill="#DAE1ED"/>
<path opacity="0.3" d="M180.889 108.657V144.053H155.28C152.902 144.053 151.255 142.403 150.889 140.018L145.768 108.473L180.889 108.657Z" fill="url(#paint4_linear_6927_34759)"/>
<path d="M180.888 108.657H145.584L163.511 136.35C164.791 138.184 166.803 139.285 168.815 139.285H196.254C198.083 139.285 199.364 137.084 198.266 135.617L180.888 108.657Z" fill="#DAE1ED"/>
<path d="M145.584 109.207L126.194 78.7623H26.5L46.6216 109.207H145.584Z" fill="#DAE1ED"/>
<path d="M96.5596 146.071H57.4139C56.4993 146.071 55.7676 145.337 55.7676 144.42C55.7676 143.503 56.4993 142.769 57.4139 142.769H96.5596C97.4743 142.769 98.206 143.503 98.206 144.42C98.023 145.337 97.4743 146.071 96.5596 146.071Z" fill="#DAE1ED"/>
<path d="M96.5596 154.14H57.4139C56.4993 154.14 55.7676 153.407 55.7676 152.49C55.7676 151.573 56.4993 150.839 57.4139 150.839H96.5596C97.4743 150.839 98.206 151.573 98.206 152.49C98.023 153.407 97.4743 154.14 96.5596 154.14Z" fill="#DAE1ED"/>
<path d="M75.5234 162.027H57.4139C56.4993 162.027 55.7676 161.293 55.7676 160.376C55.7676 159.459 56.4993 158.725 57.4139 158.725H75.5234C76.438 158.725 77.1697 159.459 77.1697 160.376C76.9868 161.293 76.2551 162.027 75.5234 162.027Z" fill="#DAE1ED"/>
<path d="M10.2198 37.3136L0.890625 27.9601" stroke="#BBC6D8" stroke-width="1.5" stroke-miterlimit="10" stroke-linecap="round" stroke-linejoin="round"/>
<path d="M34.1816 61.3392L14.9746 42.082" stroke="#BBC6D8" stroke-width="1.5" stroke-miterlimit="10" stroke-linecap="round" stroke-linejoin="round"/>
<path d="M140.459 41.1649L147.959 30.1608" stroke="#BBC6D8" stroke-width="1.5" stroke-miterlimit="10" stroke-linecap="round" stroke-linejoin="round"/>
<path d="M145.584 66.1077L152.901 55.287" stroke="#BBC6D8" stroke-width="1.5" stroke-miterlimit="10" stroke-linecap="round" stroke-linejoin="round"/>
<path d="M150.338 76.1947L157.655 65.374" stroke="#BBC6D8" stroke-width="1.5" stroke-miterlimit="10" stroke-linecap="round" stroke-linejoin="round"/>
<path d="M121.439 69.2254L136.622 46.6671" stroke="#BBC6D8" stroke-width="1.5" stroke-miterlimit="10" stroke-linecap="round" stroke-linejoin="round"/>
<path d="M101.865 14.2049L101.682 1" stroke="#BBC6D8" stroke-width="1.5" stroke-miterlimit="10" stroke-linecap="round" stroke-linejoin="round"/>
<path d="M102.415 48.1343L102.049 20.9908" stroke="#BBC6D8" stroke-width="1.5" stroke-miterlimit="10" stroke-linecap="round" stroke-linejoin="round"/>
<path d="M124.912 38.9641L130.583 12.3709" stroke="#BBC6D8" stroke-width="1.5" stroke-miterlimit="10" stroke-linecap="round" stroke-linejoin="round"/>
<path d="M122.35 51.2521L123.813 43.7327" stroke="#BBC6D8" stroke-width="1.5" stroke-miterlimit="10" stroke-linecap="round" stroke-linejoin="round"/>
<path d="M37.2922 74.544L10.9512 48.1342" stroke="#BBC6D8" stroke-width="1.5" stroke-miterlimit="10" stroke-linecap="round" stroke-linejoin="round"/>
<path d="M101.68 67.5749C102.778 67.5749 103.692 66.6579 103.692 65.5575C103.692 64.457 102.778 63.54 101.68 63.54C100.582 63.54 99.6678 64.457 99.6678 65.5575C99.4849 66.6579 100.4 67.5749 101.68 67.5749Z" fill="#FFC436"/>
<path d="M9.67031 72.8934C11.1337 72.8934 12.2312 71.793 12.2312 70.3258C12.2312 68.8586 11.1337 67.7582 9.67031 67.7582C8.20692 67.7582 7.10938 68.8586 7.10938 70.3258C7.10938 71.793 8.20692 72.8934 9.67031 72.8934Z" fill="#FFC436"/>
<path d="M138.998 70.6926C140.279 70.6926 141.193 69.5922 141.193 68.4918C141.193 67.208 140.279 66.291 138.998 66.291C137.718 66.291 136.803 67.3914 136.803 68.4918C136.62 69.5922 137.718 70.6926 138.998 70.6926Z" fill="#3D8361"/>
<path d="M203.753 58.038C205.034 58.038 206.131 56.9376 206.131 55.6538C206.131 54.3699 205.034 53.2695 203.753 53.2695C202.473 53.2695 201.375 54.3699 201.375 55.6538C201.192 56.9376 202.29 58.038 203.753 58.038Z" fill="#FFC436"/>
<defs>
<linearGradient id="paint0_linear_6927_34759" x1="84.3265" y1="121.899" x2="129.905" y2="121.899" gradientUnits="userSpaceOnUse">
<stop stop-color="#FF66A9"/>
<stop offset="1" stop-color="#F53689"/>
</linearGradient>
<linearGradient id="paint1_linear_6927_34759" x1="131.362" y1="117.771" x2="138.083" y2="117.771" gradientUnits="userSpaceOnUse">
<stop stop-color="#83A6FF"/>
<stop offset="1" stop-color="#5A78FF"/>
</linearGradient>
<linearGradient id="paint2_linear_6927_34759" x1="156.597" y1="129.249" x2="189.36" y2="188.07" gradientUnits="userSpaceOnUse">
<stop offset="0.00289017" stop-color="#606673" stop-opacity="0"/>
<stop offset="1" stop-color="#373C47"/>
</linearGradient>
<linearGradient id="paint3_linear_6927_34759" x1="156.962" y1="75.2201" x2="132.308" y2="106.089" gradientUnits="userSpaceOnUse">
<stop offset="0.00289017" stop-color="#606673" stop-opacity="0"/>
<stop offset="1" stop-color="#373C47"/>
</linearGradient>
<linearGradient id="paint4_linear_6927_34759" x1="163.336" y1="144.784" x2="163.336" y2="112.374" gradientUnits="userSpaceOnUse">
<stop offset="0.00289017" stop-color="#606673" stop-opacity="0"/>
<stop offset="1" stop-color="#373C47"/>
</linearGradient>
</defs>
</svg>
