<svg width="205" height="198" viewBox="0 0 205 198" fill="none" xmlns="http://www.w3.org/2000/svg">
<g clip-path="url(#clip0_6874_34661)">
<path d="M27.6928 9.89766C30.5522 13.0551 32.041 17.1785 34.7823 20.3831C37.6374 23.5725 40.9596 26.3133 44.6365 28.5123C50.957 32.1433 57.8678 34.6396 65.0541 35.8875C67.347 36.6106 69.7866 36.7403 72.1436 36.2645C74.1759 35.5812 73.9632 33.5312 72.7343 32.141C70.5784 30.1614 68.0475 28.6313 65.2904 27.6405C61.5014 25.9666 57.6287 24.488 53.6874 23.2107C44.4948 20.2182 34.5932 17.1314 28.4017 9.07294C27.9291 8.46031 26.8421 9.28498 27.3147 9.92117C31.8283 15.9768 38.6341 19.3463 45.5818 21.9382C52.8157 24.2013 59.9164 26.8682 66.8501 29.9261C67.7717 30.3974 73.2779 33.0364 72.0018 34.6387C71.5528 35.1806 70.253 35.0863 69.6386 35.0628C68.3516 35.0118 67.0711 34.8541 65.8103 34.5915C59.2152 33.5145 52.8339 31.3988 46.9051 28.3238C42.8045 26.0897 39.0872 23.2183 35.8929 19.8176C32.9154 16.5895 31.2848 12.3953 27.9527 9.42637C27.9248 9.40007 27.8919 9.37954 27.856 9.3659C27.8201 9.35226 27.7819 9.34575 27.7435 9.34684C27.7051 9.34794 27.6673 9.35656 27.6322 9.37223C27.5972 9.38789 27.5656 9.41032 27.5392 9.43817C27.5128 9.46602 27.4922 9.49873 27.4785 9.53452C27.4648 9.57032 27.4584 9.60848 27.4594 9.64677C27.4605 9.68506 27.4692 9.72277 27.4849 9.75773C27.5006 9.79268 27.523 9.82419 27.551 9.85049L27.6928 9.89766Z" fill="#E3E3E3"/>
<path d="M28.1663 9.42639C24.9761 4.36037 19.3991 2.71095 14.1766 0.496041C11.2935 -0.729227 8.43412 -2.02519 5.66925 -3.48609C2.72863 -5.09504 -0.00845899 -7.04893 -2.48363 -9.30612C-2.90899 -9.68312 -3.71243 -9.18831 -3.33433 -8.64636C0.21039 -3.72172 6.56725 -1.29471 11.9552 1.03801C17.3432 3.37074 23.9127 4.73741 27.6229 9.7563C27.8592 10.0862 28.4027 9.75627 28.1663 9.42639Z" fill="#E3E3E3"/>
<path d="M42.3457 12.6545C37.974 11.5622 33.8083 9.77186 30.0101 7.35281C28.2195 6.21259 26.3566 5.18941 24.4331 4.28967C23.5115 3.86554 22.5662 3.53561 21.621 3.20573C20.7951 2.82102 19.8826 2.65859 18.9742 2.73451C18.9074 2.75253 18.8464 2.78743 18.7971 2.8359C18.7477 2.88437 18.7118 2.94476 18.6928 3.01114C18.6738 3.07752 18.6723 3.14766 18.6884 3.21479C18.7046 3.28191 18.738 3.34376 18.7852 3.39427C19.5629 3.85565 20.4206 4.16733 21.3137 4.31318C22.3535 4.6195 23.3933 4.99653 24.4095 5.37354C26.4907 6.18728 28.4855 7.20552 30.3645 8.41317C33.9585 10.6832 37.979 12.1985 42.1803 12.8665C42.3221 12.8665 42.3929 12.678 42.1803 12.6545L42.3457 12.6545Z" fill="#E3E3E3"/>
<path d="M38.5168 12.1125C53.5936 17.532 69.663 26.6037 86.1578 22.5509C88.5209 21.9382 96.4611 20.1946 95.6103 16.3774C94.9014 13.5027 91.1676 13.432 88.8517 13.5498C83.8182 13.809 78.7375 13.432 73.704 13.3142C68.0089 13.3142 62.3137 13.3142 56.6185 13.1728C50.6303 12.9695 44.6581 12.4346 38.7295 11.5706C38.1859 11.5706 37.926 12.2774 38.4931 12.4424C47.4022 14.9636 57.0674 14.6573 66.2601 14.7987C70.9864 14.7987 75.9017 14.9401 80.7225 15.0579C82.873 15.0579 85.0234 15.1992 87.1503 15.1757C88.8951 14.9388 90.667 14.9865 92.3964 15.317C93.1763 15.5762 94.4051 16.3067 94.1688 17.2963C93.9325 18.286 93.0345 18.5687 92.4437 18.8986C90.4083 19.986 88.2281 20.7794 85.9687 21.2549C80.0486 22.6566 73.8816 22.6566 67.9615 21.2549C57.8945 19.0871 48.7019 14.186 38.6349 11.9947L38.6349 12.2067L38.5168 12.1125Z" fill="#E3E3E3"/>
<path d="M65.1498 2.87584C58.0943 3.72352 50.9852 4.04645 43.8815 3.84193C41.1167 3.70055 38.3754 3.46492 35.6342 3.25285C32.3022 2.99366 28.9701 2.87583 25.6617 2.56951C23.2986 2.33388 21.0772 1.95692 18.8086 1.50923C16.9133 0.9578 14.9774 0.555968 13.0189 0.307497C12.4754 0.307497 12.3809 0.990806 12.759 1.25C14.3007 2.0942 15.9958 2.62293 17.7452 2.80516C19.683 3.20572 21.6208 3.48849 23.5586 3.70056C27.1033 4.10112 30.648 4.054 34.24 4.28963C39.9654 4.83136 45.7174 5.04375 51.4673 4.9258C56.0949 4.67284 60.7032 4.14571 65.268 3.34712C65.5516 3.34712 65.4807 2.82871 65.268 2.87584L65.1498 2.87584Z" fill="#E3E3E3"/>
<path d="M61.1072 3.86555C65.6445 4.26612 70.1817 4.38392 74.6953 4.87874C79.2089 5.37356 83.2971 6.12757 87.598 6.64595C91.8808 7.25833 96.2238 7.32957 100.524 6.85801C103.421 6.74872 106.269 6.0847 108.914 4.90225C110.402 4.00686 111.277 2.19256 109.67 0.96729C108.019 -0.029847 106.14 -0.589525 104.211 -0.658553C100.17 -1.2005 96.1054 -1.64821 92.0408 -1.93097C87.6187 -2.35488 83.1697 -2.42579 78.7363 -2.14302C75.2578 -1.72832 71.8349 -0.938258 68.5275 0.213263C65.29 1.25003 62.0052 2.2397 58.8859 3.55922C58.4605 3.74772 58.7677 4.43099 59.2167 4.31318C64.6283 2.87584 69.8981 1.01441 75.4042 -0.140166C82.7063 -1.62463 90.5284 -0.682118 97.8777 0.00120433C100.659 0.178441 103.428 0.508857 106.172 0.990876C107.07 1.12036 107.936 1.41604 108.725 1.86269C110.095 2.82877 108.488 3.8891 107.472 4.21898C106.268 4.62929 105.025 4.91354 103.762 5.06721C102.131 5.3264 100.548 5.65627 98.9175 5.79765C95.0468 6.04923 91.1606 5.92295 87.3145 5.42064C78.6417 4.38387 69.8981 2.59313 61.1072 3.25289C61.0257 3.25289 60.9476 3.28519 60.89 3.34263C60.8324 3.40008 60.8 3.47798 60.8 3.55922C60.8 3.64046 60.8324 3.71836 60.89 3.77581C60.9476 3.83325 61.0257 3.86555 61.1072 3.86555Z" fill="#E3E3E3"/>
<path d="M47 109.521C45.7712 105.304 43.408 101.534 42.1319 97.3394C40.9555 92.7727 40.5404 88.0442 40.9031 83.3431C41.1512 78.7438 41.1512 74.1346 40.9031 69.5353C40.5979 65.0753 39.9341 60.647 38.9181 56.293C37.7885 51.3116 36.1575 46.4565 34.0499 41.8017C33.6955 41.0242 32.3485 41.5897 32.6557 42.3673C36.2211 50.8534 38.4683 59.8319 39.3198 68.9933C39.5797 73.5923 39.5797 78.2022 39.3198 82.8012C39.0376 87.1755 39.4119 91.5673 40.4305 95.8314C41.8011 100.685 44.8731 104.832 46.4565 109.616C46.4565 109.875 46.9291 109.781 46.8582 109.616L47 109.521Z" fill="#E3E3E3"/>
<path d="M89.7969 57.2355C79.9939 57.2292 70.2433 55.8086 60.8484 53.0177C56.1337 51.6163 51.5353 49.8516 47.0949 47.7397C42.6758 45.6426 38.6111 43.0271 34.3575 40.6708C33.4831 40.176 32.3961 41.4483 33.2468 42.1081C37.2489 45.0341 41.5888 47.4707 46.1732 49.3655C50.72 51.3979 55.4023 53.1142 60.1867 54.5022C69.7742 57.391 79.7991 58.5637 89.7969 57.9659C89.8725 57.946 89.9393 57.9016 89.987 57.8398C90.0347 57.778 90.0605 57.7022 90.0605 57.6242C90.0605 57.5462 90.0347 57.4705 89.987 57.4087C89.9393 57.3469 89.8725 57.3026 89.7969 57.2826L89.7969 57.2355Z" fill="#E3E3E3"/>
<path d="M141.148 122.528C114.775 110.731 90.3909 94.9381 68.8598 75.7088C47.3085 56.3729 28.1496 34.5405 11.7899 10.6752C7.0636 3.79488 2.33731 -3.2033 -1.6564 -10.5313C-3.7135 -14.2172 -5.57503 -18.0082 -7.2334 -21.8887C-8.79308 -25.6352 -9.95103 -29.4759 -11.2508 -33.3167C-11.558 -34.1885 -13.1176 -34.1178 -12.9995 -33.081C-12.196 -26.0122 -8.84039 -19.1554 -5.60289 -12.9112C-2.04355 -6.11095 1.90141 0.481635 6.21283 6.83448C14.3012 18.9137 23.0503 30.5399 32.4202 41.6604C51.1368 64.1937 72.9886 83.9429 97.3121 100.308C110.975 109.397 125.538 117.063 140.77 123.188C141.148 123.329 141.432 122.693 141.054 122.528L141.148 122.528Z" fill="#E3E3E3"/>
<path d="M43.8328 102.358C45.053 106.195 46.5212 109.95 48.2282 113.598C49.8115 117.25 51.513 120.879 53.4508 124.366C56.5465 129.974 59.9967 136.76 65.8337 139.988C66.8262 140.53 68.1968 141.049 68.7876 139.682C69.0752 138.026 68.8698 136.322 68.1968 134.781C66.4723 129.938 64.0867 125.355 61.1074 121.161C56.6204 113.912 50.9587 107.454 44.3527 102.052C43.5492 101.416 42.4149 102.547 43.2184 103.159C48.6338 107.377 53.4094 112.353 57.3972 117.933C59.4295 120.761 61.2965 123.706 63.1397 126.675C64.2544 128.396 65.234 130.2 66.07 132.071C66.7883 133.705 67.3578 135.401 67.7715 137.137C68.0013 137.803 68.0583 138.517 67.9369 139.211C67.5824 140.082 66.5662 139.211 65.9754 138.951C60.6347 135.818 57.4445 129.526 54.4669 124.413C52.5055 120.949 50.7804 117.344 49.1499 113.692C47.5193 110.04 46.1487 105.893 44.2346 102.193C44.2346 102.005 43.8328 102.193 43.88 102.358L43.8328 102.358Z" fill="#E3E3E3"/>
<path d="M38.3988 93.5693C34.9959 101.486 35.6812 110.605 37.0518 118.923C38.6115 128.348 41.5417 137.773 41.9199 147.458C41.9199 150.191 42.2271 154.903 38.4697 155.351C34.7123 155.799 32.9872 150.639 32.0183 147.952C28.828 138.857 29.8206 129.102 31.2385 119.677C32.0166 115.27 33.2113 110.947 34.8068 106.765C36.6054 102.605 38.0751 98.3111 39.2022 93.9228C39.2022 93.3337 38.4932 92.9096 38.186 93.4986C36.3654 97.3577 34.8254 101.342 33.578 105.421C32.0208 109.505 30.7882 113.704 29.8915 117.98C29.0271 122.767 28.5137 127.61 28.3554 132.472C28.0911 137.52 28.715 142.576 30.1987 147.41C31.2148 150.615 32.5618 154.951 35.9174 156.459C36.9905 156.945 38.1997 157.043 39.3378 156.738C40.476 156.433 41.4723 155.743 42.1562 154.786C42.9944 153.546 43.4466 152.087 43.4559 150.591C43.5146 147.961 43.3724 145.33 43.0305 142.722C42.3773 137.713 41.4623 132.743 40.2893 127.83C38.9328 122.224 37.9616 116.532 37.3826 110.794C36.9253 105.098 37.461 99.3658 38.9659 93.8521C38.9659 93.5222 38.5406 93.2866 38.3988 93.6165L38.3988 93.5693Z" fill="#E3E3E3"/>
<path d="M37.1458 99.1538C39.3695 95.4487 40.5606 91.2188 40.596 86.9011C40.8323 84.5448 40.9977 82.0707 41.0686 79.6437C41.0686 78.442 41.0686 77.2875 41.0686 76.0151C41.1886 74.8332 41.1168 73.6397 40.8559 72.4807C40.8167 72.3356 40.7306 72.2075 40.611 72.1161C40.4914 72.0247 40.3449 71.9752 40.1942 71.9752C40.0435 71.9752 39.897 72.0247 39.7774 72.1161C39.6578 72.2075 39.5718 72.3356 39.5325 72.4807C39.3115 73.5578 39.2557 74.6621 39.3671 75.7559L39.3671 79.3846C39.3671 81.7409 39.2253 83.885 39.0835 86.1235C38.9417 88.362 38.8 90.4591 38.4455 92.6033C37.9586 94.7352 37.2538 96.8117 36.3423 98.8003C36.1296 99.2952 36.8859 99.5072 37.1458 99.1538Z" fill="#E3E3E3"/>
<path d="M28.189 66.7783C23.1082 73.7058 20.5324 82.6832 18.8782 90.9773C17.3207 99.6695 16.4436 108.469 16.255 117.297C16.255 120.007 15.3335 124.107 12.6159 125.45C11.8241 125.705 10.9699 125.69 10.1872 125.409C9.40458 125.127 8.73769 124.595 8.29126 123.895C7.1426 122.247 6.56961 120.268 6.66068 118.263C6.44737 114.071 6.68508 109.869 7.36967 105.728C8.26386 101.028 9.64175 96.4322 11.4815 92.0141C13.201 87.6349 15.3793 83.449 17.9802 79.5258C20.6958 75.574 24.0125 72.0681 27.8108 69.1346C28.4253 68.6633 27.6454 67.6737 27.0074 68.0743C19.3981 72.7869 14.4354 81.1753 10.9616 89.2809C8.93248 93.7572 7.34945 98.4214 6.23534 103.206C5.32645 107.775 4.92229 112.429 5.03011 117.085C5.03011 120.714 5.6209 124.625 9.02383 126.51C9.59972 126.85 10.2414 127.063 10.9062 127.137C11.5711 127.211 12.2441 127.143 12.8807 126.938C13.5174 126.733 14.1032 126.396 14.5993 125.948C15.0954 125.501 15.4906 124.953 15.7588 124.342C17.8147 121.114 17.7202 117.274 17.8856 113.692C18.1219 108.767 18.4528 103.843 19.0436 98.9181C19.6802 93.4395 20.7468 88.0191 22.2338 82.7068C23.9176 77.3116 26.0601 72.0695 28.638 67.0375C28.6581 67.005 28.6717 66.9689 28.6778 66.9312C28.684 66.8935 28.6827 66.8549 28.6739 66.8177C28.6651 66.7805 28.6491 66.7454 28.6267 66.7144C28.6043 66.6834 28.576 66.657 28.5434 66.6369C28.5108 66.6168 28.4746 66.6033 28.4368 66.5972C28.3989 66.591 28.3603 66.5924 28.323 66.6011C28.2856 66.6099 28.2504 66.6258 28.2193 66.6482C28.1882 66.6705 28.1618 66.6987 28.1416 66.7312L28.189 66.7783Z" fill="#E3E3E3"/>
<path d="M27.0788 69.5824C29.1459 67.4627 30.684 64.8878 31.5687 62.0658C32.6868 59.2091 33.4026 56.2117 33.6956 53.1591C33.9681 50.1718 33.8489 47.1618 33.3411 44.2052C33.079 41.1548 32.0287 38.2242 30.2926 35.699C29.82 35.1806 29.1347 35.699 29.2293 36.3116C29.5365 37.6509 29.9635 38.9599 30.5053 40.2231C31.8559 44.394 32.3463 48.7943 31.9469 53.1591C31.7086 55.985 31.1212 58.7708 30.1982 61.4532C29.7098 62.9226 29.1175 64.3557 28.4258 65.7416C27.7387 66.8846 27.1155 68.0646 26.5589 69.2761C26.4171 69.6059 26.8661 69.7709 27.0788 69.5824Z" fill="#E3E3E3"/>
<path d="M88.1423 57.7302C94.1919 59.5917 100.407 60.8405 106.575 62.2778C111.971 63.6628 117.46 64.6629 122.999 65.2704C126.038 65.5574 129.1 65.4783 132.12 65.0347C134.342 64.6577 137.319 63.9744 138.43 61.7595C139.541 59.5445 137.886 56.6934 136.209 55.209C134.28 53.7145 131.973 52.7844 129.545 52.5229C122.456 51.7185 115.287 51.9806 108.276 53.3004C101.47 54.2665 94.7827 55.6567 88.0478 56.9762C87.9301 57.0127 87.8292 57.0897 87.7632 57.1935C87.6972 57.2973 87.6703 57.4211 87.6873 57.5428C87.7043 57.6646 87.7642 57.7763 87.8562 57.8581C87.9482 57.9399 88.0663 57.9864 88.1895 57.9894C93.4121 57.6359 98.5638 56.3871 103.739 55.6331C110.555 54.3311 117.477 53.6606 124.417 53.6303C128.765 53.6303 136.374 54.2193 137.343 59.7802C137.792 62.325 134.649 63.244 132.617 63.6445C129.729 64.1972 126.781 64.3636 123.849 64.1393C118.414 63.6325 113.03 62.6709 107.756 61.2647C101.305 59.8273 94.8772 58.2015 88.3313 57.1883C88.0005 57.1883 87.8351 57.6124 88.1895 57.7066L88.1423 57.7302Z" fill="#E3E3E3"/>
<path d="M85.1409 63.0083C82.1691 60.9675 79.0029 59.2233 75.6884 57.8009C72.5981 56.3078 69.2865 55.3212 65.8813 54.8792C65.5268 54.8792 65.4795 55.3739 65.8813 55.4446C72.571 57.196 78.9484 59.97 84.7864 63.6681C85.1881 63.9508 85.5662 63.291 85.1645 63.0083L85.1409 63.0083Z" fill="#E3E3E3"/>
<path d="M81.5265 61.4767C84.8951 64.5489 88.0978 67.7973 91.1209 71.2082C94.3039 74.608 98.0042 77.4866 102.086 79.7379C106.372 82.0027 110.828 83.9329 115.414 85.5109C119.551 87.3617 124.02 88.3633 128.553 88.4562C130.916 88.4562 135.099 87.9143 135.997 85.2281C136.611 83.3902 134.697 82.0707 133.35 81.246C131.103 80.0061 128.726 79.0183 126.261 78.3006C123.307 77.3345 120.329 76.4155 117.352 75.4495C111.822 73.7058 106.292 71.9622 100.81 70.0064C95.26 67.941 89.8249 65.5814 84.5277 62.9376C84.4165 62.8902 84.2917 62.8849 84.1768 62.9228C84.0619 62.9606 83.9649 63.039 83.904 63.1432C83.843 63.2474 83.8223 63.3703 83.8458 63.4886C83.8692 63.607 83.9353 63.7127 84.0315 63.7859C87.8358 66.2342 91.9118 68.2347 96.178 69.7473C100.503 71.4203 104.922 72.8576 109.341 74.2713C115.65 76.2977 122.102 78.065 128.246 80.2563C130.526 80.8021 132.631 81.9123 134.366 83.4844C136.517 86.0292 130.798 87.1131 129.262 87.2545C125.027 87.3787 120.816 86.5743 116.926 84.8982C112.486 83.3984 108.144 81.6198 103.929 79.573C99.3913 77.2602 95.2769 74.2013 91.7589 70.5248C88.6632 67.2496 85.7565 63.456 81.7156 61.0997C81.5029 60.9819 81.2429 61.2882 81.432 61.4531L81.5265 61.4767Z" fill="#E3E3E3"/>
<path d="M80.581 51.3919C74.7913 51.274 69.0016 51.2505 63.2355 50.6614C57.3624 49.9465 51.5383 48.8764 45.7955 47.4569C45.6733 47.4225 45.5424 47.438 45.4316 47.4998C45.3208 47.5617 45.2392 47.6649 45.2047 47.7867C45.1702 47.9086 45.1858 48.0391 45.2478 48.1496C45.3099 48.2601 45.4134 48.3414 45.5356 48.3758C51.1219 50.1072 56.8703 51.2677 62.692 51.8396C68.6239 52.6444 74.6333 52.7077 80.581 52.028C80.6509 52.0089 80.7126 51.9674 80.7565 51.91C80.8004 51.8525 80.8242 51.7822 80.8242 51.71C80.8242 51.6377 80.8004 51.5674 80.7565 51.5099C80.7126 51.4525 80.6509 51.411 80.581 51.3919Z" fill="#E3E3E3"/>
<path d="M76.0188 52.4286C80.815 52.0477 85.6323 52.0084 90.434 52.3108C95.1211 52.4416 99.8106 52.1577 104.447 51.4625C109.093 50.7737 113.665 49.6615 118.106 48.1401C121.353 47.3457 124.422 45.9553 127.157 44.0402C128.575 42.7914 129.402 40.5529 127.37 39.469C125.343 38.7027 123.144 38.5071 121.013 38.9035C113.819 39.6139 106.762 41.3353 100.052 44.0166C96.6019 45.3833 93.1517 46.8206 89.6306 48.0224C85.1364 49.509 80.56 50.7363 75.9243 51.6982C75.8303 51.6982 75.7402 51.7354 75.6737 51.8017C75.6072 51.868 75.5698 51.9578 75.5698 52.0516C75.5698 52.1453 75.6072 52.2353 75.6737 52.3015C75.7402 52.3678 75.8303 52.405 75.9243 52.405C82.9476 51.5278 89.8126 49.6718 96.3182 46.8913C102.226 44.5023 108.33 42.626 114.562 41.2833C117.392 40.6293 120.282 40.2661 123.187 40.1995C124.7 40.1995 128.457 40.3408 126.377 42.5557C125.262 43.6107 123.932 44.4142 122.478 44.912C120.871 45.5482 119.241 46.1608 117.61 46.7264C108.947 49.762 99.8033 51.207 90.6231 50.9913C85.68 50.6918 80.719 50.9367 75.8298 51.7217C75.4281 51.7217 75.499 52.5228 75.8298 52.4757L76.0188 52.4286Z" fill="#E3E3E3"/>
<path d="M74.2481 98.1641C73.4049 92.5369 71.9875 87.0102 70.0181 81.6701C69.0945 79.4275 67.9382 77.2873 66.5679 75.2846C65.38 73.1889 63.7018 71.4105 61.6762 70.1007C61.2035 69.8887 60.5419 70.3599 60.8964 70.8783C61.6231 71.7223 62.4131 72.51 63.2595 73.2346C64.1574 74.1966 64.9865 75.2202 65.7408 76.2978C67.072 78.2581 68.2115 80.3411 69.1437 82.5184C71.2466 87.6336 72.8299 92.9461 73.87 98.3762C73.87 98.6825 74.3899 98.5411 74.3427 98.2348L74.2481 98.1641Z" fill="#E3E3E3"/>
<path d="M72.758 95.2424C75.2643 103.078 78.7666 110.561 83.1795 117.509C87.0752 123.951 92.0742 129.661 97.9492 134.38C99.7924 135.818 105.795 139.093 103.243 142.25C100.69 145.408 95.1134 142.91 92.4903 141.355C85.6844 137.326 81.7144 129.291 79.044 122.151C77.482 117.778 76.2111 113.307 75.2394 108.768C73.9706 103.742 73.4608 98.5563 73.7269 93.381C73.7269 92.4384 72.3091 92.4384 72.2618 93.381C71.9936 98.1278 72.4074 102.889 73.4906 107.519C74.3968 112.116 75.6288 116.644 77.1771 121.067C79.8711 128.537 83.8412 136.784 90.5525 141.426C93.4575 143.635 97.0692 144.715 100.714 144.465C103.479 144.041 105.44 141.803 104.259 139.046C103.656 137.802 102.755 136.726 101.636 135.912C99.9106 134.616 98.1618 133.414 96.5313 132C93.2097 129.09 90.2075 125.835 87.575 122.293C84.5694 118.231 81.9207 113.919 79.6584 109.404C77.2953 104.691 75.3339 99.8607 73.1361 95.101C73.1361 94.8889 72.6871 95.101 72.758 95.266L72.758 95.2424Z" fill="#E3E3E3"/>
<path d="M104.684 119.701C102.77 117.227 100.856 114.729 99.2016 112.09C97.6022 109.273 96.2122 106.344 95.0425 103.324C93.8864 100.531 92.4199 97.8752 90.6707 95.4073C89.1265 93.0247 87.1368 90.9607 84.81 89.3281C84.3374 89.0454 83.9357 89.658 84.2429 90.0586C85.1645 91.1189 86.3225 91.9671 87.2677 93.0039C88.3742 94.1769 89.3931 95.4291 90.3162 96.7504C91.9899 99.3071 93.4067 102.022 94.5462 104.856C95.6782 107.687 97.054 110.415 98.6581 113.009C100.339 115.475 102.169 117.836 104.141 120.078C104.4 120.36 104.92 120.078 104.684 119.677L104.684 119.701Z" fill="#E3E3E3"/>
<path d="M100.737 116.001C108.819 127.783 118.485 138.787 132.664 142.957C134.885 143.617 138.548 144.206 140.32 142.203C141.407 140.954 140.32 139.493 139.351 138.574C137.729 137.175 136.016 135.884 134.223 134.71C130.888 132.433 127.416 130.364 123.825 128.513C120.068 126.487 116.216 124.625 112.482 122.552C108.749 120.478 105.015 117.839 101.281 115.365C100.714 114.988 100.147 115.813 100.596 116.26C102.971 118.558 105.66 120.51 108.583 122.057C111.561 123.777 114.633 125.309 117.728 126.769C123.775 129.665 129.631 132.939 135.263 136.572C136.99 137.417 138.477 138.681 139.588 140.247C140.131 141.378 139.091 141.85 138.099 142.109C136.395 142.483 134.618 142.344 132.994 141.708C126.591 139.636 120.686 136.266 115.649 131.812C110.501 126.715 105.672 121.309 101.186 115.624C100.997 115.365 100.572 115.624 100.737 115.954L100.737 116.001Z" fill="#E3E3E3"/>
<path d="M99.6278 89.1867C96.7798 88.0457 94.0228 86.6908 91.3804 85.1339C88.781 83.6023 86.2524 81.9293 83.5348 80.6098C80.8552 79.3973 78.1097 78.3353 75.3111 77.4288C73.846 76.934 72.4044 76.4156 70.9629 75.8972C69.5362 75.1915 67.9889 74.7599 66.402 74.6249C66.3054 74.6291 66.2118 74.66 66.1319 74.7143C66.0519 74.7686 65.9888 74.8441 65.9495 74.9322C65.9102 75.0204 65.8964 75.1177 65.9095 75.2132C65.9227 75.3088 65.9623 75.3988 66.024 75.4731C67.1452 76.2363 68.4056 76.7727 69.734 77.0519L74.4603 78.5834C77.6271 79.4971 80.7231 80.6389 83.7239 82C86.347 83.296 88.8283 84.8747 91.4278 86.2414C94.0469 87.5945 96.7738 88.7294 99.5806 89.6344C99.8641 89.6344 99.9823 89.281 99.6988 89.1867L99.6278 89.1867Z" fill="#E3E3E3"/>
<path d="M94.5458 87.6079C96.4127 87.6079 98.0669 89.5872 99.5321 90.624C100.997 91.6608 102.651 92.7918 104.258 93.7814C107.359 95.669 110.589 97.3382 113.924 98.7768C120.484 101.878 127.455 104.028 134.625 105.162C137.023 105.635 139.51 105.321 141.714 104.267C143.132 103.442 144.077 101.911 143.156 100.45C142.478 99.5454 141.524 98.8841 140.438 98.5647C138.581 97.8988 136.678 97.3711 134.743 96.986C131.009 96.1849 127.228 95.7607 123.494 95.0538C119.264 94.2762 115.105 93.0274 110.97 91.9435C106.834 90.8596 102.202 89.3045 97.7833 88.2677C97.287 88.2677 96.8854 88.9275 97.4053 89.1395C100.632 90.4082 103.949 91.4322 107.33 92.2027C110.828 93.1217 114.42 93.9699 117.846 94.8889C124.369 96.5618 131.175 96.8917 137.673 98.6118C139.233 99.0124 141.478 99.413 142.399 100.968C143.321 102.523 141.903 103.183 140.816 103.701C138.01 104.64 134.983 104.697 132.143 103.866C128.766 103.152 125.448 102.183 122.218 100.968C119.052 99.8135 115.861 98.6118 112.766 97.2687C109.451 95.7815 106.245 94.0651 103.171 92.1321C101.635 91.166 100.17 90.1292 98.6813 89.0688C97.5795 87.987 96.0921 87.3853 94.5458 87.3959C94.5082 87.3959 94.4721 87.4108 94.4456 87.4373C94.419 87.4638 94.404 87.4998 94.404 87.5373C94.404 87.5748 94.419 87.6107 94.4456 87.6372C94.4721 87.6637 94.5082 87.6786 94.5458 87.6786L94.5458 87.6079Z" fill="#E3E3E3"/>
<path d="M134.223 120.572C139.564 124.225 145.023 127.641 150.34 131.364C155.311 135.042 160.649 138.2 166.268 140.789C171.735 143.09 177.478 144.674 183.353 145.502C186.213 145.903 189.096 146.209 191.979 146.35C193.916 146.521 195.869 146.345 197.745 145.832C198.214 145.739 198.653 145.533 199.025 145.232C199.396 144.931 199.687 144.544 199.874 144.105C200.06 143.665 200.136 143.187 200.094 142.712C200.053 142.237 199.895 141.779 199.635 141.378C197.947 138.931 195.583 137.024 192.829 135.888C189.462 134.398 185.933 133.299 182.313 132.613C177.753 131.529 173.168 130.563 168.607 129.526C162.77 128.207 156.957 126.817 151.191 125.191C145.425 123.565 140.084 121.633 134.649 119.653C134.129 119.465 133.798 120.29 134.271 120.549C142.731 124.908 152.42 127.099 161.612 129.291C170.025 131.27 178.509 132.849 186.874 135.016C190.172 135.773 193.278 137.201 195.996 139.211C197.083 140.059 200.226 142.674 198.359 144.112C196.91 144.876 195.261 145.181 193.633 144.984C190.983 144.937 188.339 144.724 185.716 144.347C179.964 143.63 174.316 142.238 168.891 140.2C162.919 137.752 157.269 134.587 152.065 130.775C146.517 126.8 140.741 123.149 134.767 119.842C134.663 119.802 134.547 119.801 134.442 119.837C134.337 119.874 134.248 119.947 134.191 120.043C134.134 120.139 134.114 120.252 134.132 120.362C134.151 120.472 134.209 120.571 134.294 120.643L134.223 120.572Z" fill="#E3E3E3"/>
<path d="M160.361 160.064C154.406 151.77 150.412 142.297 144.764 133.815C142.64 130.483 140.099 127.435 137.202 124.743C134.437 122.387 131.507 120.031 128.553 117.839C125.612 115.472 122.446 113.396 119.1 111.642C118.967 111.582 118.816 111.573 118.677 111.618C118.537 111.662 118.42 111.757 118.346 111.883C118.273 112.009 118.249 112.158 118.279 112.3C118.309 112.443 118.391 112.57 118.509 112.655C124.181 116.685 129.971 120.549 135.288 125.026C142.023 130.704 146.394 138.574 150.743 146.115C153.435 151.069 156.443 155.846 159.746 160.417C160.006 160.771 160.621 160.417 160.337 160.064L160.361 160.064Z" fill="#E3E3E3"/>
<path d="M154.311 151.982C156.167 156.689 158.298 161.283 160.692 165.742C162.762 170.135 165.188 174.351 167.947 178.349C171.892 184.038 177.385 188.485 183.78 191.167C185.717 191.968 194.178 195.597 194.201 191.002C194.01 189.389 193.267 187.891 192.098 186.76C190.921 185.297 189.667 183.897 188.341 182.566C185.359 179.63 182.203 176.876 178.888 174.319C171.321 168.654 164.056 162.598 157.123 156.176C156.745 155.799 156.273 156.341 156.556 156.718C161.07 162.491 167.498 166.826 173.287 171.233C179.572 175.629 185.413 180.624 190.727 186.148C191.885 187.467 193.729 189.352 193.445 191.261C193.303 192.298 192.405 192.533 191.484 192.533C189.067 192.294 186.722 191.582 184.583 190.436C178.666 187.854 173.514 183.797 169.624 178.655C166.715 174.622 164.168 170.34 162.015 165.86C159.898 161.029 157.532 156.31 154.926 151.723C154.713 151.369 154.075 151.581 154.24 152.005L154.311 151.982Z" fill="#E3E3E3"/>
<path d="M153.79 164.564C151.002 158.721 150.198 152.359 148.875 146.091C148.297 143.258 147.466 140.483 146.394 137.797C145.87 136.544 145.254 135.331 144.55 134.168C143.966 132.993 143.117 131.969 142.069 131.176C141.809 131.034 141.407 131.294 141.526 131.6C142.113 132.797 142.818 133.934 143.629 134.993C144.359 136.245 145.006 137.544 145.567 138.881C146.685 141.692 147.594 144.583 148.284 147.528C149.39 153.432 151.133 159.199 153.483 164.729C153.483 164.941 153.885 164.729 153.79 164.564Z" fill="#E3E3E3"/>
<path d="M152.278 162.232C153.79 168.617 156.295 174.602 158.351 180.823C159.832 186.284 162.696 191.275 166.669 195.314C167.897 196.718 169.561 197.672 171.395 198.024C172.25 198.017 173.067 197.674 173.67 197.07C174.272 196.465 174.609 195.648 174.609 194.795C174.487 193.547 174.092 192.341 173.451 191.261C172.798 189.869 172.064 188.515 171.254 187.208C169.574 184.588 167.76 182.055 165.818 179.621C163.455 176.652 161.092 173.754 158.729 170.738C156.366 167.722 154.783 164.871 152.868 161.878C152.538 161.383 151.64 161.69 151.852 162.302C153.672 167.298 157.595 171.61 160.903 175.686C164.735 180.036 168.19 184.703 171.23 189.635C172.104 191.19 174.893 195.832 171.915 196.704C170.19 197.199 168.158 195.149 167.189 194.089C163.557 190.242 160.892 185.59 159.414 180.516C157.24 174.343 154.688 168.358 152.774 162.09C152.755 162.021 152.71 161.963 152.648 161.928C152.586 161.892 152.512 161.883 152.443 161.902C152.374 161.92 152.315 161.966 152.28 162.028C152.245 162.089 152.235 162.163 152.254 162.232L152.278 162.232Z" fill="#E3E3E3"/>
<path d="M141.526 111.194C131.936 111.81 122.31 110.863 113.026 108.39C112.483 108.249 112.105 109.074 112.625 109.333C116.522 111.059 120.702 112.065 124.96 112.302C130.472 112.752 136.016 112.626 141.502 111.925C141.927 111.925 141.951 111.242 141.502 111.265L141.526 111.194Z" fill="#E3E3E3"/>
<path d="M142.045 111.548C149.447 111.111 156.7 109.297 163.432 106.199C170.521 102.995 177.138 99.1303 184.913 97.7872C187.276 97.3866 192.002 96.6797 193.846 98.824C195.689 100.968 191.482 103.23 189.97 103.984C183.499 107.193 176.519 109.258 169.34 110.087C160.279 111.1 151.154 111.407 142.045 111.006C141.596 111.006 141.62 111.619 142.045 111.666C151.14 112.428 160.289 112.222 169.34 111.053C176.727 110.351 183.929 108.34 190.608 105.115C192.546 104.173 195.334 102.759 195.665 100.403C195.996 98.0464 193.538 96.6797 191.506 96.2791C187.992 95.7932 184.412 96.1074 181.037 97.1981C177.029 98.3775 173.149 99.9563 169.458 101.911C165.287 104.171 160.959 106.132 156.508 107.778C151.805 109.39 146.952 110.527 142.022 111.171C141.762 111.171 141.738 111.619 142.022 111.595L142.045 111.548Z" fill="#E3E3E3"/>
<path d="M151.948 111.995C154.312 112.797 156.675 113.386 159.18 114.21C161.685 115.035 164.142 116.048 166.6 117.109C171.043 118.994 175.438 121.02 180.046 122.504C184.754 124.15 189.739 124.863 194.721 124.602C197.834 124.695 200.918 123.989 203.678 122.552C205.19 121.444 205.686 119.748 203.961 118.664C201.806 117.604 199.46 116.987 197.061 116.849C193.02 116.307 188.932 115.883 184.891 115.365C180.424 114.799 175.958 114.21 171.468 113.668C165.915 112.985 160.338 112.066 154.737 111.76C154.637 111.76 154.54 111.8 154.47 111.87C154.399 111.941 154.359 112.037 154.359 112.137C154.359 112.237 154.399 112.333 154.47 112.403C154.54 112.474 154.637 112.514 154.737 112.514C159.109 113.409 163.551 113.833 167.97 114.399C171.988 114.894 175.982 115.365 179.999 115.836C184.016 116.307 188.435 116.849 192.665 117.391C195.028 117.698 197.392 117.957 199.755 118.475C200.629 118.664 204.883 119.347 203.867 120.832C202.786 121.928 201.34 122.59 199.802 122.693C198.286 122.972 196.755 123.169 195.218 123.282C190.413 123.589 185.595 122.948 181.039 121.397C176.123 119.865 171.444 117.721 166.694 115.742C162.145 113.461 157.223 112.009 152.161 111.453C152.098 111.453 152.038 111.478 151.994 111.523C151.95 111.567 151.925 111.627 151.925 111.689C151.925 111.752 151.95 111.812 151.994 111.856C152.038 111.9 152.098 111.925 152.161 111.925L151.948 111.995Z" fill="#E3E3E3"/>
</g>
<defs>
<clipPath id="clip0_6874_34661">
<rect width="232" height="218" fill="white" transform="translate(205 -34) rotate(90)"/>
</clipPath>
</defs>
</svg>
