<svg width="182" height="192" viewBox="0 0 182 192" fill="none" xmlns="http://www.w3.org/2000/svg">
<g clip-path="url(#clip0_6874_34695)">
<path d="M15.7932 174.397C15.1846 175.818 13.8761 175.637 12.7502 174.972C12.5677 176.544 11.8069 177.996 10.042 177.543C8.27707 177.089 7.72933 175.304 8.21621 173.611C6.51214 174.125 4.53422 174.337 4.47336 172.582C4.4125 170.828 8.33793 170.132 9.73769 170.525C9.8397 170.547 9.93012 170.606 9.99182 170.689C10.0535 170.773 10.0822 170.876 10.0724 170.979C10.2331 170.947 10.3986 170.947 10.5593 170.979C10.5593 170.979 10.7723 170.798 10.9244 170.798C12.5068 170.768 16.9495 171.796 15.7932 174.397Z" fill="#E3E3E3"/>
<path d="M147.098 134.563C145.972 135.652 144.846 135.017 144.055 133.958C143.325 135.35 142.108 136.348 140.556 135.38C139.004 134.412 139.247 132.355 140.312 131.055C138.517 131.055 136.6 130.389 137.269 128.726C137.939 127.062 141.773 127.879 142.929 128.726C143.011 128.794 143.07 128.886 143.097 128.989C143.125 129.092 143.119 129.201 143.081 129.301C143.235 129.321 143.375 129.396 143.477 129.512C143.616 129.468 143.764 129.468 143.903 129.512C145.333 129.996 149.106 132.567 147.098 134.563Z" fill="#E3E3E3"/>
<path d="M118.372 117.263C117.337 118.049 116.454 117.263 115.815 116.446C115.085 117.535 113.959 118.231 112.772 117.263C111.586 116.295 111.981 114.722 113.016 113.663C111.555 113.361 109.973 112.726 110.673 111.425C111.373 110.125 114.477 111.153 115.359 112C115.409 112.071 115.435 112.155 115.435 112.242C115.435 112.328 115.409 112.413 115.359 112.484C115.492 112.513 115.611 112.588 115.694 112.696C115.804 112.667 115.919 112.667 116.028 112.696C117.367 113.301 120.228 115.811 118.372 117.263Z" fill="#E3E3E3"/>
<path d="M51.7921 171.433C51.2748 172.643 50.1793 172.492 49.1447 171.917C49.1447 173.248 48.3535 174.397 46.832 174.095C45.3105 173.792 44.915 172.189 45.3105 170.768C43.8499 171.191 42.2676 171.372 42.2676 169.89C42.2676 168.408 45.554 167.834 46.7407 168.166C46.822 168.19 46.8944 168.237 46.9486 168.302C47.0028 168.366 47.0363 168.446 47.045 168.529C47.1753 168.501 47.3104 168.501 47.4406 168.529C47.5245 168.45 47.6305 168.397 47.7449 168.378C49.023 168.378 52.7658 169.225 51.7921 171.433Z" fill="#E3E3E3"/>
<path d="M21.7881 88.1664C20.6926 88.9225 19.8406 88.1664 19.2624 87.1985C18.4408 88.2571 17.2845 88.8923 16.2194 87.8639C15.1544 86.8356 15.55 85.2325 16.6759 84.2344C15.2153 83.8412 13.6329 83.1153 14.4241 81.8148C15.2153 80.5142 18.3191 81.8148 19.1407 82.6919C19.1925 82.7563 19.2208 82.8362 19.2208 82.9187C19.2208 83.0012 19.1925 83.0812 19.1407 83.1456C19.2629 83.2104 19.3673 83.3038 19.445 83.4178C19.5546 83.3882 19.6701 83.3882 19.7797 83.4178C21.0273 84.1134 23.766 86.8053 21.7881 88.1664Z" fill="#E3E3E3"/>
<path d="M47.0439 170.556C48.4436 155.705 50.0868 140.673 56.1728 126.851C61.6499 114.928 69.1658 104.039 78.3864 94.6692C96.979 74.949 119.862 59.7959 138.302 39.9547C148.982 29.0326 157.207 15.9811 162.433 1.66353C162.798 0.544434 164.594 1.02841 164.229 2.17775C155.8 27.6749 135.625 46.5785 115.541 63.5766C95.4575 80.5747 73.4264 97.6937 60.5851 121.467C52.3995 136.59 49.6304 153.648 47.7742 170.556C47.7742 171.009 47.0134 171.04 47.0439 170.556Z" fill="#E3E3E3"/>
<path d="M9.73703 171.161C12.78 143.546 36.0891 124.764 58.8201 112.091C72.1483 104.681 86.2069 98.3894 99.0482 90.3743C111.664 82.8335 123.053 73.4306 132.825 62.4877C143.775 50.2726 151.245 35.3723 154.461 19.327C154.643 18.2684 156.256 18.7222 156.073 19.7505C150.596 48.0001 131.486 70.5029 108.208 86.5634C83.8638 103.32 54.2557 112.151 32.4984 132.507C21.5133 142.79 12.6279 156.008 10.6804 171.161C10.6804 171.735 9.67617 171.766 9.73703 171.161Z" fill="#E3E3E3"/>
<path d="M141.377 131.085C157.619 103.001 166.151 71.1681 166.116 38.775C166.111 26.0444 164.878 13.3437 162.434 0.846878C162.434 0 163.56 -0.363022 163.743 0.483856C168.481 21.3169 169.51 42.8137 166.786 63.9999C164.509 80.6997 159.857 96.9934 152.971 112.393C149.922 119.059 146.467 125.533 142.625 131.781C142.53 131.904 142.394 131.988 142.241 132.018C142.088 132.048 141.929 132.022 141.795 131.944C141.66 131.866 141.559 131.742 141.51 131.595C141.461 131.448 141.468 131.288 141.529 131.146L141.377 131.085Z" fill="#E3E3E3"/>
<path d="M18.7453 84.0832C24.606 77.0925 31.1725 70.7175 38.342 65.0586C45.7478 59.7323 54.1972 56.0124 63.1422 54.14C80.4871 50.208 98.5319 51.1153 115.786 46.518C125.266 44.2463 134.222 40.191 142.168 34.571C143.355 33.7241 144.42 35.6296 143.324 36.4765C130.118 46.5785 112.621 50.5407 96.3714 52.2042C78.1136 54.1097 59.0037 54.3819 42.8152 64.3025C34.2555 70.1498 26.4747 77.0503 19.6582 84.8394C19.5532 84.9437 19.4109 85.0022 19.2626 85.0022C19.1142 85.0022 18.9719 84.9437 18.867 84.8394C18.7621 84.7351 18.7031 84.5936 18.7031 84.4462C18.7031 84.2987 18.7621 84.1572 18.867 84.053L18.7453 84.0832Z" fill="#E3E3E3"/>
<path d="M10.6798 171.826C8.57093 171.605 6.45971 172.222 4.80659 173.542C3.15348 174.863 2.09257 176.779 1.85523 178.873C1.52213 180.518 1.62773 182.221 2.16154 183.813C2.69535 185.405 3.6388 186.83 4.8982 187.947C6.07716 188.986 7.51371 189.694 9.05962 189.997C10.6055 190.3 12.2048 190.187 13.6924 189.671C15.5275 188.864 17.0926 187.553 18.2031 185.892C19.3137 184.231 19.9236 182.289 19.9609 180.295C19.9338 179.248 19.6838 178.219 19.2275 177.276C18.7712 176.332 18.1188 175.495 17.3135 174.82C16.4748 173.929 15.4475 173.233 14.3057 172.783C13.1639 172.333 11.9359 172.141 10.7103 172.219C9.82781 172.219 9.70609 170.979 10.4973 170.737C11.7479 170.439 13.0527 170.449 14.2987 170.765C15.5447 171.081 16.6944 171.695 17.6482 172.552C19.5524 173.905 20.9452 175.854 21.6041 178.087C22.0651 180.515 21.7668 183.026 20.7495 185.28C19.7322 187.535 18.0446 189.426 15.9138 190.699C14.2065 191.652 12.2623 192.104 10.307 192.002C8.3517 191.901 6.46557 191.25 4.86777 190.125C3.16917 188.953 1.82588 187.341 0.983664 185.464C0.14145 183.588 -0.16751 181.517 0.0903115 179.478C0.412958 176.697 1.74344 174.127 3.83316 172.249C4.7489 171.344 5.93837 170.761 7.2191 170.592C8.49983 170.423 9.80109 170.675 10.9233 171.312C10.9827 171.352 11.0261 171.411 11.0458 171.479C11.0656 171.548 11.0605 171.621 11.0315 171.686C11.0024 171.751 10.9512 171.803 10.8869 171.835C10.8226 171.866 10.7493 171.873 10.6798 171.856V171.826Z" fill="#E3E3E3"/>
<path d="M143.294 130.208C141.433 129.221 139.254 129.008 137.235 129.614C135.216 130.221 133.521 131.598 132.522 133.444C131.531 134.927 130.975 136.654 130.916 138.433C130.857 140.212 131.297 141.972 132.187 143.516C132.978 144.953 134.167 146.135 135.612 146.923C137.056 147.71 138.698 148.071 140.342 147.962C142.499 147.712 144.523 146.794 146.128 145.34C147.733 143.886 148.838 141.968 149.289 139.856C149.414 137.932 148.877 136.023 147.767 134.442C147.305 133.542 146.666 132.743 145.887 132.094C145.108 131.444 144.205 130.957 143.233 130.662C142.411 130.48 142.564 129.119 143.416 129.18C147.767 129.512 150.719 134.17 151.175 138.253C151.784 143.516 146.976 148.325 142.046 149.535C140.043 149.981 137.951 149.818 136.041 149.068C134.131 148.319 132.492 147.017 131.335 145.331C130.07 143.589 129.335 141.524 129.216 139.379C129.098 137.235 129.601 135.101 130.666 133.232C132.017 130.721 134.263 128.801 136.965 127.849C138.132 127.388 139.419 127.316 140.631 127.643C141.843 127.97 142.916 128.679 143.69 129.663C143.69 129.905 143.537 130.238 143.294 130.087V130.208Z" fill="#E3E3E3"/>
<path d="M115.632 113.452C114.209 112.475 112.458 112.09 110.752 112.378C109.047 112.666 107.522 113.605 106.503 114.994C105.553 116.067 104.914 117.378 104.657 118.785C104.399 120.192 104.533 121.642 105.043 122.979C105.5 124.217 106.294 125.305 107.337 126.122C108.379 126.939 109.628 127.453 110.946 127.607C112.704 127.711 114.451 127.269 115.945 126.342C117.438 125.415 118.605 124.05 119.284 122.435C119.66 120.809 119.506 119.106 118.844 117.573C118.182 116.039 117.047 114.755 115.602 113.905C115.426 113.838 115.282 113.709 115.197 113.542C115.112 113.375 115.093 113.183 115.142 113.002C115.191 112.822 115.306 112.666 115.464 112.565C115.622 112.463 115.812 112.424 115.997 112.454C116.953 112.688 117.842 113.138 118.597 113.767C119.351 114.396 119.95 115.188 120.349 116.083C121.14 117.444 121.552 118.99 121.541 120.561C121.531 122.133 121.098 123.673 120.289 125.023C119.479 126.374 118.322 127.485 116.937 128.242C115.551 128.999 113.987 129.375 112.407 129.331C110.701 129.464 108.994 129.089 107.504 128.254C106.014 127.419 104.807 126.162 104.039 124.643C103.208 123.098 102.828 121.354 102.941 119.607C103.054 117.86 103.656 116.178 104.678 114.752C106.032 112.806 108.056 111.418 110.368 110.851C111.424 110.521 112.562 110.557 113.596 110.952C114.629 111.348 115.497 112.08 116.058 113.028C116.058 113.27 116.058 113.633 115.632 113.452Z" fill="#E3E3E3"/>
<path d="M47.4704 169.316C45.6935 169.164 43.9279 169.713 42.5555 170.845C41.1831 171.977 40.3142 173.601 40.1368 175.365C39.8476 176.749 39.9348 178.185 40.3894 179.525C40.844 180.864 41.6496 182.059 42.7233 182.987C43.6977 183.858 44.8898 184.452 46.1747 184.707C47.4597 184.963 48.7901 184.87 50.0265 184.438C51.5536 183.76 52.8543 182.662 53.7759 181.275C54.6976 179.887 55.202 178.267 55.2299 176.605C55.2057 175.739 54.9948 174.889 54.6116 174.112C54.2284 173.334 53.6817 172.648 53.0086 172.098C52.3091 171.36 51.4577 170.781 50.5124 170.4C49.5671 170.019 48.5503 169.845 47.5312 169.89C46.6488 169.89 46.5575 168.65 47.3182 168.408C48.3828 168.161 49.4914 168.173 50.5506 168.441C51.6098 168.71 52.5885 169.228 53.4042 169.951C55.0237 171.122 56.2106 172.791 56.7819 174.699C57.1444 176.77 56.8674 178.901 55.9875 180.813C55.1075 182.724 53.6658 184.325 51.8523 185.406C50.3918 186.246 48.718 186.647 47.0332 186.561C45.3483 186.475 43.7246 185.906 42.3582 184.922C40.9087 183.924 39.7604 182.551 39.0366 180.952C38.3129 179.354 38.041 177.589 38.2502 175.849C38.5231 173.397 39.7188 171.139 41.5974 169.527C42.3805 168.741 43.4081 168.242 44.5131 168.11C45.6181 167.978 46.7355 168.222 47.6834 168.801C47.7373 168.841 47.7767 168.897 47.7954 168.961C47.8141 169.025 47.8111 169.093 47.7868 169.155C47.7625 169.217 47.7184 169.269 47.6612 169.304C47.604 169.338 47.5369 169.353 47.4704 169.346V169.316Z" fill="#E3E3E3"/>
<path d="M19.2317 84.1135C17.7975 83.0541 16.0022 82.5967 14.2323 82.84C12.4623 83.0832 10.8592 84.0076 9.76804 85.414C8.78414 86.4674 8.10827 87.7678 7.81333 89.175C7.51839 90.5822 7.61558 92.0426 8.09441 93.3989C8.50154 94.6517 9.24792 95.7689 10.2517 96.6279C11.2555 97.4869 12.4778 98.0545 13.7848 98.2685C15.538 98.4277 17.2989 98.0602 18.8396 97.2136C20.3804 96.367 21.63 95.0802 22.4268 93.5199C23.0497 91.9348 23.0497 90.1748 22.4268 88.5898C22.1875 87.7346 21.7754 86.9368 21.2156 86.2452C20.6558 85.5536 19.96 84.9826 19.1708 84.5672C18.3492 84.174 18.9274 82.9642 19.749 83.1759C23.5527 84.0832 25.3785 89.0738 24.8003 92.5823C24.2066 94.7098 22.9261 96.5845 21.1557 97.9179C19.3853 99.2513 17.2232 99.9696 15.0019 99.9622C13.2897 99.9914 11.6065 99.5195 10.162 98.6053C8.71739 97.6911 7.57511 96.3748 6.87722 94.8204C6.1204 93.2032 5.82787 91.4097 6.03192 89.6377C6.23597 87.8657 6.92867 86.1843 8.03355 84.7789C9.53137 82.8466 11.7023 81.541 14.1195 81.1191C15.2113 80.8532 16.3617 80.9662 17.3801 81.4393C18.3984 81.9124 19.2235 82.7172 19.7186 83.7203C19.7186 84.0227 19.4143 84.2042 19.2317 84.0228V84.1135Z" fill="#E3E3E3"/>
<path d="M155.465 19.3573C152.689 22.5463 149.347 25.2015 145.606 27.1909C142.128 28.8903 138.206 29.4818 134.377 28.8847C132.897 28.6442 131.544 27.9078 130.543 26.7977C130.25 26.3473 130.094 25.8221 130.094 25.2854C130.094 24.7488 130.25 24.2236 130.543 23.7731C131.491 22.4112 132.783 21.3221 134.29 20.6157C135.797 19.9094 137.464 19.611 139.124 19.7505C141.894 19.7505 144.693 19.7504 147.493 19.5992C148.852 19.5992 150.221 19.5387 151.601 19.4177C152.202 19.4378 152.801 19.3355 153.361 19.117C153.921 18.8986 154.43 18.5686 154.857 18.1475C155.465 17.4518 156.439 18.4802 155.861 19.1758C154.877 20.191 153.535 20.7873 152.118 20.8393C150.096 21.0363 148.064 21.1271 146.032 21.1115C143.871 21.1115 141.711 21.1115 139.55 21.1115C137.678 21.0229 135.808 21.3429 134.073 22.0491C132.893 22.6417 131.926 23.5818 131.304 24.741C130.543 26.4045 132.552 27.4027 133.891 27.7656C137.508 28.6289 141.319 28.1446 144.602 26.4045C148.331 24.3456 151.76 21.7917 154.796 18.8129C155.161 18.4802 155.709 18.9943 155.343 19.3573H155.465Z" fill="#E3E3E3"/>
<path d="M154.979 19.7203C157.849 22.3631 159.682 25.932 160.152 29.7921C160.583 32.7957 160.183 35.8591 158.996 38.6542C158.448 39.8942 157.079 42.6164 155.314 42.1627C154.34 41.9207 153.884 40.6806 153.671 39.8337C153.289 37.9064 153.289 35.9236 153.671 33.9963C153.945 31.6674 154.249 29.3081 154.34 26.949C154.416 25.811 154.416 24.6693 154.34 23.5313C154.283 22.4732 153.992 21.4406 153.488 20.5067C153.093 19.932 154.006 19.2364 154.462 19.7506C154.926 20.2091 155.325 20.7279 155.649 21.293C155.901 21.9755 156.064 22.6869 156.136 23.4103C156.258 25.1892 156.166 26.9763 155.862 28.7336C155.649 30.5181 155.314 32.2722 154.979 34.0567C154.453 35.8647 154.349 37.768 154.675 39.622C154.858 40.2269 155.314 41.709 156.105 40.9226C156.675 40.2281 157.117 39.4398 157.414 38.5936C158.418 36.2471 158.846 33.6966 158.661 31.1532C158.186 27.1984 156.812 23.4027 154.645 20.053C154.645 19.811 154.797 19.6295 155.01 19.7808L154.979 19.7203Z" fill="#E3E3E3"/>
<path d="M110.309 50.6616C108.574 51.7807 106.748 52.809 105.014 53.9281C103.342 55.0011 101.783 56.2373 100.358 57.6181C97.7411 60.2192 94.972 63.2741 95.5806 67.206C95.5619 67.9011 95.7847 68.5812 96.2115 69.1321C96.6382 69.683 97.2429 70.071 97.9237 70.2306C98.5574 70.2567 99.1884 70.1333 99.7649 69.8705C100.341 69.6076 100.847 69.2128 101.241 68.7183C103.135 65.9928 104.431 62.9011 105.044 59.6446C105.915 55.5689 107.705 51.7426 110.278 48.4536C111.008 47.6975 112.165 48.8468 111.434 49.6332C108.851 53.0968 107.036 57.0657 106.109 61.2778C105.105 64.5141 104.07 68.5671 101.058 70.5633C100.578 70.9191 100.02 71.1554 99.4291 71.2523C98.8385 71.3492 98.2332 71.3039 97.6638 71.1202C97.0945 70.9365 96.5778 70.6199 96.1571 70.1967C95.7364 69.7735 95.4239 69.2561 95.2459 68.6881C94.7276 66.8973 94.7026 65.001 95.1737 63.1973C95.6448 61.3937 96.5945 59.7488 97.9237 58.4347C100.96 54.4159 105.103 51.3586 109.852 49.6332C110.491 49.4215 110.826 50.3289 110.309 50.6918V50.6616Z" fill="#E3E3E3"/>
<path d="M110.278 49.2098C104.456 50.5015 98.396 50.2723 92.6894 48.5444C87.6411 47.5443 83.1615 44.6804 80.1523 40.5293C79.4868 39.6807 78.9986 38.7084 78.7164 37.6696C78.4342 36.6308 78.3638 35.5464 78.5091 34.4802C78.8802 33.7507 79.4757 33.158 80.2091 32.7881C80.9424 32.4182 81.7753 32.2905 82.5867 32.4235C88.0641 32.7259 93.0545 36.1134 97.406 39.1078C102.305 42.465 106.535 46.5179 112.621 47.758C113.534 47.9697 113.29 49.2703 112.408 49.3308C108.361 49.5123 104.8 46.7599 101.818 44.3705C98.2067 41.3666 94.3143 38.713 90.1941 36.4461C87.935 35.1834 85.4579 34.3524 82.891 33.9962C81.8564 33.9962 80.3349 33.9962 80.0306 35.085C79.9708 36.3555 80.3345 37.6101 81.0652 38.6541C82.319 40.6178 83.9512 42.3155 85.8678 43.6495C87.7845 44.9836 89.9477 45.9276 92.2329 46.4272C98.0349 48.1689 104.128 48.7447 110.156 48.1209C110.704 48.1209 110.795 48.9376 110.156 49.0888L110.278 49.2098Z" fill="#E3E3E3"/>
<path d="M49.8138 60.189C47.0787 62.131 45.1011 64.9512 44.2147 68.1739C43.2609 71.1429 43.3684 74.3483 44.519 77.2476C45.1276 78.3969 46.4969 79.5161 47.8359 78.639C48.6895 77.9046 49.2862 76.9195 49.5399 75.826C50.2595 73.2467 50.4049 70.5425 49.9659 67.9017C49.5399 64.4839 49.3878 60.552 52.1873 58.0416C52.948 57.346 54.1348 58.4952 53.3436 59.1909C50.1181 62.0642 51.5179 66.8734 51.5179 70.5936C51.6414 73.1881 50.9502 75.7566 49.5399 77.9433C49.2346 78.3559 48.8358 78.6914 48.3759 78.9226C47.9161 79.1538 47.4079 79.2743 46.8925 79.2743C46.3772 79.2743 45.869 79.1538 45.4091 78.9226C44.9492 78.6914 44.5505 78.3559 44.2452 77.9433C43.3636 76.6217 42.7584 75.1373 42.4657 73.5785C42.173 72.0197 42.1986 70.4183 42.5411 68.8696C42.8864 66.8593 43.6665 64.9474 44.8276 63.266C45.9886 61.5845 47.503 60.1735 49.2661 59.1304C49.8746 58.7977 50.3615 59.6748 49.8138 60.068V60.189Z" fill="#E3E3E3"/>
<path d="M48.8094 59.2211C44.6901 59.9009 40.4792 59.8086 36.3941 58.9489C34.7268 58.6088 33.1523 57.9172 31.7769 56.9206C30.4016 55.924 29.2573 54.6457 28.4215 53.172C27.2347 49.9659 31.0689 48.6049 33.5641 48.5444C37.6964 48.69 41.6995 50.0128 45.097 52.3554C46.9227 53.4442 48.6572 54.7448 50.5134 55.7429C51.8828 56.4688 54.0433 57.5576 55.5648 56.7712C56.0516 56.5293 56.6602 57.1946 56.1734 57.5878C54.0737 59.3421 50.0874 57.1342 48.3225 55.9848C44.4592 53.1986 40.055 51.2416 35.3899 50.2381C33.9901 50.0567 29.7908 49.8147 29.7604 52.1134C29.7604 53.2325 31.1297 54.3818 31.8905 55.1379C32.6969 55.8288 33.5861 56.418 34.5379 56.8922C39.0718 58.6653 43.9522 59.3892 48.8094 59.0094C48.8372 58.9973 48.8675 58.9924 48.8977 58.9949C48.9279 58.9974 48.957 59.0075 48.9824 59.024C49.0077 59.0405 49.0286 59.063 49.043 59.0895C49.0574 59.116 49.0649 59.1457 49.0649 59.1758C49.0649 59.2059 49.0574 59.2355 49.043 59.262C49.0286 59.2885 49.0077 59.3111 48.9824 59.3276C48.957 59.3441 48.9279 59.3541 48.8977 59.3566C48.8675 59.3592 48.8372 59.3542 48.8094 59.3421V59.2211Z" fill="#E3E3E3"/>
<path d="M113.989 113.301C123.51 103.873 131.368 92.9233 137.238 80.9074C143.709 68.3114 148.536 54.9455 151.6 41.1342C153.115 34.0141 154.132 26.7985 154.643 19.5388C154.676 19.3903 154.758 19.2572 154.877 19.1618C154.997 19.0664 155.145 19.0144 155.298 19.0144C155.451 19.0144 155.599 19.0664 155.718 19.1618C155.837 19.2572 155.92 19.3903 155.952 19.5388C156.105 25.9646 155.461 32.3847 154.035 38.6541C152.636 45.6625 150.714 52.5574 148.284 59.2817C143.491 72.731 136.955 85.5016 128.839 97.2703C124.726 103.295 119.972 108.863 114.659 113.875C114.582 113.951 114.478 113.994 114.37 113.994C114.261 113.994 114.157 113.951 114.081 113.875C114.004 113.799 113.961 113.696 113.961 113.588C113.961 113.48 114.004 113.377 114.081 113.301H113.989Z" fill="#E3E3E3"/>
<path d="M91.2883 83.9017C88.7967 84.6895 86.3827 85.7019 84.0765 86.9263C81.8855 88.1663 79.8163 89.6181 77.6254 90.8582C75.456 92.0181 73.2091 93.0287 70.9004 93.8828C68.7789 94.9185 66.3998 95.3179 64.0537 95.0321C63.1722 94.8515 62.3571 94.4345 61.6971 93.8262C61.037 93.2179 60.5572 92.4416 60.3095 91.5815C60.0618 90.7213 60.0557 89.8102 60.292 88.947C60.5283 88.0837 60.9978 87.3011 61.6498 86.6843C64.6928 83.1455 70.0484 82.5104 74.5215 82.4801C80.0597 82.4801 85.6284 82.1474 91.1666 82.4801C92.3229 82.4801 92.3229 84.3554 91.1666 84.2949C86.9064 84.0832 82.6463 84.2949 78.3861 84.2949C74.145 83.8401 69.8551 84.315 65.8186 85.6862C64.8386 86.0181 63.9549 86.5828 63.2443 87.3313C62.5337 88.0798 62.0177 88.9894 61.7411 89.9811C61.3759 92.5218 63.6886 93.7315 65.9708 93.6106C68.2454 93.3508 70.4471 92.6522 72.4523 91.5539C74.4693 90.6345 76.4124 89.5626 78.2644 88.3478C82.0377 85.9887 86.45 82.6011 91.1666 82.7523C91.2787 82.78 91.3783 82.8442 91.4495 82.9346C91.5207 83.0251 91.5594 83.1366 91.5594 83.2514C91.5594 83.3663 91.5207 83.4778 91.4495 83.5682C91.3783 83.6587 91.2787 83.7229 91.1666 83.7505L91.2883 83.9017Z" fill="#E3E3E3"/>
<path d="M91.0161 85.5047C87.1344 91.6726 84.942 98.7417 84.6563 106.011C84.6777 109.189 85.5045 112.309 87.0603 115.085C88.0645 116.809 90.2858 120.59 92.7506 120.106C95.2154 119.622 96.6761 115.206 96.8586 112.968C97.1137 109.281 96.3676 105.593 94.6981 102.291C91.8377 96.4234 89.0991 90.4348 90.3771 83.7505C90.5597 82.6617 92.2029 83.1456 92.0507 84.2042C91.5842 87.8185 92.0017 91.4914 93.2679 94.9111C94.2417 97.9357 95.9457 100.446 97.1629 103.259C98.3349 105.706 98.9021 108.397 98.8174 111.106C98.7328 113.815 97.9986 116.465 96.6761 118.836C96.2448 119.641 95.6124 120.323 94.8398 120.815C94.0671 121.308 93.1801 121.595 92.2638 121.648C91.3427 121.484 90.4663 121.129 89.6908 120.608C88.9153 120.088 88.2578 119.412 87.7602 118.624C84.8108 114.641 83.3282 109.772 83.5609 104.832C83.9481 97.7383 86.2616 90.8817 90.2554 84.9905C90.3333 84.8949 90.4431 84.8303 90.5648 84.8083C90.6866 84.7863 90.8122 84.8084 90.919 84.8706C91.0258 84.9328 91.1065 85.031 91.1467 85.1473C91.1869 85.2637 91.1837 85.3905 91.1379 85.5047H91.0161Z" fill="#E3E3E3"/>
<path d="M34.5068 130.208C32.1055 134.738 30.4027 139.602 29.4555 144.635C29.0904 147.112 29.0904 149.629 29.4555 152.106C29.5791 154.242 30.4762 156.262 31.9812 157.792C32.6194 158.234 33.3788 158.472 34.1569 158.472C34.935 158.472 35.6944 158.234 36.3326 157.792C37.6715 156.733 37.6411 154.314 37.5802 152.771C37.0846 148.969 36.0605 145.254 34.5373 141.732C33.2896 138.042 31.829 133.414 33.6244 129.633C33.9287 129.028 35.0546 129.301 34.9633 129.996C34.5983 132.128 34.5983 134.306 34.9633 136.439C35.4842 138.678 36.1552 140.881 36.9716 143.032C38.7886 146.966 39.5537 151.3 39.193 155.614C39.1295 156.464 38.8506 157.284 38.3824 157.998C37.9142 158.712 37.2719 159.297 36.5152 159.698C35.7607 160.04 34.9408 160.218 34.1112 160.218C33.2817 160.218 32.4618 160.04 31.7073 159.698C30.8556 159.208 30.1173 158.546 29.5406 157.754C28.9638 156.961 28.5616 156.057 28.36 155.1C27.6524 152.666 27.3947 150.125 27.5993 147.599C28.0773 141.254 30.1716 135.134 33.6852 129.815C33.746 129.746 33.8291 129.7 33.9202 129.686C34.0113 129.671 34.1047 129.689 34.1841 129.735C34.2635 129.782 34.324 129.855 34.3552 129.941C34.3863 130.027 34.3862 130.122 34.3547 130.208H34.5068Z" fill="#E3E3E3"/>
<path d="M34.6599 130.208C30.7441 134.106 25.8799 136.929 20.5406 138.404C16.7673 139.493 10.2553 141.187 7.60793 137.134C7.20424 136.501 6.93039 135.795 6.80213 135.057C6.67388 134.318 6.69375 133.562 6.86059 132.831C7.02743 132.1 7.33797 131.41 7.77433 130.798C8.2107 130.187 8.76429 129.668 9.40328 129.27C12.39 128.044 15.686 127.769 18.8365 128.484C23.8574 129.089 29 130.843 34.0513 129.18C34.9642 128.877 35.3294 130.299 34.4469 130.631C27.4785 133.111 20.4493 129.301 13.3896 129.845C10.8335 130.057 8.0948 130.994 8.15566 133.958C8.30781 139.554 15.3371 138.344 18.9582 137.497C24.5766 136.105 29.7879 133.422 34.1731 129.663C34.5686 129.361 35.0859 129.845 34.7208 130.208H34.6599Z" fill="#E3E3E3"/>
<path d="M163.316 76.1588C161.966 81.214 159.918 86.059 157.23 90.5558C155.922 92.7306 154.382 94.7588 152.636 96.6049C151.177 98.4765 149.113 99.7904 146.793 100.325C144.938 100.618 143.039 100.242 141.437 99.2665C140.677 98.7155 140.084 97.9664 139.724 97.1019C139.364 96.2373 139.252 95.2908 139.399 94.3667C139.399 89.5576 143.385 86.1701 147.28 83.9017C149.988 82.2986 152.818 80.8771 155.557 79.3951C156.932 78.6437 158.262 77.8157 159.543 76.9149C160.801 75.8307 162.122 74.8208 163.499 73.8903C163.592 73.8336 163.702 73.8097 163.81 73.8225C163.919 73.8353 164.02 73.884 164.097 73.9608C164.175 74.0377 164.224 74.1382 164.237 74.2461C164.25 74.354 164.225 74.4631 164.168 74.5557C162.85 76.4604 161.085 78.0175 159.026 79.0926C156.926 80.4537 154.735 81.603 152.514 82.7523C148.588 84.809 143.872 86.9263 141.681 91.0094C141.151 91.918 140.833 92.9326 140.749 93.9792C140.665 95.0258 140.817 96.0779 141.194 97.0586C141.756 97.7345 142.479 98.26 143.298 98.5875C144.116 98.915 145.004 99.034 145.88 98.9338C146.96 98.8246 148.007 98.5005 148.958 97.9809C149.91 97.4613 150.746 96.7568 151.418 95.9092C153.055 94.2088 154.522 92.3551 155.8 90.3742C158.504 85.7801 160.804 80.9634 162.677 75.9773C162.86 75.5841 163.469 75.7051 163.347 76.1588H163.316Z" fill="#E3E3E3"/>
<path d="M164.107 75.4027C163.316 81.6431 163.194 87.9494 163.742 94.2155C163.95 97.7444 164.657 101.227 165.842 104.56C166.71 107.962 168.73 110.963 171.563 113.059C174.179 114.571 177.162 115.146 178.835 112.121C179.929 109.778 180.4 107.196 180.205 104.62C180.022 98.8431 176.279 94.4272 172.628 90.3138C168.976 86.2004 163.864 81.2401 163.073 75.1909C163.073 74.4953 164.046 74.465 164.259 75.1909C168.611 86.7448 183.004 93.1267 181.969 106.767C181.574 111.667 179.231 117.716 173.175 115.69C166.146 113.361 163.833 105.074 162.86 98.4802C161.743 90.7558 161.877 82.9037 163.255 75.2212C163.255 74.6465 164.199 74.8885 164.107 75.4631V75.4027Z" fill="#E3E3E3"/>
</g>
<defs>
<clipPath id="clip0_6874_34695">
<rect width="182" height="192" fill="white" transform="matrix(1 0 0 -1 0 192)"/>
</clipPath>
</defs>
</svg>
