<svg width="541" height="539" viewBox="0 0 541 539" fill="none" xmlns="http://www.w3.org/2000/svg">
<g filter="url(#filter0_d_6877_35309)">
<path d="M270.412 25.3933L392.612 58.0457L482.068 147.254L514.812 269.114L482.068 390.975L392.612 480.183L270.412 512.836L148.212 480.183L58.7551 390.975L26.0117 269.114L58.7551 147.254L148.212 58.0457L270.412 25.3933Z" fill="#D9D9D9"/>
</g>
<g filter="url(#filter1_d_6877_35309)">
<path d="M270.12 270.074L391.71 480.048L269.808 512.711L270.12 270.074Z" fill="#FFC436"/>
</g>
<g filter="url(#filter2_d_6877_35309)">
<path d="M270.12 268.599L391.71 58.6252L269.808 25.9618L270.12 268.599Z" fill="#3D8361"/>
</g>
<path d="M300.977 154.564L305.335 155.732C306.757 156.113 307.753 156.766 308.322 157.692C308.901 158.62 309.009 159.764 308.644 161.124L308.384 162.098L306.714 161.65L306.975 160.677C307.155 160.007 307.206 159.447 307.128 158.995C307.06 158.546 306.849 158.18 306.494 157.898C306.152 157.607 305.636 157.37 304.946 157.185L300.588 156.017L300.977 154.564ZM307.16 151.087C306.881 152.128 306.395 152.787 305.702 153.065C305.012 153.333 304.131 153.323 303.059 153.036L296.271 151.234L296.66 149.781L303.449 151.583C303.943 151.716 304.312 151.782 304.555 151.78C304.788 151.777 304.976 151.694 305.118 151.534C305.251 151.37 305.375 151.072 305.49 150.64L305.582 150.3L306.456 150.435L307.251 150.747L307.16 151.087ZM303.537 145.011L305.747 145.603C306.118 145.703 306.405 145.681 306.609 145.536C306.814 145.392 306.968 145.125 307.073 144.733L307.288 143.929L308.194 144.073L308.958 144.377L308.742 145.18C308.654 145.51 308.489 145.836 308.248 146.158C308 146.467 307.692 146.71 307.324 146.887C307.557 147.215 307.699 147.59 307.752 148.012C307.796 148.422 307.766 148.823 307.661 149.214L307.21 150.899L305.541 150.451L305.992 148.767C306.125 148.272 306.129 147.887 306.004 147.61C305.879 147.334 305.611 147.141 305.199 147.03L303.143 146.48L303.537 145.011ZM309.238 152.171L309.677 150.533L311.315 150.972L310.876 152.61L309.238 152.171ZM309.992 149.358L310.431 147.72L312.069 148.159L311.63 149.797L309.992 149.358ZM307.231 144.144L307.74 142.243C308.008 141.244 308.096 140.296 308.005 139.399C307.914 138.502 307.696 137.422 307.35 136.159C305.849 138.175 305.043 139.389 304.933 139.801C304.858 140.08 304.866 140.319 304.955 140.52C305.048 140.71 305.266 140.929 305.608 141.175L304.811 142.419C304.125 141.97 303.664 141.488 303.426 140.971C303.182 140.442 303.133 139.904 303.279 139.358C303.381 138.977 303.689 138.425 304.203 137.701C304.707 136.975 305.459 135.961 306.459 134.661L306.661 134.401L308.521 134.568L308.712 135.215C309.046 136.321 309.294 137.226 309.458 137.933C309.625 138.629 309.716 139.382 309.731 140.193C309.748 140.992 309.641 141.825 309.409 142.69L308.9 144.591L307.231 144.144ZM299.968 139.167L300.427 137.451L302.127 137.907L301.668 139.622L299.968 139.167ZM315.541 128.894C315.729 128.193 315.795 127.636 315.74 127.224C315.688 126.801 315.516 126.474 315.225 126.241C314.944 126.011 314.526 125.822 313.969 125.673L313.547 127.249C313.307 128.146 312.846 128.795 312.163 129.198C311.481 129.6 310.661 129.673 309.703 129.416C309.044 129.24 308.479 128.956 308.01 128.565C307.543 128.164 307.22 127.702 307.039 127.179C306.852 126.642 306.835 126.086 306.99 125.509C307.156 124.891 307.448 124.395 307.869 124.022C308.281 123.635 308.789 123.39 309.391 123.287C309.985 123.17 310.628 123.204 311.318 123.389L312.694 123.757L312.921 122.907L313.8 123.027L314.59 123.355L314.363 124.205C315.568 124.528 316.439 125.109 316.976 125.949C317.513 126.788 317.591 127.919 317.21 129.341L316.751 131.056L315.082 130.609L315.541 128.894ZM310.057 127.971C310.572 128.109 310.976 128.084 311.269 127.898C311.552 127.709 311.765 127.346 311.909 126.81L312.331 125.234L310.909 124.853C310.322 124.696 309.829 124.702 309.43 124.871C309.031 125.04 308.759 125.398 308.613 125.944C308.48 126.438 308.548 126.865 308.816 127.224C309.077 127.57 309.491 127.819 310.057 127.971ZM312.881 123.058L313.063 122.378C313.174 121.966 313.169 121.634 313.049 121.381C312.929 121.128 312.653 120.943 312.22 120.827L304.941 118.877L305.33 117.424L312.609 119.374L312.764 119.416C313.135 119.515 313.422 119.493 313.626 119.349C313.831 119.205 313.985 118.937 314.09 118.546L314.235 118.005L315.121 118.159L315.904 118.452L315.759 118.993C315.674 119.312 315.515 119.617 315.282 119.908C315.049 120.2 314.757 120.425 314.405 120.585C314.622 120.93 314.755 121.297 314.806 121.686C314.859 122.064 314.841 122.419 314.753 122.748L314.55 123.506L312.881 123.058ZM312.191 112.713L314.401 113.305C314.772 113.405 315.059 113.382 315.264 113.238C315.468 113.094 315.622 112.827 315.727 112.435L315.943 111.631L316.849 111.775L317.612 112.079L317.397 112.882C317.308 113.212 317.144 113.538 316.903 113.86C316.654 114.169 316.346 114.412 315.978 114.589C316.211 114.917 316.353 115.292 316.406 115.714C316.451 116.124 316.421 116.524 316.316 116.916L315.864 118.601L314.195 118.153L314.647 116.469C314.779 115.974 314.783 115.589 314.658 115.312C314.534 115.036 314.265 114.843 313.853 114.732L311.797 114.181L312.191 112.713ZM317.892 119.873L318.331 118.234L319.969 118.673L319.53 120.312L317.892 119.873ZM318.646 117.06L319.085 115.422L320.723 115.861L320.284 117.499L318.646 117.06ZM310.253 102.452L311.069 107.69L314.505 105.745C315.208 105.348 315.935 105.25 316.687 105.452C317.131 105.571 317.519 105.79 317.852 106.112C318.178 106.42 318.406 106.807 318.535 107.272C318.654 107.735 318.641 108.239 318.494 108.785L317.571 112.231L315.902 111.784L316.829 108.322C316.934 107.931 316.942 107.613 316.853 107.368C316.767 107.113 316.605 106.954 316.368 106.89C316.08 106.813 315.74 106.887 315.348 107.114L311.276 109.451L309.487 108.525L308.581 102.634L310.253 102.452ZM321.433 97.8191C321.278 98.3961 321.011 98.8767 320.632 99.2611C320.256 99.6351 319.823 99.8891 319.335 100.023C318.836 100.155 318.329 100.151 317.813 100.013C317.721 99.9883 317.574 99.938 317.374 99.8621C317.165 99.7733 316.828 99.611 316.361 99.3755C315.894 99.14 315.486 98.9313 315.137 98.7495L315.857 97.4847C316.947 98.0748 317.649 98.423 317.963 98.5292C318.011 98.5533 318.077 98.5764 318.159 98.5985C318.53 98.6979 318.86 98.6426 319.148 98.4327C319.426 98.22 319.631 97.8664 319.764 97.3719L321.105 92.3645C321.207 91.9833 321.218 91.6769 321.136 91.4452C321.047 91.2005 320.889 91.0478 320.663 90.987C320.385 90.9125 320.038 90.9688 319.624 91.1558L315.693 92.9682L313.899 92.057L312.993 86.1657L314.669 85.9688L315.485 91.2065L318.781 89.7872L318.855 89.7574C319.926 89.3045 320.672 88.9742 321.092 88.7665C321.502 88.556 321.815 88.3362 322.031 88.107C322.236 87.875 322.395 87.5529 322.505 87.1408L322.58 86.8626L323.423 86.9893L324.249 87.3098L324.174 87.588C324.014 88.1856 323.772 88.6563 323.448 89.0002C323.114 89.3413 322.595 89.6883 321.893 90.0413C322.3 90.338 322.588 90.7245 322.759 91.2008C322.929 91.6772 322.933 92.2193 322.77 92.8272L321.433 97.8191ZM322.538 87.0173L323.064 85.0545C323.326 84.0757 323.128 83.4979 322.468 83.3213C322.2 83.2495 321.776 83.1854 321.195 83.1291C320.603 83.07 320.045 83.0308 319.52 83.0116L319.541 81.51C320.09 81.5244 320.692 81.5643 321.348 81.6297C322.007 81.6847 322.517 81.7606 322.877 81.8572C323.33 81.9787 323.734 82.2028 324.088 82.5296C324.432 82.8536 324.67 83.2651 324.801 83.7641C324.932 84.2631 324.914 84.8269 324.746 85.4554L324.207 87.4645L322.538 87.0173ZM326.231 88.7521L326.67 87.1139L328.308 87.5529L327.869 89.1911L326.231 88.7521ZM326.985 85.9394L327.424 84.3012L329.062 84.7401L328.623 86.3783L326.985 85.9394Z" fill="white"/>
<g filter="url(#filter3_d_6877_35309)">
<path d="M270.999 270.074L149.41 480.048L271.311 512.711L270.999 270.074Z" fill="#C62020"/>
</g>
<g filter="url(#filter4_d_6877_35309)">
<path d="M270.999 268.599L149.41 58.6252L271.311 25.9618L270.999 268.599Z" fill="#0757B5"/>
</g>
<g filter="url(#filter5_d_6877_35309)">
<path d="M270.451 271.659L480.738 392.707L391.5 481.946L270.451 271.659Z" fill="#3D8361"/>
</g>
<g filter="url(#filter6_d_6877_35309)">
<path d="M270.451 267.014L480.738 145.966L391.5 56.7273L270.451 267.014Z" fill="#FFC436"/>
</g>
<g filter="url(#filter7_d_6877_35309)">
<path d="M270.674 271.659L60.3871 392.707L149.625 481.946L270.674 271.659Z" fill="#0757B5"/>
</g>
<g filter="url(#filter8_d_6877_35309)">
<path d="M270.674 267.014L60.3871 145.966L149.625 56.7273L270.674 267.014Z" fill="#C62020"/>
</g>
<g filter="url(#filter9_d_6877_35309)">
<path d="M271.163 269.979L513.801 269.666L481.137 391.568L271.163 269.979Z" fill="#0757B5"/>
</g>
<g filter="url(#filter10_d_6877_35309)">
<path d="M271.163 268.694L513.801 269.006L481.137 147.105L271.163 268.694Z" fill="#C62020"/>
</g>
<g filter="url(#filter11_d_6877_35309)">
<path d="M269.962 269.979L27.3245 269.666L59.9879 391.568L269.962 269.979Z" fill="#3D8361"/>
</g>
<g filter="url(#filter12_d_6877_35309)">
<path d="M269.962 268.694L27.3245 269.006L59.9879 147.105L269.962 268.694Z" fill="#FFC436"/>
</g>
<path d="M358.799 181.524L361.989 184.714C363.076 185.8 363.637 186.928 363.675 188.097C363.72 189.274 363.219 190.386 362.17 191.435L361.458 192.147L359.828 190.518L360.541 189.806C361.016 189.33 361.326 188.908 361.469 188.538C361.627 188.169 361.627 187.799 361.469 187.43C361.326 187.06 361.016 186.638 360.541 186.163L357.351 182.972L358.799 181.524ZM366.081 181.822C365.289 182.614 364.474 182.969 363.637 182.886C362.807 182.795 362.004 182.362 361.227 181.585L356.215 176.573L357.652 175.136L362.664 180.148C362.951 180.434 363.169 180.623 363.32 180.714C363.479 180.797 363.637 180.804 363.795 180.736C363.954 180.653 364.172 180.472 364.452 180.193L364.859 179.786L365.764 180.555L366.488 181.415L366.081 181.822ZM366.169 174.154L367.809 175.795C368.005 175.991 368.194 176.074 368.375 176.043C368.556 176.013 368.76 175.885 368.986 175.659L369.597 175.048L370.525 175.84L371.226 176.677L370.615 177.288C370.381 177.522 370.091 177.722 369.744 177.888C369.389 178.046 369.024 178.133 368.646 178.148C368.616 178.54 368.514 178.921 368.341 179.291C368.168 179.645 367.941 179.962 367.662 180.241L366.372 181.531L364.743 179.901L366.033 178.612C366.35 178.295 366.531 178.031 366.576 177.82C366.614 177.601 366.527 177.386 366.316 177.175L364.732 175.591L366.169 174.154ZM366.972 183.692L368.33 182.334L369.687 183.692L368.33 185.049L366.972 183.692ZM369.099 181.565L370.457 180.207L371.814 181.565L370.457 182.922L369.099 181.565ZM369.438 175.207L370.795 173.849C371.504 173.14 372.081 172.382 372.526 171.575C372.971 170.768 373.349 169.855 373.658 168.837C371.516 169.878 370.313 170.531 370.049 170.795C369.89 170.953 369.807 171.134 369.8 171.338C369.785 171.534 369.849 171.786 369.992 172.096L368.318 172.955C367.903 172.194 367.711 171.488 367.741 170.84C367.771 170.191 368.008 169.644 368.454 169.199C368.763 168.89 369.366 168.52 370.264 168.091C371.169 167.653 372.394 167.114 373.941 166.473L375.932 168.034C375.668 169.188 375.408 170.157 375.151 170.942C374.895 171.726 374.552 172.507 374.122 173.284C373.684 174.053 373.119 174.784 372.425 175.478L371.067 176.836L369.438 175.207ZM365.365 167.378L366.87 165.873L368.34 167.344L366.836 168.849L365.365 167.378ZM384.055 166.451C384.522 165.983 384.835 165.587 384.994 165.263C385.16 164.946 385.194 164.648 385.096 164.369C385.013 164.09 384.809 163.773 384.485 163.418L383.512 164.391C382.795 165.108 382.018 165.47 381.181 165.478C380.344 165.47 379.548 165.089 378.794 164.335C378.258 163.799 377.881 163.226 377.662 162.615C377.451 161.997 377.406 161.401 377.527 160.828C377.647 160.239 377.93 159.723 378.375 159.278C378.858 158.795 379.393 158.486 379.982 158.35C380.578 158.207 381.181 158.244 381.792 158.463C382.41 158.674 382.991 159.051 383.534 159.594L384.292 160.352L384.915 159.73L385.831 160.466L386.544 161.359L385.921 161.982C386.774 162.894 387.211 163.875 387.234 164.923C387.256 165.972 386.74 167.024 385.684 168.08L384.338 169.426L382.708 167.797L384.055 166.451ZM380.095 162.875C380.404 163.185 380.71 163.339 381.011 163.339C381.305 163.332 381.618 163.162 381.95 162.83L382.923 161.857L382.063 160.997C381.279 160.213 380.559 160.149 379.903 160.805C379.593 161.114 379.465 161.454 379.518 161.823C379.571 162.193 379.763 162.544 380.095 162.875ZM384.796 159.848L385.373 159.271C385.607 159.038 385.739 158.823 385.769 158.626C385.799 158.43 385.705 158.223 385.486 158.004L380.135 152.653L381.572 151.216L386.923 156.567L386.98 156.624C387.176 156.82 387.365 156.903 387.546 156.873C387.727 156.843 387.93 156.714 388.157 156.488L388.485 156.16L389.435 156.952L390.114 157.789L389.786 158.117C389.552 158.351 389.269 158.543 388.937 158.694C388.613 158.838 388.27 158.909 387.908 158.909C387.885 159.294 387.791 159.66 387.625 160.007C387.466 160.346 387.27 160.633 387.036 160.867L386.426 161.478L384.796 159.848ZM389.802 150.521L391.442 152.162C391.638 152.358 391.827 152.441 392.008 152.411C392.189 152.38 392.392 152.252 392.619 152.026L393.23 151.415L394.157 152.207L394.859 153.044L394.248 153.655C394.014 153.889 393.724 154.089 393.377 154.255C393.022 154.413 392.656 154.5 392.279 154.515C392.249 154.907 392.147 155.288 391.974 155.658C391.8 156.012 391.574 156.329 391.295 156.608L390.005 157.898L388.376 156.269L389.666 154.979C389.983 154.662 390.164 154.398 390.209 154.187C390.247 153.968 390.16 153.753 389.949 153.542L388.365 151.958L389.802 150.521ZM390.605 160.059L391.963 158.701L393.32 160.059L391.963 161.416L390.605 160.059ZM392.732 157.932L394.089 156.574L395.447 157.932L394.089 159.289L392.732 157.932ZM393.365 140.939L391.589 145.499L395.107 145.533C395.56 145.533 395.982 145.615 396.374 145.781C396.759 145.94 397.095 146.162 397.381 146.449C397.743 146.811 397.992 147.233 398.128 147.716C398.271 148.191 398.271 148.689 398.128 149.209C397.992 149.722 397.705 150.198 397.268 150.635L394.745 153.158L393.116 151.529L395.673 148.972C395.869 148.776 395.982 148.587 396.012 148.406C396.042 148.21 395.993 148.048 395.865 147.92C395.707 147.761 395.469 147.682 395.152 147.682L390.638 147.671L389.167 145.499L391.283 140.034L393.365 140.939ZM405.167 142.736C404.699 143.204 404.186 143.513 403.628 143.664C403.07 143.8 402.523 143.788 401.988 143.63C401.452 143.457 400.981 143.166 400.573 142.759C400.392 142.578 400.245 142.401 400.132 142.227C399.959 141.978 399.755 141.677 399.521 141.322C399.295 140.96 399.099 140.643 398.933 140.372L400.585 139.376L400.868 139.817C401.305 140.556 401.637 141.039 401.863 141.265C402.097 141.499 402.361 141.605 402.655 141.582C402.949 141.56 403.243 141.401 403.538 141.107L407.045 137.6C407.241 137.404 407.35 137.219 407.373 137.045C407.403 136.864 407.354 136.71 407.226 136.582C407.075 136.431 406.841 136.34 406.524 136.31L402.338 135.971L400.868 133.798L402.983 128.334L405.054 129.25L403.289 133.798L406.479 134.16L406.558 134.172C407.614 134.292 408.369 134.368 408.821 134.398C409.274 134.413 409.662 134.379 409.986 134.296C410.311 134.213 410.605 134.04 410.869 133.776L411.061 133.583L411.944 134.285L412.69 135.213L412.498 135.405C412.106 135.797 411.683 136.069 411.231 136.22C410.778 136.355 410.19 136.416 409.466 136.401C409.624 136.876 409.636 137.362 409.5 137.86C409.372 138.35 409.085 138.818 408.64 139.263L405.167 142.736ZM410.937 133.708L412.193 132.452C412.532 132.113 412.717 131.815 412.747 131.558C412.77 131.294 412.664 131.06 412.43 130.857C411.925 130.427 411.201 129.899 410.258 129.273L411.276 127.576C411.767 127.885 412.276 128.228 412.804 128.605C413.339 128.975 413.746 129.299 414.026 129.578C414.403 129.955 414.67 130.389 414.829 130.879C414.987 131.37 414.999 131.886 414.863 132.429C414.735 132.965 414.425 133.478 413.935 133.968L412.566 135.337L410.937 133.708ZM413.313 137.351L414.659 136.004L416.017 137.362L414.67 138.708L413.313 137.351ZM415.428 135.235L416.786 133.877L418.144 135.235L416.786 136.593L415.428 135.235Z" fill="white"/>
<path d="M392.935 236.336L394.103 240.694C394.5 242.178 394.423 243.435 393.871 244.467C393.322 245.508 392.332 246.221 390.899 246.605L389.926 246.865L389.33 244.64L390.303 244.379C390.952 244.205 391.431 243.994 391.74 243.746C392.062 243.505 392.247 243.185 392.295 242.785C392.355 242.394 392.299 241.873 392.125 241.224L390.957 236.866L392.935 236.336ZM399.092 240.235C398.01 240.525 397.128 240.425 396.444 239.934C395.771 239.441 395.292 238.664 395.008 237.603L393.173 230.756L395.136 230.23L396.97 237.077C397.075 237.468 397.17 237.741 397.256 237.895C397.351 238.046 397.485 238.131 397.656 238.152C397.835 238.159 398.115 238.112 398.496 238.01L399.052 237.861L399.451 238.979L399.648 240.086L399.092 240.235ZM403.002 233.638L403.603 235.879C403.675 236.147 403.797 236.313 403.968 236.378C404.14 236.442 404.381 236.433 404.69 236.35L405.524 236.126L405.932 237.276L406.121 238.352L405.286 238.575C404.967 238.661 404.615 238.689 404.232 238.659C403.846 238.619 403.485 238.511 403.151 238.336C402.929 238.66 402.65 238.939 402.315 239.173C401.988 239.393 401.634 239.554 401.252 239.656L399.491 240.128L398.894 237.903L400.656 237.431C401.089 237.315 401.378 237.177 401.522 237.016C401.664 236.846 401.697 236.616 401.619 236.328L401.04 234.164L403.002 233.638ZM398.929 242.3L400.784 241.803L401.281 243.657L399.426 244.154L398.929 242.3ZM401.835 241.521L403.689 241.024L404.186 242.879L402.332 243.376L401.835 241.521ZM405.307 236.185L407.162 235.688C408.13 235.428 409.009 235.06 409.798 234.584C410.587 234.107 411.37 233.505 412.147 232.778C409.771 232.609 408.403 232.572 408.042 232.669C407.826 232.727 407.664 232.842 407.555 233.015C407.444 233.177 407.373 233.428 407.343 233.767L405.463 233.675C405.485 232.808 405.671 232.101 406.021 231.554C406.371 231.007 406.851 230.653 407.459 230.49C407.881 230.376 408.588 230.358 409.581 230.435C410.583 230.508 411.914 230.654 413.574 230.872L414.518 233.22C413.712 234.087 413.002 234.796 412.388 235.347C411.773 235.898 411.086 236.403 410.325 236.861C409.562 237.308 408.706 237.659 407.758 237.913L405.903 238.41L405.307 236.185ZM405.694 227.368L407.75 226.817L408.288 228.826L406.233 229.377L405.694 227.368ZM422.344 235.91C422.983 235.739 423.452 235.552 423.751 235.35C424.053 235.159 424.232 234.918 424.286 234.627C424.354 234.344 424.336 233.968 424.232 233.499L422.903 233.855C421.924 234.117 421.071 234.042 420.342 233.63C419.62 233.205 419.122 232.477 418.846 231.447C418.65 230.716 418.61 230.031 418.726 229.392C418.852 228.751 419.111 228.212 419.502 227.776C419.901 227.327 420.404 227.021 421.012 226.858C421.671 226.681 422.29 226.681 422.867 226.858C423.455 227.032 423.958 227.366 424.378 227.861C424.808 228.353 425.122 228.97 425.321 229.712L425.599 230.747L426.449 230.52L426.875 231.615L427.045 232.745L426.195 232.973C426.477 234.189 426.365 235.257 425.861 236.177C425.356 237.096 424.383 237.749 422.94 238.135L421.101 238.628L420.505 236.403L422.344 235.91ZM420.702 230.834C420.815 231.256 421.003 231.543 421.264 231.694C421.522 231.834 421.878 231.844 422.332 231.722L423.661 231.366L423.346 230.191C423.059 229.12 422.467 228.704 421.571 228.944C421.148 229.058 420.868 229.287 420.729 229.634C420.59 229.98 420.581 230.38 420.702 230.834ZM426.287 230.563L427.075 230.352C427.395 230.266 427.617 230.146 427.741 229.991C427.865 229.836 427.887 229.61 427.807 229.311L425.848 222.001L427.811 221.475L429.77 228.785L429.791 228.862C429.862 229.13 429.984 229.296 430.156 229.361C430.328 229.425 430.568 229.416 430.877 229.333L431.326 229.213L431.753 230.374L431.922 231.438L431.474 231.558C431.154 231.644 430.813 231.669 430.45 231.634C430.098 231.596 429.765 231.486 429.451 231.305C429.239 231.627 428.975 231.897 428.658 232.114C428.351 232.329 428.038 232.479 427.718 232.565L426.884 232.788L426.287 230.563ZM435.286 224.988L435.886 227.229C435.958 227.497 436.08 227.663 436.251 227.727C436.423 227.792 436.664 227.783 436.973 227.7L437.807 227.476L438.215 228.626L438.404 229.702L437.569 229.925C437.25 230.011 436.898 230.039 436.515 230.009C436.129 229.969 435.769 229.861 435.434 229.686C435.212 230.01 434.934 230.289 434.599 230.522C434.271 230.743 433.917 230.904 433.535 231.006L431.774 231.478L431.177 229.253L432.939 228.781C433.372 228.665 433.661 228.526 433.805 228.366C433.947 228.196 433.98 227.966 433.903 227.678L433.323 225.514L435.286 224.988ZM431.212 233.649L433.067 233.152L433.564 235.007L431.709 235.504L431.212 233.649ZM434.118 232.871L435.973 232.374L436.469 234.228L434.615 234.725L434.118 232.871ZM443.162 218.471L439.344 221.532L442.375 223.32C442.767 223.547 443.091 223.83 443.348 224.17C443.601 224.499 443.781 224.86 443.886 225.251C444.018 225.746 444.023 226.236 443.899 226.722C443.785 227.205 443.536 227.636 443.152 228.015C442.778 228.391 442.292 228.66 441.695 228.82L438.248 229.743L437.652 227.518L441.145 226.582C441.413 226.51 441.605 226.403 441.722 226.262C441.846 226.107 441.884 225.942 441.837 225.767C441.779 225.55 441.613 225.363 441.339 225.205L437.435 222.938L437.248 220.321L441.812 216.647L443.162 218.471ZM452.485 225.929C451.846 226.1 451.247 226.111 450.688 225.963C450.137 225.801 449.669 225.518 449.285 225.113C448.907 224.695 448.644 224.208 448.495 223.652C448.429 223.404 448.39 223.177 448.379 222.97C448.353 222.668 448.328 222.305 448.303 221.881C448.288 221.454 448.276 221.082 448.268 220.764L450.197 220.728L450.221 221.251C450.23 222.11 450.276 222.694 450.359 223.003C450.445 223.322 450.62 223.546 450.886 223.673C451.153 223.801 451.486 223.811 451.888 223.703L456.679 222.419C456.947 222.348 457.134 222.242 457.241 222.103C457.357 221.962 457.392 221.803 457.345 221.628C457.29 221.422 457.133 221.227 456.873 221.042L453.418 218.655L453.23 216.039L457.795 212.364L459.13 214.193L455.327 217.249L457.909 219.158L457.972 219.207C458.826 219.84 459.442 220.282 459.818 220.535C460.203 220.774 460.556 220.939 460.879 221.029C461.201 221.119 461.542 221.116 461.903 221.02L462.166 220.949L462.579 221.998L462.762 223.175L462.499 223.245C461.964 223.389 461.462 223.413 460.995 223.317C460.535 223.208 459.995 222.966 459.376 222.591C459.275 223.082 459.042 223.509 458.675 223.872C458.319 224.233 457.837 224.494 457.229 224.657L452.485 225.929ZM461.996 220.995L463.711 220.535C464.175 220.411 464.484 220.245 464.638 220.038C464.79 219.821 464.816 219.566 464.715 219.272C464.492 218.647 464.129 217.828 463.626 216.815L465.356 215.854C465.626 216.367 465.895 216.919 466.164 217.509C466.443 218.097 466.633 218.582 466.736 218.963C466.874 219.478 466.889 219.987 466.781 220.491C466.673 220.995 466.424 221.448 466.035 221.851C465.656 222.25 465.132 222.54 464.462 222.719L462.592 223.22L461.996 220.995ZM462.232 225.338L464.071 224.845L464.568 226.699L462.729 227.192L462.232 225.338ZM465.122 224.563L466.977 224.066L467.474 225.921L465.619 226.418L465.122 224.563Z" fill="white"/>
<path d="M389.541 302.769L388.373 307.127C387.975 308.611 387.28 309.662 386.286 310.279C385.29 310.906 384.076 311.028 382.644 310.644L381.67 310.384L382.266 308.158L383.24 308.419C383.889 308.593 384.409 308.649 384.801 308.589C385.2 308.541 385.52 308.356 385.761 308.034C386.01 307.725 386.221 307.246 386.395 306.597L387.563 302.239L389.541 302.769ZM392.923 309.225C391.841 308.935 391.127 308.407 390.78 307.64C390.444 306.876 390.418 305.964 390.702 304.902L392.537 298.056L394.499 298.582L392.665 305.428C392.56 305.82 392.506 306.104 392.503 306.28C392.511 306.458 392.583 306.599 392.721 306.702C392.872 306.798 393.138 306.897 393.52 306.999L394.076 307.148L393.862 308.317L393.48 309.374L392.923 309.225ZM399.608 305.467L399.008 307.708C398.936 307.976 398.958 308.18 399.075 308.322C399.192 308.464 399.404 308.576 399.714 308.659L400.548 308.882L400.326 310.082L399.952 311.108L399.117 310.884C398.798 310.799 398.48 310.647 398.162 310.43C397.848 310.202 397.59 309.928 397.388 309.609C397.034 309.779 396.653 309.882 396.246 309.916C395.852 309.943 395.465 309.906 395.084 309.803L393.322 309.331L393.918 307.106L395.68 307.578C396.113 307.694 396.432 307.719 396.637 307.652C396.846 307.576 396.988 307.393 397.066 307.104L397.645 304.941L399.608 305.467ZM391.75 310.931L393.605 311.428L393.108 313.283L391.253 312.786L391.75 310.931ZM394.656 311.71L396.51 312.207L396.013 314.061L394.159 313.564L394.656 311.71ZM400.331 308.824L402.185 309.321C403.154 309.581 404.099 309.701 405.02 309.683C405.942 309.665 406.921 309.535 407.957 309.294C405.985 307.959 404.818 307.244 404.458 307.147C404.241 307.089 404.043 307.108 403.863 307.203C403.685 307.288 403.499 307.47 403.303 307.749L401.721 306.728C402.173 305.988 402.688 305.469 403.264 305.171C403.841 304.873 404.434 304.805 405.041 304.968C405.464 305.081 406.086 305.419 406.907 305.981C407.738 306.546 408.818 307.338 410.146 308.357L409.79 310.862C408.658 311.21 407.689 311.469 406.881 311.64C406.074 311.81 405.226 311.903 404.339 311.919C403.454 311.925 402.537 311.801 401.589 311.547L399.735 311.05L400.331 308.824ZM405.075 301.382L407.13 301.933L406.592 303.942L404.536 303.392L405.075 301.382ZM415.223 317.105C415.861 317.276 416.361 317.349 416.721 317.324C417.078 317.309 417.353 317.19 417.546 316.965C417.746 316.754 417.919 316.419 418.063 315.961L416.734 315.605C415.755 315.342 415.054 314.851 414.628 314.129C414.216 313.401 414.148 312.521 414.424 311.491C414.62 310.759 414.928 310.146 415.348 309.651C415.778 309.159 416.271 308.822 416.828 308.64C417.398 308.45 417.987 308.437 418.595 308.6C419.254 308.776 419.79 309.085 420.201 309.527C420.623 309.971 420.893 310.513 421.009 311.151C421.135 311.792 421.099 312.484 420.9 313.226L420.622 314.261L421.472 314.489L421.294 315.65L420.876 316.715L420.026 316.487C419.662 317.681 419.032 318.55 418.135 319.094C417.238 319.638 416.069 319.717 414.626 319.33L412.787 318.837L413.383 316.612L415.223 317.105ZM416.339 311.888C416.226 312.31 416.244 312.652 416.395 312.913C416.549 313.164 416.852 313.351 417.306 313.472L418.635 313.828L418.95 312.654C419.237 311.582 418.932 310.926 418.036 310.686C417.613 310.573 417.255 310.631 416.962 310.862C416.668 311.092 416.46 311.434 416.339 311.888ZM421.311 314.446L422.099 314.657C422.419 314.743 422.671 314.749 422.856 314.678C423.041 314.606 423.173 314.42 423.253 314.121L425.212 306.811L427.175 307.337L425.216 314.647L425.195 314.725C425.123 314.993 425.146 315.197 425.263 315.339C425.379 315.481 425.592 315.593 425.901 315.676L426.349 315.796L426.139 317.015L425.753 318.021L425.305 317.901C424.985 317.816 424.677 317.667 424.381 317.455C424.095 317.246 423.861 316.984 423.68 316.671C423.335 316.843 422.972 316.945 422.588 316.975C422.215 317.007 421.869 316.981 421.549 316.895L420.715 316.671L421.311 314.446ZM431.891 314.117L431.291 316.358C431.219 316.626 431.241 316.831 431.358 316.972C431.475 317.114 431.688 317.226 431.997 317.309L432.831 317.533L432.609 318.732L432.235 319.758L431.4 319.535C431.081 319.449 430.763 319.297 430.445 319.08C430.131 318.852 429.873 318.579 429.671 318.26C429.317 318.43 428.936 318.532 428.529 318.566C428.135 318.593 427.748 318.556 427.367 318.454L425.605 317.982L426.201 315.756L427.963 316.228C428.396 316.344 428.715 316.369 428.92 316.303C429.129 316.226 429.271 316.043 429.349 315.755L429.928 313.591L431.891 314.117ZM424.033 319.581L425.888 320.078L425.391 321.933L423.536 321.436L424.033 319.581ZM426.939 320.36L428.793 320.857L428.296 322.711L426.442 322.214L426.939 320.36ZM441.971 312.412L437.134 313.153L438.864 316.217C439.091 316.609 439.23 317.016 439.282 317.439C439.337 317.851 439.313 318.253 439.208 318.645C439.075 319.139 438.834 319.566 438.484 319.925C438.144 320.287 437.713 320.536 437.19 320.672C436.678 320.811 436.123 320.8 435.526 320.64L432.079 319.716L432.676 317.491L436.169 318.427C436.436 318.499 436.656 318.502 436.828 318.438C437.013 318.366 437.129 318.243 437.176 318.067C437.234 317.851 437.184 317.606 437.025 317.331L434.778 313.416L435.924 311.056L441.714 310.156L441.971 312.412ZM446.316 323.531C445.677 323.36 445.153 323.07 444.743 322.662C444.346 322.247 444.083 321.768 443.952 321.225C443.835 320.674 443.85 320.121 443.999 319.564C444.066 319.317 444.146 319.101 444.239 318.916C444.368 318.642 444.528 318.315 444.718 317.935C444.918 317.558 445.094 317.23 445.247 316.95L446.935 317.883L446.694 318.348C446.273 319.097 446.021 319.626 445.938 319.935C445.852 320.254 445.893 320.536 446.059 320.779C446.226 321.022 446.51 321.198 446.912 321.306L451.703 322.589C451.971 322.661 452.186 322.663 452.347 322.596C452.519 322.532 452.628 322.412 452.675 322.237C452.731 322.031 452.692 321.783 452.56 321.494L450.761 317.699L451.907 315.339L457.697 314.439L457.938 316.69L453.117 317.436L454.399 320.38L454.429 320.454C454.852 321.429 455.164 322.12 455.364 322.527C455.577 322.926 455.801 323.246 456.035 323.485C456.269 323.724 456.566 323.892 456.927 323.989L457.19 324.059L457.023 325.174L456.593 326.285L456.33 326.215C455.795 326.071 455.348 325.841 454.991 325.524C454.648 325.2 454.301 324.721 453.952 324.086C453.62 324.461 453.204 324.714 452.705 324.846C452.217 324.98 451.668 324.965 451.06 324.802L446.316 323.531ZM457.02 324.014L458.735 324.474C459.199 324.598 459.549 324.609 459.786 324.507C460.026 324.394 460.176 324.186 460.236 323.882C460.355 323.229 460.45 322.338 460.521 321.209L462.5 321.242C462.477 321.821 462.435 322.434 462.372 323.079C462.32 323.728 462.242 324.243 462.14 324.624C462.002 325.139 461.761 325.588 461.415 325.97C461.07 326.353 460.628 326.621 460.09 326.775C459.562 326.931 458.963 326.92 458.293 326.741L456.423 326.239L457.02 324.014ZM455.053 327.893L456.892 328.386L456.395 330.24L454.556 329.748L455.053 327.893ZM457.943 328.667L459.797 329.164L459.3 331.019L457.446 330.522L457.943 328.667Z" fill="white"/>
<path d="M362.242 360.799L359.052 363.989C357.966 365.076 356.838 365.637 355.669 365.675C354.492 365.72 353.38 365.219 352.331 364.17L351.619 363.458L353.248 361.828L353.96 362.541C354.436 363.016 354.858 363.326 355.228 363.469C355.597 363.627 355.967 363.627 356.336 363.469C356.706 363.326 357.128 363.016 357.603 362.541L360.794 359.351L362.242 360.799ZM361.944 368.081C361.152 367.289 360.797 366.474 360.88 365.637C360.971 364.807 361.404 364.004 362.181 363.227L367.193 358.215L368.63 359.652L363.618 364.664C363.332 364.951 363.143 365.169 363.052 365.32C362.969 365.479 362.962 365.637 363.03 365.795C363.113 365.954 363.294 366.172 363.573 366.452L363.98 366.859L363.211 367.764L362.351 368.488L361.944 368.081ZM369.612 368.169L367.971 369.809C367.775 370.005 367.692 370.194 367.723 370.375C367.753 370.556 367.881 370.76 368.107 370.986L368.718 371.597L367.926 372.525L367.089 373.226L366.478 372.615C366.244 372.381 366.044 372.091 365.878 371.744C365.72 371.389 365.633 371.024 365.618 370.646C365.226 370.616 364.845 370.514 364.475 370.341C364.121 370.168 363.804 369.941 363.525 369.662L362.235 368.372L363.865 366.743L365.154 368.033C365.471 368.35 365.735 368.531 365.946 368.576C366.165 368.614 366.38 368.527 366.591 368.316L368.175 366.732L369.612 368.169ZM360.074 368.972L361.432 370.33L360.074 371.687L358.717 370.33L360.074 368.972ZM362.201 371.099L363.559 372.457L362.201 373.814L360.844 372.457L362.201 371.099ZM368.559 371.438L369.917 372.795C370.626 373.504 371.384 374.081 372.191 374.526C372.998 374.971 373.91 375.349 374.929 375.658C373.888 373.516 373.235 372.313 372.971 372.049C372.813 371.89 372.632 371.807 372.428 371.8C372.232 371.785 371.98 371.849 371.67 371.992L370.811 370.318C371.572 369.903 372.278 369.711 372.926 369.741C373.575 369.771 374.122 370.009 374.567 370.454C374.876 370.763 375.246 371.366 375.675 372.264C376.113 373.169 376.652 374.394 377.293 375.941L375.732 377.932C374.578 377.668 373.609 377.408 372.824 377.151C372.04 376.895 371.259 376.552 370.482 376.122C369.713 375.684 368.981 375.119 368.288 374.425L366.93 373.067L368.559 371.438ZM376.388 367.365L377.893 368.87L376.422 370.34L374.917 368.836L376.388 367.365ZM377.315 386.055C377.783 386.522 378.179 386.835 378.503 386.994C378.82 387.16 379.118 387.194 379.397 387.096C379.676 387.013 379.993 386.809 380.348 386.485L379.375 385.512C378.658 384.795 378.296 384.018 378.288 383.181C378.296 382.344 378.677 381.548 379.431 380.794C379.967 380.258 380.54 379.881 381.151 379.662C381.769 379.451 382.365 379.406 382.938 379.527C383.527 379.647 384.043 379.93 384.488 380.375C384.971 380.858 385.28 381.393 385.416 381.982C385.559 382.578 385.522 383.181 385.303 383.792C385.092 384.41 384.715 384.991 384.172 385.534L383.414 386.292L384.036 386.915L383.3 387.831L382.407 388.544L381.784 387.921C380.872 388.774 379.891 389.211 378.843 389.234C377.794 389.256 376.742 388.74 375.686 387.684L374.34 386.338L375.969 384.708L377.315 386.055ZM380.891 382.095C380.581 382.404 380.427 382.71 380.427 383.011C380.434 383.305 380.604 383.618 380.936 383.95L381.909 384.923L382.769 384.063C383.553 383.279 383.617 382.559 382.961 381.903C382.652 381.593 382.312 381.465 381.943 381.518C381.573 381.571 381.222 381.763 380.891 382.095ZM383.918 386.796L384.495 387.373C384.728 387.607 384.943 387.739 385.14 387.769C385.336 387.799 385.543 387.705 385.762 387.486L391.113 382.135L392.55 383.572L387.199 388.923L387.142 388.98C386.946 389.176 386.863 389.365 386.893 389.546C386.923 389.727 387.052 389.93 387.278 390.157L387.606 390.485L386.814 391.435L385.977 392.114L385.649 391.786C385.415 391.552 385.222 391.269 385.072 390.937C384.928 390.613 384.857 390.27 384.857 389.908C384.472 389.885 384.106 389.791 383.759 389.625C383.42 389.466 383.133 389.27 382.899 389.036L382.288 388.426L383.918 386.796ZM393.245 391.802L391.604 393.442C391.408 393.638 391.325 393.827 391.355 394.008C391.386 394.189 391.514 394.392 391.74 394.619L392.351 395.23L391.559 396.157L390.722 396.859L390.111 396.248C389.877 396.014 389.677 395.724 389.511 395.377C389.353 395.022 389.266 394.656 389.251 394.279C388.859 394.249 388.478 394.147 388.108 393.974C387.754 393.8 387.437 393.574 387.158 393.295L385.868 392.005L387.497 390.376L388.787 391.666C389.104 391.983 389.368 392.164 389.579 392.209C389.798 392.247 390.013 392.16 390.224 391.949L391.808 390.365L393.245 391.802ZM383.707 392.605L385.065 393.963L383.707 395.32L382.35 393.963L383.707 392.605ZM385.834 394.732L387.192 396.089L385.834 397.447L384.477 396.089L385.834 394.732ZM402.827 395.365L398.267 393.589L398.233 397.107C398.233 397.56 398.15 397.982 397.985 398.374C397.826 398.759 397.604 399.095 397.317 399.381C396.955 399.743 396.533 399.992 396.05 400.128C395.575 400.271 395.077 400.271 394.557 400.128C394.044 399.992 393.568 399.705 393.131 399.268L390.608 396.745L392.237 395.116L394.794 397.673C394.99 397.869 395.179 397.982 395.36 398.012C395.556 398.042 395.718 397.993 395.846 397.865C396.005 397.707 396.084 397.469 396.084 397.152L396.095 392.638L398.267 391.167L403.732 393.283L402.827 395.365ZM401.03 407.167C400.562 406.699 400.253 406.186 400.102 405.628C399.966 405.07 399.978 404.523 400.136 403.988C400.309 403.452 400.6 402.981 401.007 402.573C401.188 402.392 401.365 402.245 401.539 402.132C401.788 401.959 402.089 401.755 402.444 401.521C402.806 401.295 403.123 401.099 403.394 400.933L404.39 402.585L403.949 402.868C403.209 403.305 402.727 403.637 402.501 403.863C402.267 404.097 402.161 404.361 402.184 404.655C402.206 404.949 402.365 405.243 402.659 405.538L406.166 409.045C406.362 409.241 406.547 409.35 406.721 409.373C406.902 409.403 407.056 409.354 407.184 409.226C407.335 409.075 407.426 408.841 407.456 408.524L407.795 404.338L409.968 402.868L415.432 404.983L414.516 407.054L409.968 405.289L409.606 408.479L409.594 408.558C409.474 409.614 409.398 410.369 409.368 410.821C409.353 411.274 409.387 411.662 409.47 411.986C409.553 412.311 409.726 412.605 409.99 412.869L410.183 413.061L409.481 413.944L408.553 414.69L408.361 414.498C407.969 414.106 407.697 413.683 407.546 413.231C407.411 412.778 407.35 412.19 407.365 411.466C406.89 411.624 406.404 411.636 405.906 411.5C405.416 411.372 404.948 411.085 404.503 410.64L401.03 407.167ZM410.058 412.937L411.314 414.193C411.653 414.532 411.951 414.717 412.208 414.747C412.472 414.77 412.706 414.664 412.909 414.43C413.339 413.925 413.867 413.201 414.493 412.258L416.19 413.276C415.881 413.767 415.538 414.276 415.161 414.804C414.791 415.339 414.467 415.746 414.188 416.026C413.811 416.403 413.377 416.67 412.887 416.829C412.396 416.987 411.88 416.999 411.337 416.863C410.801 416.735 410.288 416.425 409.798 415.935L408.429 414.566L410.058 412.937ZM406.415 415.313L407.762 416.659L406.404 418.017L405.058 416.67L406.415 415.313ZM408.531 417.428L409.889 418.786L408.531 420.144L407.173 418.786L408.531 417.428Z" fill="white"/>
<path d="M307.431 394.935L303.073 396.103C301.589 396.5 300.332 396.423 299.301 395.871C298.259 395.322 297.546 394.332 297.163 392.899L296.902 391.926L299.127 391.33L299.388 392.303C299.562 392.952 299.773 393.431 300.022 393.74C300.262 394.062 300.582 394.247 300.982 394.295C301.373 394.355 301.894 394.299 302.543 394.125L306.901 392.957L307.431 394.935ZM303.532 401.092C303.242 400.01 303.342 399.128 303.833 398.444C304.326 397.771 305.103 397.292 306.165 397.008L313.011 395.173L313.537 397.136L306.69 398.97C306.299 399.075 306.026 399.17 305.872 399.256C305.721 399.351 305.636 399.485 305.615 399.656C305.608 399.835 305.655 400.115 305.757 400.496L305.907 401.052L304.788 401.451L303.681 401.648L303.532 401.092ZM310.129 405.002L307.888 405.603C307.62 405.675 307.454 405.797 307.389 405.968C307.325 406.14 307.334 406.381 307.417 406.69L307.641 407.524L306.491 407.932L305.415 408.121L305.192 407.286C305.106 406.967 305.078 406.615 305.108 406.232C305.148 405.846 305.256 405.485 305.431 405.151C305.107 404.929 304.828 404.65 304.594 404.315C304.374 403.988 304.213 403.634 304.111 403.252L303.639 401.491L305.864 400.894L306.336 402.656C306.452 403.089 306.59 403.378 306.751 403.522C306.921 403.664 307.151 403.697 307.439 403.619L309.603 403.04L310.129 405.002ZM301.468 400.929L301.964 402.784L300.11 403.281L299.613 401.426L301.468 400.929ZM302.246 403.835L302.743 405.689L300.888 406.186L300.391 404.332L302.246 403.835ZM307.583 407.307L308.08 409.162C308.339 410.13 308.707 411.009 309.183 411.798C309.66 412.587 310.262 413.37 310.989 414.147C311.158 411.771 311.195 410.403 311.098 410.042C311.04 409.826 310.925 409.664 310.752 409.555C310.59 409.444 310.339 409.373 310 409.343L310.092 407.463C310.96 407.485 311.666 407.671 312.213 408.021C312.76 408.371 313.115 408.851 313.277 409.459C313.391 409.881 313.409 410.588 313.333 411.581C313.259 412.583 313.113 413.914 312.895 415.574L310.547 416.518C309.68 415.712 308.971 415.002 308.42 414.388C307.869 413.773 307.364 413.086 306.906 412.325C306.459 411.562 306.108 410.706 305.854 409.758L305.357 407.903L307.583 407.307ZM316.399 407.694L316.95 409.75L314.941 410.288L314.39 408.233L316.399 407.694ZM307.857 424.344C308.029 424.983 308.215 425.452 308.417 425.751C308.608 426.053 308.849 426.232 309.14 426.286C309.423 426.354 309.799 426.336 310.268 426.232L309.912 424.903C309.65 423.924 309.725 423.071 310.137 422.342C310.562 421.62 311.29 421.122 312.32 420.846C313.052 420.65 313.737 420.61 314.375 420.726C315.016 420.852 315.555 421.111 315.991 421.502C316.44 421.901 316.746 422.404 316.909 423.012C317.086 423.671 317.086 424.29 316.909 424.867C316.735 425.455 316.401 425.958 315.906 426.378C315.414 426.808 314.797 427.122 314.055 427.321L313.02 427.599L313.247 428.449L312.152 428.875L311.022 429.045L310.794 428.195C309.578 428.477 308.51 428.365 307.591 427.861C306.671 427.356 306.018 426.383 305.632 424.94L305.139 423.101L307.365 422.505L307.857 424.344ZM312.933 422.702C312.511 422.815 312.224 423.003 312.074 423.264C311.933 423.522 311.923 423.878 312.045 424.332L312.401 425.661L313.576 425.346C314.647 425.059 315.063 424.467 314.823 423.571C314.709 423.148 314.48 422.868 314.133 422.729C313.787 422.59 313.387 422.581 312.933 422.702ZM313.204 428.287L313.415 429.075C313.501 429.395 313.621 429.617 313.776 429.741C313.931 429.865 314.157 429.887 314.456 429.807L321.766 427.848L322.292 429.811L314.982 431.77L314.905 431.791C314.637 431.862 314.471 431.984 314.406 432.156C314.342 432.328 314.351 432.568 314.434 432.877L314.554 433.326L313.393 433.753L312.329 433.922L312.209 433.474C312.123 433.154 312.098 432.813 312.133 432.45C312.171 432.098 312.281 431.765 312.462 431.451C312.14 431.239 311.87 430.975 311.653 430.658C311.438 430.351 311.288 430.038 311.202 429.718L310.979 428.884L313.204 428.287ZM318.779 437.286L316.538 437.886C316.27 437.958 316.104 438.08 316.04 438.251C315.975 438.423 315.985 438.664 316.067 438.973L316.291 439.807L315.141 440.215L314.065 440.404L313.842 439.569C313.756 439.25 313.728 438.898 313.758 438.515C313.798 438.129 313.906 437.769 314.082 437.434C313.757 437.212 313.478 436.934 313.245 436.599C313.024 436.271 312.863 435.917 312.761 435.535L312.289 433.774L314.514 433.177L314.987 434.939C315.102 435.372 315.241 435.661 315.401 435.805C315.571 435.947 315.801 435.98 316.089 435.903L318.253 435.323L318.779 437.286ZM310.118 433.212L310.615 435.067L308.76 435.564L308.263 433.709L310.118 433.212ZM310.896 436.118L311.393 437.973L309.539 438.469L309.042 436.615L310.896 436.118ZM325.296 445.162L322.235 441.344L320.447 444.375C320.22 444.767 319.937 445.091 319.598 445.348C319.268 445.601 318.908 445.781 318.516 445.886C318.021 446.018 317.531 446.023 317.045 445.899C316.562 445.785 316.131 445.536 315.752 445.152C315.376 444.778 315.107 444.292 314.947 443.695L314.024 440.248L316.249 439.652L317.185 443.145C317.257 443.413 317.364 443.605 317.505 443.722C317.66 443.846 317.825 443.884 318 443.837C318.217 443.779 318.404 443.613 318.562 443.339L320.829 439.435L323.446 439.248L327.12 443.812L325.296 445.162ZM317.838 454.485C317.667 453.846 317.656 453.247 317.804 452.688C317.966 452.137 318.249 451.669 318.654 451.285C319.072 450.907 319.559 450.644 320.116 450.495C320.363 450.429 320.59 450.39 320.797 450.379C321.099 450.353 321.462 450.328 321.886 450.303C322.313 450.288 322.685 450.276 323.003 450.268L323.039 452.197L322.516 452.221C321.657 452.23 321.073 452.276 320.764 452.359C320.445 452.445 320.221 452.62 320.094 452.886C319.966 453.153 319.956 453.486 320.064 453.888L321.348 458.679C321.419 458.947 321.525 459.134 321.664 459.241C321.805 459.357 321.964 459.392 322.139 459.345C322.345 459.29 322.54 459.133 322.725 458.873L325.112 455.418L327.728 455.23L331.403 459.795L329.574 461.13L326.518 457.327L324.609 459.909L324.56 459.972C323.927 460.826 323.485 461.442 323.232 461.818C322.993 462.203 322.828 462.556 322.738 462.879C322.648 463.201 322.651 463.542 322.747 463.903L322.818 464.166L321.769 464.579L320.592 464.762L320.522 464.499C320.378 463.964 320.354 463.462 320.45 462.995C320.559 462.535 320.801 461.995 321.176 461.376C320.685 461.275 320.258 461.042 319.895 460.675C319.534 460.319 319.273 459.837 319.11 459.229L317.838 454.485ZM322.772 463.996L323.232 465.711C323.356 466.175 323.522 466.484 323.729 466.638C323.946 466.79 324.201 466.816 324.495 466.715C325.12 466.492 325.939 466.129 326.953 465.626L327.913 467.356C327.4 467.626 326.848 467.895 326.258 468.164C325.67 468.443 325.185 468.633 324.804 468.736C324.289 468.874 323.78 468.889 323.276 468.781C322.772 468.673 322.319 468.424 321.917 468.035C321.517 467.656 321.227 467.132 321.048 466.462L320.547 464.592L322.772 463.996ZM318.429 464.232L318.922 466.071L317.068 466.568L316.575 464.729L318.429 464.232ZM319.204 467.122L319.701 468.977L317.846 469.474L317.349 467.619L319.204 467.122Z" fill="white"/>
<path d="M239.838 395.38L235.48 394.212C233.996 393.815 232.946 393.119 232.329 392.126C231.701 391.129 231.579 389.915 231.963 388.483L232.224 387.509L234.449 388.106L234.189 389.079C234.015 389.728 233.958 390.249 234.019 390.641C234.066 391.04 234.251 391.36 234.573 391.601C234.882 391.849 235.361 392.06 236.01 392.234L240.368 393.402L239.838 395.38ZM233.383 398.763C233.673 397.681 234.201 396.967 234.967 396.62C235.731 396.283 236.644 396.257 237.705 396.542L244.551 398.376L244.025 400.339L237.179 398.504C236.787 398.4 236.504 398.346 236.328 398.343C236.149 398.35 236.008 398.423 235.905 398.561C235.809 398.712 235.71 398.978 235.608 399.359L235.459 399.915L234.291 399.702L233.234 399.319L233.383 398.763ZM237.141 405.448L234.9 404.847C234.632 404.775 234.427 404.798 234.285 404.914C234.144 405.031 234.031 405.244 233.949 405.553L233.725 406.388L232.526 406.166L231.5 405.791L231.723 404.957C231.809 404.637 231.96 404.319 232.178 404.002C232.406 403.687 232.679 403.429 232.998 403.228C232.828 402.873 232.726 402.492 232.691 402.085C232.664 401.692 232.702 401.304 232.804 400.923L233.276 399.161L235.502 399.757L235.029 401.519C234.914 401.952 234.889 402.271 234.955 402.477C235.032 402.685 235.214 402.828 235.503 402.905L237.667 403.485L237.141 405.448ZM231.676 397.59L231.179 399.444L229.325 398.947L229.822 397.093L231.676 397.59ZM230.898 400.495L230.401 402.35L228.546 401.853L229.043 399.998L230.898 400.495ZM233.783 406.17L233.286 408.025C233.027 408.993 232.906 409.938 232.924 410.86C232.942 411.781 233.072 412.76 233.313 413.797C234.648 411.824 235.364 410.658 235.46 410.297C235.518 410.081 235.5 409.882 235.404 409.702C235.319 409.525 235.137 409.338 234.859 409.142L235.879 407.56C236.619 408.012 237.138 408.527 237.436 409.104C237.735 409.681 237.802 410.273 237.639 410.881C237.526 411.303 237.188 411.925 236.626 412.746C236.061 413.578 235.269 414.658 234.251 415.986L231.746 415.629C231.397 414.498 231.138 413.528 230.968 412.721C230.798 411.913 230.705 411.066 230.689 410.178C230.683 409.293 230.807 408.377 231.061 407.429L231.558 405.574L233.783 406.17ZM241.225 410.914L240.674 412.97L238.665 412.431L239.216 410.376L241.225 410.914ZM225.503 421.062C225.332 421.701 225.259 422.2 225.284 422.56C225.298 422.918 225.418 423.193 225.642 423.385C225.854 423.586 226.188 423.758 226.647 423.903L227.003 422.574C227.265 421.595 227.757 420.893 228.478 420.468C229.207 420.056 230.086 419.988 231.117 420.264C231.848 420.46 232.461 420.768 232.956 421.187C233.448 421.617 233.786 422.111 233.968 422.668C234.157 423.237 234.171 423.826 234.008 424.434C233.831 425.094 233.522 425.629 233.08 426.041C232.636 426.463 232.095 426.732 231.456 426.848C230.815 426.974 230.123 426.938 229.382 426.739L228.346 426.462L228.118 427.312L226.957 427.133L225.893 426.716L226.121 425.866C224.926 425.501 224.057 424.871 223.513 423.974C222.969 423.078 222.891 421.908 223.277 420.466L223.77 418.627L225.996 419.223L225.503 421.062ZM230.72 422.178C230.297 422.065 229.955 422.084 229.694 422.235C229.443 422.388 229.257 422.692 229.135 423.145L228.779 424.474L229.954 424.789C231.025 425.076 231.681 424.772 231.921 423.875C232.035 423.453 231.976 423.095 231.745 422.801C231.515 422.507 231.173 422.3 230.72 422.178ZM228.162 427.151L227.95 427.939C227.865 428.258 227.858 428.51 227.93 428.695C228.002 428.88 228.187 429.013 228.486 429.093L235.796 431.051L235.27 433.014L227.96 431.055L227.883 431.035C227.615 430.963 227.41 430.985 227.268 431.102C227.127 431.219 227.015 431.432 226.932 431.741L226.812 432.189L225.593 431.978L224.586 431.592L224.706 431.144C224.792 430.825 224.941 430.517 225.153 430.22C225.362 429.934 225.623 429.7 225.937 429.519C225.764 429.175 225.663 428.811 225.633 428.428C225.6 428.054 225.627 427.708 225.712 427.389L225.936 426.554L228.162 427.151ZM228.49 437.731L226.25 437.13C225.982 437.058 225.777 437.081 225.635 437.197C225.493 437.314 225.381 437.527 225.298 437.836L225.075 438.671L223.875 438.449L222.849 438.074L223.073 437.24C223.158 436.92 223.31 436.602 223.528 436.285C223.755 435.97 224.029 435.712 224.348 435.511C224.178 435.156 224.076 434.775 224.041 434.369C224.014 433.975 224.052 433.587 224.154 433.206L224.626 431.444L226.851 432.041L226.379 433.802C226.263 434.235 226.239 434.554 226.305 434.76C226.382 434.968 226.564 435.111 226.853 435.188L229.016 435.768L228.49 437.731ZM223.026 429.873L222.529 431.727L220.675 431.23L221.172 429.376L223.026 429.873ZM222.248 432.778L221.751 434.633L219.896 434.136L220.393 432.281L222.248 432.778ZM230.196 447.811L229.454 442.974L226.39 444.704C225.998 444.93 225.591 445.069 225.168 445.122C224.756 445.177 224.354 445.152 223.963 445.047C223.468 444.915 223.041 444.673 222.682 444.323C222.321 443.983 222.072 443.552 221.936 443.03C221.797 442.518 221.807 441.963 221.967 441.365L222.891 437.919L225.116 438.515L224.181 442.008C224.109 442.276 224.105 442.496 224.169 442.668C224.241 442.853 224.365 442.968 224.54 443.015C224.756 443.073 225.002 443.023 225.276 442.865L229.191 440.618L231.551 441.763L232.451 447.554L230.196 447.811ZM219.076 452.155C219.247 451.516 219.537 450.992 219.945 450.582C220.36 450.186 220.84 449.922 221.383 449.792C221.933 449.674 222.487 449.69 223.043 449.839C223.29 449.905 223.506 449.985 223.691 450.079C223.966 450.208 224.293 450.367 224.673 450.557C225.05 450.758 225.378 450.934 225.657 451.086L224.725 452.774L224.259 452.534C223.511 452.112 222.982 451.86 222.673 451.777C222.353 451.692 222.072 451.732 221.828 451.899C221.585 452.065 221.409 452.35 221.302 452.752L220.018 457.543C219.946 457.81 219.944 458.025 220.011 458.187C220.076 458.359 220.195 458.468 220.37 458.515C220.576 458.57 220.824 458.532 221.114 458.399L224.909 456.6L227.268 457.746L228.169 463.536L225.917 463.778L225.172 458.957L222.228 460.238L222.153 460.268C221.179 460.692 220.488 461.003 220.081 461.204C219.681 461.417 219.362 461.64 219.122 461.874C218.883 462.108 218.715 462.406 218.618 462.766L218.548 463.029L217.433 462.863L216.322 462.433L216.393 462.17C216.536 461.634 216.766 461.188 217.083 460.831C217.407 460.487 217.886 460.141 218.521 459.792C218.146 459.459 217.893 459.044 217.762 458.545C217.628 458.056 217.642 457.508 217.805 456.9L219.076 452.155ZM218.593 462.859L218.134 464.575C218.01 465.038 217.999 465.389 218.101 465.626C218.213 465.866 218.421 466.016 218.726 466.075C219.378 466.195 220.269 466.29 221.399 466.361L221.366 468.339C220.786 468.317 220.174 468.274 219.528 468.212C218.879 468.159 218.365 468.082 217.983 467.98C217.468 467.842 217.019 467.6 216.637 467.255C216.255 466.909 215.987 466.468 215.833 465.929C215.676 465.401 215.687 464.803 215.867 464.133L216.368 462.263L218.593 462.859ZM214.714 460.892L214.222 462.731L212.367 462.234L212.86 460.395L214.714 460.892ZM213.94 463.782L213.443 465.637L211.588 465.14L212.085 463.285L213.94 463.782Z" fill="white"/>
<path d="M181.808 368.083L178.618 364.893C177.532 363.807 176.97 362.679 176.932 361.51C176.887 360.333 177.389 359.221 178.437 358.172L179.15 357.46L180.779 359.089L180.066 359.802C179.591 360.277 179.282 360.699 179.138 361.069C178.98 361.438 178.98 361.808 179.138 362.177C179.282 362.547 179.591 362.969 180.066 363.445L183.257 366.635L181.808 368.083ZM174.527 367.785C175.319 366.993 176.133 366.638 176.97 366.721C177.8 366.812 178.603 367.245 179.38 368.022L184.392 373.034L182.955 374.471L177.943 369.459C177.657 369.173 177.438 368.984 177.287 368.893C177.129 368.811 176.97 368.803 176.812 368.871C176.654 368.954 176.435 369.135 176.156 369.414L175.749 369.821L174.843 369.052L174.119 368.192L174.527 367.785ZM174.439 375.453L172.798 373.812C172.602 373.616 172.414 373.533 172.232 373.564C172.051 373.594 171.848 373.722 171.622 373.948L171.011 374.559L170.083 373.767L169.381 372.93L169.992 372.319C170.226 372.085 170.517 371.885 170.864 371.719C171.218 371.561 171.584 371.474 171.961 371.459C171.991 371.067 172.093 370.686 172.266 370.317C172.44 369.962 172.666 369.645 172.945 369.366L174.235 368.076L175.864 369.706L174.574 370.995C174.258 371.312 174.077 371.576 174.031 371.787C173.994 372.006 174.08 372.221 174.292 372.432L175.876 374.016L174.439 375.453ZM173.635 365.916L172.278 367.273L170.92 365.916L172.278 364.558L173.635 365.916ZM171.508 368.042L170.151 369.4L168.793 368.042L170.151 366.685L171.508 368.042ZM171.17 374.4L169.812 375.758C169.103 376.467 168.526 377.225 168.081 378.032C167.636 378.839 167.259 379.752 166.95 380.77C169.092 379.729 170.295 379.077 170.559 378.813C170.717 378.654 170.8 378.473 170.808 378.269C170.823 378.073 170.759 377.821 170.615 377.511L172.29 376.652C172.705 377.413 172.897 378.119 172.867 378.767C172.837 379.416 172.599 379.963 172.154 380.408C171.845 380.717 171.241 381.087 170.344 381.517C169.439 381.954 168.213 382.493 166.667 383.134L164.676 381.573C164.94 380.419 165.2 379.45 165.456 378.665C165.713 377.881 166.056 377.1 166.486 376.324C166.923 375.554 167.489 374.823 168.183 374.129L169.54 372.771L171.17 374.4ZM175.243 382.229L173.738 383.734L172.267 382.263L173.772 380.758L175.243 382.229ZM156.553 383.157C156.085 383.624 155.772 384.02 155.614 384.344C155.448 384.661 155.414 384.959 155.512 385.238C155.595 385.517 155.799 385.834 156.123 386.189L157.096 385.216C157.812 384.499 158.589 384.137 159.426 384.13C160.264 384.137 161.059 384.518 161.814 385.272C162.349 385.808 162.726 386.381 162.945 386.992C163.156 387.61 163.201 388.206 163.081 388.779C162.96 389.368 162.677 389.884 162.232 390.329C161.75 390.812 161.214 391.121 160.626 391.257C160.03 391.4 159.426 391.363 158.815 391.144C158.197 390.933 157.616 390.556 157.073 390.013L156.315 389.255L155.693 389.877L154.777 389.141L154.064 388.248L154.686 387.625C153.834 386.713 153.396 385.732 153.374 384.684C153.351 383.635 153.868 382.583 154.924 381.527L156.27 380.181L157.899 381.81L156.553 383.157ZM160.513 386.732C160.203 386.422 159.898 386.268 159.596 386.268C159.302 386.275 158.989 386.445 158.657 386.777L157.684 387.75L158.544 388.61C159.328 389.394 160.049 389.458 160.705 388.802C161.014 388.493 161.142 388.153 161.09 387.784C161.037 387.414 160.844 387.064 160.513 386.732ZM155.811 389.759L155.234 390.336C155 390.57 154.868 390.784 154.838 390.981C154.808 391.177 154.902 391.384 155.121 391.603L160.472 396.954L159.035 398.391L153.684 393.04L153.628 392.983C153.431 392.787 153.243 392.704 153.062 392.734C152.881 392.764 152.677 392.893 152.451 393.119L152.123 393.447L151.172 392.655L150.494 391.818L150.822 391.49C151.056 391.256 151.338 391.064 151.67 390.913C151.995 390.769 152.338 390.698 152.7 390.698C152.722 390.313 152.817 389.947 152.983 389.6C153.141 389.261 153.337 388.974 153.571 388.74L154.182 388.13L155.811 389.759ZM150.806 399.086L149.165 397.445C148.969 397.249 148.781 397.166 148.6 397.196C148.419 397.227 148.215 397.355 147.989 397.581L147.378 398.192L146.45 397.4L145.749 396.563L146.36 395.952C146.593 395.718 146.884 395.518 147.231 395.352C147.585 395.194 147.951 395.107 148.328 395.092C148.358 394.7 148.46 394.319 148.634 393.949C148.807 393.595 149.033 393.278 149.312 392.999L150.602 391.709L152.231 393.338L150.942 394.628C150.625 394.945 150.444 395.209 150.399 395.42C150.361 395.639 150.448 395.854 150.659 396.065L152.243 397.649L150.806 399.086ZM150.003 389.548L148.645 390.906L147.287 389.548L148.645 388.191L150.003 389.548ZM147.876 391.675L146.518 393.033L145.16 391.675L146.518 390.318L147.876 391.675ZM147.243 408.668L149.019 404.108L145.5 404.075C145.048 404.075 144.625 403.992 144.233 403.826C143.849 403.667 143.513 403.445 143.226 403.158C142.864 402.796 142.615 402.374 142.48 401.891C142.336 401.416 142.336 400.918 142.48 400.398C142.615 399.885 142.902 399.41 143.339 398.972L145.862 396.449L147.492 398.078L144.935 400.635C144.739 400.831 144.625 401.02 144.595 401.201C144.565 401.397 144.614 401.559 144.742 401.687C144.901 401.846 145.138 401.925 145.455 401.925L149.969 401.936L151.44 404.108L149.324 409.573L147.243 408.668ZM135.441 406.871C135.908 406.403 136.421 406.094 136.979 405.943C137.537 405.807 138.084 405.819 138.62 405.977C139.155 406.15 139.627 406.441 140.034 406.848C140.215 407.029 140.362 407.206 140.475 407.38C140.649 407.629 140.852 407.931 141.086 408.285C141.312 408.647 141.509 408.964 141.675 409.235L140.023 410.231L139.74 409.79C139.302 409.051 138.971 408.568 138.744 408.342C138.51 408.108 138.246 408.002 137.952 408.025C137.658 408.047 137.364 408.206 137.07 408.5L133.563 412.007C133.366 412.203 133.257 412.388 133.234 412.562C133.204 412.743 133.253 412.897 133.382 413.025C133.532 413.176 133.766 413.267 134.083 413.297L138.269 413.636L139.74 415.809L137.624 421.273L135.554 420.357L137.319 415.809L134.128 415.447L134.049 415.435C132.993 415.315 132.239 415.239 131.786 415.209C131.334 415.194 130.945 415.228 130.621 415.311C130.297 415.394 130.003 415.567 129.739 415.831L129.546 416.024L128.664 415.322L127.917 414.394L128.109 414.202C128.502 413.81 128.924 413.538 129.377 413.387C129.829 413.252 130.417 413.191 131.141 413.206C130.983 412.731 130.972 412.245 131.108 411.747C131.236 411.257 131.522 410.789 131.967 410.344L135.441 406.871ZM129.67 415.899L128.415 417.155C128.075 417.495 127.89 417.792 127.86 418.049C127.838 418.313 127.943 418.547 128.177 418.75C128.682 419.18 129.407 419.708 130.349 420.334L129.331 422.031C128.841 421.722 128.332 421.379 127.804 421.002C127.268 420.632 126.861 420.308 126.582 420.029C126.205 419.652 125.937 419.218 125.779 418.728C125.62 418.237 125.609 417.721 125.745 417.178C125.873 416.642 126.182 416.129 126.672 415.639L128.041 414.27L129.67 415.899ZM127.295 412.256L125.948 413.603L124.591 412.245L125.937 410.899L127.295 412.256ZM125.179 414.372L123.821 415.73L122.464 414.372L123.821 413.014L125.179 414.372Z" fill="white"/>
<path d="M147.672 313.271L146.505 308.913C146.107 307.429 146.184 306.172 146.736 305.141C147.285 304.099 148.276 303.386 149.708 303.003L150.682 302.742L151.278 304.967L150.304 305.228C149.655 305.402 149.176 305.613 148.867 305.862C148.545 306.102 148.36 306.422 148.313 306.822C148.252 307.213 148.309 307.734 148.483 308.383L149.651 312.741L147.672 313.271ZM141.515 309.372C142.597 309.082 143.48 309.182 144.163 309.673C144.837 310.166 145.315 310.943 145.6 312.004L147.434 318.851L145.472 319.377L143.637 312.53C143.532 312.139 143.437 311.866 143.352 311.712C143.256 311.561 143.123 311.476 142.951 311.455C142.773 311.448 142.493 311.495 142.112 311.597L141.555 311.747L141.156 310.628L140.959 309.521L141.515 309.372ZM137.605 315.969L137.004 313.728C136.933 313.46 136.811 313.294 136.639 313.229C136.467 313.165 136.227 313.174 135.918 313.257L135.083 313.481L134.676 312.331L134.487 311.255L135.321 311.032C135.641 310.946 135.992 310.918 136.376 310.948C136.762 310.988 137.122 311.096 137.456 311.271C137.678 310.947 137.957 310.668 138.292 310.434C138.619 310.214 138.974 310.053 139.355 309.951L141.117 309.479L141.713 311.704L139.951 312.176C139.519 312.292 139.23 312.43 139.085 312.591C138.943 312.761 138.911 312.991 138.988 313.279L139.568 315.443L137.605 315.969ZM141.678 307.307L139.823 307.804L139.327 305.95L141.181 305.453L141.678 307.307ZM138.773 308.086L136.918 308.583L136.421 306.728L138.276 306.231L138.773 308.086ZM135.3 313.423L133.446 313.919C132.477 314.179 131.598 314.547 130.81 315.023C130.021 315.5 129.238 316.102 128.461 316.829C130.836 316.998 132.204 317.035 132.565 316.938C132.781 316.88 132.944 316.765 133.052 316.592C133.163 316.43 133.234 316.179 133.265 315.84L135.145 315.932C135.123 316.8 134.937 317.506 134.586 318.053C134.236 318.6 133.757 318.955 133.149 319.117C132.726 319.231 132.019 319.249 131.027 319.173C130.024 319.099 128.693 318.953 127.034 318.735L126.09 316.387C126.895 315.52 127.605 314.811 128.22 314.26C128.834 313.709 129.521 313.204 130.282 312.746C131.046 312.299 131.901 311.948 132.849 311.694L134.704 311.197L135.3 313.423ZM134.913 322.239L132.858 322.79L132.319 320.781L134.375 320.23L134.913 322.239ZM118.264 313.697C117.625 313.869 117.156 314.055 116.856 314.257C116.554 314.448 116.376 314.689 116.321 314.98C116.254 315.263 116.272 315.639 116.375 316.108L117.704 315.752C118.683 315.49 119.537 315.565 120.266 315.977C120.987 316.402 121.486 317.13 121.762 318.16C121.958 318.892 121.998 319.577 121.882 320.215C121.755 320.856 121.497 321.395 121.105 321.831C120.707 322.28 120.204 322.586 119.596 322.749C118.936 322.926 118.318 322.926 117.74 322.749C117.153 322.575 116.649 322.241 116.229 321.746C115.799 321.254 115.485 320.637 115.286 319.895L115.009 318.86L114.159 319.087L113.733 317.992L113.562 316.862L114.412 316.634C114.131 315.418 114.242 314.35 114.747 313.43C115.251 312.511 116.225 311.858 117.667 311.472L119.506 310.979L120.103 313.205L118.264 313.697ZM119.905 318.773C119.792 318.351 119.605 318.064 119.344 317.913C119.085 317.773 118.729 317.763 118.276 317.885L116.947 318.241L117.261 319.416C117.548 320.487 118.14 320.903 119.037 320.663C119.459 320.549 119.74 320.32 119.879 319.973C120.018 319.627 120.027 319.227 119.905 318.773ZM114.32 319.044L113.532 319.255C113.213 319.341 112.991 319.461 112.867 319.616C112.742 319.771 112.72 319.997 112.8 320.296L114.759 327.606L112.796 328.132L110.838 320.822L110.817 320.745C110.745 320.477 110.623 320.311 110.451 320.246C110.28 320.182 110.039 320.191 109.73 320.274L109.282 320.394L108.855 319.233L108.686 318.169L109.134 318.049C109.453 317.963 109.794 317.938 110.157 317.973C110.51 318.011 110.843 318.121 111.156 318.302C111.368 317.98 111.633 317.71 111.95 317.493C112.257 317.278 112.57 317.128 112.889 317.042L113.724 316.819L114.32 319.044ZM105.322 324.619L104.721 322.378C104.65 322.11 104.528 321.944 104.356 321.88C104.184 321.815 103.944 321.825 103.635 321.907L102.8 322.131L102.393 320.981L102.204 319.905L103.038 319.682C103.358 319.596 103.709 319.568 104.093 319.598C104.479 319.638 104.839 319.746 105.173 319.921C105.395 319.597 105.674 319.318 106.009 319.085C106.336 318.864 106.691 318.703 107.072 318.601L108.834 318.129L109.43 320.354L107.668 320.827C107.236 320.942 106.947 321.081 106.802 321.241C106.66 321.411 106.628 321.641 106.705 321.929L107.285 324.093L105.322 324.619ZM109.395 315.958L107.54 316.455L107.043 314.6L108.898 314.103L109.395 315.958ZM106.489 316.736L104.635 317.233L104.138 315.379L105.993 314.882L106.489 316.736ZM97.445 331.136L101.263 328.075L98.2328 326.287C97.8409 326.06 97.5166 325.777 97.2599 325.438C97.006 325.108 96.8266 324.747 96.7216 324.356C96.5891 323.861 96.5848 323.371 96.7085 322.885C96.822 322.402 97.0709 321.971 97.4553 321.592C97.8293 321.216 98.3151 320.947 98.9127 320.787L102.359 319.864L102.955 322.089L99.4626 323.025C99.1947 323.097 99.0025 323.204 98.8858 323.345C98.7617 323.5 98.723 323.665 98.77 323.84C98.8279 324.057 98.9941 324.244 99.2684 324.402L103.172 326.669L103.36 329.286L98.7953 332.96L97.445 331.136ZM88.1228 323.678C88.7616 323.507 89.3604 323.496 89.9192 323.644C90.4704 323.806 90.9383 324.089 91.3229 324.494C91.6999 324.912 91.963 325.399 92.1121 325.956C92.1783 326.203 92.2171 326.43 92.2283 326.637C92.2541 326.939 92.2796 327.302 92.3049 327.726C92.3198 328.153 92.3312 328.525 92.3392 328.843L90.4109 328.879L90.3865 328.356C90.3773 327.497 90.3312 326.913 90.2484 326.604C90.1628 326.285 89.987 326.061 89.7209 325.934C89.4549 325.806 89.1209 325.796 88.7191 325.904L83.9281 327.188C83.6602 327.259 83.4731 327.365 83.3668 327.504C83.2501 327.645 83.2153 327.804 83.2622 327.979C83.3174 328.185 83.4747 328.38 83.7339 328.565L87.1895 330.952L87.3771 333.568L82.8126 337.243L81.4778 335.414L85.2803 332.358L82.6983 330.449L82.6354 330.4C81.7813 329.767 81.1658 329.325 80.7889 329.072C80.4046 328.833 80.0512 328.668 79.7288 328.578C79.4065 328.488 79.065 328.491 78.7044 328.587L78.4417 328.658L78.0281 327.609L77.8453 326.432L78.1081 326.362C78.6438 326.218 79.1454 326.194 79.6127 326.29C80.0725 326.399 80.6122 326.641 81.2317 327.016C81.3321 326.525 81.5656 326.098 81.9321 325.735C82.2882 325.374 82.7703 325.113 83.3782 324.95L88.1228 323.678ZM78.6114 328.612L76.8959 329.072C76.4323 329.196 76.1233 329.362 75.9689 329.569C75.8174 329.786 75.7919 330.041 75.8926 330.335C76.1152 330.96 76.4783 331.779 76.9818 332.792L75.2515 333.753C74.9815 333.24 74.7122 332.688 74.4435 332.098C74.1645 331.51 73.974 331.025 73.8718 330.644C73.7338 330.129 73.7187 329.62 73.8267 329.116C73.9347 328.612 74.1832 328.159 74.5723 327.757C74.9511 327.357 75.4754 327.067 76.1451 326.888L78.0151 326.387L78.6114 328.612ZM78.3754 324.269L76.5362 324.762L76.0393 322.908L77.8784 322.415L78.3754 324.269ZM75.4853 325.044L73.6307 325.541L73.1338 323.686L74.9884 323.189L75.4853 325.044Z" fill="white"/>
<path d="M151.067 246.838L152.234 242.48C152.632 240.996 153.328 239.946 154.321 239.328C155.318 238.701 156.532 238.579 157.964 238.963L158.938 239.224L158.341 241.449L157.368 241.188C156.718 241.014 156.198 240.958 155.806 241.018C155.407 241.066 155.087 241.251 154.846 241.573C154.598 241.882 154.387 242.361 154.213 243.01L153.045 247.368L151.067 246.838ZM147.684 240.382C148.766 240.672 149.48 241.201 149.827 241.967C150.164 242.731 150.19 243.643 149.905 244.705L148.071 251.551L146.108 251.025L147.942 244.179C148.047 243.787 148.101 243.503 148.104 243.328C148.097 243.149 148.024 243.008 147.886 242.905C147.735 242.809 147.469 242.71 147.088 242.608L146.531 242.459L146.745 241.29L147.128 240.233L147.684 240.382ZM140.999 244.14L141.6 241.899C141.672 241.631 141.649 241.427 141.532 241.285C141.416 241.143 141.203 241.031 140.894 240.948L140.059 240.725L140.281 239.525L140.656 238.499L141.49 238.723C141.81 238.808 142.128 238.96 142.445 239.177C142.759 239.405 143.017 239.679 143.219 239.998C143.574 239.828 143.955 239.725 144.361 239.691C144.755 239.664 145.143 239.701 145.524 239.804L147.286 240.276L146.689 242.501L144.928 242.029C144.495 241.913 144.176 241.888 143.97 241.955C143.762 242.031 143.619 242.214 143.542 242.503L142.962 244.666L140.999 244.14ZM148.857 238.676L147.003 238.179L147.5 236.324L149.354 236.821L148.857 238.676ZM145.952 237.897L144.097 237.4L144.594 235.546L146.449 236.043L145.952 237.897ZM140.277 240.783L138.422 240.286C137.453 240.026 136.508 239.906 135.587 239.924C134.666 239.942 133.687 240.072 132.65 240.313C134.623 241.648 135.789 242.363 136.15 242.46C136.366 242.518 136.564 242.499 136.745 242.404C136.922 242.319 137.109 242.137 137.305 241.858L138.887 242.879C138.434 243.619 137.92 244.138 137.343 244.436C136.766 244.734 136.174 244.802 135.566 244.639C135.144 244.526 134.522 244.188 133.701 243.626C132.869 243.061 131.789 242.269 130.461 241.25L130.818 238.745C131.949 238.397 132.918 238.138 133.726 237.968C134.534 237.797 135.381 237.704 136.269 237.688C137.154 237.682 138.07 237.806 139.018 238.06L140.873 238.557L140.277 240.783ZM135.533 248.225L133.477 247.674L134.016 245.665L136.071 246.216L135.533 248.225ZM125.385 232.502C124.746 232.331 124.247 232.258 123.887 232.283C123.529 232.298 123.254 232.417 123.062 232.642C122.861 232.853 122.689 233.188 122.544 233.646L123.873 234.002C124.852 234.265 125.554 234.756 125.979 235.478C126.391 236.206 126.459 237.086 126.183 238.116C125.987 238.848 125.679 239.461 125.259 239.956C124.829 240.448 124.336 240.785 123.779 240.967C123.209 241.157 122.621 241.17 122.013 241.007C121.353 240.831 120.818 240.522 120.406 240.08C119.984 239.636 119.715 239.094 119.599 238.456C119.472 237.815 119.509 237.123 119.707 236.381L119.985 235.346L119.135 235.118L119.314 233.957L119.731 232.892L120.581 233.12C120.945 231.926 121.576 231.057 122.473 230.513C123.369 229.969 124.539 229.89 125.981 230.277L127.82 230.77L127.224 232.995L125.385 232.502ZM124.269 237.719C124.382 237.297 124.363 236.955 124.212 236.694C124.058 236.443 123.755 236.257 123.302 236.135L121.973 235.779L121.658 236.953C121.371 238.025 121.675 238.681 122.572 238.921C122.994 239.034 123.352 238.976 123.646 238.745C123.94 238.515 124.147 238.173 124.269 237.719ZM119.296 235.161L118.508 234.95C118.189 234.864 117.937 234.858 117.752 234.93C117.567 235.001 117.434 235.187 117.354 235.486L115.395 242.796L113.433 242.27L115.391 234.96L115.412 234.882C115.484 234.615 115.462 234.41 115.345 234.268C115.228 234.126 115.015 234.014 114.706 233.931L114.258 233.811L114.469 232.592L114.854 231.586L115.303 231.706C115.622 231.791 115.93 231.94 116.227 232.152C116.513 232.361 116.746 232.623 116.927 232.936C117.272 232.764 117.636 232.662 118.019 232.633C118.392 232.6 118.739 232.627 119.058 232.712L119.893 232.936L119.296 235.161ZM108.716 235.49L109.317 233.249C109.388 232.981 109.366 232.776 109.249 232.635C109.133 232.493 108.92 232.381 108.611 232.298L107.776 232.074L107.998 230.875L108.373 229.849L109.207 230.073C109.527 230.158 109.845 230.31 110.162 230.527C110.476 230.755 110.734 231.028 110.936 231.347C111.291 231.177 111.672 231.075 112.078 231.041C112.472 231.014 112.86 231.051 113.241 231.153L115.003 231.625L114.406 233.851L112.645 233.379C112.212 233.263 111.893 233.238 111.687 233.305C111.479 233.381 111.336 233.564 111.259 233.852L110.679 236.016L108.716 235.49ZM116.574 230.026L114.72 229.529L115.217 227.674L117.071 228.171L116.574 230.026ZM113.669 229.247L111.814 228.75L112.311 226.896L114.166 227.393L113.669 229.247ZM98.6363 237.195L103.473 236.454L101.743 233.39C101.517 232.998 101.377 232.591 101.325 232.168C101.27 231.756 101.295 231.354 101.4 230.962C101.532 230.468 101.774 230.041 102.124 229.682C102.464 229.32 102.895 229.071 103.417 228.935C103.929 228.796 104.484 228.807 105.082 228.967L108.528 229.891L107.932 232.116L104.439 231.18C104.171 231.108 103.951 231.105 103.779 231.169C103.594 231.241 103.478 231.365 103.431 231.54C103.373 231.756 103.424 232.001 103.582 232.276L105.829 236.191L104.684 238.551L98.8933 239.451L98.6363 237.195ZM94.2917 226.076C94.9305 226.247 95.4547 226.537 95.8644 226.945C96.2611 227.36 96.5247 227.839 96.6553 228.382C96.7728 228.933 96.757 229.486 96.6079 230.043C96.5417 230.29 96.4617 230.506 96.368 230.691C96.2392 230.965 96.0798 231.293 95.8897 231.672C95.6893 232.049 95.513 232.377 95.3608 232.657L93.6727 231.724L93.9134 231.259C94.3348 230.51 94.5869 229.981 94.6697 229.672C94.7553 229.353 94.7148 229.072 94.5481 228.828C94.3814 228.585 94.0972 228.409 93.6953 228.301L88.9043 227.018C88.6365 226.946 88.4217 226.944 88.2602 227.011C88.0883 227.075 87.979 227.195 87.932 227.37C87.8768 227.576 87.9153 227.824 88.0476 228.113L89.8467 231.908L88.7009 234.268L82.9106 235.168L82.6691 232.917L87.4903 232.171L86.2086 229.227L86.1788 229.153C85.7553 228.178 85.4435 227.487 85.2434 227.08C85.0302 226.681 84.8066 226.361 84.5726 226.122C84.3385 225.883 84.0412 225.715 83.6806 225.618L83.4179 225.548L83.5841 224.433L84.0142 223.322L84.2769 223.393C84.8127 223.536 85.259 223.766 85.616 224.083C85.9598 224.407 86.3062 224.886 86.6552 225.521C86.9875 225.146 87.4032 224.893 87.9022 224.761C88.3908 224.627 88.9391 224.642 89.547 224.805L94.2917 226.076ZM83.5876 225.593L81.8722 225.133C81.4085 225.009 81.0581 224.998 80.8209 225.1C80.581 225.213 80.4313 225.421 80.3719 225.725C80.2522 226.378 80.157 227.269 80.0863 228.398L78.1074 228.365C78.1301 227.786 78.1728 227.173 78.2354 226.528C78.2877 225.879 78.3649 225.364 78.4671 224.983C78.6051 224.468 78.8468 224.019 79.1922 223.637C79.5376 223.255 79.9794 222.986 80.5175 222.832C81.0454 222.676 81.6442 222.687 82.3139 222.867L84.184 223.368L83.5876 225.593ZM85.5547 221.714L83.7155 221.221L84.2125 219.367L86.0516 219.859L85.5547 221.714ZM82.6646 220.94L80.81 220.443L81.307 218.588L83.1615 219.085L82.6646 220.94Z" fill="white"/>
<path d="M178.365 188.808L181.556 185.618C182.642 184.532 183.77 183.97 184.939 183.932C186.115 183.887 187.228 184.388 188.276 185.437L188.989 186.149L187.36 187.779L186.647 187.066C186.172 186.591 185.749 186.281 185.38 186.138C185.01 185.98 184.641 185.98 184.271 186.138C183.902 186.281 183.479 186.591 183.004 187.066L179.813 190.256L178.365 188.808ZM178.664 181.526C179.456 182.318 179.81 183.133 179.727 183.97C179.637 184.8 179.203 185.603 178.426 186.38L173.414 191.392L171.977 189.955L176.989 184.943C177.276 184.656 177.464 184.438 177.555 184.287C177.638 184.128 177.646 183.97 177.578 183.812C177.495 183.653 177.314 183.435 177.035 183.156L176.627 182.748L177.397 181.843L178.256 181.119L178.664 181.526ZM170.996 181.438L172.636 179.798C172.832 179.602 172.915 179.413 172.885 179.232C172.855 179.051 172.727 178.847 172.5 178.621L171.889 178.01L172.681 177.083L173.518 176.381L174.129 176.992C174.363 177.226 174.563 177.516 174.729 177.863C174.887 178.218 174.974 178.583 174.989 178.961C175.381 178.991 175.762 179.093 176.132 179.266C176.486 179.44 176.803 179.666 177.082 179.945L178.372 181.235L176.743 182.864L175.453 181.574C175.136 181.257 174.872 181.076 174.661 181.031C174.442 180.993 174.227 181.08 174.016 181.291L172.432 182.875L170.996 181.438ZM180.533 180.635L179.175 179.277L180.533 177.92L181.891 179.277L180.533 180.635ZM178.406 178.508L177.048 177.15L178.406 175.793L179.764 177.15L178.406 178.508ZM172.048 178.169L170.691 176.812C169.982 176.103 169.224 175.526 168.417 175.081C167.61 174.636 166.697 174.258 165.679 173.949C166.72 176.091 167.372 177.294 167.636 177.558C167.794 177.717 167.975 177.8 168.179 177.807C168.375 177.822 168.628 177.758 168.937 177.615L169.797 179.289C169.035 179.704 168.33 179.896 167.681 179.866C167.033 179.836 166.486 179.599 166.041 179.154C165.731 178.844 165.362 178.241 164.932 177.343C164.495 176.438 163.955 175.213 163.314 173.666L164.875 171.675C166.029 171.939 166.999 172.199 167.783 172.456C168.567 172.712 169.348 173.055 170.125 173.485C170.894 173.923 171.626 174.489 172.32 175.182L173.677 176.54L172.048 178.169ZM164.219 182.242L162.715 180.737L164.185 179.267L165.69 180.771L164.219 182.242ZM163.292 163.552C162.824 163.085 162.428 162.772 162.104 162.613C161.787 162.447 161.489 162.413 161.21 162.512C160.931 162.594 160.614 162.798 160.26 163.122L161.233 164.095C161.949 164.812 162.311 165.589 162.319 166.426C162.311 167.263 161.931 168.059 161.176 168.813C160.641 169.349 160.068 169.726 159.457 169.945C158.838 170.156 158.242 170.201 157.669 170.08C157.081 169.96 156.564 169.677 156.119 169.232C155.636 168.749 155.327 168.214 155.191 167.625C155.048 167.029 155.086 166.426 155.304 165.815C155.516 165.197 155.893 164.616 156.436 164.073L157.194 163.315L156.572 162.693L157.307 161.776L158.201 161.063L158.823 161.686C159.736 160.833 160.716 160.396 161.765 160.373C162.813 160.351 163.865 160.867 164.921 161.923L166.267 163.27L164.638 164.899L163.292 163.552ZM159.717 167.512C160.026 167.203 160.181 166.897 160.181 166.596C160.173 166.302 160.003 165.989 159.672 165.657L158.699 164.684L157.839 165.544C157.054 166.328 156.99 167.048 157.646 167.705C157.956 168.014 158.295 168.142 158.665 168.089C159.034 168.036 159.385 167.844 159.717 167.512ZM156.69 162.811L156.113 162.234C155.879 162 155.664 161.868 155.468 161.838C155.272 161.808 155.064 161.902 154.846 162.121L149.494 167.472L148.057 166.035L153.409 160.684L153.465 160.627C153.661 160.431 153.744 160.243 153.714 160.061C153.684 159.88 153.556 159.677 153.33 159.451L153.002 159.122L153.793 158.172L154.631 157.493L154.959 157.821C155.193 158.055 155.385 158.338 155.536 158.67C155.679 158.994 155.751 159.337 155.751 159.699C156.135 159.722 156.501 159.816 156.848 159.982C157.188 160.141 157.474 160.337 157.708 160.571L158.319 161.182L156.69 162.811ZM147.363 157.805L149.003 156.165C149.199 155.969 149.282 155.78 149.252 155.599C149.222 155.418 149.094 155.215 148.867 154.988L148.256 154.377L149.048 153.45L149.886 152.748L150.497 153.359C150.73 153.593 150.93 153.883 151.096 154.23C151.255 154.585 151.341 154.951 151.356 155.328C151.749 155.358 152.13 155.46 152.499 155.633C152.854 155.807 153.17 156.033 153.449 156.312L154.739 157.602L153.11 159.231L151.82 157.941C151.504 157.624 151.24 157.443 151.028 157.398C150.81 157.36 150.595 157.447 150.383 157.658L148.8 159.242L147.363 157.805ZM156.9 157.002L155.542 155.645L156.9 154.287L158.258 155.645L156.9 157.002ZM154.773 154.875L153.416 153.518L154.773 152.16L156.131 153.518L154.773 154.875ZM137.781 154.242L142.34 156.019L142.374 152.5C142.374 152.047 142.457 151.625 142.623 151.233C142.781 150.848 143.004 150.513 143.29 150.226C143.652 149.864 144.075 149.615 144.558 149.479C145.033 149.336 145.53 149.336 146.051 149.479C146.564 149.615 147.039 149.902 147.476 150.339L149.999 152.862L148.37 154.491L145.813 151.934C145.617 151.738 145.429 151.625 145.248 151.595C145.052 151.565 144.889 151.614 144.761 151.742C144.603 151.9 144.524 152.138 144.524 152.455L144.512 156.969L142.34 158.44L136.875 156.324L137.781 154.242ZM139.578 142.44C140.045 142.908 140.355 143.421 140.505 143.979C140.641 144.537 140.63 145.084 140.471 145.619C140.298 146.155 140.008 146.626 139.6 147.034C139.419 147.215 139.242 147.362 139.069 147.475C138.82 147.648 138.518 147.852 138.163 148.086C137.801 148.312 137.485 148.508 137.213 148.674L136.218 147.022L136.659 146.74C137.398 146.302 137.881 145.97 138.107 145.744C138.341 145.51 138.446 145.246 138.424 144.952C138.401 144.658 138.243 144.364 137.949 144.069L134.441 140.562C134.245 140.366 134.06 140.257 133.887 140.234C133.706 140.204 133.551 140.253 133.423 140.381C133.272 140.532 133.182 140.766 133.152 141.083L132.812 145.269L130.64 146.74L125.175 144.624L126.092 142.553L130.64 144.318L131.002 141.128L131.013 141.049C131.134 139.993 131.209 139.239 131.24 138.786C131.255 138.333 131.221 137.945 131.138 137.621C131.055 137.296 130.881 137.002 130.617 136.738L130.425 136.546L131.126 135.663L132.054 134.917L132.246 135.109C132.639 135.501 132.91 135.924 133.061 136.376C133.197 136.829 133.257 137.417 133.242 138.141C133.717 137.983 134.204 137.971 134.702 138.107C135.192 138.235 135.659 138.522 136.104 138.967L139.578 142.44ZM130.549 136.67L129.293 135.414C128.954 135.075 128.656 134.89 128.4 134.86C128.136 134.837 127.902 134.943 127.698 135.177C127.268 135.682 126.74 136.406 126.114 137.349L124.417 136.331C124.726 135.84 125.07 135.331 125.447 134.803C125.816 134.268 126.141 133.861 126.42 133.581C126.797 133.204 127.231 132.937 127.721 132.778C128.211 132.62 128.728 132.609 129.271 132.744C129.806 132.872 130.319 133.182 130.809 133.672L132.178 135.041L130.549 136.67ZM134.192 134.294L132.846 132.948L134.204 131.59L135.55 132.937L134.192 134.294ZM132.077 132.179L130.719 130.821L132.077 129.463L133.434 130.821L132.077 132.179Z" fill="white"/>
<path d="M233.176 154.672L237.534 153.504C239.018 153.107 240.276 153.184 241.307 153.736C242.348 154.285 243.061 155.275 243.445 156.708L243.706 157.681L241.48 158.278L241.219 157.304C241.045 156.655 240.834 156.176 240.586 155.867C240.345 155.545 240.025 155.36 239.626 155.313C239.234 155.252 238.714 155.308 238.064 155.482L233.706 156.65L233.176 154.672ZM237.075 148.515C237.365 149.597 237.265 150.479 236.775 151.163C236.281 151.836 235.504 152.315 234.443 152.599L227.596 154.434L227.07 152.471L233.917 150.637C234.308 150.532 234.581 150.437 234.735 150.351C234.886 150.256 234.972 150.122 234.992 149.951C234.999 149.772 234.952 149.492 234.85 149.111L234.701 148.555L235.82 148.156L236.926 147.959L237.075 148.515ZM230.479 144.605L232.72 144.004C232.987 143.932 233.154 143.811 233.218 143.639C233.282 143.467 233.273 143.226 233.19 142.917L232.967 142.083L234.116 141.675L235.192 141.486L235.416 142.321C235.501 142.64 235.529 142.992 235.499 143.375C235.459 143.761 235.352 144.122 235.176 144.456C235.501 144.678 235.78 144.957 236.013 145.292C236.233 145.619 236.394 145.973 236.497 146.355L236.969 148.116L234.743 148.713L234.271 146.951C234.155 146.518 234.017 146.229 233.857 146.085C233.686 145.943 233.457 145.91 233.168 145.988L231.005 146.567L230.479 144.605ZM239.14 148.678L238.643 146.823L240.498 146.326L240.994 148.181L239.14 148.678ZM238.361 145.772L237.864 143.918L239.719 143.421L240.216 145.275L238.361 145.772ZM233.025 142.3L232.528 140.445C232.268 139.477 231.9 138.598 231.424 137.809C230.948 137.02 230.346 136.237 229.619 135.46C229.449 137.836 229.412 139.204 229.509 139.565C229.567 139.781 229.682 139.943 229.855 140.052C230.017 140.163 230.268 140.234 230.608 140.264L230.515 142.144C229.648 142.123 228.941 141.937 228.394 141.586C227.848 141.236 227.493 140.756 227.33 140.149C227.217 139.726 227.198 139.019 227.275 138.026C227.349 137.024 227.494 135.693 227.712 134.033L230.06 133.089C230.927 133.895 231.637 134.605 232.188 135.219C232.739 135.834 233.243 136.521 233.701 137.282C234.149 138.045 234.499 138.901 234.753 139.849L235.25 141.704L233.025 142.3ZM224.208 141.913L223.657 139.857L225.667 139.319L226.217 141.374L224.208 141.913ZM232.75 125.263C232.579 124.624 232.392 124.155 232.191 123.856C231.999 123.554 231.758 123.375 231.468 123.321C231.184 123.253 230.808 123.271 230.339 123.375L230.695 124.704C230.958 125.683 230.883 126.537 230.471 127.265C230.045 127.987 229.318 128.485 228.287 128.761C227.556 128.957 226.871 128.997 226.232 128.881C225.591 128.755 225.053 128.496 224.616 128.105C224.167 127.706 223.861 127.203 223.698 126.595C223.522 125.936 223.522 125.317 223.698 124.74C223.872 124.152 224.206 123.649 224.701 123.229C225.193 122.799 225.81 122.485 226.552 122.286L227.588 122.008L227.36 121.158L228.455 120.732L229.585 120.562L229.813 121.412C231.03 121.13 232.098 121.242 233.017 121.746C233.936 122.251 234.589 123.224 234.976 124.667L235.468 126.506L233.243 127.102L232.75 125.263ZM227.674 126.905C228.096 126.792 228.383 126.604 228.534 126.343C228.674 126.085 228.684 125.729 228.563 125.275L228.206 123.946L227.032 124.261C225.96 124.548 225.545 125.14 225.785 126.036C225.898 126.459 226.128 126.739 226.474 126.878C226.821 127.018 227.221 127.026 227.674 126.905ZM227.403 121.32L227.192 120.532C227.106 120.212 226.986 119.99 226.832 119.866C226.677 119.742 226.45 119.72 226.151 119.8L218.841 121.759L218.315 119.796L225.625 117.837L225.703 117.817C225.97 117.745 226.137 117.623 226.201 117.451C226.265 117.279 226.256 117.039 226.173 116.73L226.053 116.281L227.214 115.854L228.279 115.685L228.399 116.133C228.484 116.453 228.51 116.794 228.474 117.157C228.436 117.509 228.327 117.842 228.146 118.156C228.467 118.368 228.737 118.632 228.955 118.949C229.169 119.256 229.32 119.569 229.405 119.889L229.629 120.723L227.403 121.32ZM221.828 112.322L224.069 111.721C224.337 111.649 224.503 111.527 224.568 111.356C224.632 111.184 224.623 110.943 224.54 110.634L224.316 109.8L225.466 109.392L226.542 109.203L226.766 110.038C226.851 110.357 226.879 110.709 226.849 111.092C226.809 111.478 226.701 111.839 226.526 112.173C226.85 112.395 227.129 112.674 227.363 113.009C227.583 113.336 227.744 113.69 227.846 114.072L228.318 115.833L226.093 116.43L225.621 114.668C225.505 114.235 225.367 113.946 225.207 113.802C225.036 113.66 224.806 113.627 224.518 113.705L222.354 114.284L221.828 112.322ZM230.49 116.395L229.993 114.54L231.847 114.043L232.344 115.898L230.49 116.395ZM229.711 113.489L229.214 111.635L231.069 111.138L231.566 112.992L229.711 113.489ZM215.312 104.445L218.372 108.263L220.161 105.232C220.387 104.841 220.67 104.516 221.01 104.26C221.339 104.006 221.7 103.826 222.091 103.721C222.586 103.589 223.076 103.584 223.562 103.708C224.045 103.822 224.476 104.071 224.855 104.455C225.232 104.829 225.5 105.315 225.66 105.912L226.584 109.359L224.358 109.955L223.422 106.462C223.35 106.194 223.244 106.002 223.102 105.885C222.947 105.761 222.782 105.723 222.607 105.77C222.391 105.828 222.203 105.994 222.045 106.268L219.778 110.172L217.162 110.359L213.487 105.795L215.312 104.445ZM222.769 95.1224C222.94 95.7612 222.951 96.36 222.803 96.9188C222.642 97.4701 222.358 97.938 221.953 98.3225C221.535 98.6996 221.048 98.9626 220.492 99.1117C220.245 99.178 220.018 99.2167 219.811 99.228C219.508 99.2537 219.145 99.2793 218.721 99.3045C218.295 99.3194 217.922 99.3309 217.604 99.3388L217.568 97.4105L218.091 97.3862C218.95 97.3769 219.534 97.3309 219.843 97.248C220.163 97.1625 220.386 96.9866 220.514 96.7206C220.641 96.4545 220.651 96.1206 220.543 95.7187L219.26 90.9277C219.188 90.6599 219.083 90.4728 218.944 90.3664C218.802 90.2498 218.644 90.2149 218.468 90.2619C218.262 90.3171 218.067 90.4743 217.883 90.7336L215.496 94.1891L212.879 94.3767L209.204 89.8122L211.033 88.4774L214.09 92.28L215.998 89.698L216.048 89.635C216.68 88.7809 217.123 88.1654 217.375 87.7886C217.614 87.4042 217.779 87.0508 217.87 86.7285C217.96 86.4061 217.957 86.0646 217.86 85.704L217.79 85.4413L218.838 85.0278L220.015 84.845L220.086 85.1077C220.229 85.6435 220.253 86.145 220.157 86.6124C220.049 87.0722 219.807 87.6118 219.432 88.2314C219.922 88.3318 220.349 88.5652 220.713 88.9317C221.073 89.2879 221.335 89.7699 221.498 90.3778L222.769 95.1224ZM217.835 85.6111L217.375 83.8956C217.251 83.4319 217.086 83.1229 216.879 82.9686C216.661 82.817 216.406 82.7915 216.113 82.8922C215.488 83.1149 214.668 83.478 213.655 83.9814L212.694 82.2511C213.207 81.9811 213.759 81.7118 214.35 81.4431C214.937 81.1642 215.422 80.9736 215.803 80.8715C216.318 80.7334 216.828 80.7184 217.332 80.8263C217.835 80.9343 218.288 81.1828 218.691 81.5719C219.091 81.9507 219.38 82.475 219.56 83.1447L220.061 85.0147L217.835 85.6111ZM222.178 85.375L221.685 83.5359L223.54 83.0389L224.033 84.8781L222.178 85.375ZM221.404 82.4849L220.907 80.6304L222.761 80.1334L223.258 81.988L221.404 82.4849Z" fill="white"/>
<g filter="url(#filter13_d_6877_35309)">
</g>
<path d="M515 269C515 403.757 405.534 513 270.5 513C135.466 513 26 403.757 26 269C26 134.243 135.466 25 270.5 25C405.534 25 515 134.243 515 269ZM39.8871 269C39.8871 396.104 143.136 499.141 270.5 499.141C397.864 499.141 501.113 396.104 501.113 269C501.113 141.896 397.864 38.8587 270.5 38.8587C143.136 38.8587 39.8871 141.896 39.8871 269Z" fill="#3D8361"/>
<defs>
<filter id="filter0_d_6877_35309" x="0.757053" y="0.138645" width="539.31" height="537.951" filterUnits="userSpaceOnUse" color-interpolation-filters="sRGB">
<feFlood flood-opacity="0" result="BackgroundImageFix"/>
<feColorMatrix in="SourceAlpha" type="matrix" values="0 0 0 0 0 0 0 0 0 0 0 0 0 0 0 0 0 0 127 0" result="hardAlpha"/>
<feOffset/>
<feGaussianBlur stdDeviation="12.6273"/>
<feColorMatrix type="matrix" values="0 0 0 0 0.239216 0 0 0 0 0.513726 0 0 0 0 0.380392 0 0 0 0.22 0"/>
<feBlend mode="normal" in2="BackgroundImageFix" result="effect1_dropShadow_6877_35309"/>
<feBlend mode="normal" in="SourceGraphic" in2="effect1_dropShadow_6877_35309" result="shape"/>
</filter>
<filter id="filter1_d_6877_35309" x="244.554" y="244.819" width="172.41" height="293.147" filterUnits="userSpaceOnUse" color-interpolation-filters="sRGB">
<feFlood flood-opacity="0" result="BackgroundImageFix"/>
<feColorMatrix in="SourceAlpha" type="matrix" values="0 0 0 0 0 0 0 0 0 0 0 0 0 0 0 0 0 0 127 0" result="hardAlpha"/>
<feOffset/>
<feGaussianBlur stdDeviation="12.6273"/>
<feColorMatrix type="matrix" values="0 0 0 0 0.239216 0 0 0 0 0.513726 0 0 0 0 0.380392 0 0 0 0.22 0"/>
<feBlend mode="normal" in2="BackgroundImageFix" result="effect1_dropShadow_6877_35309"/>
<feBlend mode="normal" in="SourceGraphic" in2="effect1_dropShadow_6877_35309" result="shape"/>
</filter>
<filter id="filter2_d_6877_35309" x="244.554" y="0.707127" width="172.41" height="293.147" filterUnits="userSpaceOnUse" color-interpolation-filters="sRGB">
<feFlood flood-opacity="0" result="BackgroundImageFix"/>
<feColorMatrix in="SourceAlpha" type="matrix" values="0 0 0 0 0 0 0 0 0 0 0 0 0 0 0 0 0 0 127 0" result="hardAlpha"/>
<feOffset/>
<feGaussianBlur stdDeviation="12.6273"/>
<feColorMatrix type="matrix" values="0 0 0 0 0.239216 0 0 0 0 0.513726 0 0 0 0 0.380392 0 0 0 0.22 0"/>
<feBlend mode="normal" in2="BackgroundImageFix" result="effect1_dropShadow_6877_35309"/>
<feBlend mode="normal" in="SourceGraphic" in2="effect1_dropShadow_6877_35309" result="shape"/>
</filter>
<filter id="filter3_d_6877_35309" x="124.155" y="244.819" width="172.41" height="293.147" filterUnits="userSpaceOnUse" color-interpolation-filters="sRGB">
<feFlood flood-opacity="0" result="BackgroundImageFix"/>
<feColorMatrix in="SourceAlpha" type="matrix" values="0 0 0 0 0 0 0 0 0 0 0 0 0 0 0 0 0 0 127 0" result="hardAlpha"/>
<feOffset/>
<feGaussianBlur stdDeviation="12.6273"/>
<feColorMatrix type="matrix" values="0 0 0 0 0.239216 0 0 0 0 0.513726 0 0 0 0 0.380392 0 0 0 0.22 0"/>
<feBlend mode="normal" in2="BackgroundImageFix" result="effect1_dropShadow_6877_35309"/>
<feBlend mode="normal" in="SourceGraphic" in2="effect1_dropShadow_6877_35309" result="shape"/>
</filter>
<filter id="filter4_d_6877_35309" x="124.155" y="0.707127" width="172.41" height="293.147" filterUnits="userSpaceOnUse" color-interpolation-filters="sRGB">
<feFlood flood-opacity="0" result="BackgroundImageFix"/>
<feColorMatrix in="SourceAlpha" type="matrix" values="0 0 0 0 0 0 0 0 0 0 0 0 0 0 0 0 0 0 127 0" result="hardAlpha"/>
<feOffset/>
<feGaussianBlur stdDeviation="12.6273"/>
<feColorMatrix type="matrix" values="0 0 0 0 0.239216 0 0 0 0 0.513726 0 0 0 0 0.380392 0 0 0 0.22 0"/>
<feBlend mode="normal" in2="BackgroundImageFix" result="effect1_dropShadow_6877_35309"/>
<feBlend mode="normal" in="SourceGraphic" in2="effect1_dropShadow_6877_35309" result="shape"/>
</filter>
<filter id="filter5_d_6877_35309" x="245.197" y="246.405" width="260.796" height="260.796" filterUnits="userSpaceOnUse" color-interpolation-filters="sRGB">
<feFlood flood-opacity="0" result="BackgroundImageFix"/>
<feColorMatrix in="SourceAlpha" type="matrix" values="0 0 0 0 0 0 0 0 0 0 0 0 0 0 0 0 0 0 127 0" result="hardAlpha"/>
<feOffset/>
<feGaussianBlur stdDeviation="12.6273"/>
<feColorMatrix type="matrix" values="0 0 0 0 0.239216 0 0 0 0 0.513726 0 0 0 0 0.380392 0 0 0 0.22 0"/>
<feBlend mode="normal" in2="BackgroundImageFix" result="effect1_dropShadow_6877_35309"/>
<feBlend mode="normal" in="SourceGraphic" in2="effect1_dropShadow_6877_35309" result="shape"/>
</filter>
<filter id="filter6_d_6877_35309" x="245.197" y="31.4726" width="260.796" height="260.796" filterUnits="userSpaceOnUse" color-interpolation-filters="sRGB">
<feFlood flood-opacity="0" result="BackgroundImageFix"/>
<feColorMatrix in="SourceAlpha" type="matrix" values="0 0 0 0 0 0 0 0 0 0 0 0 0 0 0 0 0 0 127 0" result="hardAlpha"/>
<feOffset/>
<feGaussianBlur stdDeviation="12.6273"/>
<feColorMatrix type="matrix" values="0 0 0 0 0.239216 0 0 0 0 0.513726 0 0 0 0 0.380392 0 0 0 0.22 0"/>
<feBlend mode="normal" in2="BackgroundImageFix" result="effect1_dropShadow_6877_35309"/>
<feBlend mode="normal" in="SourceGraphic" in2="effect1_dropShadow_6877_35309" result="shape"/>
</filter>
<filter id="filter7_d_6877_35309" x="35.1321" y="246.405" width="260.796" height="260.796" filterUnits="userSpaceOnUse" color-interpolation-filters="sRGB">
<feFlood flood-opacity="0" result="BackgroundImageFix"/>
<feColorMatrix in="SourceAlpha" type="matrix" values="0 0 0 0 0 0 0 0 0 0 0 0 0 0 0 0 0 0 127 0" result="hardAlpha"/>
<feOffset/>
<feGaussianBlur stdDeviation="12.6273"/>
<feColorMatrix type="matrix" values="0 0 0 0 0.239216 0 0 0 0 0.513726 0 0 0 0 0.380392 0 0 0 0.22 0"/>
<feBlend mode="normal" in2="BackgroundImageFix" result="effect1_dropShadow_6877_35309"/>
<feBlend mode="normal" in="SourceGraphic" in2="effect1_dropShadow_6877_35309" result="shape"/>
</filter>
<filter id="filter8_d_6877_35309" x="35.1321" y="31.4726" width="260.796" height="260.796" filterUnits="userSpaceOnUse" color-interpolation-filters="sRGB">
<feFlood flood-opacity="0" result="BackgroundImageFix"/>
<feColorMatrix in="SourceAlpha" type="matrix" values="0 0 0 0 0 0 0 0 0 0 0 0 0 0 0 0 0 0 127 0" result="hardAlpha"/>
<feOffset/>
<feGaussianBlur stdDeviation="12.6273"/>
<feColorMatrix type="matrix" values="0 0 0 0 0.239216 0 0 0 0 0.513726 0 0 0 0 0.380392 0 0 0 0.22 0"/>
<feBlend mode="normal" in2="BackgroundImageFix" result="effect1_dropShadow_6877_35309"/>
<feBlend mode="normal" in="SourceGraphic" in2="effect1_dropShadow_6877_35309" result="shape"/>
</filter>
<filter id="filter9_d_6877_35309" x="245.907" y="244.412" width="293.148" height="172.411" filterUnits="userSpaceOnUse" color-interpolation-filters="sRGB">
<feFlood flood-opacity="0" result="BackgroundImageFix"/>
<feColorMatrix in="SourceAlpha" type="matrix" values="0 0 0 0 0 0 0 0 0 0 0 0 0 0 0 0 0 0 127 0" result="hardAlpha"/>
<feOffset/>
<feGaussianBlur stdDeviation="12.6273"/>
<feColorMatrix type="matrix" values="0 0 0 0 0.239216 0 0 0 0 0.513726 0 0 0 0 0.380392 0 0 0 0.22 0"/>
<feBlend mode="normal" in2="BackgroundImageFix" result="effect1_dropShadow_6877_35309"/>
<feBlend mode="normal" in="SourceGraphic" in2="effect1_dropShadow_6877_35309" result="shape"/>
</filter>
<filter id="filter10_d_6877_35309" x="245.907" y="121.85" width="293.148" height="172.411" filterUnits="userSpaceOnUse" color-interpolation-filters="sRGB">
<feFlood flood-opacity="0" result="BackgroundImageFix"/>
<feColorMatrix in="SourceAlpha" type="matrix" values="0 0 0 0 0 0 0 0 0 0 0 0 0 0 0 0 0 0 127 0" result="hardAlpha"/>
<feOffset/>
<feGaussianBlur stdDeviation="12.6273"/>
<feColorMatrix type="matrix" values="0 0 0 0 0.239216 0 0 0 0 0.513726 0 0 0 0 0.380392 0 0 0 0.22 0"/>
<feBlend mode="normal" in2="BackgroundImageFix" result="effect1_dropShadow_6877_35309"/>
<feBlend mode="normal" in="SourceGraphic" in2="effect1_dropShadow_6877_35309" result="shape"/>
</filter>
<filter id="filter11_d_6877_35309" x="2.06955" y="244.412" width="293.148" height="172.411" filterUnits="userSpaceOnUse" color-interpolation-filters="sRGB">
<feFlood flood-opacity="0" result="BackgroundImageFix"/>
<feColorMatrix in="SourceAlpha" type="matrix" values="0 0 0 0 0 0 0 0 0 0 0 0 0 0 0 0 0 0 127 0" result="hardAlpha"/>
<feOffset/>
<feGaussianBlur stdDeviation="12.6273"/>
<feColorMatrix type="matrix" values="0 0 0 0 0.239216 0 0 0 0 0.513726 0 0 0 0 0.380392 0 0 0 0.22 0"/>
<feBlend mode="normal" in2="BackgroundImageFix" result="effect1_dropShadow_6877_35309"/>
<feBlend mode="normal" in="SourceGraphic" in2="effect1_dropShadow_6877_35309" result="shape"/>
</filter>
<filter id="filter12_d_6877_35309" x="2.06955" y="121.85" width="293.148" height="172.411" filterUnits="userSpaceOnUse" color-interpolation-filters="sRGB">
<feFlood flood-opacity="0" result="BackgroundImageFix"/>
<feColorMatrix in="SourceAlpha" type="matrix" values="0 0 0 0 0 0 0 0 0 0 0 0 0 0 0 0 0 0 127 0" result="hardAlpha"/>
<feOffset/>
<feGaussianBlur stdDeviation="12.6273"/>
<feColorMatrix type="matrix" values="0 0 0 0 0.239216 0 0 0 0 0.513726 0 0 0 0 0.380392 0 0 0 0.22 0"/>
<feBlend mode="normal" in2="BackgroundImageFix" result="effect1_dropShadow_6877_35309"/>
<feBlend mode="normal" in="SourceGraphic" in2="effect1_dropShadow_6877_35309" result="shape"/>
</filter>
<filter id="filter13_d_6877_35309" x="220.4" y="207.4" width="100.2" height="112.2" filterUnits="userSpaceOnUse" color-interpolation-filters="sRGB">
<feFlood flood-opacity="0" result="BackgroundImageFix"/>
<feColorMatrix in="SourceAlpha" type="matrix" values="0 0 0 0 0 0 0 0 0 0 0 0 0 0 0 0 0 0 127 0" result="hardAlpha"/>
<feOffset/>
<feGaussianBlur stdDeviation="9.3"/>
<feColorMatrix type="matrix" values="0 0 0 0 0.239216 0 0 0 0 0.513726 0 0 0 0 0.380392 0 0 0 0.22 0"/>
<feBlend mode="normal" in2="BackgroundImageFix" result="effect1_dropShadow_6877_35309"/>
<feBlend mode="normal" in="SourceGraphic" in2="effect1_dropShadow_6877_35309" result="shape"/>
</filter>
</defs>
</svg>
