<svg width="202" height="180" viewBox="0 0 202 180" fill="none" xmlns="http://www.w3.org/2000/svg">
<path fill-rule="evenodd" clip-rule="evenodd" d="M193.587 60.1855L194.169 61.2067L194.732 62.2396L195.277 63.2839L195.802 64.3392L196.308 65.4051L196.793 66.4813L197.258 67.5672L197.703 68.6625L198.126 69.7668L198.528 70.8797L198.908 72.0006L199.267 73.1293L199.604 74.2652L199.919 75.4079L200.211 76.5569L200.481 77.712L200.729 78.8725L200.955 80.0381L201.159 81.2084L201.34 82.3829L201.499 83.5613L201.636 84.7432L201.751 85.928L201.844 87.1156L201.915 88.3054L201.965 89.4972L201.993 90.6905L202 91.885L201.986 93.0804L201.95 94.2763L201.895 95.4725L201.818 96.6685L201.721 97.8642L201.604 99.0591L201.468 100.253L201.311 101.446L201.136 102.637L200.941 103.827L200.727 105.014L200.494 106.199L200.243 107.382L199.973 108.561L199.685 109.738L199.379 110.912L199.056 112.082L198.715 113.248L198.356 114.411L197.98 115.569L197.587 116.722L197.177 117.871L196.75 119.016L196.306 120.154L195.846 121.288L195.368 122.415L194.874 123.537L194.364 124.652L193.837 125.76L193.294 126.862L192.734 127.957L192.159 129.044L191.568 130.124L190.961 131.196L190.338 132.26L189.7 133.316L189.047 134.363L188.379 135.402L187.696 136.431L186.998 137.452L186.286 138.464L185.559 139.466L184.819 140.458L184.064 141.441L183.296 142.414L182.515 143.377L181.72 144.33L180.912 145.273L180.092 146.205L179.26 147.127L178.415 148.038L177.558 148.939L176.689 149.829L175.809 150.708L174.918 151.576L174.015 152.434L173.102 153.28L172.178 154.116L171.244 154.94L170.299 155.753L169.345 156.555L168.381 157.346L167.408 158.126L166.425 158.894L165.434 159.651L164.433 160.396L163.424 161.131L162.406 161.853L161.38 162.565L160.346 163.264L159.304 163.952L158.254 164.629L157.196 165.294L156.131 165.947L155.059 166.588L153.979 167.217L152.892 167.834L151.799 168.439L150.698 169.031L149.591 169.611L148.477 170.179L147.357 170.733L146.23 171.274L145.096 171.802L143.957 172.316L142.811 172.816L141.659 173.301L140.501 173.772L139.337 174.227L138.168 174.667L136.992 175.092L135.811 175.5L134.625 175.891L133.433 176.265L132.237 176.622L131.035 176.961L129.828 177.281L128.617 177.582L127.402 177.864L126.182 178.126L124.959 178.368L123.732 178.589L122.501 178.789L121.268 178.967L120.032 179.123L118.794 179.256L117.553 179.367L116.311 179.454L115.068 179.518L113.824 179.557L112.579 179.572L111.335 179.563L110.091 179.528L108.848 179.468L107.607 179.383L106.367 179.272L105.13 179.135L103.896 178.972L102.666 178.783L101.439 178.568L100.218 178.327L99.0009 178.06L97.7898 177.767L96.5849 177.448L95.3867 177.104L94.1958 176.734L93.0127 176.339L91.8379 175.919L90.6719 175.475L89.5152 175.007L88.3683 174.515L87.2316 174L86.1057 173.462L84.9909 172.902L83.8876 172.32L82.7963 171.717L81.7174 171.093L80.6512 170.449L79.5981 169.785L78.5584 169.102L77.5324 168.401L76.5205 167.681L75.5228 166.945L74.5397 166.191L73.5713 165.422L72.618 164.638L71.6798 163.838L70.7569 163.025L69.8495 162.199L68.9578 161.359L68.0817 160.508L67.2213 159.646L66.3768 158.773L65.5481 157.89L64.7353 156.998L63.9383 156.098L63.1571 155.19L62.3916 154.275L61.6417 153.353L60.9074 152.426L60.1885 151.493L59.4849 150.556L58.7963 149.616L58.1227 148.672L57.4637 147.726L56.8193 146.778L56.1891 145.829L55.5728 144.879L54.9703 143.929L54.3812 142.98L53.8052 142.031L53.242 141.085L52.6912 140.14L52.1526 139.198L51.6258 138.258L51.1104 137.323L50.606 136.391L50.1123 135.463L49.6288 134.54L49.1553 133.622L48.6911 132.71L48.236 131.803L47.7894 130.902L47.3509 130.008L46.92 129.121L46.4961 128.241L46.0788 127.369L45.6675 126.504L45.2618 125.647L44.861 124.799L44.4647 123.959L44.0722 123.129L43.6831 122.307L43.2968 121.494L42.9127 120.69L42.5303 119.896L42.1491 119.111L41.7685 118.336L41.388 117.57L41.007 116.814L40.6251 116.068L40.2419 115.33L39.8567 114.603L39.4691 113.884L39.0787 113.174L38.6851 112.474L38.2878 111.782L37.8864 111.098L37.4806 110.423L37.0701 109.756L36.6545 109.097L36.2334 108.445L35.8067 107.8L35.3741 107.161L34.9352 106.53L34.49 105.904L34.0383 105.283L33.5798 104.668L33.1145 104.058L32.6422 103.452L32.1629 102.85L31.6764 102.251L31.1828 101.655L30.6821 101.062L30.1741 100.471L29.659 99.8811L29.1367 99.2928L28.6073 98.7051L28.071 98.1178L27.5276 97.5302L26.9774 96.9421L26.4206 96.3528L25.8571 95.762L25.2874 95.1692L24.7115 94.574L24.1299 93.9758L23.5427 93.3742L22.9503 92.7688L22.3532 92.1591L21.7516 91.5447L21.1461 90.925L20.5371 90.2998L19.925 89.6686L19.3105 89.031L18.694 88.3865L18.0761 87.735L17.4575 87.0759L16.8387 86.4089L16.2204 85.7338L15.6032 85.0502L14.9878 84.3579L14.375 83.6566L13.7654 82.946L13.1597 82.2261L12.5588 81.4966L11.9632 80.7574L11.3739 80.0083L10.7914 79.2492L10.2167 78.4802L9.65051 77.701L9.09352 76.9118L8.54653 76.1125L8.0103 75.3032L7.4856 74.484L6.97317 73.6549L6.47374 72.8161L5.98806 71.9677L5.51682 71.1099L5.06074 70.243L4.6205 69.3671L4.19676 68.4825L3.79018 67.5896L3.40137 66.6885L3.03095 65.7797L2.67949 64.8635L2.34755 63.9403L2.03564 63.0105L1.74428 62.0744L1.47393 61.1326L1.22503 60.1855L0.997987 59.2334L0.793196 58.277L0.611045 57.3168L0.451912 56.3531L0.316163 55.3866L0.204152 54.4177L0.116219 53.4471L0.0526852 52.4753L0.0138518 51.5028L0 50.5302L0.0113875 49.5582L0.0482471 48.5873L0.110785 47.6182L0.19918 46.6514L0.313582 45.6876L0.454107 44.7274L0.620845 43.7715L0.813848 42.8204L1.03314 41.8749L1.2787 40.9355L1.55048 40.0028L1.84841 39.0775L2.17235 38.1603L2.52216 37.2517L2.89764 36.3523L3.29857 35.4627L3.72469 34.5835L4.1757 33.7153L4.65126 32.8586L5.15102 32.0139L5.67459 31.1819L6.22152 30.3629L6.79137 29.5575L7.38366 28.7661L7.99785 27.9892L8.63343 27.2272L9.28981 26.4805L9.96642 25.7494L10.6627 25.0344L11.3779 24.3357L12.1115 23.6537L12.8627 22.9886L13.631 22.3407L14.4156 21.7103L15.2159 21.0974L16.0311 20.5024L16.8606 19.9254L17.7037 19.3664L18.5596 18.8257L19.4276 18.3034L20.3071 17.7994L21.1974 17.314L22.0978 16.847L23.0076 16.3986L23.9261 15.9688L24.8525 15.5574L25.7863 15.1644L26.7266 14.7897L27.6726 14.4331L28.6238 14.0946L29.5792 13.7739L30.5383 13.4707L31.5002 13.1848L32.4642 12.9159L33.4295 12.6638L34.3955 12.428L35.3615 12.2081L36.3266 12.0038L37.2903 11.8147L38.2518 11.6402L39.2105 11.4799L40.1657 11.3334L41.1168 11.2L42.0631 11.0792L43.0041 10.9705L43.9392 10.8732L44.8679 10.7868L45.7896 10.7107L46.7037 10.6442L47.61 10.5866L48.5078 10.5374L49.3967 10.4958L50.2765 10.4612L51.1466 10.4328L52.0069 10.4101L52.8569 10.3923L53.6964 10.3788L54.5252 10.3688L55.3431 10.3616L56.1498 10.3567L56.9453 10.3533L57.7294 10.3507L58.5021 10.3483L59.2633 10.3454L60.013 10.3415L60.7512 10.3359L61.4779 10.328L62.1933 10.3172L62.8974 10.3029L63.5904 10.2847L64.2724 10.2619L64.9437 10.2342L65.6044 10.201L66.2548 10.1618L66.8952 10.1164L67.5258 10.0642L68.147 10.005L68.7592 9.93859L69.3627 9.86461L69.958 9.78291L70.5454 9.69335L71.1254 9.59581L71.6984 9.49022L72.2649 9.37657L72.8254 9.25487L73.3802 9.12518L73.93 8.98758L74.4752 8.84222L75.0162 8.68927L75.5536 8.52892L76.0878 8.36143L76.6192 8.18707L77.1484 8.00614L77.6758 7.81898L78.2018 7.62596L78.7268 7.42747L79.2514 7.22392L79.7758 7.01577L80.3004 6.80346L80.8257 6.58749L81.3519 6.36835L81.8794 6.14655L82.4086 5.92263L82.9396 5.69713L83.4727 5.47058L84.0082 5.24356L84.5463 5.0166L85.0873 4.79028L85.6312 4.56516L86.1782 4.34179L86.7285 4.12072L87.2821 3.90251L87.8391 3.68768L88.3997 3.47676L88.9638 3.27027L89.5314 3.06869L90.1026 2.8725L90.6773 2.68215L91.2554 2.49808L91.837 2.32069L92.4219 2.15036L93.0101 1.98745L93.6014 1.83227L94.1958 1.68511L94.7931 1.54623L95.3932 1.41585L95.9959 1.29419L96.6011 1.18144L97.2086 1.07779L97.8183 0.983405L98.43 0.898448L99.0436 0.823059L99.6588 0.757368L100.276 0.701487L100.894 0.655517L101.513 0.619545L102.133 0.593642L102.754 0.577867L103.375 0.572266L103.997 0.576869L104.619 0.591695L105.241 0.616751L105.863 0.652028L106.485 0.697508L107.106 0.75316L107.726 0.818939L108.346 0.894793L108.965 0.980655L109.582 1.07645L110.198 1.18209L110.813 1.29748L111.425 1.42252L112.037 1.55708L112.646 1.70105L113.253 1.85429L113.858 2.01667L114.461 2.18803L115.061 2.36823L115.659 2.5571L116.255 2.75447L116.847 2.96017L117.437 3.17402L118.025 3.39584L118.609 3.62545L119.191 3.86264L119.769 4.10722L120.345 4.359L120.917 4.61776L121.487 4.88332L122.054 5.15545L122.617 5.43395L123.178 5.71862L123.736 6.00924L124.291 6.3056L124.843 6.60749L125.392 6.91469L125.938 7.22701L126.482 7.54421L127.023 7.86608L127.562 8.19237L128.098 8.52287L128.632 8.85732L129.165 9.19549L129.695 9.53714L130.223 9.88204L130.751 10.2299L131.276 10.5806L131.801 10.9339L132.325 11.2894L132.848 11.6471L133.371 12.0067L133.894 12.3681L134.418 12.7309L134.941 13.0951L135.466 13.4605L135.992 13.8269L136.519 14.1943L137.047 14.5623L137.578 14.9311L138.112 15.3004L138.647 15.6701L139.186 16.0403L139.729 16.4108L140.275 16.7817L140.825 17.1528L141.379 17.5243L141.938 17.8961L142.502 18.2682L143.071 18.6408L143.645 19.0139L144.226 19.3876L144.813 19.762L145.406 20.1372L146.006 20.5134L146.612 20.8908L147.226 21.2695L147.847 21.6497L148.476 22.0318L149.112 22.4158L149.757 22.8021L150.409 23.191L151.069 23.5826L151.738 23.9775L152.415 24.3758L153.1 24.7778L153.794 25.1841L154.495 25.5948L155.205 26.0104L155.923 26.4313L156.65 26.8578L157.384 27.2904L158.125 27.7294L158.875 28.1752L159.631 28.6282L160.395 29.0888L161.166 29.5574L161.943 30.0343L162.727 30.5201L163.517 31.0149L164.312 31.5193L165.113 32.0336L165.919 32.5581L166.729 33.0933L167.543 33.6393L168.361 34.1967L169.182 34.7656L170.006 35.3465L170.832 35.9396L171.66 36.5452L172.489 37.1636L173.318 37.795L174.148 38.4397L174.977 39.0978L175.804 39.7697L176.63 40.4554L177.453 41.1552L178.274 41.8692L179.09 42.5976L179.902 43.3404L180.709 44.0977L181.51 44.8696L182.305 45.6562L183.093 46.4574L183.873 47.2734L184.644 48.104L185.406 48.9491L186.159 49.8089L186.9 50.6831L187.631 51.5716L188.349 52.4744L189.055 53.3913L189.748 54.322L190.426 55.2664L191.09 56.2243L191.739 57.1954L192.372 58.1795L192.988 59.1763L193.587 60.1855Z" fill="#FFC436"/>
</svg>
