<svg width="99" height="58" viewBox="0 0 99 58" fill="none" xmlns="http://www.w3.org/2000/svg">
<path d="M97.734 0.924215C95.9076 3.01635 94.0552 4.99444 92.1767 6.85848C92 6.91432 91.3434 7.11856 90.3205 7.40679C84.938 8.75708 80.6526 9.06838 75.0684 8.51605C68.2166 7.83794 62.4702 8.61398 61.5997 9.73445C61.5253 9.82123 61.4835 9.92446 61.4796 10.0311C61.4758 10.1376 61.51 10.2428 61.578 10.3332L61.5798 10.3356C62.5773 11.7215 66.343 12.6826 71.6549 12.4523C76.8521 12.2269 83.5297 10.8601 90.5382 7.63356L90.5422 7.63142C91.0432 7.48947 91.4502 7.36922 91.7501 7.27896C88.7488 10.241 85.5554 13.0644 82.1841 15.7364C81.9931 15.8198 81.8019 15.9015 81.6105 15.9815C77.1183 17.602 62.5101 18.1196 51.3932 16.4202C48.3317 15.9522 44.9152 15.2649 41.6133 14.599C34.3458 13.1353 29.847 12.2808 28.9663 13.1228C28.7852 13.2958 28.7588 13.524 28.8875 13.8003L28.8912 13.8051C30.6277 17.4806 39.2872 20.1475 46.8157 21.4164C51.5236 22.2095 55.8405 22.4122 59.7275 22.2463C70.0205 21.7989 77.2507 18.7327 80.5061 17.0419C75.0343 21.2306 69.1046 24.9847 62.794 28.2553C61.0703 28.3817 57.336 28.2537 54.0009 26.9821C48.6387 24.9375 45.4787 24.3024 44.6044 25.091C44.1826 25.4718 44.2897 26.1204 44.9317 27.0735C46.2415 29.0202 48.8425 30.1299 52.4469 30.275C53.0476 30.2994 53.6494 30.2985 54.25 30.2724C56.4347 30.1757 58.8038 29.7684 61.1643 29.0804C58.9843 30.1642 56.9191 31.1063 55.004 31.9222C53.5695 32.5331 52.1817 33.089 50.8473 33.5966C48.9311 33.2687 45.2468 32.1005 40.9899 30.747C31.4361 27.7126 23.951 25.474 22.2056 26.6074C22.1631 26.5514 22.1209 26.4958 22.0791 26.4408C22.068 26.4254 22.0533 26.4119 22.036 26.4012C22.0187 26.3904 21.9989 26.3827 21.978 26.3783C21.957 26.374 21.9352 26.3731 21.9139 26.3758C21.8925 26.3784 21.872 26.3846 21.8535 26.3939C21.8349 26.4031 21.8187 26.4154 21.8058 26.4298C21.7929 26.4443 21.7836 26.4608 21.7784 26.4783C21.7732 26.4958 21.7723 26.514 21.7756 26.5318C21.7789 26.5496 21.7864 26.5667 21.7976 26.5821C21.8559 26.6589 21.9154 26.7371 21.9755 26.8163C21.6598 27.2299 21.8246 27.8562 22.4775 28.7265C26.6249 34.2552 39.6643 34.4773 46.5408 34.1772C47.9375 34.1181 49.0777 34.0345 49.8413 33.9712C46.836 35.0862 43.7622 36.0689 40.6328 36.9152C39.7145 36.9096 38.7971 36.8643 37.8844 36.7793C34.5075 36.3205 30.8145 34.879 27.8449 33.72C25.0233 32.6189 22.9845 31.8229 22.1285 32.1781C22.0275 32.22 21.9395 32.2807 21.8715 32.3557C21.8035 32.4307 21.7573 32.5177 21.7366 32.6101L21.7337 32.619C21.5918 33.1749 21.8503 33.8006 22.4615 34.382C24.9609 36.7557 31.3011 37.3523 36.7887 37.116C37.1637 37.0989 37.5348 37.0788 37.9021 37.0559C38.4908 37.1092 39.0794 37.1469 39.668 37.1688C39.2706 37.2711 38.891 37.3661 38.5291 37.4539C37.7298 37.6359 36.7714 37.8381 35.6748 38.0346C35.0719 38.1086 34.456 38.2029 33.8248 38.308C28.0943 38.8228 23.3368 38.2849 18.9153 36.6239C9.09349 32.9385 1.07661 32.8647 0.323317 33.8221C0.266398 33.8947 0.165148 34.0852 0.442768 34.3L0.445699 34.3038C7.92289 39.9484 16.6539 40.8555 22.7825 40.5901C22.9003 40.5849 23.0172 40.5792 23.1333 40.5731C23.9648 40.5309 24.7696 40.4663 25.5415 40.3872C16.4721 43.2567 7.8018 47.7011 7.60378 49.2186C7.59835 49.2628 7.60001 49.3073 7.60872 49.3512L7.61128 49.3545C7.63807 49.4817 7.73851 49.6289 8.02482 49.7141C9.1777 50.0501 10.4537 50.1876 11.8528 50.1268C15.7259 49.9588 20.5294 48.2725 26.1934 45.085C31.6949 41.9871 36.0796 38.5077 36.4459 38.2142C37.0824 38.0786 37.8208 37.9117 38.6494 37.7095C39.0549 37.6172 39.4196 37.53 39.7396 37.4501C36.8922 39.1202 28.2147 44.4431 27.1974 47.8293C26.8585 48.9539 26.938 49.2392 27.175 49.3321C27.2189 49.3496 27.2674 49.3576 27.3159 49.3553C27.7368 49.3366 28.4198 48.6169 29.9765 46.8738C30.9904 45.738 32.1402 44.4509 33.1898 43.5342C36.0815 41.0108 40.4593 37.454 40.8084 37.1709C41.1434 37.0777 41.3263 37.0213 41.3453 37.0154C41.3562 37.011 41.3665 37.0056 41.376 36.9992C42.5945 36.6628 43.935 36.267 45.3806 35.8043C45.2799 36.1803 45.1742 36.5552 45.0636 36.9289C43.9072 39.1541 41.6493 41.7414 39.465 44.244C35.5942 48.6885 31.5834 53.2831 33.5199 56.1254C33.8367 56.5907 34.2239 56.908 34.6702 57.0746C34.6831 57.0932 34.7009 57.109 34.7224 57.1209C34.7514 57.1364 34.7855 57.144 34.82 57.1425C34.8352 57.1415 34.8502 57.139 34.8647 57.1352C35.0814 57.1914 35.3083 57.2148 35.5349 57.2042C35.6925 57.1969 35.8488 57.1765 36.0015 57.1432C37.1868 56.8871 38.575 55.8295 39.9132 54.1472C42.9684 53.9805 49.2959 47.6828 50.938 44.1725C53.1639 39.4122 54.0832 33.8815 54.1319 33.5856C54.4903 32.9076 54.716 32.461 54.7873 32.3208L55.1399 32.1717C57.5162 31.1604 60.122 29.9554 62.8907 28.5268C62.9017 28.521 62.9147 28.5189 62.9268 28.5145C62.9315 28.5121 62.9355 28.51 62.9396 28.5078C62.9444 28.5056 62.9491 28.5032 62.9535 28.5005C62.9577 28.4986 62.9618 28.4965 62.9657 28.4941C62.9703 28.492 62.9747 28.4896 62.979 28.4871C62.9825 28.4853 62.9854 28.4837 62.9889 28.4819C64.2321 27.8389 65.5042 27.1521 66.8053 26.4215C66.6668 26.6762 66.472 27.0396 66.2346 27.4943C64.3947 29.8117 62.7614 32.2384 61.3477 34.7547C59.239 38.5281 56.9644 43.8879 58.111 48.007C58.6668 50.0051 59.3384 50.9588 60.1637 50.9233L60.1732 50.923C62.3023 50.8077 64.2964 43.559 64.7682 39.7048C64.8161 39.3169 64.8648 38.9308 64.9144 38.5465C65.2038 38.6729 65.5289 38.7316 65.8552 38.7165C66.0386 38.7081 66.2198 38.6793 66.3941 38.6309C71.8885 37.1021 76.3613 29.3776 76.3662 21.4111L76.3629 21.4067C76.523 20.7466 76.5916 20.3347 76.6039 20.2546C78.4822 18.9439 80.3788 17.5351 82.2937 16.0282C82.3804 15.9724 82.4283 15.9404 82.4374 15.9343C82.4479 15.9265 82.4574 15.9179 82.4658 15.9086C82.4702 15.9037 82.4742 15.8987 82.4778 15.8934C82.4793 15.8911 82.4804 15.8887 82.4813 15.8862C82.4836 15.8823 82.4857 15.8783 82.4875 15.8741C83.7456 14.876 85.0058 13.8329 86.2682 12.745C86.3387 13.0195 86.4626 13.5214 86.6192 14.2149C87.4622 20.9682 86.1767 24.8903 84.5501 29.853C84.1433 31.0944 83.7221 32.3779 83.3132 33.7813C82.5858 36.2593 83.0686 39.916 84.2489 40.8906C84.4945 41.0933 84.7297 41.1411 84.9138 41.1335C84.9618 41.1313 85.0094 41.1253 85.056 41.1154C85.0583 41.1139 85.0609 41.1126 85.0635 41.1115C86.155 40.8804 87.0847 40.1979 87.8259 39.0846C90.8336 34.5725 90.428 23.1363 86.9384 14.1105C86.9361 14.1069 86.9335 14.1036 86.9307 14.1003C86.739 13.2441 86.5926 12.6838 86.5456 12.5065C88.4988 10.8099 90.4452 9.00047 92.3849 7.07809C92.4017 7.06652 92.4158 7.05246 92.4264 7.03661C94.3056 5.16498 96.1632 3.1815 97.9991 1.08617C98.0118 1.07159 98.0209 1.05508 98.0259 1.03756C98.031 1.02004 98.0318 1.00187 98.0284 0.984081C98.025 0.966292 98.0174 0.949242 98.0061 0.933892C97.9947 0.918544 97.9799 0.905197 97.9624 0.894622C97.9449 0.884045 97.925 0.876451 97.904 0.872262C97.8829 0.868072 97.8611 0.867372 97.8397 0.870207C97.8184 0.873038 97.7979 0.879343 97.7794 0.888768C97.761 0.898192 97.745 0.910545 97.7323 0.925128L97.734 0.924215ZM61.8752 9.88347C62.3264 9.302 64.7394 8.73237 68.2502 8.57997C70.5128 8.49079 72.7804 8.56043 75.0291 8.78814C78.8258 9.16389 82.0275 9.14308 85.3734 8.67323C78.8323 10.1844 68.9469 11.83 61.8345 10.1516C61.8119 10.1079 61.8037 10.06 61.8108 10.0129C61.818 9.96572 61.8402 9.92103 61.8752 9.88347ZM62.1383 10.5034C64.803 11.0794 67.8233 11.2162 70.8997 11.0829C77.6176 10.7919 84.5964 9.21463 88.7025 8.13521C75.9329 13.5291 64.6649 12.8243 62.1383 10.5034ZM22.5814 32.3662C23.4978 32.3267 25.4673 33.0956 27.7077 33.9699C29.6669 34.7327 31.9344 35.6192 34.2286 36.2706C28.1614 35.1539 22.9411 32.9509 22.095 32.585C22.131 32.5152 22.1961 32.4586 22.2784 32.4257C22.3733 32.3885 22.4765 32.3683 22.5814 32.3662ZM22.7134 34.2049C22.2413 33.7564 22.0041 33.2871 22.0312 32.8633C23.2368 33.3819 29.4603 35.9546 36.2308 36.8688C28.6602 37.1422 24.2997 35.712 22.7134 34.2049ZM23.443 26.5706C26.5004 26.4378 34.3622 28.9351 40.8731 31.0025C44.0835 32.0233 46.9699 32.9382 49.0279 33.4699C43.3802 33.022 26.5118 31.3279 22.393 26.8285C22.6164 26.6737 22.9724 26.5911 23.443 26.5706ZM22.757 28.5815C22.2434 27.8967 22.057 27.3885 22.197 27.0641C24.3127 29.3025 29.6081 31.1139 37.9607 32.4546C42.5208 33.1857 46.8735 33.5817 49.1726 33.7587C46.2691 33.9829 41.6317 34.1449 37.0766 33.7709C29.704 33.1647 24.8864 31.4182 22.757 28.5815ZM8.1343 49.4564C8.10108 49.447 8.06905 49.4349 8.03864 49.4203C18.5386 47.5932 30.2246 41.6307 34.6365 39.2259C30.016 42.6502 16.4858 51.89 8.13656 49.4573L8.1343 49.4564ZM26.9067 40.2237C27.6759 39.996 28.4463 39.7819 29.2181 39.5812C30.4211 39.2692 31.6186 38.9938 32.795 38.7688L32.9627 38.7373C33.1399 38.7035 33.3183 38.6712 33.4937 38.6404C33.5046 38.669 33.5266 38.6939 33.5562 38.7111C33.5858 38.7283 33.6215 38.7368 33.6575 38.7353C33.6639 38.7353 33.6703 38.7347 33.6764 38.7335C33.7001 38.7305 34.3519 38.6375 35.5286 38.4043C32.3502 40.1911 19.4326 47.1619 7.95838 49.1543C8.50674 47.6599 17.5283 43.0016 26.909 40.2245L26.9067 40.2237ZM0.602506 33.976C0.738059 33.8039 1.37376 33.662 2.42204 33.6166C5.32903 33.49 11.4033 34.1062 18.7847 36.8772C22.3887 38.2303 26.2088 38.8506 30.5845 38.7662C22.4845 39.6249 11.0079 39.4267 0.663786 34.0951C0.567579 34.0187 0.590148 33.9886 0.602506 33.976ZM23.1082 40.3018C17.41 40.5921 9.2977 39.8873 2.09901 35.1127C10.34 38.9096 19.129 39.6686 26.3014 39.3594C27.6528 39.3005 28.9442 39.2056 30.1678 39.0821C29.1325 39.337 28.0839 39.6225 27.0349 39.9319C25.7338 40.1096 24.4227 40.2324 23.1067 40.2999L23.1082 40.3018ZM32.9554 43.3453C31.8912 44.2738 30.7358 45.5685 29.7162 46.7106C28.7743 47.7659 27.6018 49.0798 27.3319 49.0941C27.3132 49.0695 27.2183 48.9018 27.5197 47.8976C28.4157 44.9097 35.7806 40.1797 39.1444 38.1486C37.532 39.4709 34.9065 41.6427 32.9554 43.3453ZM50.6328 44.0709C49.7869 45.88 47.6993 48.4372 45.3203 50.584C43.2485 52.4515 41.3608 53.6294 40.1519 53.8405C40.0116 53.8667 39.8678 53.8779 39.7241 53.8736C39.6534 53.8712 39.5832 53.8629 39.5145 53.8488C39.3846 53.8241 39.2635 53.7744 39.1608 53.7037C39.6593 53.3804 40.1329 53.0314 40.5789 52.6587C40.8658 52.4217 41.1532 52.1695 41.441 51.9022C46.4043 47.3093 51.406 38.6387 53.625 34.535C53.2588 36.3761 52.3251 40.4504 50.631 44.0718L50.6328 44.0709ZM41.1066 51.8072C40.4479 52.4212 39.726 52.9861 38.9491 53.4955C38.6023 53.0304 38.6012 52.2179 38.688 51.52L38.689 51.5127C38.7259 51.2229 38.7781 50.9355 38.8456 50.6503C39.2695 48.8328 40.2856 47.1518 41.6204 45.5558C41.8711 45.2554 42.1324 44.9581 42.4042 44.6642C43.0521 43.9623 43.755 43.2774 44.4877 42.5985C44.6268 42.4706 44.7662 42.3431 44.9071 42.2156C45.8118 41.3955 46.756 40.589 47.6909 39.7895C49.5943 38.162 51.5507 36.489 53.1625 34.7276C50.995 38.7131 46.5088 46.4189 41.9537 50.9957C41.6685 51.2796 41.387 51.5501 41.1066 51.8072ZM42.8042 43.8048C43.6216 42.0107 44.3859 40.1114 45.0256 38.158C44.9598 39.4814 44.8103 40.8009 44.5778 42.1111C43.9636 42.6661 43.3683 43.2309 42.8042 43.8048ZM33.8072 55.9918C31.9739 53.3014 35.9198 48.7795 39.7356 44.4058C41.5374 42.341 43.3896 40.2187 44.6426 38.2778C43.9319 40.3949 43.0886 42.4795 42.1161 44.5231C40.165 46.6414 38.6985 48.9028 38.3671 51.4395C36.598 54.3359 35.1398 56.3091 34.7651 56.8064C34.4 56.6633 34.0791 56.3915 33.8072 55.9918ZM35.9187 56.8772C35.6472 56.9399 35.3615 56.9474 35.0857 56.8992C35.4881 56.3604 36.7545 54.6348 38.3119 52.1309C38.2854 53.2939 38.6611 53.9606 39.4359 54.1172C39.4638 54.1229 39.492 54.1269 39.5202 54.131C38.2848 55.6665 37.0167 56.6407 35.9187 56.8772ZM53.8212 33.4949C52.0874 35.6374 49.7306 37.6522 47.4516 39.6005C46.6235 40.3066 45.7922 41.0192 44.984 41.7419C45.2357 40.1664 45.3713 38.5795 45.3902 36.9902C45.519 36.5578 45.6406 36.1237 45.7548 35.6878C47.3597 35.1677 49.0888 34.5653 50.919 33.8705C50.919 33.8705 50.9242 33.8677 50.9265 33.8665L50.9387 33.8601C50.9416 33.8586 50.9451 33.8567 50.948 33.8552C52.0397 33.4402 53.1673 32.991 54.3309 32.5075C54.2167 32.7386 54.0445 33.0719 53.8212 33.4949ZM45.6666 25.0382C47.0753 24.9769 49.9428 25.7375 53.8617 27.2317C56.2311 28.1349 58.7979 28.4718 60.7323 28.5501C56.8005 28.9903 48.3972 29.3707 44.9067 25.2293C45.0701 25.1163 45.3255 25.0529 45.6666 25.0382ZM45.2157 26.9409C44.8961 26.4656 44.5812 25.8629 44.7138 25.4754C47.6146 28.7998 53.5983 29.2284 57.9107 29.0414C59.2419 28.9837 60.4133 28.8674 61.2848 28.7602C52.8391 31.3406 47.0764 29.7048 45.2157 26.9409ZM67.1185 32.7668C70.7209 29.5869 73.4753 27.0398 75.0382 24.5891C73.6224 28.3459 70.7262 33.7402 65.0438 37.5639C65.1895 36.4734 65.3432 35.4179 65.4963 34.4194C65.9855 33.8349 66.5278 33.2824 67.1185 32.7668ZM65.4648 28.9931C62.9027 34.1412 58.2594 44.6535 59.7883 50.5477C59.4141 50.3296 58.9131 49.6808 58.43 47.9418C56.6945 41.7042 62.9198 32.4357 65.4659 28.9945L65.4648 28.9931ZM60.1508 50.6455C60.1505 50.6414 60.1498 50.6372 60.1487 50.6331C58.4518 44.5969 63.6015 33.3652 66.0827 28.4793C65.9968 29.0578 65.8782 29.8035 65.7446 30.6599C65.5759 31.7308 65.3787 32.9801 65.1754 34.3389C65.1444 34.5431 65.1137 34.7499 65.0833 34.9592C64.9486 35.8708 64.8127 36.8257 64.683 37.8058L64.6533 38.0242L64.6323 38.1826L64.607 38.3737C64.5504 38.8049 64.4954 39.2394 64.442 39.6771C63.9204 43.9306 61.8433 50.5571 60.1508 50.6455ZM66.2919 38.3704C66.0723 38.4358 65.8377 38.4589 65.6058 38.4377C65.3738 38.4166 65.1507 38.3518 64.9533 38.2482L64.9927 37.9497C71.967 33.3819 74.8792 26.4794 75.9923 22.7846C75.5021 30.0353 71.2575 36.9894 66.2919 38.3704ZM75.7517 22.455C74.6674 25.5263 71.462 28.5312 66.8833 32.579C66.42 32.9861 65.9849 33.4147 65.5802 33.863C65.7538 32.7023 65.9251 31.6295 66.0744 30.6965C66.3058 29.2304 66.4738 28.164 66.5334 27.6109C66.9868 26.7417 67.2861 26.205 67.3341 26.1196C70.1969 24.488 73.1835 22.6291 76.2338 20.5176C76.1577 20.8854 76.0107 21.5617 75.7517 22.455ZM84.4758 40.6989C83.4733 39.8706 82.8829 36.4004 83.6269 33.846C84.0365 32.4456 84.4567 31.164 84.8631 29.9242C86.2011 25.8446 87.3843 22.2366 87.1832 17.0563C88.2545 23.1568 89.2885 34.0109 84.9012 40.8603C84.7671 40.8687 84.623 40.8168 84.4758 40.6989ZM87.5338 38.9545C86.9233 39.8712 86.1868 40.4744 85.3402 40.7523C89.7505 33.5846 88.4976 22.3239 87.401 16.3962C90.1348 24.9357 90.27 34.8542 87.539 38.9538L87.5338 38.9545ZM29.2089 13.3054C30.0061 12.5479 35.8633 13.7237 41.5306 14.8642C44.8379 15.5307 48.2579 16.2195 51.3286 16.6887C61.0295 18.1729 73.3877 17.9641 79.4603 16.8096C68.2999 20.7604 55.8707 19.932 47.1064 18.4415C37.2801 16.7699 29.9118 13.9466 29.1745 13.6587C29.0844 13.429 29.1805 13.3365 29.214 13.3047L29.2089 13.3054ZM46.8801 21.1506C36.0493 19.3256 30.7948 16.3423 29.3747 14.0366C31.0807 14.6799 38.0298 17.1776 47.0343 18.7099C51.8888 19.5347 57.8636 20.16 64.1306 19.8887C69.553 19.6542 75.1952 18.7472 80.5212 16.721C78.9555 17.5544 76.3493 18.7718 72.8346 19.8252C67.2825 21.4898 58.2726 23.0708 46.8801 21.1506Z" fill="#3D8361"/>
</svg>
