<svg width="39" height="39" viewBox="0 0 39 39" fill="none" xmlns="http://www.w3.org/2000/svg">
<path d="M9.63949 38.9076C8.29861 38.704 7.00897 38.255 5.83811 37.5842C3.19737 36.103 1.22659 33.4498 0.59411 30.5272C0.347966 29.384 0.316995 27.9394 0.349596 19.036C0.380568 9.45504 0.357747 9.94932 0.823953 8.37082C1.05543 7.58476 1.69931 6.23426 2.16552 5.55344C3.88526 3.05016 6.41517 1.44297 9.54983 0.860994C10.1758 0.7446 11.0821 0.733438 19.4217 0.733438C29.6114 0.733438 29.2756 0.719088 30.9399 1.23409C32.5559 1.74548 34.0302 2.61288 35.2494 3.76948C36.4686 4.92608 37.4001 6.341 37.9721 7.90524C38.51 9.39923 38.5361 9.6384 38.5736 13.5735L38.6062 17.1291L37.9688 17.5564C37.0593 18.1639 35.866 19.2465 34.1936 20.9845C32.2668 22.9871 30.3205 24.843 29.3326 25.6195C27.1988 27.2953 25.2444 28.2519 23.2589 28.5915C22.2254 28.7669 20.5171 28.6984 19.5064 28.4401C18.605 28.2105 18.6637 28.1722 18.323 29.1799C18.0461 29.9773 17.872 30.8053 17.8046 31.6449L17.7541 32.2938L17.5161 32.246C15.5355 31.8617 13.5729 30.1971 12.8149 28.2599C12.5586 27.6412 12.4152 26.9834 12.3911 26.3163L12.365 25.7742L11.8613 25.3213C10.8115 24.3806 10.1285 23.2294 9.91334 22.0352C9.56776 20.133 10.4676 17.9821 12.4204 16.0465C14.4809 14.0008 17.5177 12.3952 20.4943 11.7734C21.5669 11.5501 23.4578 11.4911 24.4114 11.6538C26.2664 11.9695 27.7808 12.8863 28.723 14.2671C29.0196 14.6992 29.0408 14.7613 29.0115 15.152C29.004 15.4391 28.899 15.7156 28.7132 15.938C27.9552 16.976 25.7008 18.0873 23.2752 18.6167C18.9962 19.5495 16.2756 18.3903 16.701 15.8121C16.7434 15.5522 16.7662 15.3274 16.7516 15.313C16.6994 15.262 16.274 15.4788 15.8143 15.7914C15.0335 16.3239 14.3423 17.3603 14.1027 18.3536C14.044 18.6024 14.0212 19.001 14.0473 19.39C14.0799 19.9178 14.1337 20.1139 14.3602 20.5635C14.5102 20.8601 14.8085 21.281 15.0253 21.5026L15.4165 21.9029L15.26 22.0974C14.7986 22.6888 14.4269 23.3424 14.1565 24.0378C13.8497 24.9727 13.7908 25.9685 13.9853 26.9317C14.1532 27.6668 14.6716 28.6776 15.19 29.2724C15.5844 29.7268 16.4891 30.4905 16.6342 30.4905C16.6733 30.4905 16.7059 30.414 16.7059 30.3215C16.7076 29.9548 17.0059 28.7701 17.2373 28.2057C17.9269 26.5188 19.4396 25.0806 21.8342 23.8369C22.2336 23.6296 23.3861 23.0875 24.3967 22.6299C26.6136 21.6254 27.8248 21.0116 28.4899 20.5492C30.4069 19.221 31.5919 17.2566 31.9783 14.7693C32.1185 13.8605 32.1185 12.164 31.9783 11.2504C31.3784 7.36313 28.4002 4.71954 24.1245 4.28267C19.3565 3.79317 13.2876 7.39661 9.5482 12.9357C7.72902 15.6303 6.49993 18.6199 5.98319 21.6143C5.78269 22.775 5.70771 24.9307 5.83159 25.999C6.1462 28.7159 7.17153 30.9067 8.93366 32.6255C9.81608 33.4931 10.848 34.2018 11.9819 34.719C15.842 36.5207 20.1161 36.5606 23.8734 34.8322C25.497 34.0844 27.0912 32.9252 28.8012 31.2447C30.4639 29.6104 31.5887 28.2471 34.6565 24.1367C36.3518 21.8678 37.695 20.361 38.3601 19.9831L38.6046 19.846L38.5736 24.7744C38.5443 29.5466 38.5378 29.7284 38.3731 30.4523C37.3951 34.7222 34.2327 37.8441 29.9048 38.8103L29.1419 38.9809L19.7281 38.9969C12.0113 39.0096 10.1937 38.9937 9.63949 38.9076Z" fill="#3D8361"/>
</svg>
