<svg width="33" height="33" viewBox="0 0 33 33" fill="none" xmlns="http://www.w3.org/2000/svg">
<path opacity="0.4" d="M25.9377 11.1909V18.0576C25.9377 22.1643 23.591 23.9242 20.071 23.9242H8.35103C7.75103 23.9242 7.1777 23.871 6.64437 23.751C6.31104 23.6976 5.99105 23.6043 5.69771 23.4976C3.69771 22.751 2.48438 21.0176 2.48438 18.0576V11.1909C2.48438 7.08423 4.83103 5.32428 8.35103 5.32428H20.071C23.0577 5.32428 25.2044 6.59094 25.7777 9.48427C25.871 10.0176 25.9377 10.5642 25.9377 11.1909Z" fill="#3D8361"/>
<path d="M29.9379 15.1909V22.0576C29.9379 26.1642 27.5912 27.9242 24.0712 27.9242H12.3512C11.3645 27.9242 10.4712 27.7909 9.69788 27.4976C8.11121 26.9109 7.0312 25.6976 6.64453 23.7509C7.17786 23.8709 7.7512 23.9242 8.3512 23.9242H20.0712C23.5912 23.9242 25.9379 22.1642 25.9379 18.0576V11.1909C25.9379 10.5642 25.8845 10.0043 25.7779 9.48425C28.3112 10.0176 29.9379 11.8042 29.9379 15.1909Z" fill="#3D8361"/>
<path d="M14.2036 18.1509C16.1477 18.1509 17.7236 16.575 17.7236 14.6309C17.7236 12.6869 16.1477 11.1109 14.2036 11.1109C12.2596 11.1109 10.6836 12.6869 10.6836 14.6309C10.6836 16.575 12.2596 18.1509 14.2036 18.1509Z" fill="#3D8361"/>
<path d="M6.57715 11.6309C6.03048 11.6309 5.57715 12.0843 5.57715 12.6309V16.6309C5.57715 17.1776 6.03048 17.6309 6.57715 17.6309C7.12382 17.6309 7.57715 17.1776 7.57715 16.6309V12.6309C7.57715 12.0843 7.13715 11.6309 6.57715 11.6309Z" fill="#3D8361"/>
<path d="M21.8174 11.6309C21.2707 11.6309 20.8174 12.0843 20.8174 12.6309V16.6309C20.8174 17.1776 21.2707 17.6309 21.8174 17.6309C22.3641 17.6309 22.8174 17.1776 22.8174 16.6309V12.6309C22.8174 12.0843 22.3774 11.6309 21.8174 11.6309Z" fill="#3D8361"/>
</svg>
