<svg width="107" height="104" viewBox="0 0 107 104" fill="none" xmlns="http://www.w3.org/2000/svg">
<g filter="url(#filter0_d_10872_19130)">
<path opacity="0.4" d="M83.8268 33.0228V54.4812C83.8268 67.3145 76.4935 72.8144 65.4935 72.8144H28.8685C26.9935 72.8144 25.2018 72.6479 23.5351 72.2729C22.4935 72.1063 21.4935 71.8146 20.5768 71.4813C14.3268 69.1479 10.5352 63.7312 10.5352 54.4812V33.0228C10.5352 20.1894 17.8685 14.6896 28.8685 14.6896H65.4935C74.8268 14.6896 81.5352 18.6479 83.3268 27.6896C83.6185 29.3562 83.8268 31.0644 83.8268 33.0228Z" fill="white"/>
<path d="M96.3268 45.5228V66.9812C96.3268 79.8145 88.9935 85.3144 77.9935 85.3144H41.3685C38.2852 85.3144 35.4935 84.8979 33.0769 83.9813C28.1185 82.1479 24.7435 78.3563 23.5352 72.273C25.2018 72.648 26.9935 72.8144 28.8685 72.8144H65.4935C76.4935 72.8144 83.8268 67.3145 83.8268 54.4812V33.0228C83.8268 31.0644 83.6602 29.3146 83.3268 27.6896C91.2435 29.3562 96.3268 34.9394 96.3268 45.5228Z" fill="white"/>
<path d="M47.1602 54.7728C53.2353 54.7728 58.1603 49.8479 58.1603 43.7728C58.1603 37.6976 53.2353 32.7727 47.1602 32.7727C41.0851 32.7727 36.1602 37.6976 36.1602 43.7728C36.1602 49.8479 41.0851 54.7728 47.1602 54.7728Z" fill="white"/>
<path d="M23.3271 34.3978C21.6188 34.3978 20.2021 35.8145 20.2021 37.5228V50.0228C20.2021 51.7312 21.6188 53.1478 23.3271 53.1478C25.0355 53.1478 26.4521 51.7312 26.4521 50.0228V37.5228C26.4521 35.8145 25.0771 34.3978 23.3271 34.3978Z" fill="white"/>
<path d="M70.9521 34.3978C69.2438 34.3978 67.8271 35.8145 67.8271 37.5228V50.0228C67.8271 51.7312 69.2438 53.1478 70.9521 53.1478C72.6605 53.1478 74.0771 51.7312 74.0771 50.0228V37.5228C74.0771 35.8145 72.7021 34.3978 70.9521 34.3978Z" fill="white"/>
</g>
<defs>
<filter id="filter0_d_10872_19130" x="-6.58984" y="-1.97717" width="120" height="120" filterUnits="userSpaceOnUse" color-interpolation-filters="sRGB">
<feFlood flood-opacity="0" result="BackgroundImageFix"/>
<feColorMatrix in="SourceAlpha" type="matrix" values="0 0 0 0 0 0 0 0 0 0 0 0 0 0 0 0 0 0 127 0" result="hardAlpha"/>
<feOffset dy="8"/>
<feGaussianBlur stdDeviation="5"/>
<feComposite in2="hardAlpha" operator="out"/>
<feColorMatrix type="matrix" values="0 0 0 0 0 0 0 0 0 0 0 0 0 0 0 0 0 0 0.2 0"/>
<feBlend mode="normal" in2="BackgroundImageFix" result="effect1_dropShadow_10872_19130"/>
<feBlend mode="normal" in="SourceGraphic" in2="effect1_dropShadow_10872_19130" result="shape"/>
</filter>
</defs>
</svg>
