<svg width="20" height="20" viewBox="0 0 20 20" fill="none" xmlns="http://www.w3.org/2000/svg">
<path d="M10.0003 18.0417C9.74199 18.0417 9.49199 18.0083 9.28366 17.9333C6.10033 16.8417 1.04199 12.9667 1.04199 7.24167C1.04199 4.325 3.40033 1.95833 6.30033 1.95833C7.70866 1.95833 9.02533 2.50833 10.0003 3.49167C10.9753 2.50833 12.292 1.95833 13.7003 1.95833C16.6003 1.95833 18.9587 4.33333 18.9587 7.24167C18.9587 12.975 13.9003 16.8417 10.717 17.9333C10.5087 18.0083 10.2587 18.0417 10.0003 18.0417ZM6.30033 3.20833C4.09199 3.20833 2.29199 5.01667 2.29199 7.24167C2.29199 12.9333 7.76699 16.1 9.69199 16.7583C9.84199 16.8083 10.167 16.8083 10.317 16.7583C12.2337 16.1 17.717 12.9417 17.717 7.24167C17.717 5.01667 15.917 3.20833 13.7087 3.20833C12.442 3.20833 11.267 3.8 10.5087 4.825C10.2753 5.14167 9.74199 5.14167 9.50866 4.825C8.73366 3.79167 7.56699 3.20833 6.30033 3.20833Z" fill="#3D8361"/>
</svg>
