<svg width="20" height="20" viewBox="0 0 20 20" fill="none" xmlns="http://www.w3.org/2000/svg">
<path d="M15.1587 14.7917H6.28365C5.45865 14.7917 4.66699 14.4417 4.10865 13.8333C3.55032 13.225 3.26699 12.4083 3.33366 11.5833L4.02533 3.28333C4.05033 3.025 3.95865 2.775 3.78365 2.58334C3.60865 2.39167 3.36699 2.29167 3.10866 2.29167H1.66699C1.32533 2.29167 1.04199 2.00833 1.04199 1.66667C1.04199 1.325 1.32533 1.04167 1.66699 1.04167H3.117C3.72533 1.04167 4.30032 1.3 4.70865 1.74166C4.93365 1.99166 5.10032 2.28334 5.19199 2.60834H15.6003C16.442 2.60834 17.217 2.94167 17.7837 3.54167C18.342 4.15 18.6253 4.94167 18.5587 5.78333L18.1087 12.0333C18.017 13.5583 16.6837 14.7917 15.1587 14.7917ZM5.23366 3.85L4.58366 11.6833C4.54199 12.1667 4.70032 12.625 5.02532 12.9833C5.35032 13.3417 5.80032 13.5333 6.28365 13.5333H15.1587C16.0253 13.5333 16.8087 12.8 16.8753 11.9333L17.3253 5.68334C17.3587 5.19167 17.2003 4.72501 16.8753 4.38334C16.5503 4.03334 16.1003 3.84165 15.6087 3.84165H5.23366V3.85Z" fill="#3D8361"/>
<path d="M13.5417 18.9583C12.625 18.9583 11.875 18.2083 11.875 17.2917C11.875 16.375 12.625 15.625 13.5417 15.625C14.4583 15.625 15.2083 16.375 15.2083 17.2917C15.2083 18.2083 14.4583 18.9583 13.5417 18.9583ZM13.5417 16.875C13.3083 16.875 13.125 17.0583 13.125 17.2917C13.125 17.525 13.3083 17.7083 13.5417 17.7083C13.775 17.7083 13.9583 17.525 13.9583 17.2917C13.9583 17.0583 13.775 16.875 13.5417 16.875Z" fill="#3D8361"/>
<path d="M6.87467 18.9583C5.95801 18.9583 5.20801 18.2083 5.20801 17.2917C5.20801 16.375 5.95801 15.625 6.87467 15.625C7.79134 15.625 8.54134 16.375 8.54134 17.2917C8.54134 18.2083 7.79134 18.9583 6.87467 18.9583ZM6.87467 16.875C6.64134 16.875 6.45801 17.0583 6.45801 17.2917C6.45801 17.525 6.64134 17.7083 6.87467 17.7083C7.10801 17.7083 7.29134 17.525 7.29134 17.2917C7.29134 17.0583 7.10801 16.875 6.87467 16.875Z" fill="#3D8361"/>
<path d="M17.5 7.29167H7.5C7.15833 7.29167 6.875 7.00833 6.875 6.66667C6.875 6.325 7.15833 6.04167 7.5 6.04167H17.5C17.8417 6.04167 18.125 6.325 18.125 6.66667C18.125 7.00833 17.8417 7.29167 17.5 7.29167Z" fill="#3D8361"/>
</svg>
