<svg width="33" height="33" viewBox="0 0 33 33" fill="none" xmlns="http://www.w3.org/2000/svg">
<path opacity="0.4" d="M21.7901 3.29755H10.6168C5.76345 3.29755 2.87012 6.19088 2.87012 11.0442V22.2042C2.87012 27.0709 5.76345 29.9642 10.6168 29.9642H21.7768C26.6301 29.9642 29.5235 27.0709 29.5235 22.2175V11.0442C29.5368 6.19088 26.6435 3.29755 21.7901 3.29755Z" fill="#3D8361"/>
<path d="M14.311 21.4043C14.0443 21.4043 13.791 21.2976 13.6043 21.1109L9.83102 17.3376C9.44435 16.9509 9.44435 16.3109 9.83102 15.9243C10.2177 15.5376 10.8577 15.5376 11.2443 15.9243L14.311 18.9909L21.1644 12.1376C21.551 11.7509 22.191 11.7509 22.5777 12.1376C22.9644 12.5243 22.9644 13.1643 22.5777 13.5509L15.0177 21.1109C14.831 21.2976 14.5777 21.4043 14.311 21.4043Z" fill="#3D8361"/>
</svg>
