<svg width="24" height="16" viewBox="0 0 24 16" fill="none" xmlns="http://www.w3.org/2000/svg">
<path d="M3.06551 3.11919C2.59842 4.09827 2.36487 5.00101 2.36487 5.8274C2.36487 6.52803 2.52656 7.0535 2.84993 7.40382C3.18228 7.75413 3.7347 7.92929 4.50719 7.92929H5.66593C6.2408 7.92929 6.67196 7.87989 6.9594 7.78108C7.24684 7.68227 7.43996 7.51161 7.53877 7.26908C7.64656 7.02656 7.70045 6.66726 7.70045 6.19119V1.96045H9.41161V6.19119C9.41161 7.32298 9.10621 8.21673 8.4954 8.87245C7.89358 9.53715 6.95042 9.8695 5.66593 9.8695H4.50719C3.69877 9.8695 3.00712 9.68985 2.43224 9.33055C1.85737 8.97126 1.42172 8.48621 1.1253 7.8754C0.828875 7.26459 0.680664 6.58192 0.680664 5.8274C0.680664 5.27947 0.77498 4.69561 0.963611 4.07582C1.15224 3.45603 1.3768 2.88564 1.6373 2.36466L3.06551 3.11919ZM4.50719 0.720871H6.29919V2.47245H4.50719V0.720871Z" fill="#353535"/>
<path d="M5.70948 15.6362C4.76632 15.6362 4.07018 15.3623 3.62106 14.8143C3.18092 14.2664 2.96085 13.5298 2.96085 12.6046V6.6358H4.672V12.6046C4.672 12.946 4.68997 13.1885 4.7259 13.3322C4.77081 13.4759 4.86064 13.5747 4.99537 13.6286C5.13909 13.6736 5.37713 13.696 5.70948 13.696H6.19453L6.27537 14.6931L6.19453 15.6362H5.70948Z" fill="#353535"/>
<path d="M6.05685 13.696H6.40716C6.58681 13.696 6.72155 13.6556 6.81137 13.5747C6.91018 13.4849 6.98204 13.3412 7.02695 13.1436L7.37727 11.8501C7.57488 11.0686 7.90723 10.4713 8.37432 10.0581C8.84141 9.64492 9.40281 9.43833 10.0585 9.43833C10.5795 9.43833 11.0421 9.58205 11.4463 9.86948C11.8595 10.1479 12.1829 10.5387 12.4164 11.0417C12.65 11.5357 12.7667 12.0926 12.7667 12.7124C12.7667 13.458 12.6455 14.0688 12.403 14.5449C12.1604 15.0119 11.855 15.3533 11.4867 15.5689C11.1274 15.7754 10.7502 15.8787 10.355 15.8787C10.0495 15.8787 9.72618 15.8159 9.38485 15.6901C9.0525 15.5733 8.55397 15.3578 7.88927 15.0434C7.68267 15.232 7.45362 15.3802 7.20211 15.488C6.9506 15.5868 6.6946 15.6362 6.43411 15.6362H6.05685V13.696ZM8.71116 13.4131C9.19621 13.6376 9.55551 13.7903 9.78906 13.8712C10.0226 13.952 10.2337 13.9924 10.4223 13.9924C10.9164 13.9924 11.1634 13.5703 11.1634 12.7259C11.1634 12.2678 11.0646 11.9175 10.867 11.675C10.6693 11.4234 10.4133 11.2977 10.099 11.2977C9.83846 11.2977 9.60941 11.392 9.41179 11.5806C9.21418 11.7693 9.07046 12.0432 8.98064 12.4025L8.71116 13.4131Z" fill="#353535"/>
<path d="M14.6396 13.8037C15.1965 13.8037 15.6187 13.7543 15.9061 13.6555C16.1936 13.5657 16.3912 13.4085 16.499 13.1839C16.6157 12.9683 16.6831 12.6584 16.7011 12.2542H15.5423C14.689 12.2542 14.0108 12.0072 13.5078 11.5132C13.0138 11.0101 12.7668 10.3095 12.7668 9.41127C12.7668 8.77351 12.8835 8.20762 13.1171 7.71358C13.3596 7.21955 13.6875 6.83779 14.1007 6.56832C14.5228 6.28986 14.9989 6.15064 15.5289 6.15064C16.1037 6.15064 16.6068 6.28537 17.0379 6.55485C17.4781 6.82432 17.8149 7.20607 18.0484 7.70011C18.291 8.19414 18.4122 8.76453 18.4122 9.41127V10.314H19.1533L19.2611 11.2976L19.1533 12.2542H18.4122C18.3763 13.3052 18.0529 14.1495 17.4421 14.7873C16.8313 15.425 15.8971 15.7439 14.6396 15.7439H13.0362V13.8037H14.6396ZM14.4105 9.31695C14.4105 9.68523 14.5004 9.9592 14.68 10.1388C14.8597 10.3095 15.1471 10.3948 15.5423 10.3948H16.7011V9.37085C16.7011 8.43667 16.3103 7.96958 15.5289 7.96958C15.1606 7.96958 14.8821 8.09534 14.6935 8.34685C14.5049 8.59835 14.4105 8.92172 14.4105 9.31695Z" fill="#353535"/>
<path d="M18.9991 10.314H20.4947C20.8989 10.314 21.1863 10.2466 21.357 10.1119C21.5276 9.96818 21.604 9.76608 21.586 9.50558C21.5411 8.94867 21.4243 8.20313 21.2357 7.26895L22.8525 6.86474C22.9603 7.34081 23.0591 7.84832 23.149 8.38727C23.2478 8.92621 23.2972 9.36186 23.2972 9.69421C23.2972 10.1433 23.1984 10.561 23.0008 10.9473C22.8031 11.3335 22.5022 11.6479 22.098 11.8904C21.7028 12.1329 21.2133 12.2542 20.6294 12.2542H18.9991V10.314ZM19.3763 3.76579H20.9797V5.36916H19.3763V3.76579ZM21.8959 3.76579H23.5128V5.36916H21.8959V3.76579Z" fill="#353535"/>
</svg>
