<svg width="33" height="33" viewBox="0 0 33 33" fill="none" xmlns="http://www.w3.org/2000/svg">
<path opacity="0.4" d="M21.7636 14.103H10.6435C9.07021 14.103 8.52355 13.0496 9.44355 11.7696L15.0036 3.98296C15.6569 3.04963 16.7502 3.04963 17.4035 3.98296L22.9636 11.7696C23.8836 13.0496 23.3369 14.103 21.7636 14.103Z" fill="#3D8361"/>
<path d="M23.6579 24.6896H8.75121C6.64455 24.6896 5.92454 23.2896 7.16454 21.583L12.4845 14.103H19.9246L25.2445 21.583C26.4845 23.2896 25.7645 24.6896 23.6579 24.6896Z" fill="#3D8361"/>
<path d="M17.2041 24.6896V30.023C17.2041 30.5696 16.7508 31.023 16.2041 31.023C15.6574 31.023 15.2041 30.5696 15.2041 30.023V24.6896H17.2041Z" fill="#3D8361"/>
</svg>
