<svg width="33" height="33" viewBox="0 0 33 33" fill="none" xmlns="http://www.w3.org/2000/svg">
<path opacity="0.4" d="M20.2034 4.6896V16.6896C20.2034 18.1563 19.0035 19.3563 17.5368 19.3563H2.87012V10.8496C3.84345 12.0096 5.33682 12.7296 6.99015 12.6896C8.33682 12.6629 9.55012 12.1429 10.4568 11.2763C10.8701 10.9296 11.2168 10.4896 11.4835 10.0096C11.9635 9.19625 12.2301 8.23623 12.2035 7.23623C12.1635 5.67623 11.4701 4.30293 10.3901 3.35626H18.8701C19.6034 3.35626 20.2034 3.95626 20.2034 4.6896Z" fill="#3D8361"/>
<path d="M29.5368 19.3563V23.3563C29.5368 25.5697 27.7501 27.3563 25.5368 27.3563H24.2035C24.2035 25.8897 23.0035 24.6897 21.5368 24.6897C20.0701 24.6897 18.8701 25.8897 18.8701 27.3563H13.5368C13.5368 25.8897 12.3368 24.6897 10.8701 24.6897C9.40345 24.6897 8.20345 25.8897 8.20345 27.3563H6.87012C4.65678 27.3563 2.87012 25.5697 2.87012 23.3563V19.3563H17.5368C19.0035 19.3563 20.2035 18.1563 20.2035 16.6897V7.35632H22.6568C23.6168 7.35632 24.4968 7.87634 24.9768 8.703L27.2568 12.6897H25.5368C24.8035 12.6897 24.2035 13.2897 24.2035 14.023V18.023C24.2035 18.7563 24.8035 19.3563 25.5368 19.3563H29.5368Z" fill="#3D8361"/>
<path opacity="0.4" d="M10.8708 30.023C12.3435 30.023 13.5374 28.8291 13.5374 27.3563C13.5374 25.8835 12.3435 24.6896 10.8708 24.6896C9.39801 24.6896 8.2041 25.8835 8.2041 27.3563C8.2041 28.8291 9.39801 30.023 10.8708 30.023Z" fill="#3D8361"/>
<path opacity="0.4" d="M21.5368 30.023C23.0095 30.023 24.2034 28.8291 24.2034 27.3563C24.2034 25.8835 23.0095 24.6896 21.5368 24.6896C20.064 24.6896 18.8701 25.8835 18.8701 27.3563C18.8701 28.8291 20.064 30.023 21.5368 30.023Z" fill="#3D8361"/>
<path opacity="0.4" d="M29.5374 17.3963V19.3563H25.5374C24.8041 19.3563 24.2041 18.7563 24.2041 18.023V14.023C24.2041 13.2896 24.8041 12.6896 25.5374 12.6896H27.2574L29.1908 16.0763C29.4174 16.4763 29.5374 16.9297 29.5374 17.3963Z" fill="#3D8361"/>
<path d="M10.391 3.35637C9.43102 2.50304 8.15096 1.99637 6.75096 2.02304C5.49763 2.0497 4.35099 2.51636 3.44432 3.26303C2.24432 4.26303 1.49766 5.79641 1.53766 7.47641C1.56433 8.47641 1.85767 9.40971 2.37767 10.1964C2.52434 10.423 2.68433 10.6497 2.871 10.8497C3.84433 12.0097 5.3377 12.7297 6.99103 12.6897C8.3377 12.663 9.551 12.143 10.4577 11.2764C10.871 10.9297 11.2177 10.4897 11.4844 10.0097C11.9644 9.19636 12.231 8.23633 12.2043 7.23633C12.1643 5.67633 11.471 4.30304 10.391 3.35637ZM9.61766 6.7164L6.83096 9.40967C6.63096 9.59634 6.39101 9.6897 6.13768 9.6897C5.88435 9.6897 5.64432 9.59634 5.44432 9.40967L4.09764 8.12973C3.69764 7.74306 3.68436 7.1164 4.07103 6.7164C4.4577 6.3164 5.08436 6.30304 5.48436 6.6897L6.13768 7.31633L8.23102 5.28972C8.63102 4.90305 9.25769 4.91633 9.64435 5.31633C10.031 5.703 10.0177 6.32973 9.61766 6.7164Z" fill="#3D8361"/>
</svg>
