<svg width="108" height="110" viewBox="0 0 108 110" fill="none" xmlns="http://www.w3.org/2000/svg">
<g filter="url(#filter0_d_10845_26462)">
<path opacity="0.4" d="M68.5094 12.5229V50.0229C68.5094 54.6062 64.7594 58.3562 60.1761 58.3562H14.3428V31.7728C17.3844 35.3978 22.0512 37.6479 27.2179 37.5229C31.4262 37.4395 35.2178 35.8145 38.0511 33.1062C39.3428 32.0229 40.4262 30.6478 41.2595 29.1478C42.7595 26.6062 43.5928 23.6061 43.5094 20.4811C43.3844 15.6061 41.2178 11.3145 37.8428 8.3562H64.3428C66.6344 8.3562 68.5094 10.2312 68.5094 12.5229Z" fill="white"/>
<path d="M97.6761 58.3562V70.8562C97.6761 77.7729 92.0928 83.3562 85.1761 83.3562H81.0094C81.0094 78.7729 77.2594 75.0229 72.6761 75.0229C68.0928 75.0229 64.3428 78.7729 64.3428 83.3562H47.6761C47.6761 78.7729 43.9261 75.0229 39.3428 75.0229C34.7594 75.0229 31.0094 78.7729 31.0094 83.3562H26.8428C19.9261 83.3562 14.3428 77.7729 14.3428 70.8562V58.3562H60.1761C64.7594 58.3562 68.5094 54.6062 68.5094 50.0229V20.8562H76.1762C79.1762 20.8562 81.9262 22.4812 83.4262 25.0646L90.551 37.5229H85.1761C82.8844 37.5229 81.0094 39.3979 81.0094 41.6895V54.1895C81.0094 56.4812 82.8844 58.3562 85.1761 58.3562H97.6761Z" fill="white"/>
<path opacity="0.4" d="M39.3431 91.6895C43.9455 91.6895 47.6764 87.9585 47.6764 83.3562C47.6764 78.7538 43.9455 75.0228 39.3431 75.0228C34.7407 75.0228 31.0098 78.7538 31.0098 83.3562C31.0098 87.9585 34.7407 91.6895 39.3431 91.6895Z" fill="white"/>
<path opacity="0.4" d="M72.6761 91.6895C77.2785 91.6895 81.0094 87.9585 81.0094 83.3562C81.0094 78.7538 77.2785 75.0228 72.6761 75.0228C68.0737 75.0228 64.3428 78.7538 64.3428 83.3562C64.3428 87.9585 68.0737 91.6895 72.6761 91.6895Z" fill="white"/>
<path opacity="0.4" d="M97.6764 52.2313V58.3562H85.1764C82.8848 58.3562 81.0098 56.4812 81.0098 54.1895V41.6895C81.0098 39.3978 82.8848 37.5228 85.1764 37.5228H90.5513L96.5931 48.1061C97.3014 49.3561 97.6764 50.7729 97.6764 52.2313Z" fill="white"/>
<path d="M37.8434 8.3562C34.8434 5.68954 30.8432 4.1062 26.4682 4.18954C22.5515 4.27287 18.9683 5.73117 16.135 8.0645C12.385 11.1895 10.0517 15.9813 10.1767 21.2313C10.26 24.3563 11.1767 27.2729 12.8017 29.7312C13.26 30.4396 13.76 31.1478 14.3433 31.7728C17.385 35.3978 22.0518 37.6479 27.2184 37.5229C31.4268 37.4395 35.2183 35.8145 38.0517 33.1062C39.3433 32.0229 40.4268 30.6478 41.2601 29.1478C42.7601 26.6062 43.5933 23.6061 43.51 20.4811C43.385 15.6061 41.2184 11.3145 37.8434 8.3562ZM35.4266 18.8563L26.7182 27.2728C26.0932 27.8561 25.3434 28.1479 24.5517 28.1479C23.76 28.1479 23.01 27.8561 22.385 27.2728L18.1766 23.2729C16.9266 22.0646 16.8851 20.1063 18.0934 18.8563C19.3018 17.6063 21.2601 17.5645 22.5101 18.7729L24.5517 20.7311L31.0934 14.3979C32.3434 13.1896 34.3017 13.2311 35.5101 14.4811C36.7184 15.6894 36.6766 17.648 35.4266 18.8563Z" fill="white"/>
</g>
<defs>
<filter id="filter0_d_10845_26462" x="-3.99023" y="-1.97717" width="120" height="120" filterUnits="userSpaceOnUse" color-interpolation-filters="sRGB">
<feFlood flood-opacity="0" result="BackgroundImageFix"/>
<feColorMatrix in="SourceAlpha" type="matrix" values="0 0 0 0 0 0 0 0 0 0 0 0 0 0 0 0 0 0 127 0" result="hardAlpha"/>
<feOffset dy="8"/>
<feGaussianBlur stdDeviation="5"/>
<feComposite in2="hardAlpha" operator="out"/>
<feColorMatrix type="matrix" values="0 0 0 0 0 0 0 0 0 0 0 0 0 0 0 0 0 0 0.2 0"/>
<feBlend mode="normal" in2="BackgroundImageFix" result="effect1_dropShadow_10845_26462"/>
<feBlend mode="normal" in="SourceGraphic" in2="effect1_dropShadow_10845_26462" result="shape"/>
</filter>
</defs>
</svg>
